999
dxflib 3.7.5.0
  0
SECTION
  2
HEADER
  9
$ACADVER
  1
AC1015
  9
$HANDSEED
  5
FFFF
  9
$DIMADEC
 70
0
  9
$DIMASZ
 40
2.5
  9
$DIMAUNIT
 70
0
  9
$DIMAZIN
 70
2
  9
$DIMDEC
 70
1
  9
$DIMEXE
 40
1.25
  9
$DIMEXO
 40
0.625
  9
$DIMGAP
 40
0.625
  9
$DIMLUNIT
 70
2
  9
$DIMSCALE
 40
1
  9
$DIMTSZ
 40
2.5
  9
$DIMTXT
 40
2.5
  9
$DIMZIN
 70
8
  9
$DWGCODEPAGE
  3
ANSI_1252
  9
$INSUNITS
 70
4
  9
$PDMODE
 70
0
  9
$PDSIZE
 40
0
  0
ENDSEC
  0
SECTION
  2
TABLES
  0
TABLE
  2
VPORT
  5
8
100
AcDbSymbolTable
 70
1
  0
VPORT
  5
30
100
AcDbSymbolTableRecord
100
AcDbViewportTableRecord
  2
*Active
 70
0
 10
0.0
 20
0.0
 11
1.0
 21
1.0
 12
286.3055555555554861
 22
148.5
 13
0.0
 23
0.0
 14
10.0
 24
10.0
 15
10.0
 25
10.0
 16
0.0
 26
0.0
 36
1.0
 17
0.0
 27
0.0
 37
0.0
 40
297.0
 41
1.92798353909465
 42
50.0
 43
0.0
 44
0.0
 50
0.0
 51
0.0
 71
0
 72
100
 73
1
 74
3
 75
1
 76
1
 77
0
 78
0
281
0
 65
1
110
0.0
120
0.0
130
0.0
111
1.0
121
0.0
131
0.0
112
0.0
122
1.0
132
0.0
 79
0
146
0.0
  0
ENDTAB
  0
TABLE
  2
LTYPE
  5
5
100
AcDbSymbolTable
 70
41
  0
LTYPE
  5
16
100
AcDbSymbolTableRecord
100
AcDbLinetypeTableRecord
  2
Continuous
 70
0
  3
Solid line
 72
65
 73
0
 40
0.0
  0
LTYPE
  5
31
100
AcDbSymbolTableRecord
100
AcDbLinetypeTableRecord
  2
ACAD_ISO15W100
 70
0
  3
ISO double-dash triple-dot __ __ . . . __ __ . .
 72
65
 73
10
 40
39.0
 49
12.0
 74
0
 49
-3.0
 74
0
 49
12.0
 74
0
 49
-3.0
 74
0
 49
0.0
 74
0
 49
-3.0
 74
0
 49
0.0
 74
0
 49
-3.0
 74
0
 49
0.0
 74
0
 49
-3.0
 74
0
  0
LTYPE
  5
32
100
AcDbSymbolTableRecord
100
AcDbLinetypeTableRecord
  2
DIVIDE
 70
0
  3
Divide ____ . . ____ . . ____ . . ____ . . ____
 72
65
 73
6
 40
31.75
 49
12.6999999999999993
 74
0
 49
-6.3499999999999996
 74
0
 49
0.0
 74
0
 49
-6.3499999999999996
 74
0
 49
0.0
 74
0
 49
-6.3499999999999996
 74
0
  0
LTYPE
  5
33
100
AcDbSymbolTableRecord
100
AcDbLinetypeTableRecord
  2
ACAD_ISO10W100
 70
0
  3
ISO dash dot __ . __ . __ . __ . __ . __ . __ . 
 72
65
 73
4
 40
18.0
 49
12.0
 74
0
 49
-3.0
 74
0
 49
0.0
 74
0
 49
-3.0
 74
0
  0
LTYPE
  5
34
100
AcDbSymbolTableRecord
100
AcDbLinetypeTableRecord
  2
ACAD_ISO04W100
 70
0
  3
ISO long-dash dot ____ . ____ . ____ . ____ . _
 72
65
 73
4
 40
30.0
 49
24.0
 74
0
 49
-3.0
 74
0
 49
0.0
 74
0
 49
-3.0
 74
0
  0
LTYPE
  5
35
100
AcDbSymbolTableRecord
100
AcDbLinetypeTableRecord
  2
CENTER2
 70
0
  3
Center (.5x) ___ _ ___ _ ___ _ ___ _ ___ _ ___
 72
65
 73
4
 40
28.5750000000000028
 49
19.0500000000000007
 74
0
 49
-3.1749999999999998
 74
0
 49
3.1749999999999998
 74
0
 49
-3.1749999999999998
 74
0
  0
LTYPE
  5
36
100
AcDbSymbolTableRecord
100
AcDbLinetypeTableRecord
  2
ACAD_ISO11W100
 70
0
  3
ISO double-dash dot __ __ . __ __ . __ __ . __ _
 72
65
 73
6
 40
33.0
 49
12.0
 74
0
 49
-3.0
 74
0
 49
12.0
 74
0
 49
-3.0
 74
0
 49
0.0
 74
0
 49
-3.0
 74
0
  0
LTYPE
  5
37
100
AcDbSymbolTableRecord
100
AcDbLinetypeTableRecord
  2
HIDDEN2
 70
0
  3
Hidden (.5x) _ _ _ _ _ _ _ _ _ _ _ _ _ _ _ _ _ 
 72
65
 73
2
 40
4.7624999999999993
 49
3.1749999999999998
 74
0
 49
-1.5874999999999999
 74
0
  0
LTYPE
  5
38
100
AcDbSymbolTableRecord
100
AcDbLinetypeTableRecord
  2
BORDERX2
 70
0
  3
Border (2x) ____  ____  .  ____  ____  .  ___
 72
65
 73
6
 40
88.8999999999999915
 49
25.3999999999999986
 74
0
 49
-12.6999999999999993
 74
0
 49
25.3999999999999986
 74
0
 49
-12.6999999999999993
 74
0
 49
0.0
 74
0
 49
-12.6999999999999993
 74
0
  0
LTYPE
  5
39
100
AcDbSymbolTableRecord
100
AcDbLinetypeTableRecord
  2
ACAD_ISO05W100
 70
0
  3
ISO long-dash double-dot ____ .. ____ .. ____ . 
 72
65
 73
6
 40
33.0
 49
24.0
 74
0
 49
-3.0
 74
0
 49
0.0
 74
0
 49
-3.0
 74
0
 49
0.0
 74
0
 49
-3.0
 74
0
  0
LTYPE
  5
3A
100
AcDbSymbolTableRecord
100
AcDbLinetypeTableRecord
  2
DASHDOTX2
 70
0
  3
Dash dot (2x) ____  .  ____  .  ____  .  ___
 72
65
 73
4
 40
50.7999999999999972
 49
25.3999999999999986
 74
0
 49
-12.6999999999999993
 74
0
 49
0.0
 74
0
 49
-12.6999999999999993
 74
0
  0
LTYPE
  5
3B
100
AcDbSymbolTableRecord
100
AcDbLinetypeTableRecord
  2
HIDDENX2
 70
0
  3
Hidden (2x) ____ ____ ____ ____ ____ ____ ____ 
 72
65
 73
2
 40
19.0499999999999972
 49
12.6999999999999993
 74
0
 49
-6.3499999999999996
 74
0
  0
LTYPE
  5
3C
100
AcDbSymbolTableRecord
100
AcDbLinetypeTableRecord
  2
CENTERX2
 70
0
  3
Center (2x) ________  __  ________  __  _____
 72
65
 73
4
 40
101.6000000000000085
 49
63.5
 74
0
 49
-12.6999999999999993
 74
0
 49
12.6999999999999993
 74
0
 49
-12.6999999999999993
 74
0
  0
LTYPE
  5
3D
100
AcDbSymbolTableRecord
100
AcDbLinetypeTableRecord
  2
BORDER2
 70
0
  3
Border (.5x) __.__.__.__.__.__.__.__.__.__.__.
 72
65
 73
6
 40
22.2249999999999979
 49
6.3499999999999996
 74
0
 49
-3.1749999999999998
 74
0
 49
6.3499999999999996
 74
0
 49
-3.1749999999999998
 74
0
 49
0.0
 74
0
 49
-3.1749999999999998
 74
0
  0
LTYPE
  5
3E
100
AcDbSymbolTableRecord
100
AcDbLinetypeTableRecord
  2
DASHDOT2
 70
0
  3
Dash dot (.5x) _._._._._._._._._._._._._._._.
 72
65
 73
4
 40
12.6999999999999993
 49
6.3499999999999996
 74
0
 49
-3.1749999999999998
 74
0
 49
0.0
 74
0
 49
-3.1749999999999998
 74
0
  0
LTYPE
  5
3F
100
AcDbSymbolTableRecord
100
AcDbLinetypeTableRecord
  2
ACAD_ISO12W100
 70
0
  3
ISO dash double-dot __ . . __ . . __ . . __ . . 
 72
65
 73
6
 40
21.0
 49
12.0
 74
0
 49
-3.0
 74
0
 49
0.0
 74
0
 49
-3.0
 74
0
 49
0.0
 74
0
 49
-3.0
 74
0
  0
LTYPE
  5
40
100
AcDbSymbolTableRecord
100
AcDbLinetypeTableRecord
  2
ACAD_ISO07W100
 70
0
  3
ISO dot . . . . . . . . . . . . . . . . . . . . 
 72
65
 73
2
 40
3.0
 49
0.0
 74
0
 49
-3.0
 74
0
  0
LTYPE
  5
41
100
AcDbSymbolTableRecord
100
AcDbLinetypeTableRecord
  2
HIDDEN
 70
0
  3
Hidden __ __ __ __ __ __ __ __ __ __ __ __ __ __
 72
65
 73
2
 40
9.5249999999999986
 49
6.3499999999999996
 74
0
 49
-3.1749999999999998
 74
0
  0
LTYPE
  5
42
100
AcDbSymbolTableRecord
100
AcDbLinetypeTableRecord
  2
ACAD_ISO06W100
 70
0
  3
ISO long-dash triple-dot ____ ... ____ ... ____
 72
65
 73
8
 40
36.0
 49
24.0
 74
0
 49
-3.0
 74
0
 49
0.0
 74
0
 49
-3.0
 74
0
 49
0.0
 74
0
 49
-3.0
 74
0
 49
0.0
 74
0
 49
-3.0
 74
0
  0
LTYPE
  5
43
100
AcDbSymbolTableRecord
100
AcDbLinetypeTableRecord
  2
CENTER
 70
0
  3
Center ____ _ ____ _ ____ _ ____ _ ____ _ ____
 72
65
 73
4
 40
50.8000000000000043
 49
31.75
 74
0
 49
-6.3499999999999996
 74
0
 49
6.3499999999999996
 74
0
 49
-6.3499999999999996
 74
0
  0
LTYPE
  5
44
100
AcDbSymbolTableRecord
100
AcDbLinetypeTableRecord
  2
DOTX2
 70
0
  3
Dot (2x) .  .  .  .  .  .  .  .  .  .  .  .  .  .
 72
65
 73
2
 40
12.6999999999999993
 49
0.0
 74
0
 49
-12.6999999999999993
 74
0
  0
LTYPE
  5
45
100
AcDbSymbolTableRecord
100
AcDbLinetypeTableRecord
  2
PHANTOM
 70
0
  3
Phantom ______  __  __  ______  __  __  ______ 
 72
65
 73
6
 40
63.5000000000000071
 49
31.75
 74
0
 49
-6.3499999999999996
 74
0
 49
6.3499999999999996
 74
0
 49
-6.3499999999999996
 74
0
 49
6.3499999999999996
 74
0
 49
-6.3499999999999996
 74
0
  0
LTYPE
  5
46
100
AcDbSymbolTableRecord
100
AcDbLinetypeTableRecord
  2
ACAD_ISO08W100
 70
0
  3
ISO long-dash short-dash ____ __ ____ __ ____ _
 72
65
 73
4
 40
36.0
 49
24.0
 74
0
 49
-3.0
 74
0
 49
6.0
 74
0
 49
-3.0
 74
0
  0
LTYPE
  5
47
100
AcDbSymbolTableRecord
100
AcDbLinetypeTableRecord
  2
DASHEDX2
 70
0
  3
Dashed (2x) ____  ____  ____  ____  ____  ___
 72
65
 73
2
 40
38.0999999999999943
 49
25.3999999999999986
 74
0
 49
-12.6999999999999993
 74
0
  0
LTYPE
  5
48
100
AcDbSymbolTableRecord
100
AcDbLinetypeTableRecord
  2
ACAD_ISO02W100
 70
0
  3
ISO dash __ __ __ __ __ __ __ __ __ __ __ __ __
 72
65
 73
2
 40
15.0
 49
12.0
 74
0
 49
-3.0
 74
0
  0
LTYPE
  5
49
100
AcDbSymbolTableRecord
100
AcDbLinetypeTableRecord
  2
PHANTOM2
 70
0
  3
Phantom (.5x) ___ _ _ ___ _ _ ___ _ _ ___ _ _
 72
65
 73
6
 40
31.7500000000000036
 49
15.875
 74
0
 49
-3.1749999999999998
 74
0
 49
3.1749999999999998
 74
0
 49
-3.1749999999999998
 74
0
 49
3.1749999999999998
 74
0
 49
-3.1749999999999998
 74
0
  0
LTYPE
  5
4A
100
AcDbSymbolTableRecord
100
AcDbLinetypeTableRecord
  2
DASHED2
 70
0
  3
Dashed (.5x) _ _ _ _ _ _ _ _ _ _ _ _ _ _ _ _ _ 
 72
65
 73
2
 40
9.5249999999999986
 49
6.3499999999999996
 74
0
 49
-3.1749999999999998
 74
0
  0
LTYPE
  5
4B
100
AcDbSymbolTableRecord
100
AcDbLinetypeTableRecord
  2
ACAD_ISO09W100
 70
0
  3
ISO long-dash double-short-dash ____ __ __ ____
 72
65
 73
6
 40
45.0
 49
24.0
 74
0
 49
-3.0
 74
0
 49
6.0
 74
0
 49
-3.0
 74
0
 49
6.0
 74
0
 49
-3.0
 74
0
  0
LTYPE
  5
4C
100
AcDbSymbolTableRecord
100
AcDbLinetypeTableRecord
  2
ACAD_ISO13W100
 70
0
  3
ISO double-dash double-dot __ __ . . __ __ . . _
 72
65
 73
8
 40
36.0
 49
12.0
 74
0
 49
-3.0
 74
0
 49
12.0
 74
0
 49
-3.0
 74
0
 49
0.0
 74
0
 49
-3.0
 74
0
 49
0.0
 74
0
 49
-3.0
 74
0
  0
LTYPE
  5
4D
100
AcDbSymbolTableRecord
100
AcDbLinetypeTableRecord
  2
DOT2
 70
0
  3
Dot (.5x) ........................................
 72
65
 73
2
 40
3.1749999999999998
 49
0.0
 74
0
 49
-3.1749999999999998
 74
0
  0
LTYPE
  5
4E
100
AcDbSymbolTableRecord
100
AcDbLinetypeTableRecord
  2
DASHED
 70
0
  3
Dashed __ __ __ __ __ __ __ __ __ __ __ __ __ _
 72
65
 73
2
 40
19.0499999999999972
 49
12.6999999999999993
 74
0
 49
-6.3499999999999996
 74
0
  0
LTYPE
  5
4F
100
AcDbSymbolTableRecord
100
AcDbLinetypeTableRecord
  2
ACAD_ISO14W100
 70
0
  3
ISO dash triple-dot __ . . . __ . . . __ . . . _
 72
65
 73
8
 40
24.0
 49
12.0
 74
0
 49
-3.0
 74
0
 49
0.0
 74
0
 49
-3.0
 74
0
 49
0.0
 74
0
 49
-3.0
 74
0
 49
0.0
 74
0
 49
-3.0
 74
0
  0
LTYPE
  5
15
100
AcDbSymbolTableRecord
100
AcDbLinetypeTableRecord
  2
BYLAYER
 70
0
  3

 72
65
 73
0
 40
0.0
  0
LTYPE
  5
50
100
AcDbSymbolTableRecord
100
AcDbLinetypeTableRecord
  2
PHANTOMX2
 70
0
  3
Phantom (2x) ____________    ____    ____   _
 72
65
 73
6
 40
127.0000000000000142
 49
63.5
 74
0
 49
-12.6999999999999993
 74
0
 49
12.6999999999999993
 74
0
 49
-12.6999999999999993
 74
0
 49
12.6999999999999993
 74
0
 49
-12.6999999999999993
 74
0
  0
LTYPE
  5
14
100
AcDbSymbolTableRecord
100
AcDbLinetypeTableRecord
  2
BYBLOCK
 70
0
  3

 72
65
 73
0
 40
0.0
  0
LTYPE
  5
51
100
AcDbSymbolTableRecord
100
AcDbLinetypeTableRecord
  2
DIVIDEX2
 70
0
  3
Divide (2x) ________  .  .  ________  .  .  _
 72
65
 73
6
 40
63.5
 49
25.3999999999999986
 74
0
 49
-12.6999999999999993
 74
0
 49
0.0
 74
0
 49
-12.6999999999999993
 74
0
 49
0.0
 74
0
 49
-12.6999999999999993
 74
0
  0
LTYPE
  5
52
100
AcDbSymbolTableRecord
100
AcDbLinetypeTableRecord
  2
BORDER
 70
0
  3
Border __ __ . __ __ . __ __ . __ __ . __ __ .
 72
65
 73
6
 40
44.4499999999999957
 49
12.6999999999999993
 74
0
 49
-6.3499999999999996
 74
0
 49
12.6999999999999993
 74
0
 49
-6.3499999999999996
 74
0
 49
0.0
 74
0
 49
-6.3499999999999996
 74
0
  0
LTYPE
  5
53
100
AcDbSymbolTableRecord
100
AcDbLinetypeTableRecord
  2
DIVIDE2
 70
0
  3
Divide (.5x) __..__..__..__..__..__..__..__.._
 72
65
 73
6
 40
15.875
 49
6.3499999999999996
 74
0
 49
-3.1749999999999998
 74
0
 49
0.0
 74
0
 49
-3.1749999999999998
 74
0
 49
0.0
 74
0
 49
-3.1749999999999998
 74
0
  0
LTYPE
  5
54
100
AcDbSymbolTableRecord
100
AcDbLinetypeTableRecord
  2
DOT
 70
0
  3
Dot . . . . . . . . . . . . . . . . . . . . . . . .
 72
65
 73
2
 40
6.3499999999999996
 49
0.0
 74
0
 49
-6.3499999999999996
 74
0
  0
LTYPE
  5
55
100
AcDbSymbolTableRecord
100
AcDbLinetypeTableRecord
  2
DASHDOT
 70
0
  3
Dash dot __ . __ . __ . __ . __ . __ . __ . __
 72
65
 73
4
 40
25.3999999999999986
 49
12.6999999999999993
 74
0
 49
-6.3499999999999996
 74
0
 49
0.0
 74
0
 49
-6.3499999999999996
 74
0
  0
LTYPE
  5
56
100
AcDbSymbolTableRecord
100
AcDbLinetypeTableRecord
  2
ACAD_ISO03W100
 70
0
  3
ISO dash space __    __    __    __    __    __
 72
65
 73
2
 40
30.0
 49
12.0
 74
0
 49
-18.0
 74
0
  0
ENDTAB
  0
TABLE
  2
LAYER
  5
2
100
AcDbSymbolTable
 70
1
  0
LAYER
  5
10
100
AcDbSymbolTableRecord
100
AcDbLayerTableRecord
  2
0
 70
0
 62
7
420
0
  6
Continuous
370
25
390
F
  0
ENDTAB
  0
TABLE
  2
STYLE
  5
3
100
AcDbSymbolTable
 70
143
  0
STYLE
  5
57
100
AcDbSymbolTableRecord
100
AcDbTextStyleTableRecord
  2
Standard
 70
0
 40
0.0
 41
1.0
 50
0.0
 71
0
 42
2.5
  3

  4

1001
ACAD
1000
txt
1071
0
  0
STYLE
  5
58
100
AcDbSymbolTableRecord
100
AcDbTextStyleTableRecord
  2
textstyle0
 70
0
 40
0.0
 41
1.0
 50
0.0
 71
0
 42
1.0
  3

  4

1001
ACAD
1000
Arial
1071
0
  0
STYLE
  5
59
100
AcDbSymbolTableRecord
100
AcDbTextStyleTableRecord
  2
textstyle1
 70
0
 40
0.0
 41
1.0
 50
0.0
 71
0
 42
0.8
  3

  4

1001
ACAD
1000
Arial
1071
0
  0
STYLE
  5
5A
100
AcDbSymbolTableRecord
100
AcDbTextStyleTableRecord
  2
textstyle2
 70
0
 40
0.0
 41
1.0
 50
0.0
 71
0
 42
0.8
  3

  4

1001
ACAD
1000
Arial
1071
0
  0
STYLE
  5
5B
100
AcDbSymbolTableRecord
100
AcDbTextStyleTableRecord
  2
textstyle3
 70
0
 40
0.0
 41
1.0
 50
0.0
 71
0
 42
0.8
  3

  4

1001
ACAD
1000
Arial
1071
0
  0
STYLE
  5
5C
100
AcDbSymbolTableRecord
100
AcDbTextStyleTableRecord
  2
textstyle4
 70
0
 40
0.0
 41
1.0
 50
0.0
 71
0
 42
1.0
  3

  4

1001
ACAD
1000
Arial
1071
0
  0
STYLE
  5
5D
100
AcDbSymbolTableRecord
100
AcDbTextStyleTableRecord
  2
textstyle5
 70
0
 40
0.0
 41
1.0
 50
0.0
 71
0
 42
1.0
  3

  4

1001
ACAD
1000
Arial
1071
0
  0
STYLE
  5
5E
100
AcDbSymbolTableRecord
100
AcDbTextStyleTableRecord
  2
textstyle6
 70
0
 40
0.0
 41
1.0
 50
0.0
 71
0
 42
0.8
  3

  4

1001
ACAD
1000
Arial
1071
0
  0
STYLE
  5
5F
100
AcDbSymbolTableRecord
100
AcDbTextStyleTableRecord
  2
textstyle7
 70
0
 40
0.0
 41
1.0
 50
0.0
 71
0
 42
0.8
  3

  4

1001
ACAD
1000
Arial
1071
0
  0
STYLE
  5
60
100
AcDbSymbolTableRecord
100
AcDbTextStyleTableRecord
  2
textstyle8
 70
0
 40
0.0
 41
1.0
 50
0.0
 71
0
 42
0.8
  3

  4

1001
ACAD
1000
Arial
1071
0
  0
STYLE
  5
61
100
AcDbSymbolTableRecord
100
AcDbTextStyleTableRecord
  2
textstyle9
 70
0
 40
0.0
 41
1.0
 50
0.0
 71
0
 42
1.0
  3

  4

1001
ACAD
1000
Arial
1071
0
  0
STYLE
  5
62
100
AcDbSymbolTableRecord
100
AcDbTextStyleTableRecord
  2
textstyle10
 70
0
 40
0.0
 41
1.0
 50
0.0
 71
0
 42
1.0
  3

  4

1001
ACAD
1000
Arial
1071
0
  0
STYLE
  5
63
100
AcDbSymbolTableRecord
100
AcDbTextStyleTableRecord
  2
textstyle11
 70
0
 40
0.0
 41
1.0
 50
0.0
 71
0
 42
0.8
  3

  4

1001
ACAD
1000
Arial
1071
0
  0
STYLE
  5
64
100
AcDbSymbolTableRecord
100
AcDbTextStyleTableRecord
  2
textstyle12
 70
0
 40
0.0
 41
1.0
 50
0.0
 71
0
 42
0.8
  3

  4

1001
ACAD
1000
Arial
1071
0
  0
STYLE
  5
65
100
AcDbSymbolTableRecord
100
AcDbTextStyleTableRecord
  2
textstyle13
 70
0
 40
0.0
 41
1.0
 50
0.0
 71
0
 42
1.0
  3

  4

1001
ACAD
1000
Arial
1071
0
  0
STYLE
  5
66
100
AcDbSymbolTableRecord
100
AcDbTextStyleTableRecord
  2
textstyle14
 70
0
 40
0.0
 41
1.0
 50
0.0
 71
0
 42
1.0
  3

  4

1001
ACAD
1000
Arial
1071
0
  0
STYLE
  5
67
100
AcDbSymbolTableRecord
100
AcDbTextStyleTableRecord
  2
textstyle15
 70
0
 40
0.0
 41
1.0
 50
0.0
 71
0
 42
1.0
  3

  4

1001
ACAD
1000
Arial
1071
0
  0
STYLE
  5
68
100
AcDbSymbolTableRecord
100
AcDbTextStyleTableRecord
  2
textstyle16
 70
0
 40
0.0
 41
1.0
 50
0.0
 71
0
 42
0.8
  3

  4

1001
ACAD
1000
Arial
1071
0
  0
STYLE
  5
69
100
AcDbSymbolTableRecord
100
AcDbTextStyleTableRecord
  2
textstyle17
 70
0
 40
0.0
 41
1.0
 50
0.0
 71
0
 42
0.8
  3

  4

1001
ACAD
1000
Arial
1071
0
  0
STYLE
  5
6A
100
AcDbSymbolTableRecord
100
AcDbTextStyleTableRecord
  2
textstyle18
 70
0
 40
0.0
 41
1.0
 50
0.0
 71
0
 42
1.0
  3

  4

1001
ACAD
1000
Arial
1071
0
  0
STYLE
  5
6B
100
AcDbSymbolTableRecord
100
AcDbTextStyleTableRecord
  2
textstyle19
 70
0
 40
0.0
 41
1.0
 50
0.0
 71
0
 42
1.0
  3

  4

1001
ACAD
1000
Arial
1071
0
  0
STYLE
  5
6C
100
AcDbSymbolTableRecord
100
AcDbTextStyleTableRecord
  2
textstyle20
 70
0
 40
0.0
 41
1.0
 50
0.0
 71
0
 42
1.6000000000000001
  3

  4

1001
ACAD
1000
Arial
1071
0
  0
STYLE
  5
6D
100
AcDbSymbolTableRecord
100
AcDbTextStyleTableRecord
  2
textstyle21
 70
0
 40
0.0
 41
1.0
 50
0.0
 71
0
 42
1.6000000000000001
  3

  4

1001
ACAD
1000
Arial
1071
0
  0
STYLE
  5
6E
100
AcDbSymbolTableRecord
100
AcDbTextStyleTableRecord
  2
textstyle22
 70
0
 40
0.0
 41
1.0
 50
0.0
 71
0
 42
1.0
  3

  4

1001
ACAD
1000
Arial
1071
0
  0
STYLE
  5
6F
100
AcDbSymbolTableRecord
100
AcDbTextStyleTableRecord
  2
textstyle23
 70
0
 40
0.0
 41
1.0
 50
0.0
 71
0
 42
0.8
  3

  4

1001
ACAD
1000
Arial
1071
0
  0
STYLE
  5
70
100
AcDbSymbolTableRecord
100
AcDbTextStyleTableRecord
  2
textstyle24
 70
0
 40
0.0
 41
1.0
 50
0.0
 71
0
 42
0.8
  3

  4

1001
ACAD
1000
Arial
1071
0
  0
STYLE
  5
71
100
AcDbSymbolTableRecord
100
AcDbTextStyleTableRecord
  2
textstyle25
 70
0
 40
0.0
 41
1.0
 50
0.0
 71
0
 42
0.8
  3

  4

1001
ACAD
1000
Arial
1071
0
  0
STYLE
  5
72
100
AcDbSymbolTableRecord
100
AcDbTextStyleTableRecord
  2
textstyle26
 70
0
 40
0.0
 41
1.0
 50
0.0
 71
0
 42
1.0
  3

  4

1001
ACAD
1000
Arial
1071
0
  0
STYLE
  5
73
100
AcDbSymbolTableRecord
100
AcDbTextStyleTableRecord
  2
textstyle27
 70
0
 40
0.0
 41
1.0
 50
0.0
 71
0
 42
1.0
  3

  4

1001
ACAD
1000
Arial
1071
0
  0
STYLE
  5
74
100
AcDbSymbolTableRecord
100
AcDbTextStyleTableRecord
  2
textstyle28
 70
0
 40
0.0
 41
1.0
 50
0.0
 71
0
 42
0.8
  3

  4

1001
ACAD
1000
Arial
1071
0
  0
STYLE
  5
75
100
AcDbSymbolTableRecord
100
AcDbTextStyleTableRecord
  2
textstyle29
 70
0
 40
0.0
 41
1.0
 50
0.0
 71
0
 42
0.8
  3

  4

1001
ACAD
1000
Arial
1071
0
  0
STYLE
  5
76
100
AcDbSymbolTableRecord
100
AcDbTextStyleTableRecord
  2
textstyle30
 70
0
 40
0.0
 41
1.0
 50
0.0
 71
0
 42
1.0
  3

  4

1001
ACAD
1000
Arial
1071
0
  0
STYLE
  5
77
100
AcDbSymbolTableRecord
100
AcDbTextStyleTableRecord
  2
textstyle31
 70
0
 40
0.0
 41
1.0
 50
0.0
 71
0
 42
1.0
  3

  4

1001
ACAD
1000
Arial
1071
0
  0
STYLE
  5
78
100
AcDbSymbolTableRecord
100
AcDbTextStyleTableRecord
  2
textstyle32
 70
0
 40
0.0
 41
1.0
 50
0.0
 71
0
 42
1.0
  3

  4

1001
ACAD
1000
Arial
1071
0
  0
STYLE
  5
79
100
AcDbSymbolTableRecord
100
AcDbTextStyleTableRecord
  2
textstyle33
 70
0
 40
0.0
 41
1.0
 50
0.0
 71
0
 42
0.8
  3

  4

1001
ACAD
1000
Arial
1071
0
  0
STYLE
  5
7A
100
AcDbSymbolTableRecord
100
AcDbTextStyleTableRecord
  2
textstyle34
 70
0
 40
0.0
 41
1.0
 50
0.0
 71
0
 42
0.8
  3

  4

1001
ACAD
1000
Arial
1071
0
  0
STYLE
  5
7B
100
AcDbSymbolTableRecord
100
AcDbTextStyleTableRecord
  2
textstyle35
 70
0
 40
0.0
 41
1.0
 50
0.0
 71
0
 42
1.0
  3

  4

1001
ACAD
1000
Arial
1071
0
  0
STYLE
  5
7C
100
AcDbSymbolTableRecord
100
AcDbTextStyleTableRecord
  2
textstyle36
 70
0
 40
0.0
 41
1.0
 50
0.0
 71
0
 42
1.0
  3

  4

1001
ACAD
1000
Arial
1071
0
  0
STYLE
  5
7D
100
AcDbSymbolTableRecord
100
AcDbTextStyleTableRecord
  2
textstyle37
 70
0
 40
0.0
 41
1.0
 50
0.0
 71
0
 42
1.6000000000000001
  3

  4

1001
ACAD
1000
Arial
1071
0
  0
STYLE
  5
7E
100
AcDbSymbolTableRecord
100
AcDbTextStyleTableRecord
  2
textstyle38
 70
0
 40
0.0
 41
1.0
 50
0.0
 71
0
 42
1.6000000000000001
  3

  4

1001
ACAD
1000
Arial
1071
0
  0
STYLE
  5
7F
100
AcDbSymbolTableRecord
100
AcDbTextStyleTableRecord
  2
textstyle39
 70
0
 40
0.0
 41
1.0
 50
0.0
 71
0
 42
1.0
  3

  4

1001
ACAD
1000
Arial
1071
0
  0
STYLE
  5
80
100
AcDbSymbolTableRecord
100
AcDbTextStyleTableRecord
  2
textstyle40
 70
0
 40
0.0
 41
1.0
 50
0.0
 71
0
 42
0.8
  3

  4

1001
ACAD
1000
Arial
1071
0
  0
STYLE
  5
81
100
AcDbSymbolTableRecord
100
AcDbTextStyleTableRecord
  2
textstyle41
 70
0
 40
0.0
 41
1.0
 50
0.0
 71
0
 42
0.8
  3

  4

1001
ACAD
1000
Arial
1071
0
  0
STYLE
  5
82
100
AcDbSymbolTableRecord
100
AcDbTextStyleTableRecord
  2
textstyle42
 70
0
 40
0.0
 41
1.0
 50
0.0
 71
0
 42
0.8
  3

  4

1001
ACAD
1000
Arial
1071
0
  0
STYLE
  5
83
100
AcDbSymbolTableRecord
100
AcDbTextStyleTableRecord
  2
textstyle43
 70
0
 40
0.0
 41
1.0
 50
0.0
 71
0
 42
1.0
  3

  4

1001
ACAD
1000
Arial
1071
0
  0
STYLE
  5
84
100
AcDbSymbolTableRecord
100
AcDbTextStyleTableRecord
  2
textstyle44
 70
0
 40
0.0
 41
1.0
 50
0.0
 71
0
 42
1.0
  3

  4

1001
ACAD
1000
Arial
1071
0
  0
STYLE
  5
85
100
AcDbSymbolTableRecord
100
AcDbTextStyleTableRecord
  2
textstyle45
 70
0
 40
0.0
 41
1.0
 50
0.0
 71
0
 42
0.8
  3

  4

1001
ACAD
1000
Arial
1071
0
  0
STYLE
  5
86
100
AcDbSymbolTableRecord
100
AcDbTextStyleTableRecord
  2
textstyle46
 70
0
 40
0.0
 41
1.0
 50
0.0
 71
0
 42
0.8
  3

  4

1001
ACAD
1000
Arial
1071
0
  0
STYLE
  5
87
100
AcDbSymbolTableRecord
100
AcDbTextStyleTableRecord
  2
textstyle47
 70
0
 40
0.0
 41
1.0
 50
0.0
 71
0
 42
1.0
  3

  4

1001
ACAD
1000
Arial
1071
0
  0
STYLE
  5
88
100
AcDbSymbolTableRecord
100
AcDbTextStyleTableRecord
  2
textstyle48
 70
0
 40
0.0
 41
1.0
 50
0.0
 71
0
 42
1.0
  3

  4

1001
ACAD
1000
Arial
1071
0
  0
STYLE
  5
89
100
AcDbSymbolTableRecord
100
AcDbTextStyleTableRecord
  2
textstyle49
 70
0
 40
0.0
 41
1.0
 50
0.0
 71
0
 42
1.0
  3

  4

1001
ACAD
1000
Arial
1071
0
  0
STYLE
  5
8A
100
AcDbSymbolTableRecord
100
AcDbTextStyleTableRecord
  2
textstyle50
 70
0
 40
0.0
 41
1.0
 50
0.0
 71
0
 42
0.8
  3

  4

1001
ACAD
1000
Arial
1071
0
  0
STYLE
  5
8B
100
AcDbSymbolTableRecord
100
AcDbTextStyleTableRecord
  2
textstyle51
 70
0
 40
0.0
 41
1.0
 50
0.0
 71
0
 42
0.8
  3

  4

1001
ACAD
1000
Arial
1071
0
  0
STYLE
  5
8C
100
AcDbSymbolTableRecord
100
AcDbTextStyleTableRecord
  2
textstyle52
 70
0
 40
0.0
 41
1.0
 50
0.0
 71
0
 42
1.0
  3

  4

1001
ACAD
1000
Arial
1071
0
  0
STYLE
  5
8D
100
AcDbSymbolTableRecord
100
AcDbTextStyleTableRecord
  2
textstyle53
 70
0
 40
0.0
 41
1.0
 50
0.0
 71
0
 42
1.0
  3

  4

1001
ACAD
1000
Arial
1071
0
  0
STYLE
  5
8E
100
AcDbSymbolTableRecord
100
AcDbTextStyleTableRecord
  2
textstyle54
 70
0
 40
0.0
 41
1.0
 50
0.0
 71
0
 42
1.6000000000000001
  3

  4

1001
ACAD
1000
Arial
1071
0
  0
STYLE
  5
8F
100
AcDbSymbolTableRecord
100
AcDbTextStyleTableRecord
  2
textstyle55
 70
0
 40
0.0
 41
1.0
 50
0.0
 71
0
 42
1.6000000000000001
  3

  4

1001
ACAD
1000
Arial
1071
0
  0
STYLE
  5
90
100
AcDbSymbolTableRecord
100
AcDbTextStyleTableRecord
  2
textstyle56
 70
0
 40
0.0
 41
1.0
 50
0.0
 71
0
 42
1.0
  3

  4

1001
ACAD
1000
Arial
1071
0
  0
STYLE
  5
91
100
AcDbSymbolTableRecord
100
AcDbTextStyleTableRecord
  2
textstyle57
 70
0
 40
0.0
 41
1.0
 50
0.0
 71
0
 42
0.8
  3

  4

1001
ACAD
1000
Arial
1071
0
  0
STYLE
  5
92
100
AcDbSymbolTableRecord
100
AcDbTextStyleTableRecord
  2
textstyle58
 70
0
 40
0.0
 41
1.0
 50
0.0
 71
0
 42
0.8
  3

  4

1001
ACAD
1000
Arial
1071
0
  0
STYLE
  5
93
100
AcDbSymbolTableRecord
100
AcDbTextStyleTableRecord
  2
textstyle59
 70
0
 40
0.0
 41
1.0
 50
0.0
 71
0
 42
0.8
  3

  4

1001
ACAD
1000
Arial
1071
0
  0
STYLE
  5
94
100
AcDbSymbolTableRecord
100
AcDbTextStyleTableRecord
  2
textstyle60
 70
0
 40
0.0
 41
1.0
 50
0.0
 71
0
 42
1.0
  3

  4

1001
ACAD
1000
Arial
1071
0
  0
STYLE
  5
95
100
AcDbSymbolTableRecord
100
AcDbTextStyleTableRecord
  2
textstyle61
 70
0
 40
0.0
 41
1.0
 50
0.0
 71
0
 42
1.0
  3

  4

1001
ACAD
1000
Arial
1071
0
  0
STYLE
  5
96
100
AcDbSymbolTableRecord
100
AcDbTextStyleTableRecord
  2
textstyle62
 70
0
 40
0.0
 41
1.0
 50
0.0
 71
0
 42
0.8
  3

  4

1001
ACAD
1000
Arial
1071
0
  0
STYLE
  5
97
100
AcDbSymbolTableRecord
100
AcDbTextStyleTableRecord
  2
textstyle63
 70
0
 40
0.0
 41
1.0
 50
0.0
 71
0
 42
0.8
  3

  4

1001
ACAD
1000
Arial
1071
0
  0
STYLE
  5
98
100
AcDbSymbolTableRecord
100
AcDbTextStyleTableRecord
  2
textstyle64
 70
0
 40
0.0
 41
1.0
 50
0.0
 71
0
 42
1.0
  3

  4

1001
ACAD
1000
Arial
1071
0
  0
STYLE
  5
99
100
AcDbSymbolTableRecord
100
AcDbTextStyleTableRecord
  2
textstyle65
 70
0
 40
0.0
 41
1.0
 50
0.0
 71
0
 42
1.0
  3

  4

1001
ACAD
1000
Arial
1071
0
  0
STYLE
  5
9A
100
AcDbSymbolTableRecord
100
AcDbTextStyleTableRecord
  2
textstyle66
 70
0
 40
0.0
 41
1.0
 50
0.0
 71
0
 42
1.0
  3

  4

1001
ACAD
1000
Arial
1071
0
  0
STYLE
  5
9B
100
AcDbSymbolTableRecord
100
AcDbTextStyleTableRecord
  2
textstyle67
 70
0
 40
0.0
 41
1.0
 50
0.0
 71
0
 42
0.8
  3

  4

1001
ACAD
1000
Arial
1071
0
  0
STYLE
  5
9C
100
AcDbSymbolTableRecord
100
AcDbTextStyleTableRecord
  2
textstyle68
 70
0
 40
0.0
 41
1.0
 50
0.0
 71
0
 42
0.8
  3

  4

1001
ACAD
1000
Arial
1071
0
  0
STYLE
  5
9D
100
AcDbSymbolTableRecord
100
AcDbTextStyleTableRecord
  2
textstyle69
 70
0
 40
0.0
 41
1.0
 50
0.0
 71
0
 42
1.0
  3

  4

1001
ACAD
1000
Arial
1071
0
  0
STYLE
  5
9E
100
AcDbSymbolTableRecord
100
AcDbTextStyleTableRecord
  2
textstyle70
 70
0
 40
0.0
 41
1.0
 50
0.0
 71
0
 42
1.0
  3

  4

1001
ACAD
1000
Arial
1071
0
  0
STYLE
  5
9F
100
AcDbSymbolTableRecord
100
AcDbTextStyleTableRecord
  2
textstyle71
 70
0
 40
0.0
 41
1.0
 50
0.0
 71
0
 42
1.6000000000000001
  3

  4

1001
ACAD
1000
Arial
1071
0
  0
STYLE
  5
A0
100
AcDbSymbolTableRecord
100
AcDbTextStyleTableRecord
  2
textstyle72
 70
0
 40
0.0
 41
1.0
 50
0.0
 71
0
 42
1.6000000000000001
  3

  4

1001
ACAD
1000
Arial
1071
0
  0
STYLE
  5
A1
100
AcDbSymbolTableRecord
100
AcDbTextStyleTableRecord
  2
textstyle73
 70
0
 40
0.0
 41
1.0
 50
0.0
 71
0
 42
1.0
  3

  4

1001
ACAD
1000
Arial
1071
0
  0
STYLE
  5
A2
100
AcDbSymbolTableRecord
100
AcDbTextStyleTableRecord
  2
textstyle74
 70
0
 40
0.0
 41
1.0
 50
0.0
 71
0
 42
0.8
  3

  4

1001
ACAD
1000
Arial
1071
0
  0
STYLE
  5
A3
100
AcDbSymbolTableRecord
100
AcDbTextStyleTableRecord
  2
textstyle75
 70
0
 40
0.0
 41
1.0
 50
0.0
 71
0
 42
0.8
  3

  4

1001
ACAD
1000
Arial
1071
0
  0
STYLE
  5
A4
100
AcDbSymbolTableRecord
100
AcDbTextStyleTableRecord
  2
textstyle76
 70
0
 40
0.0
 41
1.0
 50
0.0
 71
0
 42
0.8
  3

  4

1001
ACAD
1000
Arial
1071
0
  0
STYLE
  5
A5
100
AcDbSymbolTableRecord
100
AcDbTextStyleTableRecord
  2
textstyle77
 70
0
 40
0.0
 41
1.0
 50
0.0
 71
0
 42
1.0
  3

  4

1001
ACAD
1000
Arial
1071
0
  0
STYLE
  5
A6
100
AcDbSymbolTableRecord
100
AcDbTextStyleTableRecord
  2
textstyle78
 70
0
 40
0.0
 41
1.0
 50
0.0
 71
0
 42
1.0
  3

  4

1001
ACAD
1000
Arial
1071
0
  0
STYLE
  5
A7
100
AcDbSymbolTableRecord
100
AcDbTextStyleTableRecord
  2
textstyle79
 70
0
 40
0.0
 41
1.0
 50
0.0
 71
0
 42
0.8
  3

  4

1001
ACAD
1000
Arial
1071
0
  0
STYLE
  5
A8
100
AcDbSymbolTableRecord
100
AcDbTextStyleTableRecord
  2
textstyle80
 70
0
 40
0.0
 41
1.0
 50
0.0
 71
0
 42
0.8
  3

  4

1001
ACAD
1000
Arial
1071
0
  0
STYLE
  5
A9
100
AcDbSymbolTableRecord
100
AcDbTextStyleTableRecord
  2
textstyle81
 70
0
 40
0.0
 41
1.0
 50
0.0
 71
0
 42
1.0
  3

  4

1001
ACAD
1000
Arial
1071
0
  0
STYLE
  5
AA
100
AcDbSymbolTableRecord
100
AcDbTextStyleTableRecord
  2
textstyle82
 70
0
 40
0.0
 41
1.0
 50
0.0
 71
0
 42
1.0
  3

  4

1001
ACAD
1000
Arial
1071
0
  0
STYLE
  5
AB
100
AcDbSymbolTableRecord
100
AcDbTextStyleTableRecord
  2
textstyle83
 70
0
 40
0.0
 41
1.0
 50
0.0
 71
0
 42
1.0
  3

  4

1001
ACAD
1000
Arial
1071
0
  0
STYLE
  5
AC
100
AcDbSymbolTableRecord
100
AcDbTextStyleTableRecord
  2
textstyle84
 70
0
 40
0.0
 41
1.0
 50
0.0
 71
0
 42
0.8
  3

  4

1001
ACAD
1000
Arial
1071
0
  0
STYLE
  5
AD
100
AcDbSymbolTableRecord
100
AcDbTextStyleTableRecord
  2
textstyle85
 70
0
 40
0.0
 41
1.0
 50
0.0
 71
0
 42
0.8
  3

  4

1001
ACAD
1000
Arial
1071
0
  0
STYLE
  5
AE
100
AcDbSymbolTableRecord
100
AcDbTextStyleTableRecord
  2
textstyle86
 70
0
 40
0.0
 41
1.0
 50
0.0
 71
0
 42
1.0
  3

  4

1001
ACAD
1000
Arial
1071
0
  0
STYLE
  5
AF
100
AcDbSymbolTableRecord
100
AcDbTextStyleTableRecord
  2
textstyle87
 70
0
 40
0.0
 41
1.0
 50
0.0
 71
0
 42
1.0
  3

  4

1001
ACAD
1000
Arial
1071
0
  0
STYLE
  5
B0
100
AcDbSymbolTableRecord
100
AcDbTextStyleTableRecord
  2
textstyle88
 70
0
 40
0.0
 41
1.0
 50
0.0
 71
0
 42
1.6000000000000001
  3

  4

1001
ACAD
1000
Arial
1071
0
  0
STYLE
  5
B1
100
AcDbSymbolTableRecord
100
AcDbTextStyleTableRecord
  2
textstyle89
 70
0
 40
0.0
 41
1.0
 50
0.0
 71
0
 42
1.6000000000000001
  3

  4

1001
ACAD
1000
Arial
1071
0
  0
STYLE
  5
B2
100
AcDbSymbolTableRecord
100
AcDbTextStyleTableRecord
  2
textstyle90
 70
0
 40
0.0
 41
1.0
 50
0.0
 71
0
 42
1.0
  3

  4

1001
ACAD
1000
Arial
1071
0
  0
STYLE
  5
B3
100
AcDbSymbolTableRecord
100
AcDbTextStyleTableRecord
  2
textstyle91
 70
0
 40
0.0
 41
1.0
 50
0.0
 71
0
 42
0.8
  3

  4

1001
ACAD
1000
Arial
1071
0
  0
STYLE
  5
B4
100
AcDbSymbolTableRecord
100
AcDbTextStyleTableRecord
  2
textstyle92
 70
0
 40
0.0
 41
1.0
 50
0.0
 71
0
 42
0.8
  3

  4

1001
ACAD
1000
Arial
1071
0
  0
STYLE
  5
B5
100
AcDbSymbolTableRecord
100
AcDbTextStyleTableRecord
  2
textstyle93
 70
0
 40
0.0
 41
1.0
 50
0.0
 71
0
 42
0.8
  3

  4

1001
ACAD
1000
Arial
1071
0
  0
STYLE
  5
B6
100
AcDbSymbolTableRecord
100
AcDbTextStyleTableRecord
  2
textstyle94
 70
0
 40
0.0
 41
1.0
 50
0.0
 71
0
 42
1.0
  3

  4

1001
ACAD
1000
Arial
1071
0
  0
STYLE
  5
B7
100
AcDbSymbolTableRecord
100
AcDbTextStyleTableRecord
  2
textstyle95
 70
0
 40
0.0
 41
1.0
 50
0.0
 71
0
 42
1.0
  3

  4

1001
ACAD
1000
Arial
1071
0
  0
STYLE
  5
B8
100
AcDbSymbolTableRecord
100
AcDbTextStyleTableRecord
  2
textstyle96
 70
0
 40
0.0
 41
1.0
 50
0.0
 71
0
 42
0.8
  3

  4

1001
ACAD
1000
Arial
1071
0
  0
STYLE
  5
B9
100
AcDbSymbolTableRecord
100
AcDbTextStyleTableRecord
  2
textstyle97
 70
0
 40
0.0
 41
1.0
 50
0.0
 71
0
 42
0.8
  3

  4

1001
ACAD
1000
Arial
1071
0
  0
STYLE
  5
BA
100
AcDbSymbolTableRecord
100
AcDbTextStyleTableRecord
  2
textstyle98
 70
0
 40
0.0
 41
1.0
 50
0.0
 71
0
 42
1.0
  3

  4

1001
ACAD
1000
Arial
1071
0
  0
STYLE
  5
BB
100
AcDbSymbolTableRecord
100
AcDbTextStyleTableRecord
  2
textstyle99
 70
0
 40
0.0
 41
1.0
 50
0.0
 71
0
 42
1.0
  3

  4

1001
ACAD
1000
Arial
1071
0
  0
STYLE
  5
BC
100
AcDbSymbolTableRecord
100
AcDbTextStyleTableRecord
  2
textstyle100
 70
0
 40
0.0
 41
1.0
 50
0.0
 71
0
 42
1.0
  3

  4

1001
ACAD
1000
Arial
1071
0
  0
STYLE
  5
BD
100
AcDbSymbolTableRecord
100
AcDbTextStyleTableRecord
  2
textstyle101
 70
0
 40
0.0
 41
1.0
 50
0.0
 71
0
 42
0.8
  3

  4

1001
ACAD
1000
Arial
1071
0
  0
STYLE
  5
BE
100
AcDbSymbolTableRecord
100
AcDbTextStyleTableRecord
  2
textstyle102
 70
0
 40
0.0
 41
1.0
 50
0.0
 71
0
 42
0.8
  3

  4

1001
ACAD
1000
Arial
1071
0
  0
STYLE
  5
BF
100
AcDbSymbolTableRecord
100
AcDbTextStyleTableRecord
  2
textstyle103
 70
0
 40
0.0
 41
1.0
 50
0.0
 71
0
 42
1.6000000000000001
  3

  4

1001
ACAD
1000
Arial
1071
0
  0
STYLE
  5
C0
100
AcDbSymbolTableRecord
100
AcDbTextStyleTableRecord
  2
textstyle104
 70
0
 40
0.0
 41
1.0
 50
0.0
 71
0
 42
1.0
  3

  4

1001
ACAD
1000
Arial
1071
0
  0
STYLE
  5
C1
100
AcDbSymbolTableRecord
100
AcDbTextStyleTableRecord
  2
textstyle105
 70
0
 40
0.0
 41
1.0
 50
0.0
 71
0
 42
1.0
  3

  4

1001
ACAD
1000
Arial
1071
0
  0
STYLE
  5
C2
100
AcDbSymbolTableRecord
100
AcDbTextStyleTableRecord
  2
textstyle106
 70
0
 40
0.0
 41
1.0
 50
0.0
 71
0
 42
1.0
  3

  4

1001
ACAD
1000
Arial
1071
0
  0
STYLE
  5
C3
100
AcDbSymbolTableRecord
100
AcDbTextStyleTableRecord
  2
textstyle107
 70
0
 40
0.0
 41
1.0
 50
0.0
 71
0
 42
1.0
  3

  4

1001
ACAD
1000
Arial
1071
0
  0
STYLE
  5
C4
100
AcDbSymbolTableRecord
100
AcDbTextStyleTableRecord
  2
textstyle108
 70
0
 40
0.0
 41
1.0
 50
0.0
 71
0
 42
1.6000000000000001
  3

  4

1001
ACAD
1000
Arial
1071
0
  0
STYLE
  5
C5
100
AcDbSymbolTableRecord
100
AcDbTextStyleTableRecord
  2
textstyle109
 70
0
 40
0.0
 41
1.0
 50
0.0
 71
0
 42
1.0
  3

  4

1001
ACAD
1000
Arial
1071
0
  0
STYLE
  5
C6
100
AcDbSymbolTableRecord
100
AcDbTextStyleTableRecord
  2
textstyle110
 70
0
 40
0.0
 41
1.0
 50
0.0
 71
0
 42
1.0
  3

  4

1001
ACAD
1000
Arial
1071
0
  0
STYLE
  5
C7
100
AcDbSymbolTableRecord
100
AcDbTextStyleTableRecord
  2
textstyle111
 70
0
 40
0.0
 41
1.0
 50
0.0
 71
0
 42
1.6000000000000001
  3

  4

1001
ACAD
1000
Arial
1071
0
  0
STYLE
  5
C8
100
AcDbSymbolTableRecord
100
AcDbTextStyleTableRecord
  2
textstyle112
 70
0
 40
0.0
 41
1.0
 50
0.0
 71
0
 42
1.6000000000000001
  3

  4

1001
ACAD
1000
Arial
1071
0
  0
STYLE
  5
C9
100
AcDbSymbolTableRecord
100
AcDbTextStyleTableRecord
  2
textstyle113
 70
0
 40
0.0
 41
1.0
 50
0.0
 71
0
 42
1.0
  3

  4

1001
ACAD
1000
Arial
1071
0
  0
STYLE
  5
CA
100
AcDbSymbolTableRecord
100
AcDbTextStyleTableRecord
  2
textstyle114
 70
0
 40
0.0
 41
1.0
 50
0.0
 71
0
 42
1.0
  3

  4

1001
ACAD
1000
Arial
1071
0
  0
STYLE
  5
CB
100
AcDbSymbolTableRecord
100
AcDbTextStyleTableRecord
  2
textstyle115
 70
0
 40
0.0
 41
1.0
 50
0.0
 71
0
 42
1.0
  3

  4

1001
ACAD
1000
Arial
1071
0
  0
STYLE
  5
CC
100
AcDbSymbolTableRecord
100
AcDbTextStyleTableRecord
  2
textstyle116
 70
0
 40
0.0
 41
1.0
 50
0.0
 71
0
 42
0.8
  3

  4

1001
ACAD
1000
Arial
1071
0
  0
STYLE
  5
CD
100
AcDbSymbolTableRecord
100
AcDbTextStyleTableRecord
  2
textstyle117
 70
0
 40
0.0
 41
1.0
 50
0.0
 71
0
 42
1.0
  3

  4

1001
ACAD
1000
Arial
1071
0
  0
STYLE
  5
CE
100
AcDbSymbolTableRecord
100
AcDbTextStyleTableRecord
  2
textstyle118
 70
0
 40
0.0
 41
1.0
 50
0.0
 71
0
 42
1.6000000000000001
  3

  4

1001
ACAD
1000
Arial
1071
0
  0
STYLE
  5
CF
100
AcDbSymbolTableRecord
100
AcDbTextStyleTableRecord
  2
textstyle119
 70
0
 40
0.0
 41
1.0
 50
0.0
 71
0
 42
1.0
  3

  4

1001
ACAD
1000
Arial
1071
0
  0
STYLE
  5
D0
100
AcDbSymbolTableRecord
100
AcDbTextStyleTableRecord
  2
textstyle120
 70
0
 40
0.0
 41
1.0
 50
0.0
 71
0
 42
0.8
  3

  4

1001
ACAD
1000
Arial
1071
0
  0
STYLE
  5
D1
100
AcDbSymbolTableRecord
100
AcDbTextStyleTableRecord
  2
textstyle121
 70
0
 40
0.0
 41
1.0
 50
0.0
 71
0
 42
0.8
  3

  4

1001
ACAD
1000
Arial
1071
0
  0
STYLE
  5
D2
100
AcDbSymbolTableRecord
100
AcDbTextStyleTableRecord
  2
textstyle122
 70
0
 40
0.0
 41
1.0
 50
0.0
 71
0
 42
0.8
  3

  4

1001
ACAD
1000
Arial
1071
0
  0
STYLE
  5
D3
100
AcDbSymbolTableRecord
100
AcDbTextStyleTableRecord
  2
textstyle123
 70
0
 40
0.0
 41
1.0
 50
0.0
 71
0
 42
1.0
  3

  4

1001
ACAD
1000
Arial
1071
0
  0
STYLE
  5
D4
100
AcDbSymbolTableRecord
100
AcDbTextStyleTableRecord
  2
textstyle124
 70
0
 40
0.0
 41
1.0
 50
0.0
 71
0
 42
1.0
  3

  4

1001
ACAD
1000
Arial
1071
0
  0
STYLE
  5
D5
100
AcDbSymbolTableRecord
100
AcDbTextStyleTableRecord
  2
textstyle125
 70
0
 40
0.0
 41
1.0
 50
0.0
 71
0
 42
0.8
  3

  4

1001
ACAD
1000
Arial
1071
0
  0
STYLE
  5
D6
100
AcDbSymbolTableRecord
100
AcDbTextStyleTableRecord
  2
textstyle126
 70
0
 40
0.0
 41
1.0
 50
0.0
 71
0
 42
1.0
  3

  4

1001
ACAD
1000
Arial
1071
0
  0
STYLE
  5
D7
100
AcDbSymbolTableRecord
100
AcDbTextStyleTableRecord
  2
textstyle127
 70
0
 40
0.0
 41
1.0
 50
0.0
 71
0
 42
1.6000000000000001
  3

  4

1001
ACAD
1000
Arial
1071
0
  0
STYLE
  5
D8
100
AcDbSymbolTableRecord
100
AcDbTextStyleTableRecord
  2
textstyle128
 70
0
 40
0.0
 41
1.0
 50
0.0
 71
0
 42
0.8
  3

  4

1001
ACAD
1000
Arial
1071
0
  0
STYLE
  5
D9
100
AcDbSymbolTableRecord
100
AcDbTextStyleTableRecord
  2
textstyle129
 70
0
 40
0.0
 41
1.0
 50
0.0
 71
0
 42
1.0
  3

  4

1001
ACAD
1000
Arial
1071
0
  0
STYLE
  5
DA
100
AcDbSymbolTableRecord
100
AcDbTextStyleTableRecord
  2
textstyle130
 70
0
 40
0.0
 41
1.0
 50
0.0
 71
0
 42
0.8
  3

  4

1001
ACAD
1000
Arial
1071
0
  0
STYLE
  5
DB
100
AcDbSymbolTableRecord
100
AcDbTextStyleTableRecord
  2
textstyle131
 70
0
 40
0.0
 41
1.0
 50
0.0
 71
0
 42
0.8
  3

  4

1001
ACAD
1000
Arial
1071
0
  0
STYLE
  5
DC
100
AcDbSymbolTableRecord
100
AcDbTextStyleTableRecord
  2
textstyle132
 70
0
 40
0.0
 41
1.0
 50
0.0
 71
0
 42
1.6000000000000001
  3

  4

1001
ACAD
1000
Arial
1071
0
  0
STYLE
  5
DD
100
AcDbSymbolTableRecord
100
AcDbTextStyleTableRecord
  2
textstyle133
 70
0
 40
0.0
 41
1.0
 50
0.0
 71
0
 42
1.6000000000000001
  3

  4

1001
ACAD
1000
Arial
1071
0
  0
STYLE
  5
DE
100
AcDbSymbolTableRecord
100
AcDbTextStyleTableRecord
  2
textstyle134
 70
0
 40
0.0
 41
1.0
 50
0.0
 71
0
 42
1.6000000000000001
  3

  4

1001
ACAD
1000
Arial
1071
0
  0
STYLE
  5
DF
100
AcDbSymbolTableRecord
100
AcDbTextStyleTableRecord
  2
textstyle135
 70
0
 40
0.0
 41
1.0
 50
0.0
 71
0
 42
1.6000000000000001
  3

  4

1001
ACAD
1000
Arial
1071
0
  0
STYLE
  5
E0
100
AcDbSymbolTableRecord
100
AcDbTextStyleTableRecord
  2
textstyle136
 70
0
 40
0.0
 41
1.0
 50
0.0
 71
0
 42
1.6000000000000001
  3

  4

1001
ACAD
1000
Arial
1071
0
  0
STYLE
  5
E1
100
AcDbSymbolTableRecord
100
AcDbTextStyleTableRecord
  2
textstyle137
 70
0
 40
0.0
 41
1.0
 50
0.0
 71
0
 42
1.6000000000000001
  3

  4

1001
ACAD
1000
Arial
1071
0
  0
STYLE
  5
E2
100
AcDbSymbolTableRecord
100
AcDbTextStyleTableRecord
  2
textstyle138
 70
0
 40
0.0
 41
1.0
 50
0.0
 71
0
 42
1.6000000000000001
  3

  4

1001
ACAD
1000
Arial
1071
0
  0
STYLE
  5
E3
100
AcDbSymbolTableRecord
100
AcDbTextStyleTableRecord
  2
textstyle139
 70
0
 40
0.0
 41
1.0
 50
0.0
 71
0
 42
1.6000000000000001
  3

  4

1001
ACAD
1000
Arial
1071
0
  0
STYLE
  5
E4
100
AcDbSymbolTableRecord
100
AcDbTextStyleTableRecord
  2
textstyle140
 70
0
 40
0.0
 41
1.0
 50
0.0
 71
0
 42
1.6000000000000001
  3

  4

1001
ACAD
1000
Arial
1071
0
  0
STYLE
  5
E5
100
AcDbSymbolTableRecord
100
AcDbTextStyleTableRecord
  2
textstyle141
 70
0
 40
0.0
 41
1.0
 50
0.0
 71
0
 42
1.6000000000000001
  3

  4

1001
ACAD
1000
Arial
1071
0
  0
ENDTAB
  0
TABLE
  2
VIEW
  5
6
100
AcDbSymbolTable
 70
0
  0
ENDTAB
  0
TABLE
  2
UCS
  5
7
100
AcDbSymbolTable
 70
0
  0
ENDTAB
  0
TABLE
  2
APPID
  5
9
100
AcDbSymbolTable
 70
1
  0
APPID
  5
12
100
AcDbSymbolTableRecord
100
AcDbRegAppTableRecord
  2
ACAD
 70
0
  0
APPID
  5
E6
100
AcDbSymbolTableRecord
100
AcDbRegAppTableRecord
  2
QCAD
 70
0
  0
ENDTAB
  0
TABLE
  2
DIMSTYLE
  5
A
100
AcDbSymbolTable
 70
1
100
AcDbDimStyleTable
 71
0
  0
DIMSTYLE
105
27
100
AcDbSymbolTableRecord
100
AcDbDimStyleTableRecord
  2
Standard
 41
2.5
 42
0.625
 43
3.75
 44
1.25
 70
0
 73
0
 74
0
 77
1
 78
8
140
2.5
141
2.5
143
0.03937007874016
147
0.625
171
3
172
1
271
2
272
2
274
3
278
44
283
0
284
8
340
57
  0
ENDTAB
  0
TABLE
  2
BLOCK_RECORD
  5
1
100
AcDbSymbolTable
 70
1
  0
BLOCK_RECORD
  5
1F
100
AcDbSymbolTableRecord
100
AcDbBlockTableRecord
  2
*Model_Space
340
22
  0
BLOCK_RECORD
  5
1B
100
AcDbSymbolTableRecord
100
AcDbBlockTableRecord
  2
*Paper_Space
340
1E
  0
BLOCK_RECORD
  5
23
100
AcDbSymbolTableRecord
100
AcDbBlockTableRecord
  2
*Paper_Space0
340
26
  0
ENDTAB
  0
ENDSEC
  0
SECTION
  2
BLOCKS
  0
BLOCK
  5
20
100
AcDbEntity
  8
0
100
AcDbBlockBegin
  2
*Model_Space
 70
0
 10
0.0
 20
0.0
 30
0.0
  3
*Model_Space
  1

  0
ENDBLK
  5
21
100
AcDbEntity
  8
0
100
AcDbBlockEnd
  0
BLOCK
  5
1C
100
AcDbEntity
 67
1
  8
0
100
AcDbBlockBegin
  2
*Paper_Space
 70
0
 10
0.0
 20
0.0
 30
0.0
  3
*Paper_Space
  1

  0
ENDBLK
  5
1D
100
AcDbEntity
 67
1
  8
0
100
AcDbBlockEnd
  0
BLOCK
  5
24
100
AcDbEntity
  8
0
100
AcDbBlockBegin
  2
*Paper_Space0
 70
0
 10
0.0
 20
0.0
 30
0.0
  3
*Paper_Space0
  1

  0
ENDBLK
  5
25
100
AcDbEntity
  8
0
100
AcDbBlockEnd
  0
ENDSEC
  0
SECTION
  2
ENTITIES
  0
LINE
  5
E7
100
AcDbEntity
100
AcDbLine
  8
0
 62
256
370
-1
 48
1.0
  6
BYLAYER
 10
240.0
 20
49.0
 30
0.0
 11
240.0
 21
59.0
 31
0.0
  0
LINE
  5
E8
100
AcDbEntity
100
AcDbLine
  8
0
 62
256
370
-1
 48
1.0
  6
BYLAYER
 10
240.0
 20
260.0
 30
0.0
 11
236.0
 21
260.0
 31
0.0
  0
LINE
  5
E9
100
AcDbEntity
100
AcDbLine
  8
0
 62
256
370
-1
 48
1.0
  6
BYLAYER
 10
236.0
 20
260.0
 30
0.0
 11
236.0
 21
270.0
 31
0.0
  0
LINE
  5
EA
100
AcDbEntity
100
AcDbLine
  8
0
 62
256
370
-1
 48
1.0
  6
BYLAYER
 10
236.0
 20
270.0
 30
0.0
 11
240.0
 21
270.0
 31
0.0
  0
LINE
  5
EB
100
AcDbEntity
100
AcDbLine
  8
0
 62
256
370
-1
 48
1.0
  6
BYLAYER
 10
240.0
 20
270.0
 30
0.0
 11
240.0
 21
260.0
 31
0.0
  0
MTEXT
  5
EC
100
AcDbEntity
100
AcDbMText
  8
0
 62
256
370
-1
 48
1.0
  6
BYLAYER
 10
237.0
 20
265.0
 30
0.0
 40
1.0
 41
0.0
 71
2
 72
1
  1
\H2;D9F
  7
textstyle0
 50
90.0
 73
2
 44
1.0
  0
MTEXT
  5
ED
100
AcDbEntity
100
AcDbMText
  8
0
 62
256
370
-1
 48
1.0
  6
BYLAYER
 10
234.0
 20
265.0
 30
0.0
 40
0.8
 41
0.0
 71
6
 72
1
  1
\H2;TE:SA
  7
textstyle1
 50
0.0
 73
2
 44
1.0
  0
MTEXT
  5
EE
100
AcDbEntity
100
AcDbMText
  8
0
 62
256
370
-1
 48
1.0
  6
BYLAYER
 10
238.0
 20
272.0
 30
0.0
 40
0.8
 41
0.0
 71
5
 72
1
  1
\H2;A
  7
textstyle2
 50
0.0
 73
2
 44
1.0
  0
MTEXT
  5
EF
100
AcDbEntity
100
AcDbMText
  8
0
 62
256
370
-1
 48
1.0
  6
BYLAYER
 10
242.0
 20
272.0
 30
0.0
 40
0.8
 41
0.0
 71
5
 72
1
  1
\H2;B
  7
textstyle3
 50
0.0
 73
2
 44
1.0
  0
LINE
  5
F0
100
AcDbEntity
100
AcDbLine
  8
0
 62
256
370
-1
 48
1.0
  6
BYLAYER
 10
244.0
 20
260.0
 30
0.0
 11
240.0
 21
260.0
 31
0.0
  0
LINE
  5
F1
100
AcDbEntity
100
AcDbLine
  8
0
 62
256
370
-1
 48
1.0
  6
BYLAYER
 10
240.0
 20
260.0
 30
0.0
 11
240.0
 21
270.0
 31
0.0
  0
LINE
  5
F2
100
AcDbEntity
100
AcDbLine
  8
0
 62
256
370
-1
 48
1.0
  6
BYLAYER
 10
240.0
 20
270.0
 30
0.0
 11
244.0
 21
270.0
 31
0.0
  0
LINE
  5
F3
100
AcDbEntity
100
AcDbLine
  8
0
 62
256
370
-1
 48
1.0
  6
BYLAYER
 10
244.0
 20
270.0
 30
0.0
 11
244.0
 21
260.0
 31
0.0
  0
MTEXT
  5
F4
100
AcDbEntity
100
AcDbMText
  8
0
 62
256
370
-1
 48
1.0
  6
BYLAYER
 10
241.0
 20
265.0
 30
0.0
 40
1.0
 41
0.0
 71
2
 72
1
  1
\H2;D9M
  7
textstyle4
 50
90.0
 73
2
 44
1.0
  0
LINE
  5
F5
100
AcDbEntity
100
AcDbLine
  8
0
 62
256
370
-1
 48
1.0
  6
BYLAYER
 10
240.0
 20
221.0
 30
0.0
 11
236.0
 21
221.0
 31
0.0
  0
LINE
  5
F6
100
AcDbEntity
100
AcDbLine
  8
0
 62
256
370
-1
 48
1.0
  6
BYLAYER
 10
236.0
 20
221.0
 30
0.0
 11
236.0
 21
231.0
 31
0.0
  0
LINE
  5
F7
100
AcDbEntity
100
AcDbLine
  8
0
 62
256
370
-1
 48
1.0
  6
BYLAYER
 10
236.0
 20
231.0
 30
0.0
 11
240.0
 21
231.0
 31
0.0
  0
LINE
  5
F8
100
AcDbEntity
100
AcDbLine
  8
0
 62
256
370
-1
 48
1.0
  6
BYLAYER
 10
240.0
 20
231.0
 30
0.0
 11
240.0
 21
221.0
 31
0.0
  0
MTEXT
  5
F9
100
AcDbEntity
100
AcDbMText
  8
0
 62
256
370
-1
 48
1.0
  6
BYLAYER
 10
237.0
 20
226.0
 30
0.0
 40
1.0
 41
0.0
 71
2
 72
1
  1
\H2;D15F
  7
textstyle5
 50
90.0
 73
2
 44
1.0
  0
MTEXT
  5
FA
100
AcDbEntity
100
AcDbMText
  8
0
 62
256
370
-1
 48
1.0
  6
BYLAYER
 10
234.0
 20
226.0
 30
0.0
 40
0.8
 41
0.0
 71
6
 72
1
  1
\H2;TE:A1
  7
textstyle6
 50
0.0
 73
2
 44
1.0
  0
MTEXT
  5
FB
100
AcDbEntity
100
AcDbMText
  8
0
 62
256
370
-1
 48
1.0
  6
BYLAYER
 10
238.0
 20
233.0
 30
0.0
 40
0.8
 41
0.0
 71
5
 72
1
  1
\H2;A
  7
textstyle7
 50
0.0
 73
2
 44
1.0
  0
MTEXT
  5
FC
100
AcDbEntity
100
AcDbMText
  8
0
 62
256
370
-1
 48
1.0
  6
BYLAYER
 10
242.0
 20
233.0
 30
0.0
 40
0.8
 41
0.0
 71
5
 72
1
  1
\H2;B
  7
textstyle8
 50
0.0
 73
2
 44
1.0
  0
LINE
  5
FD
100
AcDbEntity
100
AcDbLine
  8
0
 62
256
370
-1
 48
1.0
  6
BYLAYER
 10
244.0
 20
221.0
 30
0.0
 11
240.0
 21
221.0
 31
0.0
  0
LINE
  5
FE
100
AcDbEntity
100
AcDbLine
  8
0
 62
256
370
-1
 48
1.0
  6
BYLAYER
 10
240.0
 20
221.0
 30
0.0
 11
240.0
 21
231.0
 31
0.0
  0
LINE
  5
FF
100
AcDbEntity
100
AcDbLine
  8
0
 62
256
370
-1
 48
1.0
  6
BYLAYER
 10
240.0
 20
231.0
 30
0.0
 11
244.0
 21
231.0
 31
0.0
  0
LINE
  5
100
100
AcDbEntity
100
AcDbLine
  8
0
 62
256
370
-1
 48
1.0
  6
BYLAYER
 10
244.0
 20
231.0
 30
0.0
 11
244.0
 21
221.0
 31
0.0
  0
MTEXT
  5
101
100
AcDbEntity
100
AcDbMText
  8
0
 62
256
370
-1
 48
1.0
  6
BYLAYER
 10
241.0
 20
226.0
 30
0.0
 40
1.0
 41
0.0
 71
2
 72
1
  1
\H2;D15M
  7
textstyle9
 50
90.0
 73
2
 44
1.0
  0
LINE
  5
102
100
AcDbEntity
100
AcDbLine
  8
0
 62
256
370
-1
 48
1.0
  6
BYLAYER
 10
289.0
 20
217.0
 30
0.0
 11
285.0
 21
217.0
 31
0.0
  0
LINE
  5
103
100
AcDbEntity
100
AcDbLine
  8
0
 62
256
370
-1
 48
1.0
  6
BYLAYER
 10
285.0
 20
217.0
 30
0.0
 11
285.0
 21
235.0
 31
0.0
  0
LINE
  5
104
100
AcDbEntity
100
AcDbLine
  8
0
 62
256
370
-1
 48
1.0
  6
BYLAYER
 10
285.0
 20
235.0
 30
0.0
 11
289.0
 21
235.0
 31
0.0
  0
LINE
  5
105
100
AcDbEntity
100
AcDbLine
  8
0
 62
256
370
-1
 48
1.0
  6
BYLAYER
 10
289.0
 20
235.0
 30
0.0
 11
289.0
 21
217.0
 31
0.0
  0
MTEXT
  5
106
100
AcDbEntity
100
AcDbMText
  8
0
 62
256
370
-1
 48
1.0
  6
BYLAYER
 10
286.0
 20
226.0
 30
0.0
 40
1.0
 41
0.0
 71
2
 72
1
  1
\H2;M23-12pin-F
  7
textstyle10
 50
90.0
 73
2
 44
1.0
  0
MTEXT
  5
107
100
AcDbEntity
100
AcDbMText
  8
0
 62
256
370
-1
 48
1.0
  6
BYLAYER
 10
287.0
 20
233.0
 30
0.0
 40
0.8
 41
0.0
 71
5
 72
1
  1

  7
textstyle11
 50
0.0
 73
2
 44
1.0
  0
MTEXT
  5
108
100
AcDbEntity
100
AcDbMText
  8
0
 62
256
370
-1
 48
1.0
  6
BYLAYER
 10
293.0
 20
237.0
 30
0.0
 40
0.8
 41
0.0
 71
5
 72
1
  1
\H2;OUT
  7
textstyle12
 50
0.0
 73
2
 44
1.0
  0
LINE
  5
109
100
AcDbEntity
100
AcDbLine
  8
0
 62
256
370
-1
 48
1.0
  6
BYLAYER
 10
293.0
 20
217.0
 30
0.0
 11
289.0
 21
217.0
 31
0.0
  0
LINE
  5
10A
100
AcDbEntity
100
AcDbLine
  8
0
 62
256
370
-1
 48
1.0
  6
BYLAYER
 10
289.0
 20
221.0
 30
0.0
 11
289.0
 21
231.0
 31
0.0
  0
LINE
  5
10B
100
AcDbEntity
100
AcDbLine
  8
0
 62
256
370
-1
 48
1.0
  6
BYLAYER
 10
289.0
 20
235.0
 30
0.0
 11
293.0
 21
235.0
 31
0.0
  0
LINE
  5
10C
100
AcDbEntity
100
AcDbLine
  8
0
 62
256
370
-1
 48
1.0
  6
BYLAYER
 10
293.0
 20
235.0
 30
0.0
 11
293.0
 21
217.0
 31
0.0
  0
MTEXT
  5
10D
100
AcDbEntity
100
AcDbMText
  8
0
 62
256
370
-1
 48
1.0
  6
BYLAYER
 10
290.0
 20
226.0
 30
0.0
 40
1.0
 41
0.0
 71
2
 72
1
  1
\H2;M23-12pin-M
  7
textstyle13
 50
90.0
 73
2
 44
1.0
  0
LINE
  5
10E
100
AcDbEntity
100
AcDbLine
  8
0
 62
256
370
-1
 48
1.0
  6
BYLAYER
 10
289.0
 20
240.0
 30
0.0
 11
328.0
 21
240.0
 31
0.0
  0
LINE
  5
10F
100
AcDbEntity
100
AcDbLine
  8
0
 62
256
370
-1
 48
1.0
  6
BYLAYER
 10
328.0
 20
240.0
 30
0.0
 11
328.0
 21
213.0
 31
0.0
  0
LINE
  5
110
100
AcDbEntity
100
AcDbLine
  8
0
 62
256
370
-1
 48
1.0
  6
BYLAYER
 10
328.0
 20
213.0
 30
0.0
 11
289.0
 21
213.0
 31
0.0
  0
LINE
  5
111
100
AcDbEntity
100
AcDbLine
  8
0
 62
256
370
-1
 48
1.0
  6
BYLAYER
 10
289.0
 20
213.0
 30
0.0
 11
289.0
 21
240.0
 31
0.0
  0
LINE
  5
112
100
AcDbEntity
100
AcDbLine
  8
0
 62
256
370
-1
 48
1.0
  6
BYLAYER
 10
244.0
 20
226.0
 30
0.0
 11
285.0
 21
226.0
 31
0.0
  0
MTEXT
  5
113
100
AcDbEntity
100
AcDbMText
  8
0
 62
256
370
-1
 48
1.0
  6
BYLAYER
 10
310.0
 20
228.0
 30
0.0
 40
1.0
 41
0.0
 71
2
 72
1
  1
\H2;TE:EXEA1
  7
textstyle14
 50
0.0
 73
2
 44
1.0
  0
LINE
  5
114
100
AcDbEntity
100
AcDbLine
  8
0
 62
256
370
-1
 48
1.0
  6
BYLAYER
 10
328.0
 20
217.0
 30
0.0
 11
324.0
 21
217.0
 31
0.0
  0
LINE
  5
115
100
AcDbEntity
100
AcDbLine
  8
0
 62
256
370
-1
 48
1.0
  6
BYLAYER
 10
324.0
 20
217.0
 30
0.0
 11
324.0
 21
235.0
 31
0.0
  0
LINE
  5
116
100
AcDbEntity
100
AcDbLine
  8
0
 62
256
370
-1
 48
1.0
  6
BYLAYER
 10
324.0
 20
235.0
 30
0.0
 11
328.0
 21
235.0
 31
0.0
  0
LINE
  5
117
100
AcDbEntity
100
AcDbLine
  8
0
 62
256
370
-1
 48
1.0
  6
BYLAYER
 10
328.0
 20
235.0
 30
0.0
 11
328.0
 21
217.0
 31
0.0
  0
MTEXT
  5
118
100
AcDbEntity
100
AcDbMText
  8
0
 62
256
370
-1
 48
1.0
  6
BYLAYER
 10
325.0
 20
226.0
 30
0.0
 40
1.0
 41
0.0
 71
2
 72
1
  1
\H2;M23-9pin-F
  7
textstyle15
 50
90.0
 73
2
 44
1.0
  0
MTEXT
  5
119
100
AcDbEntity
100
AcDbMText
  8
0
 62
256
370
-1
 48
1.0
  6
BYLAYER
 10
326.0
 20
233.0
 30
0.0
 40
0.8
 41
0.0
 71
5
 72
1
  1

  7
textstyle16
 50
0.0
 73
2
 44
1.0
  0
MTEXT
  5
11A
100
AcDbEntity
100
AcDbMText
  8
0
 62
256
370
-1
 48
1.0
  6
BYLAYER
 10
325.0
 20
237.0
 30
0.0
 40
0.8
 41
0.0
 71
5
 72
1
  1
\H2;IN
  7
textstyle17
 50
0.0
 73
2
 44
1.0
  0
LINE
  5
11B
100
AcDbEntity
100
AcDbLine
  8
0
 62
256
370
-1
 48
1.0
  6
BYLAYER
 10
332.0
 20
217.0
 30
0.0
 11
328.0
 21
217.0
 31
0.0
  0
LINE
  5
11C
100
AcDbEntity
100
AcDbLine
  8
0
 62
256
370
-1
 48
1.0
  6
BYLAYER
 10
328.0
 20
221.0
 30
0.0
 11
328.0
 21
231.0
 31
0.0
  0
LINE
  5
11D
100
AcDbEntity
100
AcDbLine
  8
0
 62
256
370
-1
 48
1.0
  6
BYLAYER
 10
328.0
 20
235.0
 30
0.0
 11
332.0
 21
235.0
 31
0.0
  0
LINE
  5
11E
100
AcDbEntity
100
AcDbLine
  8
0
 62
256
370
-1
 48
1.0
  6
BYLAYER
 10
332.0
 20
235.0
 30
0.0
 11
332.0
 21
217.0
 31
0.0
  0
MTEXT
  5
11F
100
AcDbEntity
100
AcDbMText
  8
0
 62
256
370
-1
 48
1.0
  6
BYLAYER
 10
329.0
 20
226.0
 30
0.0
 40
1.0
 41
0.0
 71
2
 72
1
  1
\H2;M23-9pin-M
  7
textstyle18
 50
90.0
 73
2
 44
1.0
  0
LINE
  5
120
100
AcDbEntity
100
AcDbLine
  8
0
 62
256
370
-1
 48
1.0
  6
BYLAYER
 10
332.0
 20
226.0
 30
0.0
 11
378.0
 21
226.0
 31
0.0
  0
MTEXT
  5
121
100
AcDbEntity
100
AcDbMText
  8
0
 62
256
370
-1
 48
1.0
  6
BYLAYER
 10
396.0
 20
228.0
 30
0.0
 40
1.0
 41
0.0
 71
2
 72
1
  1
\H2;TE:LIDA1
  7
textstyle19
 50
0.0
 73
2
 44
1.0
  0
MTEXT
  5
122
100
AcDbEntity
100
AcDbMText
  8
0
 62
256
370
-1
 48
1.0
  6
BYLAYER
 10
397.0
 20
224.0
 30
0.0
 40
1.6000000000000001
 41
0.0
 71
2
 72
1
  1
HEIDENHAIN\PLIDA 360 encoder scanning head
  7
textstyle20
 50
0.0
 73
2
 44
1.0
  0
MTEXT
  5
123
100
AcDbEntity
100
AcDbMText
  8
0
 62
256
370
-1
 48
1.0
  6
BYLAYER
 10
309.0
 20
222.0
 30
0.0
 40
1.6000000000000001
 41
0.0
 71
2
 72
1
  1
HEIDENHAIN\PEXE660B interpolation and\Pdigitizing electronics
  7
textstyle21
 50
0.0
 73
2
 44
1.0
  0
LINE
  5
124
100
AcDbEntity
100
AcDbLine
  8
0
 62
256
370
-1
 48
1.0
  6
BYLAYER
 10
378.0
 20
233.0
 30
0.0
 11
416.0
 21
233.0
 31
0.0
  0
LINE
  5
125
100
AcDbEntity
100
AcDbLine
  8
0
 62
256
370
-1
 48
1.0
  6
BYLAYER
 10
416.0
 20
233.0
 30
0.0
 11
416.0
 21
219.0
 31
0.0
  0
LINE
  5
126
100
AcDbEntity
100
AcDbLine
  8
0
 62
256
370
-1
 48
1.0
  6
BYLAYER
 10
416.0
 20
219.0
 30
0.0
 11
378.0
 21
219.0
 31
0.0
  0
LINE
  5
127
100
AcDbEntity
100
AcDbLine
  8
0
 62
256
370
-1
 48
1.0
  6
BYLAYER
 10
378.0
 20
219.0
 30
0.0
 11
378.0
 21
233.0
 31
0.0
  0
LINE
  5
128
100
AcDbEntity
100
AcDbLine
  8
0
 62
256
370
-1
 48
1.0
  6
BYLAYER
 10
240.0
 20
186.0
 30
0.0
 11
236.0
 21
186.0
 31
0.0
  0
LINE
  5
129
100
AcDbEntity
100
AcDbLine
  8
0
 62
256
370
-1
 48
1.0
  6
BYLAYER
 10
236.0
 20
186.0
 30
0.0
 11
236.0
 21
196.0
 31
0.0
  0
LINE
  5
12A
100
AcDbEntity
100
AcDbLine
  8
0
 62
256
370
-1
 48
1.0
  6
BYLAYER
 10
236.0
 20
196.0
 30
0.0
 11
240.0
 21
196.0
 31
0.0
  0
LINE
  5
12B
100
AcDbEntity
100
AcDbLine
  8
0
 62
256
370
-1
 48
1.0
  6
BYLAYER
 10
240.0
 20
196.0
 30
0.0
 11
240.0
 21
186.0
 31
0.0
  0
MTEXT
  5
12C
100
AcDbEntity
100
AcDbMText
  8
0
 62
256
370
-1
 48
1.0
  6
BYLAYER
 10
237.0
 20
191.0
 30
0.0
 40
1.0
 41
0.0
 71
2
 72
1
  1
\H2;D15F
  7
textstyle22
 50
90.0
 73
2
 44
1.0
  0
MTEXT
  5
12D
100
AcDbEntity
100
AcDbMText
  8
0
 62
256
370
-1
 48
1.0
  6
BYLAYER
 10
234.0
 20
191.0
 30
0.0
 40
0.8
 41
0.0
 71
6
 72
1
  1
\H2;TE:A2
  7
textstyle23
 50
0.0
 73
2
 44
1.0
  0
MTEXT
  5
12E
100
AcDbEntity
100
AcDbMText
  8
0
 62
256
370
-1
 48
1.0
  6
BYLAYER
 10
238.0
 20
198.0
 30
0.0
 40
0.8
 41
0.0
 71
5
 72
1
  1
\H2;A
  7
textstyle24
 50
0.0
 73
2
 44
1.0
  0
MTEXT
  5
12F
100
AcDbEntity
100
AcDbMText
  8
0
 62
256
370
-1
 48
1.0
  6
BYLAYER
 10
242.0
 20
198.0
 30
0.0
 40
0.8
 41
0.0
 71
5
 72
1
  1
\H2;B
  7
textstyle25
 50
0.0
 73
2
 44
1.0
  0
LINE
  5
130
100
AcDbEntity
100
AcDbLine
  8
0
 62
256
370
-1
 48
1.0
  6
BYLAYER
 10
244.0
 20
186.0
 30
0.0
 11
240.0
 21
186.0
 31
0.0
  0
LINE
  5
131
100
AcDbEntity
100
AcDbLine
  8
0
 62
256
370
-1
 48
1.0
  6
BYLAYER
 10
240.0
 20
186.0
 30
0.0
 11
240.0
 21
196.0
 31
0.0
  0
LINE
  5
132
100
AcDbEntity
100
AcDbLine
  8
0
 62
256
370
-1
 48
1.0
  6
BYLAYER
 10
240.0
 20
196.0
 30
0.0
 11
244.0
 21
196.0
 31
0.0
  0
LINE
  5
133
100
AcDbEntity
100
AcDbLine
  8
0
 62
256
370
-1
 48
1.0
  6
BYLAYER
 10
244.0
 20
196.0
 30
0.0
 11
244.0
 21
186.0
 31
0.0
  0
MTEXT
  5
134
100
AcDbEntity
100
AcDbMText
  8
0
 62
256
370
-1
 48
1.0
  6
BYLAYER
 10
241.0
 20
191.0
 30
0.0
 40
1.0
 41
0.0
 71
2
 72
1
  1
\H2;D15M
  7
textstyle26
 50
90.0
 73
2
 44
1.0
  0
LINE
  5
135
100
AcDbEntity
100
AcDbLine
  8
0
 62
256
370
-1
 48
1.0
  6
BYLAYER
 10
289.0
 20
182.0
 30
0.0
 11
285.0
 21
182.0
 31
0.0
  0
LINE
  5
136
100
AcDbEntity
100
AcDbLine
  8
0
 62
256
370
-1
 48
1.0
  6
BYLAYER
 10
285.0
 20
182.0
 30
0.0
 11
285.0
 21
200.0
 31
0.0
  0
LINE
  5
137
100
AcDbEntity
100
AcDbLine
  8
0
 62
256
370
-1
 48
1.0
  6
BYLAYER
 10
285.0
 20
200.0
 30
0.0
 11
289.0
 21
200.0
 31
0.0
  0
LINE
  5
138
100
AcDbEntity
100
AcDbLine
  8
0
 62
256
370
-1
 48
1.0
  6
BYLAYER
 10
289.0
 20
200.0
 30
0.0
 11
289.0
 21
182.0
 31
0.0
  0
MTEXT
  5
139
100
AcDbEntity
100
AcDbMText
  8
0
 62
256
370
-1
 48
1.0
  6
BYLAYER
 10
286.0
 20
191.0
 30
0.0
 40
1.0
 41
0.0
 71
2
 72
1
  1
\H2;M23-12pin-F
  7
textstyle27
 50
90.0
 73
2
 44
1.0
  0
MTEXT
  5
13A
100
AcDbEntity
100
AcDbMText
  8
0
 62
256
370
-1
 48
1.0
  6
BYLAYER
 10
287.0
 20
198.0
 30
0.0
 40
0.8
 41
0.0
 71
5
 72
1
  1

  7
textstyle28
 50
0.0
 73
2
 44
1.0
  0
MTEXT
  5
13B
100
AcDbEntity
100
AcDbMText
  8
0
 62
256
370
-1
 48
1.0
  6
BYLAYER
 10
293.0
 20
202.0
 30
0.0
 40
0.8
 41
0.0
 71
5
 72
1
  1
\H2;OUT
  7
textstyle29
 50
0.0
 73
2
 44
1.0
  0
LINE
  5
13C
100
AcDbEntity
100
AcDbLine
  8
0
 62
256
370
-1
 48
1.0
  6
BYLAYER
 10
293.0
 20
182.0
 30
0.0
 11
289.0
 21
182.0
 31
0.0
  0
LINE
  5
13D
100
AcDbEntity
100
AcDbLine
  8
0
 62
256
370
-1
 48
1.0
  6
BYLAYER
 10
289.0
 20
186.0
 30
0.0
 11
289.0
 21
196.0
 31
0.0
  0
LINE
  5
13E
100
AcDbEntity
100
AcDbLine
  8
0
 62
256
370
-1
 48
1.0
  6
BYLAYER
 10
289.0
 20
200.0
 30
0.0
 11
293.0
 21
200.0
 31
0.0
  0
LINE
  5
13F
100
AcDbEntity
100
AcDbLine
  8
0
 62
256
370
-1
 48
1.0
  6
BYLAYER
 10
293.0
 20
200.0
 30
0.0
 11
293.0
 21
182.0
 31
0.0
  0
MTEXT
  5
140
100
AcDbEntity
100
AcDbMText
  8
0
 62
256
370
-1
 48
1.0
  6
BYLAYER
 10
290.0
 20
191.0
 30
0.0
 40
1.0
 41
0.0
 71
2
 72
1
  1
\H2;M23-12pin-M
  7
textstyle30
 50
90.0
 73
2
 44
1.0
  0
LINE
  5
141
100
AcDbEntity
100
AcDbLine
  8
0
 62
256
370
-1
 48
1.0
  6
BYLAYER
 10
289.0
 20
205.0
 30
0.0
 11
328.0
 21
205.0
 31
0.0
  0
LINE
  5
142
100
AcDbEntity
100
AcDbLine
  8
0
 62
256
370
-1
 48
1.0
  6
BYLAYER
 10
328.0
 20
205.0
 30
0.0
 11
328.0
 21
178.0
 31
0.0
  0
LINE
  5
143
100
AcDbEntity
100
AcDbLine
  8
0
 62
256
370
-1
 48
1.0
  6
BYLAYER
 10
328.0
 20
178.0
 30
0.0
 11
289.0
 21
178.0
 31
0.0
  0
LINE
  5
144
100
AcDbEntity
100
AcDbLine
  8
0
 62
256
370
-1
 48
1.0
  6
BYLAYER
 10
289.0
 20
178.0
 30
0.0
 11
289.0
 21
205.0
 31
0.0
  0
LINE
  5
145
100
AcDbEntity
100
AcDbLine
  8
0
 62
256
370
-1
 48
1.0
  6
BYLAYER
 10
244.0
 20
191.0
 30
0.0
 11
285.0
 21
191.0
 31
0.0
  0
MTEXT
  5
146
100
AcDbEntity
100
AcDbMText
  8
0
 62
256
370
-1
 48
1.0
  6
BYLAYER
 10
310.0
 20
193.0
 30
0.0
 40
1.0
 41
0.0
 71
2
 72
1
  1
\H2;TE:EXEA2
  7
textstyle31
 50
0.0
 73
2
 44
1.0
  0
LINE
  5
147
100
AcDbEntity
100
AcDbLine
  8
0
 62
256
370
-1
 48
1.0
  6
BYLAYER
 10
328.0
 20
182.0
 30
0.0
 11
324.0
 21
182.0
 31
0.0
  0
LINE
  5
148
100
AcDbEntity
100
AcDbLine
  8
0
 62
256
370
-1
 48
1.0
  6
BYLAYER
 10
324.0
 20
182.0
 30
0.0
 11
324.0
 21
200.0
 31
0.0
  0
LINE
  5
149
100
AcDbEntity
100
AcDbLine
  8
0
 62
256
370
-1
 48
1.0
  6
BYLAYER
 10
324.0
 20
200.0
 30
0.0
 11
328.0
 21
200.0
 31
0.0
  0
LINE
  5
14A
100
AcDbEntity
100
AcDbLine
  8
0
 62
256
370
-1
 48
1.0
  6
BYLAYER
 10
328.0
 20
200.0
 30
0.0
 11
328.0
 21
182.0
 31
0.0
  0
MTEXT
  5
14B
100
AcDbEntity
100
AcDbMText
  8
0
 62
256
370
-1
 48
1.0
  6
BYLAYER
 10
325.0
 20
191.0
 30
0.0
 40
1.0
 41
0.0
 71
2
 72
1
  1
\H2;M23-9pin-F
  7
textstyle32
 50
90.0
 73
2
 44
1.0
  0
MTEXT
  5
14C
100
AcDbEntity
100
AcDbMText
  8
0
 62
256
370
-1
 48
1.0
  6
BYLAYER
 10
326.0
 20
198.0
 30
0.0
 40
0.8
 41
0.0
 71
5
 72
1
  1

  7
textstyle33
 50
0.0
 73
2
 44
1.0
  0
MTEXT
  5
14D
100
AcDbEntity
100
AcDbMText
  8
0
 62
256
370
-1
 48
1.0
  6
BYLAYER
 10
325.0
 20
202.0
 30
0.0
 40
0.8
 41
0.0
 71
5
 72
1
  1
\H2;IN
  7
textstyle34
 50
0.0
 73
2
 44
1.0
  0
LINE
  5
14E
100
AcDbEntity
100
AcDbLine
  8
0
 62
256
370
-1
 48
1.0
  6
BYLAYER
 10
332.0
 20
182.0
 30
0.0
 11
328.0
 21
182.0
 31
0.0
  0
LINE
  5
14F
100
AcDbEntity
100
AcDbLine
  8
0
 62
256
370
-1
 48
1.0
  6
BYLAYER
 10
328.0
 20
186.0
 30
0.0
 11
328.0
 21
196.0
 31
0.0
  0
LINE
  5
150
100
AcDbEntity
100
AcDbLine
  8
0
 62
256
370
-1
 48
1.0
  6
BYLAYER
 10
328.0
 20
200.0
 30
0.0
 11
332.0
 21
200.0
 31
0.0
  0
LINE
  5
151
100
AcDbEntity
100
AcDbLine
  8
0
 62
256
370
-1
 48
1.0
  6
BYLAYER
 10
332.0
 20
200.0
 30
0.0
 11
332.0
 21
182.0
 31
0.0
  0
MTEXT
  5
152
100
AcDbEntity
100
AcDbMText
  8
0
 62
256
370
-1
 48
1.0
  6
BYLAYER
 10
329.0
 20
191.0
 30
0.0
 40
1.0
 41
0.0
 71
2
 72
1
  1
\H2;M23-9pin-M
  7
textstyle35
 50
90.0
 73
2
 44
1.0
  0
LINE
  5
153
100
AcDbEntity
100
AcDbLine
  8
0
 62
256
370
-1
 48
1.0
  6
BYLAYER
 10
332.0
 20
191.0
 30
0.0
 11
367.0
 21
191.0
 31
0.0
  0
MTEXT
  5
154
100
AcDbEntity
100
AcDbMText
  8
0
 62
256
370
-1
 48
1.0
  6
BYLAYER
 10
385.0
 20
193.0
 30
0.0
 40
1.0
 41
0.0
 71
2
 72
1
  1
\H2;TE:LIDA2
  7
textstyle36
 50
0.0
 73
2
 44
1.0
  0
MTEXT
  5
155
100
AcDbEntity
100
AcDbMText
  8
0
 62
256
370
-1
 48
1.0
  6
BYLAYER
 10
386.0
 20
189.0
 30
0.0
 40
1.6000000000000001
 41
0.0
 71
2
 72
1
  1
HEIDENHAIN\PLIDA 360 encoder scanning head
  7
textstyle37
 50
0.0
 73
2
 44
1.0
  0
MTEXT
  5
156
100
AcDbEntity
100
AcDbMText
  8
0
 62
256
370
-1
 48
1.0
  6
BYLAYER
 10
309.0
 20
187.0
 30
0.0
 40
1.6000000000000001
 41
0.0
 71
2
 72
1
  1
HEIDENHAIN\PEXE660B interpolation and\Pdigitizing electronics
  7
textstyle38
 50
0.0
 73
2
 44
1.0
  0
LINE
  5
157
100
AcDbEntity
100
AcDbLine
  8
0
 62
256
370
-1
 48
1.0
  6
BYLAYER
 10
367.0
 20
198.0
 30
0.0
 11
405.0
 21
198.0
 31
0.0
  0
LINE
  5
158
100
AcDbEntity
100
AcDbLine
  8
0
 62
256
370
-1
 48
1.0
  6
BYLAYER
 10
405.0
 20
198.0
 30
0.0
 11
405.0
 21
184.0
 31
0.0
  0
LINE
  5
159
100
AcDbEntity
100
AcDbLine
  8
0
 62
256
370
-1
 48
1.0
  6
BYLAYER
 10
405.0
 20
184.0
 30
0.0
 11
367.0
 21
184.0
 31
0.0
  0
LINE
  5
15A
100
AcDbEntity
100
AcDbLine
  8
0
 62
256
370
-1
 48
1.0
  6
BYLAYER
 10
367.0
 20
184.0
 30
0.0
 11
367.0
 21
198.0
 31
0.0
  0
LINE
  5
15B
100
AcDbEntity
100
AcDbLine
  8
0
 62
256
370
-1
 48
1.0
  6
BYLAYER
 10
240.0
 20
151.0
 30
0.0
 11
236.0
 21
151.0
 31
0.0
  0
LINE
  5
15C
100
AcDbEntity
100
AcDbLine
  8
0
 62
256
370
-1
 48
1.0
  6
BYLAYER
 10
236.0
 20
151.0
 30
0.0
 11
236.0
 21
161.0
 31
0.0
  0
LINE
  5
15D
100
AcDbEntity
100
AcDbLine
  8
0
 62
256
370
-1
 48
1.0
  6
BYLAYER
 10
236.0
 20
161.0
 30
0.0
 11
240.0
 21
161.0
 31
0.0
  0
LINE
  5
15E
100
AcDbEntity
100
AcDbLine
  8
0
 62
256
370
-1
 48
1.0
  6
BYLAYER
 10
240.0
 20
161.0
 30
0.0
 11
240.0
 21
151.0
 31
0.0
  0
MTEXT
  5
15F
100
AcDbEntity
100
AcDbMText
  8
0
 62
256
370
-1
 48
1.0
  6
BYLAYER
 10
237.0
 20
156.0
 30
0.0
 40
1.0
 41
0.0
 71
2
 72
1
  1
\H2;D15F
  7
textstyle39
 50
90.0
 73
2
 44
1.0
  0
MTEXT
  5
160
100
AcDbEntity
100
AcDbMText
  8
0
 62
256
370
-1
 48
1.0
  6
BYLAYER
 10
234.0
 20
156.0
 30
0.0
 40
0.8
 41
0.0
 71
6
 72
1
  1
\H2;TE:A3
  7
textstyle40
 50
0.0
 73
2
 44
1.0
  0
MTEXT
  5
161
100
AcDbEntity
100
AcDbMText
  8
0
 62
256
370
-1
 48
1.0
  6
BYLAYER
 10
238.0
 20
163.0
 30
0.0
 40
0.8
 41
0.0
 71
5
 72
1
  1
\H2;A
  7
textstyle41
 50
0.0
 73
2
 44
1.0
  0
MTEXT
  5
162
100
AcDbEntity
100
AcDbMText
  8
0
 62
256
370
-1
 48
1.0
  6
BYLAYER
 10
242.0
 20
163.0
 30
0.0
 40
0.8
 41
0.0
 71
5
 72
1
  1
\H2;B
  7
textstyle42
 50
0.0
 73
2
 44
1.0
  0
LINE
  5
163
100
AcDbEntity
100
AcDbLine
  8
0
 62
256
370
-1
 48
1.0
  6
BYLAYER
 10
244.0
 20
151.0
 30
0.0
 11
240.0
 21
151.0
 31
0.0
  0
LINE
  5
164
100
AcDbEntity
100
AcDbLine
  8
0
 62
256
370
-1
 48
1.0
  6
BYLAYER
 10
240.0
 20
151.0
 30
0.0
 11
240.0
 21
161.0
 31
0.0
  0
LINE
  5
165
100
AcDbEntity
100
AcDbLine
  8
0
 62
256
370
-1
 48
1.0
  6
BYLAYER
 10
240.0
 20
161.0
 30
0.0
 11
244.0
 21
161.0
 31
0.0
  0
LINE
  5
166
100
AcDbEntity
100
AcDbLine
  8
0
 62
256
370
-1
 48
1.0
  6
BYLAYER
 10
244.0
 20
161.0
 30
0.0
 11
244.0
 21
151.0
 31
0.0
  0
MTEXT
  5
167
100
AcDbEntity
100
AcDbMText
  8
0
 62
256
370
-1
 48
1.0
  6
BYLAYER
 10
241.0
 20
156.0
 30
0.0
 40
1.0
 41
0.0
 71
2
 72
1
  1
\H2;D15M
  7
textstyle43
 50
90.0
 73
2
 44
1.0
  0
LINE
  5
168
100
AcDbEntity
100
AcDbLine
  8
0
 62
256
370
-1
 48
1.0
  6
BYLAYER
 10
289.0
 20
147.0
 30
0.0
 11
285.0
 21
147.0
 31
0.0
  0
LINE
  5
169
100
AcDbEntity
100
AcDbLine
  8
0
 62
256
370
-1
 48
1.0
  6
BYLAYER
 10
285.0
 20
147.0
 30
0.0
 11
285.0
 21
165.0
 31
0.0
  0
LINE
  5
16A
100
AcDbEntity
100
AcDbLine
  8
0
 62
256
370
-1
 48
1.0
  6
BYLAYER
 10
285.0
 20
165.0
 30
0.0
 11
289.0
 21
165.0
 31
0.0
  0
LINE
  5
16B
100
AcDbEntity
100
AcDbLine
  8
0
 62
256
370
-1
 48
1.0
  6
BYLAYER
 10
289.0
 20
165.0
 30
0.0
 11
289.0
 21
147.0
 31
0.0
  0
MTEXT
  5
16C
100
AcDbEntity
100
AcDbMText
  8
0
 62
256
370
-1
 48
1.0
  6
BYLAYER
 10
286.0
 20
156.0
 30
0.0
 40
1.0
 41
0.0
 71
2
 72
1
  1
\H2;M23-12pin-F
  7
textstyle44
 50
90.0
 73
2
 44
1.0
  0
MTEXT
  5
16D
100
AcDbEntity
100
AcDbMText
  8
0
 62
256
370
-1
 48
1.0
  6
BYLAYER
 10
287.0
 20
163.0
 30
0.0
 40
0.8
 41
0.0
 71
5
 72
1
  1

  7
textstyle45
 50
0.0
 73
2
 44
1.0
  0
MTEXT
  5
16E
100
AcDbEntity
100
AcDbMText
  8
0
 62
256
370
-1
 48
1.0
  6
BYLAYER
 10
293.0
 20
167.0
 30
0.0
 40
0.8
 41
0.0
 71
5
 72
1
  1
\H2;OUT
  7
textstyle46
 50
0.0
 73
2
 44
1.0
  0
LINE
  5
16F
100
AcDbEntity
100
AcDbLine
  8
0
 62
256
370
-1
 48
1.0
  6
BYLAYER
 10
293.0
 20
147.0
 30
0.0
 11
289.0
 21
147.0
 31
0.0
  0
LINE
  5
170
100
AcDbEntity
100
AcDbLine
  8
0
 62
256
370
-1
 48
1.0
  6
BYLAYER
 10
289.0
 20
151.0
 30
0.0
 11
289.0
 21
161.0
 31
0.0
  0
LINE
  5
171
100
AcDbEntity
100
AcDbLine
  8
0
 62
256
370
-1
 48
1.0
  6
BYLAYER
 10
289.0
 20
165.0
 30
0.0
 11
293.0
 21
165.0
 31
0.0
  0
LINE
  5
172
100
AcDbEntity
100
AcDbLine
  8
0
 62
256
370
-1
 48
1.0
  6
BYLAYER
 10
293.0
 20
165.0
 30
0.0
 11
293.0
 21
147.0
 31
0.0
  0
MTEXT
  5
173
100
AcDbEntity
100
AcDbMText
  8
0
 62
256
370
-1
 48
1.0
  6
BYLAYER
 10
290.0
 20
156.0
 30
0.0
 40
1.0
 41
0.0
 71
2
 72
1
  1
\H2;M23-12pin-M
  7
textstyle47
 50
90.0
 73
2
 44
1.0
  0
LINE
  5
174
100
AcDbEntity
100
AcDbLine
  8
0
 62
256
370
-1
 48
1.0
  6
BYLAYER
 10
289.0
 20
170.0
 30
0.0
 11
328.0
 21
170.0
 31
0.0
  0
LINE
  5
175
100
AcDbEntity
100
AcDbLine
  8
0
 62
256
370
-1
 48
1.0
  6
BYLAYER
 10
328.0
 20
170.0
 30
0.0
 11
328.0
 21
143.0
 31
0.0
  0
LINE
  5
176
100
AcDbEntity
100
AcDbLine
  8
0
 62
256
370
-1
 48
1.0
  6
BYLAYER
 10
328.0
 20
143.0
 30
0.0
 11
289.0
 21
143.0
 31
0.0
  0
LINE
  5
177
100
AcDbEntity
100
AcDbLine
  8
0
 62
256
370
-1
 48
1.0
  6
BYLAYER
 10
289.0
 20
143.0
 30
0.0
 11
289.0
 21
170.0
 31
0.0
  0
LINE
  5
178
100
AcDbEntity
100
AcDbLine
  8
0
 62
256
370
-1
 48
1.0
  6
BYLAYER
 10
244.0
 20
156.0
 30
0.0
 11
285.0
 21
156.0
 31
0.0
  0
MTEXT
  5
179
100
AcDbEntity
100
AcDbMText
  8
0
 62
256
370
-1
 48
1.0
  6
BYLAYER
 10
310.0
 20
158.0
 30
0.0
 40
1.0
 41
0.0
 71
2
 72
1
  1
\H2;TE:EXEA3
  7
textstyle48
 50
0.0
 73
2
 44
1.0
  0
LINE
  5
17A
100
AcDbEntity
100
AcDbLine
  8
0
 62
256
370
-1
 48
1.0
  6
BYLAYER
 10
328.0
 20
147.0
 30
0.0
 11
324.0
 21
147.0
 31
0.0
  0
LINE
  5
17B
100
AcDbEntity
100
AcDbLine
  8
0
 62
256
370
-1
 48
1.0
  6
BYLAYER
 10
324.0
 20
147.0
 30
0.0
 11
324.0
 21
165.0
 31
0.0
  0
LINE
  5
17C
100
AcDbEntity
100
AcDbLine
  8
0
 62
256
370
-1
 48
1.0
  6
BYLAYER
 10
324.0
 20
165.0
 30
0.0
 11
328.0
 21
165.0
 31
0.0
  0
LINE
  5
17D
100
AcDbEntity
100
AcDbLine
  8
0
 62
256
370
-1
 48
1.0
  6
BYLAYER
 10
328.0
 20
165.0
 30
0.0
 11
328.0
 21
147.0
 31
0.0
  0
MTEXT
  5
17E
100
AcDbEntity
100
AcDbMText
  8
0
 62
256
370
-1
 48
1.0
  6
BYLAYER
 10
325.0
 20
156.0
 30
0.0
 40
1.0
 41
0.0
 71
2
 72
1
  1
\H2;M23-9pin-F
  7
textstyle49
 50
90.0
 73
2
 44
1.0
  0
MTEXT
  5
17F
100
AcDbEntity
100
AcDbMText
  8
0
 62
256
370
-1
 48
1.0
  6
BYLAYER
 10
326.0
 20
163.0
 30
0.0
 40
0.8
 41
0.0
 71
5
 72
1
  1

  7
textstyle50
 50
0.0
 73
2
 44
1.0
  0
MTEXT
  5
180
100
AcDbEntity
100
AcDbMText
  8
0
 62
256
370
-1
 48
1.0
  6
BYLAYER
 10
325.0
 20
167.0
 30
0.0
 40
0.8
 41
0.0
 71
5
 72
1
  1
\H2;IN
  7
textstyle51
 50
0.0
 73
2
 44
1.0
  0
LINE
  5
181
100
AcDbEntity
100
AcDbLine
  8
0
 62
256
370
-1
 48
1.0
  6
BYLAYER
 10
332.0
 20
147.0
 30
0.0
 11
328.0
 21
147.0
 31
0.0
  0
LINE
  5
182
100
AcDbEntity
100
AcDbLine
  8
0
 62
256
370
-1
 48
1.0
  6
BYLAYER
 10
328.0
 20
151.0
 30
0.0
 11
328.0
 21
161.0
 31
0.0
  0
LINE
  5
183
100
AcDbEntity
100
AcDbLine
  8
0
 62
256
370
-1
 48
1.0
  6
BYLAYER
 10
328.0
 20
165.0
 30
0.0
 11
332.0
 21
165.0
 31
0.0
  0
LINE
  5
184
100
AcDbEntity
100
AcDbLine
  8
0
 62
256
370
-1
 48
1.0
  6
BYLAYER
 10
332.0
 20
165.0
 30
0.0
 11
332.0
 21
147.0
 31
0.0
  0
MTEXT
  5
185
100
AcDbEntity
100
AcDbMText
  8
0
 62
256
370
-1
 48
1.0
  6
BYLAYER
 10
329.0
 20
156.0
 30
0.0
 40
1.0
 41
0.0
 71
2
 72
1
  1
\H2;M23-9pin-M
  7
textstyle52
 50
90.0
 73
2
 44
1.0
  0
LINE
  5
186
100
AcDbEntity
100
AcDbLine
  8
0
 62
256
370
-1
 48
1.0
  6
BYLAYER
 10
332.0
 20
156.0
 30
0.0
 11
367.0
 21
156.0
 31
0.0
  0
MTEXT
  5
187
100
AcDbEntity
100
AcDbMText
  8
0
 62
256
370
-1
 48
1.0
  6
BYLAYER
 10
385.0
 20
158.0
 30
0.0
 40
1.0
 41
0.0
 71
2
 72
1
  1
\H2;TE:LIDA3
  7
textstyle53
 50
0.0
 73
2
 44
1.0
  0
MTEXT
  5
188
100
AcDbEntity
100
AcDbMText
  8
0
 62
256
370
-1
 48
1.0
  6
BYLAYER
 10
386.0
 20
154.0
 30
0.0
 40
1.6000000000000001
 41
0.0
 71
2
 72
1
  1
HEIDENHAIN\PLIDA 360 encoder scanning head
  7
textstyle54
 50
0.0
 73
2
 44
1.0
  0
MTEXT
  5
189
100
AcDbEntity
100
AcDbMText
  8
0
 62
256
370
-1
 48
1.0
  6
BYLAYER
 10
309.0
 20
152.0
 30
0.0
 40
1.6000000000000001
 41
0.0
 71
2
 72
1
  1
HEIDENHAIN\PEXE660B interpolation and\Pdigitizing electronics
  7
textstyle55
 50
0.0
 73
2
 44
1.0
  0
LINE
  5
18A
100
AcDbEntity
100
AcDbLine
  8
0
 62
256
370
-1
 48
1.0
  6
BYLAYER
 10
367.0
 20
163.0
 30
0.0
 11
405.0
 21
163.0
 31
0.0
  0
LINE
  5
18B
100
AcDbEntity
100
AcDbLine
  8
0
 62
256
370
-1
 48
1.0
  6
BYLAYER
 10
405.0
 20
163.0
 30
0.0
 11
405.0
 21
149.0
 31
0.0
  0
LINE
  5
18C
100
AcDbEntity
100
AcDbLine
  8
0
 62
256
370
-1
 48
1.0
  6
BYLAYER
 10
405.0
 20
149.0
 30
0.0
 11
367.0
 21
149.0
 31
0.0
  0
LINE
  5
18D
100
AcDbEntity
100
AcDbLine
  8
0
 62
256
370
-1
 48
1.0
  6
BYLAYER
 10
367.0
 20
149.0
 30
0.0
 11
367.0
 21
163.0
 31
0.0
  0
LINE
  5
18E
100
AcDbEntity
100
AcDbLine
  8
0
 62
256
370
-1
 48
1.0
  6
BYLAYER
 10
240.0
 20
116.0
 30
0.0
 11
236.0
 21
116.0
 31
0.0
  0
LINE
  5
18F
100
AcDbEntity
100
AcDbLine
  8
0
 62
256
370
-1
 48
1.0
  6
BYLAYER
 10
236.0
 20
116.0
 30
0.0
 11
236.0
 21
126.0
 31
0.0
  0
LINE
  5
190
100
AcDbEntity
100
AcDbLine
  8
0
 62
256
370
-1
 48
1.0
  6
BYLAYER
 10
236.0
 20
126.0
 30
0.0
 11
240.0
 21
126.0
 31
0.0
  0
LINE
  5
191
100
AcDbEntity
100
AcDbLine
  8
0
 62
256
370
-1
 48
1.0
  6
BYLAYER
 10
240.0
 20
126.0
 30
0.0
 11
240.0
 21
116.0
 31
0.0
  0
MTEXT
  5
192
100
AcDbEntity
100
AcDbMText
  8
0
 62
256
370
-1
 48
1.0
  6
BYLAYER
 10
237.0
 20
121.0
 30
0.0
 40
1.0
 41
0.0
 71
2
 72
1
  1
\H2;D15F
  7
textstyle56
 50
90.0
 73
2
 44
1.0
  0
MTEXT
  5
193
100
AcDbEntity
100
AcDbMText
  8
0
 62
256
370
-1
 48
1.0
  6
BYLAYER
 10
234.0
 20
121.0
 30
0.0
 40
0.8
 41
0.0
 71
6
 72
1
  1
\H2;TE:A4
  7
textstyle57
 50
0.0
 73
2
 44
1.0
  0
MTEXT
  5
194
100
AcDbEntity
100
AcDbMText
  8
0
 62
256
370
-1
 48
1.0
  6
BYLAYER
 10
238.0
 20
128.0
 30
0.0
 40
0.8
 41
0.0
 71
5
 72
1
  1
\H2;A
  7
textstyle58
 50
0.0
 73
2
 44
1.0
  0
MTEXT
  5
195
100
AcDbEntity
100
AcDbMText
  8
0
 62
256
370
-1
 48
1.0
  6
BYLAYER
 10
242.0
 20
128.0
 30
0.0
 40
0.8
 41
0.0
 71
5
 72
1
  1
\H2;B
  7
textstyle59
 50
0.0
 73
2
 44
1.0
  0
LINE
  5
196
100
AcDbEntity
100
AcDbLine
  8
0
 62
256
370
-1
 48
1.0
  6
BYLAYER
 10
244.0
 20
116.0
 30
0.0
 11
240.0
 21
116.0
 31
0.0
  0
LINE
  5
197
100
AcDbEntity
100
AcDbLine
  8
0
 62
256
370
-1
 48
1.0
  6
BYLAYER
 10
240.0
 20
116.0
 30
0.0
 11
240.0
 21
126.0
 31
0.0
  0
LINE
  5
198
100
AcDbEntity
100
AcDbLine
  8
0
 62
256
370
-1
 48
1.0
  6
BYLAYER
 10
240.0
 20
126.0
 30
0.0
 11
244.0
 21
126.0
 31
0.0
  0
LINE
  5
199
100
AcDbEntity
100
AcDbLine
  8
0
 62
256
370
-1
 48
1.0
  6
BYLAYER
 10
244.0
 20
126.0
 30
0.0
 11
244.0
 21
116.0
 31
0.0
  0
MTEXT
  5
19A
100
AcDbEntity
100
AcDbMText
  8
0
 62
256
370
-1
 48
1.0
  6
BYLAYER
 10
241.0
 20
121.0
 30
0.0
 40
1.0
 41
0.0
 71
2
 72
1
  1
\H2;D15M
  7
textstyle60
 50
90.0
 73
2
 44
1.0
  0
LINE
  5
19B
100
AcDbEntity
100
AcDbLine
  8
0
 62
256
370
-1
 48
1.0
  6
BYLAYER
 10
289.0
 20
112.0
 30
0.0
 11
285.0
 21
112.0
 31
0.0
  0
LINE
  5
19C
100
AcDbEntity
100
AcDbLine
  8
0
 62
256
370
-1
 48
1.0
  6
BYLAYER
 10
285.0
 20
112.0
 30
0.0
 11
285.0
 21
130.0
 31
0.0
  0
LINE
  5
19D
100
AcDbEntity
100
AcDbLine
  8
0
 62
256
370
-1
 48
1.0
  6
BYLAYER
 10
285.0
 20
130.0
 30
0.0
 11
289.0
 21
130.0
 31
0.0
  0
LINE
  5
19E
100
AcDbEntity
100
AcDbLine
  8
0
 62
256
370
-1
 48
1.0
  6
BYLAYER
 10
289.0
 20
130.0
 30
0.0
 11
289.0
 21
112.0
 31
0.0
  0
MTEXT
  5
19F
100
AcDbEntity
100
AcDbMText
  8
0
 62
256
370
-1
 48
1.0
  6
BYLAYER
 10
286.0
 20
121.0
 30
0.0
 40
1.0
 41
0.0
 71
2
 72
1
  1
\H2;M23-12pin-F
  7
textstyle61
 50
90.0
 73
2
 44
1.0
  0
MTEXT
  5
1A0
100
AcDbEntity
100
AcDbMText
  8
0
 62
256
370
-1
 48
1.0
  6
BYLAYER
 10
287.0
 20
128.0
 30
0.0
 40
0.8
 41
0.0
 71
5
 72
1
  1

  7
textstyle62
 50
0.0
 73
2
 44
1.0
  0
MTEXT
  5
1A1
100
AcDbEntity
100
AcDbMText
  8
0
 62
256
370
-1
 48
1.0
  6
BYLAYER
 10
293.0
 20
132.0
 30
0.0
 40
0.8
 41
0.0
 71
5
 72
1
  1
\H2;OUT
  7
textstyle63
 50
0.0
 73
2
 44
1.0
  0
LINE
  5
1A2
100
AcDbEntity
100
AcDbLine
  8
0
 62
256
370
-1
 48
1.0
  6
BYLAYER
 10
293.0
 20
112.0
 30
0.0
 11
289.0
 21
112.0
 31
0.0
  0
LINE
  5
1A3
100
AcDbEntity
100
AcDbLine
  8
0
 62
256
370
-1
 48
1.0
  6
BYLAYER
 10
289.0
 20
116.0
 30
0.0
 11
289.0
 21
126.0
 31
0.0
  0
LINE
  5
1A4
100
AcDbEntity
100
AcDbLine
  8
0
 62
256
370
-1
 48
1.0
  6
BYLAYER
 10
289.0
 20
130.0
 30
0.0
 11
293.0
 21
130.0
 31
0.0
  0
LINE
  5
1A5
100
AcDbEntity
100
AcDbLine
  8
0
 62
256
370
-1
 48
1.0
  6
BYLAYER
 10
293.0
 20
130.0
 30
0.0
 11
293.0
 21
112.0
 31
0.0
  0
MTEXT
  5
1A6
100
AcDbEntity
100
AcDbMText
  8
0
 62
256
370
-1
 48
1.0
  6
BYLAYER
 10
290.0
 20
121.0
 30
0.0
 40
1.0
 41
0.0
 71
2
 72
1
  1
\H2;M23-12pin-M
  7
textstyle64
 50
90.0
 73
2
 44
1.0
  0
LINE
  5
1A7
100
AcDbEntity
100
AcDbLine
  8
0
 62
256
370
-1
 48
1.0
  6
BYLAYER
 10
289.0
 20
135.0
 30
0.0
 11
328.0
 21
135.0
 31
0.0
  0
LINE
  5
1A8
100
AcDbEntity
100
AcDbLine
  8
0
 62
256
370
-1
 48
1.0
  6
BYLAYER
 10
328.0
 20
135.0
 30
0.0
 11
328.0
 21
108.0
 31
0.0
  0
LINE
  5
1A9
100
AcDbEntity
100
AcDbLine
  8
0
 62
256
370
-1
 48
1.0
  6
BYLAYER
 10
328.0
 20
108.0
 30
0.0
 11
289.0
 21
108.0
 31
0.0
  0
LINE
  5
1AA
100
AcDbEntity
100
AcDbLine
  8
0
 62
256
370
-1
 48
1.0
  6
BYLAYER
 10
289.0
 20
108.0
 30
0.0
 11
289.0
 21
135.0
 31
0.0
  0
LINE
  5
1AB
100
AcDbEntity
100
AcDbLine
  8
0
 62
256
370
-1
 48
1.0
  6
BYLAYER
 10
244.0
 20
121.0
 30
0.0
 11
285.0
 21
121.0
 31
0.0
  0
MTEXT
  5
1AC
100
AcDbEntity
100
AcDbMText
  8
0
 62
256
370
-1
 48
1.0
  6
BYLAYER
 10
310.0
 20
123.0
 30
0.0
 40
1.0
 41
0.0
 71
2
 72
1
  1
\H2;TE:EXEA4
  7
textstyle65
 50
0.0
 73
2
 44
1.0
  0
LINE
  5
1AD
100
AcDbEntity
100
AcDbLine
  8
0
 62
256
370
-1
 48
1.0
  6
BYLAYER
 10
328.0
 20
112.0
 30
0.0
 11
324.0
 21
112.0
 31
0.0
  0
LINE
  5
1AE
100
AcDbEntity
100
AcDbLine
  8
0
 62
256
370
-1
 48
1.0
  6
BYLAYER
 10
324.0
 20
112.0
 30
0.0
 11
324.0
 21
130.0
 31
0.0
  0
LINE
  5
1AF
100
AcDbEntity
100
AcDbLine
  8
0
 62
256
370
-1
 48
1.0
  6
BYLAYER
 10
324.0
 20
130.0
 30
0.0
 11
328.0
 21
130.0
 31
0.0
  0
LINE
  5
1B0
100
AcDbEntity
100
AcDbLine
  8
0
 62
256
370
-1
 48
1.0
  6
BYLAYER
 10
328.0
 20
130.0
 30
0.0
 11
328.0
 21
112.0
 31
0.0
  0
MTEXT
  5
1B1
100
AcDbEntity
100
AcDbMText
  8
0
 62
256
370
-1
 48
1.0
  6
BYLAYER
 10
325.0
 20
121.0
 30
0.0
 40
1.0
 41
0.0
 71
2
 72
1
  1
\H2;M23-9pin-F
  7
textstyle66
 50
90.0
 73
2
 44
1.0
  0
MTEXT
  5
1B2
100
AcDbEntity
100
AcDbMText
  8
0
 62
256
370
-1
 48
1.0
  6
BYLAYER
 10
326.0
 20
128.0
 30
0.0
 40
0.8
 41
0.0
 71
5
 72
1
  1

  7
textstyle67
 50
0.0
 73
2
 44
1.0
  0
MTEXT
  5
1B3
100
AcDbEntity
100
AcDbMText
  8
0
 62
256
370
-1
 48
1.0
  6
BYLAYER
 10
325.0
 20
132.0
 30
0.0
 40
0.8
 41
0.0
 71
5
 72
1
  1
\H2;IN
  7
textstyle68
 50
0.0
 73
2
 44
1.0
  0
LINE
  5
1B4
100
AcDbEntity
100
AcDbLine
  8
0
 62
256
370
-1
 48
1.0
  6
BYLAYER
 10
332.0
 20
112.0
 30
0.0
 11
328.0
 21
112.0
 31
0.0
  0
LINE
  5
1B5
100
AcDbEntity
100
AcDbLine
  8
0
 62
256
370
-1
 48
1.0
  6
BYLAYER
 10
328.0
 20
116.0
 30
0.0
 11
328.0
 21
126.0
 31
0.0
  0
LINE
  5
1B6
100
AcDbEntity
100
AcDbLine
  8
0
 62
256
370
-1
 48
1.0
  6
BYLAYER
 10
328.0
 20
130.0
 30
0.0
 11
332.0
 21
130.0
 31
0.0
  0
LINE
  5
1B7
100
AcDbEntity
100
AcDbLine
  8
0
 62
256
370
-1
 48
1.0
  6
BYLAYER
 10
332.0
 20
130.0
 30
0.0
 11
332.0
 21
112.0
 31
0.0
  0
MTEXT
  5
1B8
100
AcDbEntity
100
AcDbMText
  8
0
 62
256
370
-1
 48
1.0
  6
BYLAYER
 10
329.0
 20
121.0
 30
0.0
 40
1.0
 41
0.0
 71
2
 72
1
  1
\H2;M23-9pin-M
  7
textstyle69
 50
90.0
 73
2
 44
1.0
  0
LINE
  5
1B9
100
AcDbEntity
100
AcDbLine
  8
0
 62
256
370
-1
 48
1.0
  6
BYLAYER
 10
332.0
 20
121.0
 30
0.0
 11
378.0
 21
121.0
 31
0.0
  0
MTEXT
  5
1BA
100
AcDbEntity
100
AcDbMText
  8
0
 62
256
370
-1
 48
1.0
  6
BYLAYER
 10
396.0
 20
123.0
 30
0.0
 40
1.0
 41
0.0
 71
2
 72
1
  1
\H2;TE:LIDA4
  7
textstyle70
 50
0.0
 73
2
 44
1.0
  0
MTEXT
  5
1BB
100
AcDbEntity
100
AcDbMText
  8
0
 62
256
370
-1
 48
1.0
  6
BYLAYER
 10
397.0
 20
119.0
 30
0.0
 40
1.6000000000000001
 41
0.0
 71
2
 72
1
  1
HEIDENHAIN\PLIDA 360 encoder scanning head
  7
textstyle71
 50
0.0
 73
2
 44
1.0
  0
MTEXT
  5
1BC
100
AcDbEntity
100
AcDbMText
  8
0
 62
256
370
-1
 48
1.0
  6
BYLAYER
 10
309.0
 20
117.0
 30
0.0
 40
1.6000000000000001
 41
0.0
 71
2
 72
1
  1
HEIDENHAIN\PEXE660B interpolation and\Pdigitizing electronics
  7
textstyle72
 50
0.0
 73
2
 44
1.0
  0
LINE
  5
1BD
100
AcDbEntity
100
AcDbLine
  8
0
 62
256
370
-1
 48
1.0
  6
BYLAYER
 10
378.0
 20
128.0
 30
0.0
 11
416.0
 21
128.0
 31
0.0
  0
LINE
  5
1BE
100
AcDbEntity
100
AcDbLine
  8
0
 62
256
370
-1
 48
1.0
  6
BYLAYER
 10
416.0
 20
128.0
 30
0.0
 11
416.0
 21
114.0
 31
0.0
  0
LINE
  5
1BF
100
AcDbEntity
100
AcDbLine
  8
0
 62
256
370
-1
 48
1.0
  6
BYLAYER
 10
416.0
 20
114.0
 30
0.0
 11
378.0
 21
114.0
 31
0.0
  0
LINE
  5
1C0
100
AcDbEntity
100
AcDbLine
  8
0
 62
256
370
-1
 48
1.0
  6
BYLAYER
 10
378.0
 20
114.0
 30
0.0
 11
378.0
 21
128.0
 31
0.0
  0
LINE
  5
1C1
100
AcDbEntity
100
AcDbLine
  8
0
 62
256
370
-1
 48
1.0
  6
BYLAYER
 10
240.0
 20
81.0
 30
0.0
 11
236.0
 21
81.0
 31
0.0
  0
LINE
  5
1C2
100
AcDbEntity
100
AcDbLine
  8
0
 62
256
370
-1
 48
1.0
  6
BYLAYER
 10
236.0
 20
81.0
 30
0.0
 11
236.0
 21
91.0
 31
0.0
  0
LINE
  5
1C3
100
AcDbEntity
100
AcDbLine
  8
0
 62
256
370
-1
 48
1.0
  6
BYLAYER
 10
236.0
 20
91.0
 30
0.0
 11
240.0
 21
91.0
 31
0.0
  0
LINE
  5
1C4
100
AcDbEntity
100
AcDbLine
  8
0
 62
256
370
-1
 48
1.0
  6
BYLAYER
 10
240.0
 20
91.0
 30
0.0
 11
240.0
 21
81.0
 31
0.0
  0
MTEXT
  5
1C5
100
AcDbEntity
100
AcDbMText
  8
0
 62
256
370
-1
 48
1.0
  6
BYLAYER
 10
237.0
 20
86.0
 30
0.0
 40
1.0
 41
0.0
 71
2
 72
1
  1
\H2;D15F
  7
textstyle73
 50
90.0
 73
2
 44
1.0
  0
MTEXT
  5
1C6
100
AcDbEntity
100
AcDbMText
  8
0
 62
256
370
-1
 48
1.0
  6
BYLAYER
 10
234.0
 20
86.0
 30
0.0
 40
0.8
 41
0.0
 71
6
 72
1
  1
\H2;TE:E1
  7
textstyle74
 50
0.0
 73
2
 44
1.0
  0
MTEXT
  5
1C7
100
AcDbEntity
100
AcDbMText
  8
0
 62
256
370
-1
 48
1.0
  6
BYLAYER
 10
238.0
 20
93.0
 30
0.0
 40
0.8
 41
0.0
 71
5
 72
1
  1
\H2;A
  7
textstyle75
 50
0.0
 73
2
 44
1.0
  0
MTEXT
  5
1C8
100
AcDbEntity
100
AcDbMText
  8
0
 62
256
370
-1
 48
1.0
  6
BYLAYER
 10
242.0
 20
93.0
 30
0.0
 40
0.8
 41
0.0
 71
5
 72
1
  1
\H2;B
  7
textstyle76
 50
0.0
 73
2
 44
1.0
  0
LINE
  5
1C9
100
AcDbEntity
100
AcDbLine
  8
0
 62
256
370
-1
 48
1.0
  6
BYLAYER
 10
244.0
 20
81.0
 30
0.0
 11
240.0
 21
81.0
 31
0.0
  0
LINE
  5
1CA
100
AcDbEntity
100
AcDbLine
  8
0
 62
256
370
-1
 48
1.0
  6
BYLAYER
 10
240.0
 20
81.0
 30
0.0
 11
240.0
 21
91.0
 31
0.0
  0
LINE
  5
1CB
100
AcDbEntity
100
AcDbLine
  8
0
 62
256
370
-1
 48
1.0
  6
BYLAYER
 10
240.0
 20
91.0
 30
0.0
 11
244.0
 21
91.0
 31
0.0
  0
LINE
  5
1CC
100
AcDbEntity
100
AcDbLine
  8
0
 62
256
370
-1
 48
1.0
  6
BYLAYER
 10
244.0
 20
91.0
 30
0.0
 11
244.0
 21
81.0
 31
0.0
  0
MTEXT
  5
1CD
100
AcDbEntity
100
AcDbMText
  8
0
 62
256
370
-1
 48
1.0
  6
BYLAYER
 10
241.0
 20
86.0
 30
0.0
 40
1.0
 41
0.0
 71
2
 72
1
  1
\H2;D15M
  7
textstyle77
 50
90.0
 73
2
 44
1.0
  0
LINE
  5
1CE
100
AcDbEntity
100
AcDbLine
  8
0
 62
256
370
-1
 48
1.0
  6
BYLAYER
 10
289.0
 20
77.0
 30
0.0
 11
285.0
 21
77.0
 31
0.0
  0
LINE
  5
1CF
100
AcDbEntity
100
AcDbLine
  8
0
 62
256
370
-1
 48
1.0
  6
BYLAYER
 10
285.0
 20
77.0
 30
0.0
 11
285.0
 21
95.0
 31
0.0
  0
LINE
  5
1D0
100
AcDbEntity
100
AcDbLine
  8
0
 62
256
370
-1
 48
1.0
  6
BYLAYER
 10
285.0
 20
95.0
 30
0.0
 11
289.0
 21
95.0
 31
0.0
  0
LINE
  5
1D1
100
AcDbEntity
100
AcDbLine
  8
0
 62
256
370
-1
 48
1.0
  6
BYLAYER
 10
289.0
 20
95.0
 30
0.0
 11
289.0
 21
77.0
 31
0.0
  0
MTEXT
  5
1D2
100
AcDbEntity
100
AcDbMText
  8
0
 62
256
370
-1
 48
1.0
  6
BYLAYER
 10
286.0
 20
86.0
 30
0.0
 40
1.0
 41
0.0
 71
2
 72
1
  1
\H2;M23-12pin-F
  7
textstyle78
 50
90.0
 73
2
 44
1.0
  0
MTEXT
  5
1D3
100
AcDbEntity
100
AcDbMText
  8
0
 62
256
370
-1
 48
1.0
  6
BYLAYER
 10
287.0
 20
93.0
 30
0.0
 40
0.8
 41
0.0
 71
5
 72
1
  1

  7
textstyle79
 50
0.0
 73
2
 44
1.0
  0
MTEXT
  5
1D4
100
AcDbEntity
100
AcDbMText
  8
0
 62
256
370
-1
 48
1.0
  6
BYLAYER
 10
293.0
 20
97.0
 30
0.0
 40
0.8
 41
0.0
 71
5
 72
1
  1
\H2;OUT
  7
textstyle80
 50
0.0
 73
2
 44
1.0
  0
LINE
  5
1D5
100
AcDbEntity
100
AcDbLine
  8
0
 62
256
370
-1
 48
1.0
  6
BYLAYER
 10
293.0
 20
77.0
 30
0.0
 11
289.0
 21
77.0
 31
0.0
  0
LINE
  5
1D6
100
AcDbEntity
100
AcDbLine
  8
0
 62
256
370
-1
 48
1.0
  6
BYLAYER
 10
289.0
 20
81.0
 30
0.0
 11
289.0
 21
91.0
 31
0.0
  0
LINE
  5
1D7
100
AcDbEntity
100
AcDbLine
  8
0
 62
256
370
-1
 48
1.0
  6
BYLAYER
 10
289.0
 20
95.0
 30
0.0
 11
293.0
 21
95.0
 31
0.0
  0
LINE
  5
1D8
100
AcDbEntity
100
AcDbLine
  8
0
 62
256
370
-1
 48
1.0
  6
BYLAYER
 10
293.0
 20
95.0
 30
0.0
 11
293.0
 21
77.0
 31
0.0
  0
MTEXT
  5
1D9
100
AcDbEntity
100
AcDbMText
  8
0
 62
256
370
-1
 48
1.0
  6
BYLAYER
 10
290.0
 20
86.0
 30
0.0
 40
1.0
 41
0.0
 71
2
 72
1
  1
\H2;M23-12pin-M
  7
textstyle81
 50
90.0
 73
2
 44
1.0
  0
LINE
  5
1DA
100
AcDbEntity
100
AcDbLine
  8
0
 62
256
370
-1
 48
1.0
  6
BYLAYER
 10
289.0
 20
100.0
 30
0.0
 11
328.0
 21
100.0
 31
0.0
  0
LINE
  5
1DB
100
AcDbEntity
100
AcDbLine
  8
0
 62
256
370
-1
 48
1.0
  6
BYLAYER
 10
328.0
 20
100.0
 30
0.0
 11
328.0
 21
73.0
 31
0.0
  0
LINE
  5
1DC
100
AcDbEntity
100
AcDbLine
  8
0
 62
256
370
-1
 48
1.0
  6
BYLAYER
 10
328.0
 20
73.0
 30
0.0
 11
289.0
 21
73.0
 31
0.0
  0
LINE
  5
1DD
100
AcDbEntity
100
AcDbLine
  8
0
 62
256
370
-1
 48
1.0
  6
BYLAYER
 10
289.0
 20
73.0
 30
0.0
 11
289.0
 21
100.0
 31
0.0
  0
LINE
  5
1DE
100
AcDbEntity
100
AcDbLine
  8
0
 62
256
370
-1
 48
1.0
  6
BYLAYER
 10
244.0
 20
86.0
 30
0.0
 11
285.0
 21
86.0
 31
0.0
  0
MTEXT
  5
1DF
100
AcDbEntity
100
AcDbMText
  8
0
 62
256
370
-1
 48
1.0
  6
BYLAYER
 10
310.0
 20
88.0
 30
0.0
 40
1.0
 41
0.0
 71
2
 72
1
  1
\H2;TE:EXEE1
  7
textstyle82
 50
0.0
 73
2
 44
1.0
  0
LINE
  5
1E0
100
AcDbEntity
100
AcDbLine
  8
0
 62
256
370
-1
 48
1.0
  6
BYLAYER
 10
328.0
 20
77.0
 30
0.0
 11
324.0
 21
77.0
 31
0.0
  0
LINE
  5
1E1
100
AcDbEntity
100
AcDbLine
  8
0
 62
256
370
-1
 48
1.0
  6
BYLAYER
 10
324.0
 20
77.0
 30
0.0
 11
324.0
 21
95.0
 31
0.0
  0
LINE
  5
1E2
100
AcDbEntity
100
AcDbLine
  8
0
 62
256
370
-1
 48
1.0
  6
BYLAYER
 10
324.0
 20
95.0
 30
0.0
 11
328.0
 21
95.0
 31
0.0
  0
LINE
  5
1E3
100
AcDbEntity
100
AcDbLine
  8
0
 62
256
370
-1
 48
1.0
  6
BYLAYER
 10
328.0
 20
95.0
 30
0.0
 11
328.0
 21
77.0
 31
0.0
  0
MTEXT
  5
1E4
100
AcDbEntity
100
AcDbMText
  8
0
 62
256
370
-1
 48
1.0
  6
BYLAYER
 10
325.0
 20
86.0
 30
0.0
 40
1.0
 41
0.0
 71
2
 72
1
  1
\H2;M23-9pin-F
  7
textstyle83
 50
90.0
 73
2
 44
1.0
  0
MTEXT
  5
1E5
100
AcDbEntity
100
AcDbMText
  8
0
 62
256
370
-1
 48
1.0
  6
BYLAYER
 10
326.0
 20
93.0
 30
0.0
 40
0.8
 41
0.0
 71
5
 72
1
  1

  7
textstyle84
 50
0.0
 73
2
 44
1.0
  0
MTEXT
  5
1E6
100
AcDbEntity
100
AcDbMText
  8
0
 62
256
370
-1
 48
1.0
  6
BYLAYER
 10
325.0
 20
97.0
 30
0.0
 40
0.8
 41
0.0
 71
5
 72
1
  1
\H2;IN
  7
textstyle85
 50
0.0
 73
2
 44
1.0
  0
LINE
  5
1E7
100
AcDbEntity
100
AcDbLine
  8
0
 62
256
370
-1
 48
1.0
  6
BYLAYER
 10
372.0
 20
77.0
 30
0.0
 11
368.0
 21
77.0
 31
0.0
  0
LINE
  5
1E8
100
AcDbEntity
100
AcDbLine
  8
0
 62
256
370
-1
 48
1.0
  6
BYLAYER
 10
368.0
 20
77.0
 30
0.0
 11
368.0
 21
95.0
 31
0.0
  0
LINE
  5
1E9
100
AcDbEntity
100
AcDbLine
  8
0
 62
256
370
-1
 48
1.0
  6
BYLAYER
 10
368.0
 20
95.0
 30
0.0
 11
372.0
 21
95.0
 31
0.0
  0
LINE
  5
1EA
100
AcDbEntity
100
AcDbLine
  8
0
 62
256
370
-1
 48
1.0
  6
BYLAYER
 10
372.0
 20
95.0
 30
0.0
 11
372.0
 21
77.0
 31
0.0
  0
MTEXT
  5
1EB
100
AcDbEntity
100
AcDbMText
  8
0
 62
256
370
-1
 48
1.0
  6
BYLAYER
 10
369.0
 20
86.0
 30
0.0
 40
1.0
 41
0.0
 71
2
 72
1
  1
\H2;M23-9pin-M
  7
textstyle86
 50
90.0
 73
2
 44
1.0
  0
LINE
  5
1EC
100
AcDbEntity
100
AcDbLine
  8
0
 62
256
370
-1
 48
1.0
  6
BYLAYER
 10
372.0
 20
86.0
 30
0.0
 11
407.0
 21
86.0
 31
0.0
  0
MTEXT
  5
1ED
100
AcDbEntity
100
AcDbMText
  8
0
 62
256
370
-1
 48
1.0
  6
BYLAYER
 10
425.0
 20
88.0
 30
0.0
 40
1.0
 41
0.0
 71
2
 72
1
  1
\H2;TE:LIDE1
  7
textstyle87
 50
0.0
 73
2
 44
1.0
  0
MTEXT
  5
1EE
100
AcDbEntity
100
AcDbMText
  8
0
 62
256
370
-1
 48
1.0
  6
BYLAYER
 10
426.0
 20
84.0
 30
0.0
 40
1.6000000000000001
 41
0.0
 71
2
 72
1
  1
HEIDENHAIN\PLIDA 360 encoder scanning head
  7
textstyle88
 50
0.0
 73
2
 44
1.0
  0
MTEXT
  5
1EF
100
AcDbEntity
100
AcDbMText
  8
0
 62
256
370
-1
 48
1.0
  6
BYLAYER
 10
309.0
 20
82.0
 30
0.0
 40
1.6000000000000001
 41
0.0
 71
2
 72
1
  1
HEIDENHAIN\PEXE660B interpolation and\Pdigitizing electronics
  7
textstyle89
 50
0.0
 73
2
 44
1.0
  0
LINE
  5
1F0
100
AcDbEntity
100
AcDbLine
  8
0
 62
256
370
-1
 48
1.0
  6
BYLAYER
 10
407.0
 20
93.0
 30
0.0
 11
445.0
 21
93.0
 31
0.0
  0
LINE
  5
1F1
100
AcDbEntity
100
AcDbLine
  8
0
 62
256
370
-1
 48
1.0
  6
BYLAYER
 10
445.0
 20
93.0
 30
0.0
 11
445.0
 21
79.0
 31
0.0
  0
LINE
  5
1F2
100
AcDbEntity
100
AcDbLine
  8
0
 62
256
370
-1
 48
1.0
  6
BYLAYER
 10
445.0
 20
79.0
 30
0.0
 11
407.0
 21
79.0
 31
0.0
  0
LINE
  5
1F3
100
AcDbEntity
100
AcDbLine
  8
0
 62
256
370
-1
 48
1.0
  6
BYLAYER
 10
407.0
 20
79.0
 30
0.0
 11
407.0
 21
93.0
 31
0.0
  0
LINE
  5
1F4
100
AcDbEntity
100
AcDbLine
  8
0
 62
256
370
-1
 48
1.0
  6
BYLAYER
 10
240.0
 20
46.0
 30
0.0
 11
236.0
 21
46.0
 31
0.0
  0
LINE
  5
1F5
100
AcDbEntity
100
AcDbLine
  8
0
 62
256
370
-1
 48
1.0
  6
BYLAYER
 10
236.0
 20
46.0
 30
0.0
 11
236.0
 21
56.0
 31
0.0
  0
LINE
  5
1F6
100
AcDbEntity
100
AcDbLine
  8
0
 62
256
370
-1
 48
1.0
  6
BYLAYER
 10
236.0
 20
56.0
 30
0.0
 11
240.0
 21
56.0
 31
0.0
  0
LINE
  5
1F7
100
AcDbEntity
100
AcDbLine
  8
0
 62
256
370
-1
 48
1.0
  6
BYLAYER
 10
240.0
 20
56.0
 30
0.0
 11
240.0
 21
46.0
 31
0.0
  0
MTEXT
  5
1F8
100
AcDbEntity
100
AcDbMText
  8
0
 62
256
370
-1
 48
1.0
  6
BYLAYER
 10
237.0
 20
51.0
 30
0.0
 40
1.0
 41
0.0
 71
2
 72
1
  1
\H2;D15F
  7
textstyle90
 50
90.0
 73
2
 44
1.0
  0
MTEXT
  5
1F9
100
AcDbEntity
100
AcDbMText
  8
0
 62
256
370
-1
 48
1.0
  6
BYLAYER
 10
234.0
 20
51.0
 30
0.0
 40
0.8
 41
0.0
 71
6
 72
1
  1
\H2;TE:E2
  7
textstyle91
 50
0.0
 73
2
 44
1.0
  0
MTEXT
  5
1FA
100
AcDbEntity
100
AcDbMText
  8
0
 62
256
370
-1
 48
1.0
  6
BYLAYER
 10
238.0
 20
58.0
 30
0.0
 40
0.8
 41
0.0
 71
5
 72
1
  1
\H2;A
  7
textstyle92
 50
0.0
 73
2
 44
1.0
  0
MTEXT
  5
1FB
100
AcDbEntity
100
AcDbMText
  8
0
 62
256
370
-1
 48
1.0
  6
BYLAYER
 10
242.0
 20
58.0
 30
0.0
 40
0.8
 41
0.0
 71
5
 72
1
  1
\H2;B
  7
textstyle93
 50
0.0
 73
2
 44
1.0
  0
LINE
  5
1FC
100
AcDbEntity
100
AcDbLine
  8
0
 62
256
370
-1
 48
1.0
  6
BYLAYER
 10
244.0
 20
46.0
 30
0.0
 11
240.0
 21
46.0
 31
0.0
  0
LINE
  5
1FD
100
AcDbEntity
100
AcDbLine
  8
0
 62
256
370
-1
 48
1.0
  6
BYLAYER
 10
240.0
 20
46.0
 30
0.0
 11
240.0
 21
56.0
 31
0.0
  0
LINE
  5
1FE
100
AcDbEntity
100
AcDbLine
  8
0
 62
256
370
-1
 48
1.0
  6
BYLAYER
 10
240.0
 20
56.0
 30
0.0
 11
244.0
 21
56.0
 31
0.0
  0
LINE
  5
1FF
100
AcDbEntity
100
AcDbLine
  8
0
 62
256
370
-1
 48
1.0
  6
BYLAYER
 10
244.0
 20
56.0
 30
0.0
 11
244.0
 21
46.0
 31
0.0
  0
MTEXT
  5
200
100
AcDbEntity
100
AcDbMText
  8
0
 62
256
370
-1
 48
1.0
  6
BYLAYER
 10
241.0
 20
51.0
 30
0.0
 40
1.0
 41
0.0
 71
2
 72
1
  1
\H2;D15M
  7
textstyle94
 50
90.0
 73
2
 44
1.0
  0
LINE
  5
201
100
AcDbEntity
100
AcDbLine
  8
0
 62
256
370
-1
 48
1.0
  6
BYLAYER
 10
289.0
 20
42.0
 30
0.0
 11
285.0
 21
42.0
 31
0.0
  0
LINE
  5
202
100
AcDbEntity
100
AcDbLine
  8
0
 62
256
370
-1
 48
1.0
  6
BYLAYER
 10
285.0
 20
42.0
 30
0.0
 11
285.0
 21
60.0
 31
0.0
  0
LINE
  5
203
100
AcDbEntity
100
AcDbLine
  8
0
 62
256
370
-1
 48
1.0
  6
BYLAYER
 10
285.0
 20
60.0
 30
0.0
 11
289.0
 21
60.0
 31
0.0
  0
LINE
  5
204
100
AcDbEntity
100
AcDbLine
  8
0
 62
256
370
-1
 48
1.0
  6
BYLAYER
 10
289.0
 20
60.0
 30
0.0
 11
289.0
 21
42.0
 31
0.0
  0
MTEXT
  5
205
100
AcDbEntity
100
AcDbMText
  8
0
 62
256
370
-1
 48
1.0
  6
BYLAYER
 10
286.0
 20
51.0
 30
0.0
 40
1.0
 41
0.0
 71
2
 72
1
  1
\H2;M23-12pin-F
  7
textstyle95
 50
90.0
 73
2
 44
1.0
  0
MTEXT
  5
206
100
AcDbEntity
100
AcDbMText
  8
0
 62
256
370
-1
 48
1.0
  6
BYLAYER
 10
287.0
 20
58.0
 30
0.0
 40
0.8
 41
0.0
 71
5
 72
1
  1

  7
textstyle96
 50
0.0
 73
2
 44
1.0
  0
MTEXT
  5
207
100
AcDbEntity
100
AcDbMText
  8
0
 62
256
370
-1
 48
1.0
  6
BYLAYER
 10
293.0
 20
62.0
 30
0.0
 40
0.8
 41
0.0
 71
5
 72
1
  1
\H2;OUT
  7
textstyle97
 50
0.0
 73
2
 44
1.0
  0
LINE
  5
208
100
AcDbEntity
100
AcDbLine
  8
0
 62
256
370
-1
 48
1.0
  6
BYLAYER
 10
293.0
 20
42.0
 30
0.0
 11
289.0
 21
42.0
 31
0.0
  0
LINE
  5
209
100
AcDbEntity
100
AcDbLine
  8
0
 62
256
370
-1
 48
1.0
  6
BYLAYER
 10
289.0
 20
46.0
 30
0.0
 11
289.0
 21
56.0
 31
0.0
  0
LINE
  5
20A
100
AcDbEntity
100
AcDbLine
  8
0
 62
256
370
-1
 48
1.0
  6
BYLAYER
 10
289.0
 20
60.0
 30
0.0
 11
293.0
 21
60.0
 31
0.0
  0
LINE
  5
20B
100
AcDbEntity
100
AcDbLine
  8
0
 62
256
370
-1
 48
1.0
  6
BYLAYER
 10
293.0
 20
60.0
 30
0.0
 11
293.0
 21
42.0
 31
0.0
  0
MTEXT
  5
20C
100
AcDbEntity
100
AcDbMText
  8
0
 62
256
370
-1
 48
1.0
  6
BYLAYER
 10
290.0
 20
51.0
 30
0.0
 40
1.0
 41
0.0
 71
2
 72
1
  1
\H2;M23-12pin-M
  7
textstyle98
 50
90.0
 73
2
 44
1.0
  0
LINE
  5
20D
100
AcDbEntity
100
AcDbLine
  8
0
 62
256
370
-1
 48
1.0
  6
BYLAYER
 10
289.0
 20
65.0
 30
0.0
 11
328.0
 21
65.0
 31
0.0
  0
LINE
  5
20E
100
AcDbEntity
100
AcDbLine
  8
0
 62
256
370
-1
 48
1.0
  6
BYLAYER
 10
328.0
 20
65.0
 30
0.0
 11
328.0
 21
38.0
 31
0.0
  0
LINE
  5
20F
100
AcDbEntity
100
AcDbLine
  8
0
 62
256
370
-1
 48
1.0
  6
BYLAYER
 10
328.0
 20
38.0
 30
0.0
 11
289.0
 21
38.0
 31
0.0
  0
LINE
  5
210
100
AcDbEntity
100
AcDbLine
  8
0
 62
256
370
-1
 48
1.0
  6
BYLAYER
 10
289.0
 20
38.0
 30
0.0
 11
289.0
 21
65.0
 31
0.0
  0
LINE
  5
211
100
AcDbEntity
100
AcDbLine
  8
0
 62
256
370
-1
 48
1.0
  6
BYLAYER
 10
244.0
 20
51.0
 30
0.0
 11
285.0
 21
51.0
 31
0.0
  0
MTEXT
  5
212
100
AcDbEntity
100
AcDbMText
  8
0
 62
256
370
-1
 48
1.0
  6
BYLAYER
 10
310.0
 20
53.0
 30
0.0
 40
1.0
 41
0.0
 71
2
 72
1
  1
\H2;TE:EXEE2
  7
textstyle99
 50
0.0
 73
2
 44
1.0
  0
LINE
  5
213
100
AcDbEntity
100
AcDbLine
  8
0
 62
256
370
-1
 48
1.0
  6
BYLAYER
 10
328.0
 20
42.0
 30
0.0
 11
324.0
 21
42.0
 31
0.0
  0
LINE
  5
214
100
AcDbEntity
100
AcDbLine
  8
0
 62
256
370
-1
 48
1.0
  6
BYLAYER
 10
324.0
 20
42.0
 30
0.0
 11
324.0
 21
60.0
 31
0.0
  0
LINE
  5
215
100
AcDbEntity
100
AcDbLine
  8
0
 62
256
370
-1
 48
1.0
  6
BYLAYER
 10
324.0
 20
60.0
 30
0.0
 11
328.0
 21
60.0
 31
0.0
  0
LINE
  5
216
100
AcDbEntity
100
AcDbLine
  8
0
 62
256
370
-1
 48
1.0
  6
BYLAYER
 10
328.0
 20
60.0
 30
0.0
 11
328.0
 21
42.0
 31
0.0
  0
MTEXT
  5
217
100
AcDbEntity
100
AcDbMText
  8
0
 62
256
370
-1
 48
1.0
  6
BYLAYER
 10
325.0
 20
51.0
 30
0.0
 40
1.0
 41
0.0
 71
2
 72
1
  1
\H2;M23-9pin-F
  7
textstyle100
 50
90.0
 73
2
 44
1.0
  0
MTEXT
  5
218
100
AcDbEntity
100
AcDbMText
  8
0
 62
256
370
-1
 48
1.0
  6
BYLAYER
 10
326.0
 20
58.0
 30
0.0
 40
0.8
 41
0.0
 71
5
 72
1
  1

  7
textstyle101
 50
0.0
 73
2
 44
1.0
  0
MTEXT
  5
219
100
AcDbEntity
100
AcDbMText
  8
0
 62
256
370
-1
 48
1.0
  6
BYLAYER
 10
325.0
 20
62.0
 30
0.0
 40
0.8
 41
0.0
 71
5
 72
1
  1
\H2;IN
  7
textstyle102
 50
0.0
 73
2
 44
1.0
  0
LINE
  5
21A
100
AcDbEntity
100
AcDbLine
  8
0
 62
256
370
-1
 48
1.0
  6
BYLAYER
 10
328.0
 20
46.0
 30
0.0
 11
328.0
 21
56.0
 31
0.0
  0
MTEXT
  5
21B
100
AcDbEntity
100
AcDbMText
  8
0
 62
256
370
-1
 48
1.0
  6
BYLAYER
 10
309.0
 20
47.0
 30
0.0
 40
1.6000000000000001
 41
0.0
 71
2
 72
1
  1
HEIDENHAIN\PEXE660B interpolation and\Pdigitizing electronics
  7
textstyle103
 50
0.0
 73
2
 44
1.0
  0
LINE
  5
21C
100
AcDbEntity
100
AcDbLine
  8
0
 62
256
370
-1
 48
1.0
  6
BYLAYER
 10
368.0
 20
77.0
 30
0.0
 11
364.0
 21
77.0
 31
0.0
  0
LINE
  5
21D
100
AcDbEntity
100
AcDbLine
  8
0
 62
256
370
-1
 48
1.0
  6
BYLAYER
 10
364.0
 20
77.0
 30
0.0
 11
364.0
 21
95.0
 31
0.0
  0
LINE
  5
21E
100
AcDbEntity
100
AcDbLine
  8
0
 62
256
370
-1
 48
1.0
  6
BYLAYER
 10
364.0
 20
95.0
 30
0.0
 11
368.0
 21
95.0
 31
0.0
  0
LINE
  5
21F
100
AcDbEntity
100
AcDbLine
  8
0
 62
256
370
-1
 48
1.0
  6
BYLAYER
 10
368.0
 20
95.0
 30
0.0
 11
368.0
 21
77.0
 31
0.0
  0
MTEXT
  5
220
100
AcDbEntity
100
AcDbMText
  8
0
 62
256
370
-1
 48
1.0
  6
BYLAYER
 10
365.0
 20
86.0
 30
0.0
 40
1.0
 41
0.0
 71
2
 72
1
  1
\H2;M23-9pin-F
  7
textstyle104
 50
90.0
 73
2
 44
1.0
  0
LINE
  5
221
100
AcDbEntity
100
AcDbLine
  8
0
 62
256
370
-1
 48
1.0
  6
BYLAYER
 10
332.0
 20
77.0
 30
0.0
 11
328.0
 21
77.0
 31
0.0
  0
LINE
  5
222
100
AcDbEntity
100
AcDbLine
  8
0
 62
256
370
-1
 48
1.0
  6
BYLAYER
 10
328.0
 20
77.0
 30
0.0
 11
328.0
 21
95.0
 31
0.0
  0
LINE
  5
223
100
AcDbEntity
100
AcDbLine
  8
0
 62
256
370
-1
 48
1.0
  6
BYLAYER
 10
328.0
 20
95.0
 30
0.0
 11
332.0
 21
95.0
 31
0.0
  0
LINE
  5
224
100
AcDbEntity
100
AcDbLine
  8
0
 62
256
370
-1
 48
1.0
  6
BYLAYER
 10
332.0
 20
95.0
 30
0.0
 11
332.0
 21
77.0
 31
0.0
  0
MTEXT
  5
225
100
AcDbEntity
100
AcDbMText
  8
0
 62
256
370
-1
 48
1.0
  6
BYLAYER
 10
329.0
 20
86.0
 30
0.0
 40
1.0
 41
0.0
 71
2
 72
1
  1
\H2;M23-9pin-M
  7
textstyle105
 50
90.0
 73
2
 44
1.0
  0
LINE
  5
226
100
AcDbEntity
100
AcDbLine
  8
0
 62
256
370
-1
 48
1.0
  6
BYLAYER
 10
364.0
 20
86.0
 30
0.0
 11
332.0
 21
86.0
 31
0.0
  0
LINE
  5
227
100
AcDbEntity
100
AcDbLine
  8
0
 62
256
370
-1
 48
1.0
  6
BYLAYER
 10
372.0
 20
42.0
 30
0.0
 11
368.0
 21
42.0
 31
0.0
  0
LINE
  5
228
100
AcDbEntity
100
AcDbLine
  8
0
 62
256
370
-1
 48
1.0
  6
BYLAYER
 10
368.0
 20
42.0
 30
0.0
 11
368.0
 21
60.0
 31
0.0
  0
LINE
  5
229
100
AcDbEntity
100
AcDbLine
  8
0
 62
256
370
-1
 48
1.0
  6
BYLAYER
 10
368.0
 20
60.0
 30
0.0
 11
372.0
 21
60.0
 31
0.0
  0
LINE
  5
22A
100
AcDbEntity
100
AcDbLine
  8
0
 62
256
370
-1
 48
1.0
  6
BYLAYER
 10
372.0
 20
60.0
 30
0.0
 11
372.0
 21
42.0
 31
0.0
  0
MTEXT
  5
22B
100
AcDbEntity
100
AcDbMText
  8
0
 62
256
370
-1
 48
1.0
  6
BYLAYER
 10
369.0
 20
51.0
 30
0.0
 40
1.0
 41
0.0
 71
2
 72
1
  1
\H2;M23-9pin-M
  7
textstyle106
 50
90.0
 73
2
 44
1.0
  0
LINE
  5
22C
100
AcDbEntity
100
AcDbLine
  8
0
 62
256
370
-1
 48
1.0
  6
BYLAYER
 10
372.0
 20
51.0
 30
0.0
 11
407.0
 21
51.0
 31
0.0
  0
MTEXT
  5
22D
100
AcDbEntity
100
AcDbMText
  8
0
 62
256
370
-1
 48
1.0
  6
BYLAYER
 10
425.0
 20
53.0
 30
0.0
 40
1.0
 41
0.0
 71
2
 72
1
  1
\H2;TE:LIDE2
  7
textstyle107
 50
0.0
 73
2
 44
1.0
  0
MTEXT
  5
22E
100
AcDbEntity
100
AcDbMText
  8
0
 62
256
370
-1
 48
1.0
  6
BYLAYER
 10
426.0
 20
49.0
 30
0.0
 40
1.6000000000000001
 41
0.0
 71
2
 72
1
  1
HEIDENHAIN\PLIDA 360 encoder scanning head
  7
textstyle108
 50
0.0
 73
2
 44
1.0
  0
LINE
  5
22F
100
AcDbEntity
100
AcDbLine
  8
0
 62
256
370
-1
 48
1.0
  6
BYLAYER
 10
407.0
 20
58.0
 30
0.0
 11
445.0
 21
58.0
 31
0.0
  0
LINE
  5
230
100
AcDbEntity
100
AcDbLine
  8
0
 62
256
370
-1
 48
1.0
  6
BYLAYER
 10
445.0
 20
58.0
 30
0.0
 11
445.0
 21
44.0
 31
0.0
  0
LINE
  5
231
100
AcDbEntity
100
AcDbLine
  8
0
 62
256
370
-1
 48
1.0
  6
BYLAYER
 10
445.0
 20
44.0
 30
0.0
 11
407.0
 21
44.0
 31
0.0
  0
LINE
  5
232
100
AcDbEntity
100
AcDbLine
  8
0
 62
256
370
-1
 48
1.0
  6
BYLAYER
 10
407.0
 20
44.0
 30
0.0
 11
407.0
 21
58.0
 31
0.0
  0
LINE
  5
233
100
AcDbEntity
100
AcDbLine
  8
0
 62
256
370
-1
 48
1.0
  6
BYLAYER
 10
368.0
 20
42.0
 30
0.0
 11
364.0
 21
42.0
 31
0.0
  0
LINE
  5
234
100
AcDbEntity
100
AcDbLine
  8
0
 62
256
370
-1
 48
1.0
  6
BYLAYER
 10
364.0
 20
42.0
 30
0.0
 11
364.0
 21
60.0
 31
0.0
  0
LINE
  5
235
100
AcDbEntity
100
AcDbLine
  8
0
 62
256
370
-1
 48
1.0
  6
BYLAYER
 10
364.0
 20
60.0
 30
0.0
 11
368.0
 21
60.0
 31
0.0
  0
LINE
  5
236
100
AcDbEntity
100
AcDbLine
  8
0
 62
256
370
-1
 48
1.0
  6
BYLAYER
 10
368.0
 20
60.0
 30
0.0
 11
368.0
 21
42.0
 31
0.0
  0
MTEXT
  5
237
100
AcDbEntity
100
AcDbMText
  8
0
 62
256
370
-1
 48
1.0
  6
BYLAYER
 10
365.0
 20
51.0
 30
0.0
 40
1.0
 41
0.0
 71
2
 72
1
  1
\H2;M23-9pin-F
  7
textstyle109
 50
90.0
 73
2
 44
1.0
  0
LINE
  5
238
100
AcDbEntity
100
AcDbLine
  8
0
 62
256
370
-1
 48
1.0
  6
BYLAYER
 10
332.0
 20
42.0
 30
0.0
 11
328.0
 21
42.0
 31
0.0
  0
LINE
  5
239
100
AcDbEntity
100
AcDbLine
  8
0
 62
256
370
-1
 48
1.0
  6
BYLAYER
 10
328.0
 20
60.0
 30
0.0
 11
332.0
 21
60.0
 31
0.0
  0
LINE
  5
23A
100
AcDbEntity
100
AcDbLine
  8
0
 62
256
370
-1
 48
1.0
  6
BYLAYER
 10
332.0
 20
60.0
 30
0.0
 11
332.0
 21
42.0
 31
0.0
  0
MTEXT
  5
23B
100
AcDbEntity
100
AcDbMText
  8
0
 62
256
370
-1
 48
1.0
  6
BYLAYER
 10
329.0
 20
51.0
 30
0.0
 40
1.0
 41
0.0
 71
2
 72
1
  1
\H2;M23-9pin-M
  7
textstyle110
 50
90.0
 73
2
 44
1.0
  0
LINE
  5
23C
100
AcDbEntity
100
AcDbLine
  8
0
 62
256
370
-1
 48
1.0
  6
BYLAYER
 10
364.0
 20
51.0
 30
0.0
 11
332.0
 21
51.0
 31
0.0
  0
MTEXT
  5
23D
100
AcDbEntity
100
AcDbMText
  8
0
 62
256
370
-1
 48
1.0
  6
BYLAYER
 10
347.0
 20
84.0
 30
0.0
 40
1.6000000000000001
 41
0.0
 71
2
 72
1
  1
HEIDENHAIN\PLIDA 360 extension cable
  7
textstyle111
 50
0.0
 73
2
 44
1.0
  0
MTEXT
  5
23E
100
AcDbEntity
100
AcDbMText
  8
0
 62
256
370
-1
 48
1.0
  6
BYLAYER
 10
347.0
 20
49.0
 30
0.0
 40
1.6000000000000001
 41
0.0
 71
2
 72
1
  1
HEIDENHAIN\PLIDA 360 extension cable
  7
textstyle112
 50
0.0
 73
2
 44
1.0
  0
ARC
  5
23F
100
AcDbEntity
  8
0
 62
256
370
-1
 48
1.0
  6
BYLAYER
100
AcDbCircle
 10
500.0
 20
70.0
 30
0.0
 40
50.0
100
AcDbArc
 50
153.4349488229220242
 51
210.9637565320735177
  0
MTEXT
  5
240
100
AcDbEntity
100
AcDbMText
  8
0
 62
256
370
-1
 48
1.0
  6
BYLAYER
 10
460.0
 20
70.0
 30
0.0
 40
1.0
 41
0.0
 71
2
 72
1
  1
\H3;ELEVATION
  7
textstyle113
 50
90.0
 73
2
 44
1.0
  0
ARC
  5
241
100
AcDbEntity
  8
0
 62
256
370
-1
 48
1.0
  6
BYLAYER
100
AcDbCircle
 10
501.0
 20
173.0
 30
0.0
 40
90.6090503205943492
100
AcDbArc
 50
132.3162248405310493
 51
225.9240453527727084
  0
MTEXT
  5
242
100
AcDbEntity
100
AcDbMText
  8
0
 62
256
370
-1
 48
1.0
  6
BYLAYER
 10
459.7406899442961503
 20
174.6868175023482195
 30
0.0
 40
1.0
 41
0.0
 71
2
 72
1
  1
\H3;AZIMUTH
  7
textstyle114
 50
90.0
 73
2
 44
1.0
  0
CIRCLE
  5
243
100
AcDbEntity
100
AcDbCircle
  8
0
 62
256
370
-1
 48
1.0
  6
BYLAYER
 10
428.0
 20
237.0
 30
0.0
 40
6.0
  0
CIRCLE
  5
244
100
AcDbEntity
100
AcDbCircle
  8
0
 62
256
370
-1
 48
1.0
  6
BYLAYER
 10
428.0
 20
237.0
 30
0.0
 40
0.0
  0
CIRCLE
  5
245
100
AcDbEntity
100
AcDbCircle
  8
0
 62
256
370
-1
 48
1.0
  6
BYLAYER
 10
428.0
 20
237.0
 30
0.0
 40
0.0
  0
CIRCLE
  5
246
100
AcDbEntity
100
AcDbCircle
  8
0
 62
256
370
-1
 48
1.0
  6
BYLAYER
 10
428.0
 20
237.0
 30
0.0
 40
2.2360679774997898
  0
LINE
  5
247
100
AcDbEntity
100
AcDbLine
  8
0
 62
256
370
-1
 48
1.0
  6
BYLAYER
 10
427.0
 20
243.0
 30
0.0
 11
427.0
 21
245.0
 31
0.0
  0
LINE
  5
248
100
AcDbEntity
100
AcDbLine
  8
0
 62
256
370
-1
 48
1.0
  6
BYLAYER
 10
427.0
 20
245.0
 30
0.0
 11
429.0
 21
245.0
 31
0.0
  0
LINE
  5
249
100
AcDbEntity
100
AcDbLine
  8
0
 62
256
370
-1
 48
1.0
  6
BYLAYER
 10
429.0
 20
245.0
 30
0.0
 11
429.0
 21
243.0
 31
0.0
  0
LINE
  5
24A
100
AcDbEntity
100
AcDbLine
  8
0
 62
256
370
-1
 48
1.0
  6
BYLAYER
 10
408.0
 20
260.0
 30
0.0
 11
404.0
 21
260.0
 31
0.0
  0
LINE
  5
24B
100
AcDbEntity
100
AcDbLine
  8
0
 62
256
370
-1
 48
1.0
  6
BYLAYER
 10
404.0
 20
260.0
 30
0.0
 11
404.0
 21
270.0
 31
0.0
  0
LINE
  5
24C
100
AcDbEntity
100
AcDbLine
  8
0
 62
256
370
-1
 48
1.0
  6
BYLAYER
 10
404.0
 20
270.0
 30
0.0
 11
408.0
 21
270.0
 31
0.0
  0
LINE
  5
24D
100
AcDbEntity
100
AcDbLine
  8
0
 62
256
370
-1
 48
1.0
  6
BYLAYER
 10
408.0
 20
270.0
 30
0.0
 11
408.0
 21
260.0
 31
0.0
  0
MTEXT
  5
24E
100
AcDbEntity
100
AcDbMText
  8
0
 62
256
370
-1
 48
1.0
  6
BYLAYER
 10
405.0
 20
265.0
 30
0.0
 40
1.0
 41
0.0
 71
2
 72
1
  1
\H2;D9F
  7
textstyle115
 50
90.0
 73
2
 44
1.0
  0
MTEXT
  5
24F
100
AcDbEntity
100
AcDbMText
  8
0
 62
256
370
-1
 48
1.0
  6
BYLAYER
 10
409.9859309853281957
 20
253.4305380652891699
 30
0.0
 40
0.8
 41
0.0
 71
5
 72
1
  1
\H2;TE:SSIA
  7
textstyle116
 50
0.0
 73
2
 44
1.0
  0
LINE
  5
250
100
AcDbEntity
100
AcDbLine
  8
0
 62
256
370
-1
 48
1.0
  6
BYLAYER
 10
412.0
 20
260.0
 30
0.0
 11
408.0
 21
260.0
 31
0.0
  0
LINE
  5
251
100
AcDbEntity
100
AcDbLine
  8
0
 62
256
370
-1
 48
1.0
  6
BYLAYER
 10
408.0
 20
260.0
 30
0.0
 11
408.0
 21
270.0
 31
0.0
  0
LINE
  5
252
100
AcDbEntity
100
AcDbLine
  8
0
 62
256
370
-1
 48
1.0
  6
BYLAYER
 10
408.0
 20
270.0
 30
0.0
 11
412.0
 21
270.0
 31
0.0
  0
LINE
  5
253
100
AcDbEntity
100
AcDbLine
  8
0
 62
256
370
-1
 48
1.0
  6
BYLAYER
 10
412.0
 20
270.0
 30
0.0
 11
412.0
 21
260.0
 31
0.0
  0
MTEXT
  5
254
100
AcDbEntity
100
AcDbMText
  8
0
 62
256
370
-1
 48
1.0
  6
BYLAYER
 10
409.0
 20
265.0
 30
0.0
 40
1.0
 41
0.0
 71
2
 72
1
  1
\H2;D9M
  7
textstyle117
 50
90.0
 73
2
 44
1.0
  0
MTEXT
  5
255
100
AcDbEntity
100
AcDbMText
  8
0
 62
256
370
-1
 48
1.0
  6
BYLAYER
 10
410.0
 20
250.0
 30
0.0
 40
1.6000000000000001
 41
0.0
 71
2
 72
1
  1
K\U+00fcbler\PF5863-1222-G321 encoder\P(SSI, ST 13-bit, MT 12-bit)
  7
textstyle118
 50
0.0
 73
2
 44
1.0
  0
LINE
  5
256
100
AcDbEntity
100
AcDbLine
  8
0
 62
256
370
-1
 48
1.0
  6
BYLAYER
 10
412.0
 20
265.0
 30
0.0
 11
428.0
 21
265.0
 31
0.0
  0
LINE
  5
257
100
AcDbEntity
100
AcDbLine
  8
0
 62
256
370
-1
 48
1.0
  6
BYLAYER
 10
428.0
 20
265.0
 30
0.0
 11
428.0
 21
245.0
 31
0.0
  0
LINE
  5
258
100
AcDbEntity
100
AcDbLine
  8
0
 62
256
370
-1
 48
1.0
  6
BYLAYER
 10
244.0
 20
265.0
 30
0.0
 11
404.0
 21
265.0
 31
0.0
  0
LINE
  5
259
100
AcDbEntity
100
AcDbLine
  8
0
 62
256
370
-1
 48
1.0
  6
BYLAYER
 10
240.0
 20
16.0
 30
0.0
 11
236.0
 21
16.0
 31
0.0
  0
LINE
  5
25A
100
AcDbEntity
100
AcDbLine
  8
0
 62
256
370
-1
 48
1.0
  6
BYLAYER
 10
236.0
 20
16.0
 30
0.0
 11
236.0
 21
26.0
 31
0.0
  0
LINE
  5
25B
100
AcDbEntity
100
AcDbLine
  8
0
 62
256
370
-1
 48
1.0
  6
BYLAYER
 10
236.0
 20
26.0
 30
0.0
 11
240.0
 21
26.0
 31
0.0
  0
LINE
  5
25C
100
AcDbEntity
100
AcDbLine
  8
0
 62
256
370
-1
 48
1.0
  6
BYLAYER
 10
240.0
 20
26.0
 30
0.0
 11
240.0
 21
16.0
 31
0.0
  0
MTEXT
  5
25D
100
AcDbEntity
100
AcDbMText
  8
0
 62
256
370
-1
 48
1.0
  6
BYLAYER
 10
237.0
 20
21.0
 30
0.0
 40
1.0
 41
0.0
 71
2
 72
1
  1
\H2;D9F
  7
textstyle119
 50
90.0
 73
2
 44
1.0
  0
MTEXT
  5
25E
100
AcDbEntity
100
AcDbMText
  8
0
 62
256
370
-1
 48
1.0
  6
BYLAYER
 10
234.0
 20
21.0
 30
0.0
 40
0.8
 41
0.0
 71
6
 72
1
  1
\H2;TE:SE
  7
textstyle120
 50
0.0
 73
2
 44
1.0
  0
MTEXT
  5
25F
100
AcDbEntity
100
AcDbMText
  8
0
 62
256
370
-1
 48
1.0
  6
BYLAYER
 10
238.0
 20
28.0
 30
0.0
 40
0.8
 41
0.0
 71
5
 72
1
  1
\H2;A
  7
textstyle121
 50
0.0
 73
2
 44
1.0
  0
MTEXT
  5
260
100
AcDbEntity
100
AcDbMText
  8
0
 62
256
370
-1
 48
1.0
  6
BYLAYER
 10
242.0
 20
28.0
 30
0.0
 40
0.8
 41
0.0
 71
5
 72
1
  1
\H2;B
  7
textstyle122
 50
0.0
 73
2
 44
1.0
  0
LINE
  5
261
100
AcDbEntity
100
AcDbLine
  8
0
 62
256
370
-1
 48
1.0
  6
BYLAYER
 10
244.0
 20
16.0
 30
0.0
 11
240.0
 21
16.0
 31
0.0
  0
LINE
  5
262
100
AcDbEntity
100
AcDbLine
  8
0
 62
256
370
-1
 48
1.0
  6
BYLAYER
 10
240.0
 20
16.0
 30
0.0
 11
240.0
 21
26.0
 31
0.0
  0
LINE
  5
263
100
AcDbEntity
100
AcDbLine
  8
0
 62
256
370
-1
 48
1.0
  6
BYLAYER
 10
240.0
 20
26.0
 30
0.0
 11
244.0
 21
26.0
 31
0.0
  0
LINE
  5
264
100
AcDbEntity
100
AcDbLine
  8
0
 62
256
370
-1
 48
1.0
  6
BYLAYER
 10
244.0
 20
26.0
 30
0.0
 11
244.0
 21
16.0
 31
0.0
  0
MTEXT
  5
265
100
AcDbEntity
100
AcDbMText
  8
0
 62
256
370
-1
 48
1.0
  6
BYLAYER
 10
241.0
 20
21.0
 30
0.0
 40
1.0
 41
0.0
 71
2
 72
1
  1
\H2;D9M
  7
textstyle123
 50
90.0
 73
2
 44
1.0
  0
LINE
  5
266
100
AcDbEntity
100
AcDbLine
  8
0
 62
256
370
-1
 48
1.0
  6
BYLAYER
 10
408.0
 20
16.0
 30
0.0
 11
404.0
 21
16.0
 31
0.0
  0
LINE
  5
267
100
AcDbEntity
100
AcDbLine
  8
0
 62
256
370
-1
 48
1.0
  6
BYLAYER
 10
404.0
 20
16.0
 30
0.0
 11
404.0
 21
26.0
 31
0.0
  0
LINE
  5
268
100
AcDbEntity
100
AcDbLine
  8
0
 62
256
370
-1
 48
1.0
  6
BYLAYER
 10
404.0
 20
26.0
 30
0.0
 11
408.0
 21
26.0
 31
0.0
  0
LINE
  5
269
100
AcDbEntity
100
AcDbLine
  8
0
 62
256
370
-1
 48
1.0
  6
BYLAYER
 10
408.0
 20
26.0
 30
0.0
 11
408.0
 21
16.0
 31
0.0
  0
MTEXT
  5
26A
100
AcDbEntity
100
AcDbMText
  8
0
 62
256
370
-1
 48
1.0
  6
BYLAYER
 10
405.0
 20
21.0
 30
0.0
 40
1.0
 41
0.0
 71
2
 72
1
  1
\H2;D9F
  7
textstyle124
 50
90.0
 73
2
 44
1.0
  0
MTEXT
  5
26B
100
AcDbEntity
100
AcDbMText
  8
0
 62
256
370
-1
 48
1.0
  6
BYLAYER
 10
436.0
 20
33.0
 30
0.0
 40
0.8
 41
0.0
 71
5
 72
1
  1
\H2;TE:SSIE
  7
textstyle125
 50
0.0
 73
2
 44
1.0
  0
LINE
  5
26C
100
AcDbEntity
100
AcDbLine
  8
0
 62
256
370
-1
 48
1.0
  6
BYLAYER
 10
412.0
 20
16.0
 30
0.0
 11
408.0
 21
16.0
 31
0.0
  0
LINE
  5
26D
100
AcDbEntity
100
AcDbLine
  8
0
 62
256
370
-1
 48
1.0
  6
BYLAYER
 10
408.0
 20
16.0
 30
0.0
 11
408.0
 21
26.0
 31
0.0
  0
LINE
  5
26E
100
AcDbEntity
100
AcDbLine
  8
0
 62
256
370
-1
 48
1.0
  6
BYLAYER
 10
408.0
 20
26.0
 30
0.0
 11
412.0
 21
26.0
 31
0.0
  0
LINE
  5
26F
100
AcDbEntity
100
AcDbLine
  8
0
 62
256
370
-1
 48
1.0
  6
BYLAYER
 10
412.0
 20
26.0
 30
0.0
 11
412.0
 21
16.0
 31
0.0
  0
MTEXT
  5
270
100
AcDbEntity
100
AcDbMText
  8
0
 62
256
370
-1
 48
1.0
  6
BYLAYER
 10
409.0
 20
21.0
 30
0.0
 40
1.0
 41
0.0
 71
2
 72
1
  1
\H2;D9M
  7
textstyle126
 50
90.0
 73
2
 44
1.0
  0
MTEXT
  5
271
100
AcDbEntity
100
AcDbMText
  8
0
 62
256
370
-1
 48
1.0
  6
BYLAYER
 10
436.0
 20
29.0
 30
0.0
 40
1.6000000000000001
 41
0.0
 71
2
 72
1
  1
K\U+00fcbler\PF5863-1222-G321 encoder\P(SSI, ST 13-bit, MT 12-bit)
  7
textstyle127
 50
0.0
 73
2
 44
1.0
  0
LINE
  5
272
100
AcDbEntity
100
AcDbLine
  8
0
 62
256
370
-1
 48
1.0
  6
BYLAYER
 10
412.0
 20
21.0
 30
0.0
 11
454.0
 21
21.0
 31
0.0
  0
LINE
  5
273
100
AcDbEntity
100
AcDbLine
  8
0
 62
256
370
-1
 48
1.0
  6
BYLAYER
 10
244.0
 20
21.0
 30
0.0
 11
404.0
 21
21.0
 31
0.0
  0
CIRCLE
  5
274
100
AcDbEntity
100
AcDbCircle
  8
0
 62
256
370
-1
 48
1.0
  6
BYLAYER
 10
454.0
 20
38.0
 30
0.0
 40
6.0
  0
CIRCLE
  5
275
100
AcDbEntity
100
AcDbCircle
  8
0
 62
256
370
-1
 48
1.0
  6
BYLAYER
 10
454.0
 20
38.0
 30
0.0
 40
2.2360679774997898
  0
LINE
  5
276
100
AcDbEntity
100
AcDbLine
  8
0
 62
256
370
-1
 48
1.0
  6
BYLAYER
 10
453.0
 20
32.0
 30
0.0
 11
453.0
 21
30.0
 31
0.0
  0
LINE
  5
277
100
AcDbEntity
100
AcDbLine
  8
0
 62
256
370
-1
 48
1.0
  6
BYLAYER
 10
453.0
 20
30.0
 30
0.0
 11
455.0
 21
30.0
 31
0.0
  0
LINE
  5
278
100
AcDbEntity
100
AcDbLine
  8
0
 62
256
370
-1
 48
1.0
  6
BYLAYER
 10
455.0
 20
30.0
 30
0.0
 11
455.0
 21
32.0
 31
0.0
  0
LINE
  5
279
100
AcDbEntity
100
AcDbLine
  8
0
 62
256
370
-1
 48
1.0
  6
BYLAYER
 10
454.0
 20
21.0
 30
0.0
 11
454.0
 21
30.0
 31
0.0
  0
LINE
  5
27A
100
AcDbEntity
100
AcDbLine
  8
0
 62
256
370
-1
 48
1.0
  6
BYLAYER
 10
240.0
 20
10.0
 30
0.0
 11
130.0
 21
10.0
 31
0.0
  0
LINE
  5
27B
100
AcDbEntity
100
AcDbLine
  8
0
 62
256
370
-1
 48
1.0
  6
BYLAYER
 10
130.0
 20
10.0
 30
0.0
 11
130.0
 21
280.0
 31
0.0
  0
LINE
  5
27C
100
AcDbEntity
100
AcDbLine
  8
0
 62
256
370
-1
 48
1.0
  6
BYLAYER
 10
130.0
 20
280.0
 30
0.0
 11
240.0
 21
280.0
 31
0.0
  0
LINE
  5
27D
100
AcDbEntity
100
AcDbLine
  8
0
 62
256
370
-1
 48
1.0
  6
BYLAYER
 10
240.0
 20
280.0
 30
0.0
 11
240.0
 21
10.0
 31
0.0
  0
MTEXT
  5
27E
100
AcDbEntity
100
AcDbMText
  8
0
 62
256
370
-1
 48
1.0
  6
BYLAYER
 10
180.0
 20
160.0
 30
0.0
 40
0.8
 41
0.0
 71
5
 72
1
  1
\H6;TE\PTelescope Encoders\Ppanel
  7
textstyle128
 50
0.0
 73
2
 44
1.0
  0
LINE
  5
27F
100
AcDbEntity
100
AcDbLine
  8
0
 62
256
370
-1
 48
1.0
  6
BYLAYER
 10
134.0
 20
29.0
 30
0.0
 11
130.0
 21
29.0
 31
0.0
  0
LINE
  5
280
100
AcDbEntity
100
AcDbLine
  8
0
 62
256
370
-1
 48
1.0
  6
BYLAYER
 10
130.0
 20
29.0
 30
0.0
 11
130.0
 21
39.0
 31
0.0
  0
LINE
  5
281
100
AcDbEntity
100
AcDbLine
  8
0
 62
256
370
-1
 48
1.0
  6
BYLAYER
 10
130.0
 20
39.0
 30
0.0
 11
134.0
 21
39.0
 31
0.0
  0
LINE
  5
282
100
AcDbEntity
100
AcDbLine
  8
0
 62
256
370
-1
 48
1.0
  6
BYLAYER
 10
134.0
 20
39.0
 30
0.0
 11
134.0
 21
29.0
 31
0.0
  0
MTEXT
  5
283
100
AcDbEntity
100
AcDbMText
  8
0
 62
256
370
-1
 48
1.0
  6
BYLAYER
 10
131.0
 20
34.0
 30
0.0
 40
1.0
 41
0.0
 71
2
 72
1
  1
\H2;RJ-45
  7
textstyle129
 50
90.0
 73
2
 44
1.0
  0
MTEXT
  5
284
100
AcDbEntity
100
AcDbMText
  8
0
 62
256
370
-1
 48
1.0
  6
BYLAYER
 10
148.0
 20
34.0
 30
0.0
 40
0.8
 41
0.0
 71
6
 72
1
  1
\H2;TE:ECAT
  7
textstyle130
 50
0.0
 73
2
 44
1.0
  0
MTEXT
  5
285
100
AcDbEntity
100
AcDbMText
  8
0
 62
256
370
-1
 48
1.0
  6
BYLAYER
 10
132.0
 20
41.0
 30
0.0
 40
0.8
 41
0.0
 71
5
 72
1
  1
\H2;A
  7
textstyle131
 50
0.0
 73
2
 44
1.0
  0
LINE
  5
286
100
AcDbEntity
100
AcDbLine
  8
0
 62
256
370
-1
 48
1.0
  6
BYLAYER
 10
134.0
 20
29.0
 30
0.0
 11
134.0
 21
39.0
 31
0.0
  0
MTEXT
  5
287
100
AcDbEntity
100
AcDbMText
  8
0
 62
256
370
-1
 48
1.0
  6
BYLAYER
 10
422.8860287749272402
 20
267.4578608594517277
 30
0.0
 40
1.6000000000000001
 41
0.0
 71
5
 72
1
  1
length: 1m
  7
textstyle132
 50
0.0
 73
2
 44
1.0
  0
MTEXT
  5
288
100
AcDbEntity
100
AcDbMText
  8
0
 62
256
370
-1
 48
1.0
  6
BYLAYER
 10
324.0
 20
267.0
 30
0.0
 40
1.6000000000000001
 41
0.0
 71
5
 72
1
  1
length: 2m
  7
textstyle133
 50
0.0
 73
2
 44
1.0
  0
MTEXT
  5
289
100
AcDbEntity
100
AcDbMText
  8
0
 62
256
370
-1
 48
1.0
  6
BYLAYER
 10
330.0
 20
23.0
 30
0.0
 40
1.6000000000000001
 41
0.0
 71
5
 72
1
  1
length: 8m
  7
textstyle134
 50
0.0
 73
2
 44
1.0
  0
MTEXT
  5
28A
100
AcDbEntity
100
AcDbMText
  8
0
 62
256
370
-1
 48
1.0
  6
BYLAYER
 10
263.0
 20
228.0
 30
0.0
 40
1.6000000000000001
 41
0.0
 71
5
 72
1
  1
length: 1m
  7
textstyle135
 50
0.0
 73
2
 44
1.0
  0
MTEXT
  5
28B
100
AcDbEntity
100
AcDbMText
  8
0
 62
256
370
-1
 48
1.0
  6
BYLAYER
 10
263.0
 20
193.0
 30
0.0
 40
1.6000000000000001
 41
0.0
 71
5
 72
1
  1
length: 1m
  7
textstyle136
 50
0.0
 73
2
 44
1.0
  0
MTEXT
  5
28C
100
AcDbEntity
100
AcDbMText
  8
0
 62
256
370
-1
 48
1.0
  6
BYLAYER
 10
263.0
 20
158.0
 30
0.0
 40
1.6000000000000001
 41
0.0
 71
5
 72
1
  1
length: 1m
  7
textstyle137
 50
0.0
 73
2
 44
1.0
  0
MTEXT
  5
28D
100
AcDbEntity
100
AcDbMText
  8
0
 62
256
370
-1
 48
1.0
  6
BYLAYER
 10
263.0
 20
123.0
 30
0.0
 40
1.6000000000000001
 41
0.0
 71
5
 72
1
  1
length: 1m
  7
textstyle138
 50
0.0
 73
2
 44
1.0
  0
MTEXT
  5
28E
100
AcDbEntity
100
AcDbMText
  8
0
 62
256
370
-1
 48
1.0
  6
BYLAYER
 10
263.0
 20
88.0
 30
0.0
 40
1.6000000000000001
 41
0.0
 71
5
 72
1
  1
length: 80cm
  7
textstyle139
 50
0.0
 73
2
 44
1.0
  0
MTEXT
  5
28F
100
AcDbEntity
100
AcDbMText
  8
0
 62
256
370
-1
 48
1.0
  6
BYLAYER
 10
263.0
 20
53.0
 30
0.0
 40
1.6000000000000001
 41
0.0
 71
5
 72
1
  1
length: 80cm
  7
textstyle140
 50
0.0
 73
2
 44
1.0
  0
MTEXT
  5
290
100
AcDbEntity
100
AcDbMText
  8
0
 62
256
370
-1
 48
1.0
  6
BYLAYER
 10
448.4659346346234088
 20
19.2797773604461575
 30
0.0
 40
1.6000000000000001
 41
0.0
 71
5
 72
1
  1
length: 1m
  7
textstyle141
 50
0.0
 73
2
 44
1.0
  0
ENDSEC
  0
SECTION
  2
OBJECTS
  0
DICTIONARY
  5
C
100
AcDbDictionary
280
0
281
1
  3
ACAD_GROUP
350
D
  3
ACAD_LAYOUT
350
1A
  3
ACAD_MLINESTYLE
350
17
  3
ACAD_PLOTSETTINGS
350
19
  3
ACAD_PLOTSTYLENAME
350
E
  3
AcDbVariableDictionary
350
291
  3
QCAD_OBJECTS
350
292
  0
DICTIONARY
  5
D
100
AcDbDictionary
280
0
281
1
  0
ACDBDICTIONARYWDFLT
  5
E
100
AcDbDictionary
281
1
  3
Normal
350
F
100
AcDbDictionaryWithDefault
340
F
  0
ACDBPLACEHOLDER
  5
F
  0
DICTIONARY
  5
17
100
AcDbDictionary
280
0
281
1
  3
Standard
350
18
  0
MLINESTYLE
  5
18
100
AcDbMlineStyle
  2
STANDARD
 70
0
  3

 62
256
 51
90.0
 52
90.0
 71
2
 49
0.5
 62
256
  6
BYLAYER
 49
-0.5
 62
256
  6
BYLAYER
  0
DICTIONARY
  5
19
100
AcDbDictionary
280
0
281
1
  0
DICTIONARY
  5
1A
100
AcDbDictionary
281
1
  3
Layout1
350
1E
  3
Layout2
350
26
  3
Model
350
22
  0
LAYOUT
  5
1E
100
AcDbPlotSettings
  1

  2
none_device
  4

  6

 40
0.0
 41
0.0
 42
0.0
 43
0.0
 44
0.0
 45
0.0
 46
0.0
 47
0.0
 48
0.0
 49
0.0
140
0.0
141
0.0
142
1.0
143
1.0
 70
688
 72
0
 73
0
 74
5
  7

 75
16
147
1.0
148
0.0
149
0.0
100
AcDbLayout
  1
Layout1
 70
1
 71
1
 10
0.0
 20
0.0
 11
420.0
 21
297.0
 12
0.0
 22
0.0
 32
0.0
 14
100000000000000000000.0
 24
100000000000000000000.0
 34
100000000000000000000.0
 15
-100000000000000000000.0
 25
-100000000000000000000.0
 35
-100000000000000000000.0
146
0.0
 13
0.0
 23
0.0
 33
0.0
 16
1.0
 26
0.0
 36
0.0
 17
0.0
 27
1.0
 37
0.0
 76
0
330
1B
  0
LAYOUT
  5
22
100
AcDbPlotSettings
  1

  2
none_device
  4

  6

 40
0.0
 41
0.0
 42
0.0
 43
0.0
 44
0.0
 45
0.0
 46
0.0
 47
0.0
 48
0.0
 49
0.0
140
0.0
141
0.0
142
1.0
143
1.0
 70
1712
 72
0
 73
0
 74
0
  7

 75
0
147
1.0
148
0.0
149
0.0
100
AcDbLayout
  1
Model
 70
1
 71
0
 10
0.0
 20
0.0
 11
12.0
 21
9.0
 12
0.0
 22
0.0
 32
0.0
 14
0.0
 24
0.0
 34
0.0
 15
0.0
 25
0.0
 35
0.0
146
0.0
 13
0.0
 23
0.0
 33
0.0
 16
1.0
 26
0.0
 36
0.0
 17
0.0
 27
1.0
 37
0.0
 76
0
330
1F
  0
LAYOUT
  5
26
100
AcDbPlotSettings
  1

  2
none_device
  4

  6

 40
0.0
 41
0.0
 42
0.0
 43
0.0
 44
0.0
 45
0.0
 46
0.0
 47
0.0
 48
0.0
 49
0.0
140
0.0
141
0.0
142
1.0
143
1.0
 70
688
 72
0
 73
0
 74
5
  7

 75
16
147
1.0
148
0.0
149
0.0
100
AcDbLayout
  1
Layout2
 70
1
 71
2
 10
0.0
 20
0.0
 11
12.0
 21
9.0
 12
0.0
 22
0.0
 32
0.0
 14
0.0
 24
0.0
 34
0.0
 15
0.0
 25
0.0
 35
0.0
146
0.0
 13
0.0
 23
0.0
 33
0.0
 16
1.0
 26
0.0
 36
0.0
 17
0.0
 27
1.0
 37
0.0
 76
0
330
23
  0
DICTIONARY
  5
291
100
AcDbDictionary
281
1
  3
DIMASSOC
350
294
  3
HIDETEXT
350
293
  0
DICTIONARYVAR
  5
293
100
DictionaryVariables
280
0
  1
2
  0
DICTIONARYVAR
  5
294
100
DictionaryVariables
280
0
  1
1
  0
DICTIONARY
  5
292
100
AcDbDictionary
281
1
  3
ColorSettings/BackgroundColor
350
295
  3
ColorSettings/ColorMode
350
296
  3
DimensionSettings/AngularFormat
350
297
  3
DimensionSettings/AngularPrecision
350
298
  3
DimensionSettings/DimensionFont
350
299
  3
DimensionSettings/KeepProportions
350
29A
  3
DimensionSettings/LinearFormat
350
29B
  3
DimensionSettings/LinearPrecision
350
29C
  3
Grid/DisplayGrid00
350
29D
  3
Grid/DisplayGrid01
350
29E
  3
Grid/DisplayGrid02
350
29F
  3
Grid/DisplayGrid03
350
2A0
  3
Grid/GridSpacingX00
350
2A1
  3
Grid/GridSpacingX01
350
2A2
  3
Grid/GridSpacingX02
350
2A3
  3
Grid/GridSpacingX03
350
2A4
  3
Grid/GridSpacingY00
350
2A5
  3
Grid/GridSpacingY01
350
2A6
  3
Grid/GridSpacingY02
350
2A7
  3
Grid/GridSpacingY03
350
2A8
  3
Grid/IsometricGrid00
350
2A9
  3
Grid/IsometricGrid01
350
2AA
  3
Grid/IsometricGrid02
350
2AB
  3
Grid/IsometricGrid03
350
2AC
  3
Grid/IsometricProjection00
350
2AD
  3
Grid/IsometricProjection01
350
2AE
  3
Grid/IsometricProjection02
350
2AF
  3
Grid/IsometricProjection03
350
2B0
  3
Grid/MetaGridSpacingX00
350
2B1
  3
Grid/MetaGridSpacingX01
350
2B2
  3
Grid/MetaGridSpacingX02
350
2B3
  3
Grid/MetaGridSpacingX03
350
2B4
  3
Grid/MetaGridSpacingY00
350
2B5
  3
Grid/MetaGridSpacingY01
350
2B6
  3
Grid/MetaGridSpacingY02
350
2B7
  3
Grid/MetaGridSpacingY03
350
2B8
  3
MultiPageSettings/Columns
350
2B9
  3
MultiPageSettings/GlueMarginsBottom
350
2BA
  3
MultiPageSettings/GlueMarginsLeft
350
2BB
  3
MultiPageSettings/GlueMarginsRight
350
2BC
  3
MultiPageSettings/GlueMarginsTop
350
2BD
  3
MultiPageSettings/PrintCropMarks
350
2BE
  3
MultiPageSettings/Rows
350
2BF
  3
PageSettings/OffsetX
350
2C0
  3
PageSettings/OffsetY
350
2C1
  3
PageSettings/PageOrientation
350
2C2
  3
PageSettings/PaperHeight
350
2C3
  3
PageSettings/PaperSizeName
350
2C4
  3
PageSettings/PaperWidth
350
2C5
  3
PageSettings/Scale
350
2C6
  3
PageSettings/ShowPaperBorders
350
2C7
  3
PointDisplaySettings/Button0
350
2C8
  3
PointDisplaySettings/Mode
350
2C9
  3
PointDisplaySettings/Size
350
2CA
  3
UnitSettings/PaperUnit
350
2CB
  0
XRECORD
  5
295
330
292
100
AcDbXrecord
280
1
1000
White
  0
XRECORD
  5
296
330
292
100
AcDbXrecord
280
1
1000
FullColor
  0
XRECORD
  5
297
330
292
100
AcDbXrecord
280
1
 90
0
  0
XRECORD
  5
298
330
292
100
AcDbXrecord
280
1
 90
0
  0
XRECORD
  5
299
330
292
100
AcDbXrecord
280
1
1000
DejaVu Sans
  0
XRECORD
  5
29A
330
292
100
AcDbXrecord
280
1
290
1
  0
XRECORD
  5
29B
330
292
100
AcDbXrecord
280
1
 90
2
  0
XRECORD
  5
29C
330
292
100
AcDbXrecord
280
1
 90
1
  0
XRECORD
  5
29D
330
292
100
AcDbXrecord
280
1
290
1
  0
XRECORD
  5
29E
330
292
100
AcDbXrecord
280
1
290
1
  0
XRECORD
  5
29F
330
292
100
AcDbXrecord
280
1
290
1
  0
XRECORD
  5
2A0
330
292
100
AcDbXrecord
280
1
290
1
  0
XRECORD
  5
2A1
330
292
100
AcDbXrecord
280
1
1000
auto
  0
XRECORD
  5
2A2
330
292
100
AcDbXrecord
280
1
1000
auto
  0
XRECORD
  5
2A3
330
292
100
AcDbXrecord
280
1
1000
auto
  0
XRECORD
  5
2A4
330
292
100
AcDbXrecord
280
1
1000
auto
  0
XRECORD
  5
2A5
330
292
100
AcDbXrecord
280
1
1000
auto
  0
XRECORD
  5
2A6
330
292
100
AcDbXrecord
280
1
1000
auto
  0
XRECORD
  5
2A7
330
292
100
AcDbXrecord
280
1
1000
auto
  0
XRECORD
  5
2A8
330
292
100
AcDbXrecord
280
1
1000
auto
  0
XRECORD
  5
2A9
330
292
100
AcDbXrecord
280
1
290
0
  0
XRECORD
  5
2AA
330
292
100
AcDbXrecord
280
1
290
0
  0
XRECORD
  5
2AB
330
292
100
AcDbXrecord
280
1
290
0
  0
XRECORD
  5
2AC
330
292
100
AcDbXrecord
280
1
290
0
  0
XRECORD
  5
2AD
330
292
100
AcDbXrecord
280
1
 90
0
  0
XRECORD
  5
2AE
330
292
100
AcDbXrecord
280
1
 90
0
  0
XRECORD
  5
2AF
330
292
100
AcDbXrecord
280
1
 90
0
  0
XRECORD
  5
2B0
330
292
100
AcDbXrecord
280
1
 90
0
  0
XRECORD
  5
2B1
330
292
100
AcDbXrecord
280
1
1000
auto
  0
XRECORD
  5
2B2
330
292
100
AcDbXrecord
280
1
1000
auto
  0
XRECORD
  5
2B3
330
292
100
AcDbXrecord
280
1
1000
auto
  0
XRECORD
  5
2B4
330
292
100
AcDbXrecord
280
1
1000
auto
  0
XRECORD
  5
2B5
330
292
100
AcDbXrecord
280
1
1000
auto
  0
XRECORD
  5
2B6
330
292
100
AcDbXrecord
280
1
1000
auto
  0
XRECORD
  5
2B7
330
292
100
AcDbXrecord
280
1
1000
auto
  0
XRECORD
  5
2B8
330
292
100
AcDbXrecord
280
1
1000
auto
  0
XRECORD
  5
2B9
330
292
100
AcDbXrecord
280
1
 90
1
  0
XRECORD
  5
2BA
330
292
100
AcDbXrecord
280
1
 40
10.0
  0
XRECORD
  5
2BB
330
292
100
AcDbXrecord
280
1
 40
10.0
  0
XRECORD
  5
2BC
330
292
100
AcDbXrecord
280
1
 40
10.0
  0
XRECORD
  5
2BD
330
292
100
AcDbXrecord
280
1
 40
10.0
  0
XRECORD
  5
2BE
330
292
100
AcDbXrecord
280
1
290
0
  0
XRECORD
  5
2BF
330
292
100
AcDbXrecord
280
1
 90
1
  0
XRECORD
  5
2C0
330
292
100
AcDbXrecord
280
1
 40
85.6145543460468161
  0
XRECORD
  5
2C1
330
292
100
AcDbXrecord
280
1
 40
-4.1477272727272521
  0
XRECORD
  5
2C2
330
292
100
AcDbXrecord
280
1
1000
Landscape
  0
XRECORD
  5
2C3
330
292
100
AcDbXrecord
280
1
 40
297.0
  0
XRECORD
  5
2C4
330
292
100
AcDbXrecord
280
1
1000
ISO A4
  0
XRECORD
  5
2C5
330
292
100
AcDbXrecord
280
1
 40
210.0
  0
XRECORD
  5
2C6
330
292
100
AcDbXrecord
280
1
1000
0.704
  0
XRECORD
  5
2C7
330
292
100
AcDbXrecord
280
1
290
1
  0
XRECORD
  5
2C8
330
292
100
AcDbXrecord
280
1
1000
Button0
  0
XRECORD
  5
2C9
330
292
100
AcDbXrecord
280
1
1000
0
  0
XRECORD
  5
2CA
330
292
100
AcDbXrecord
280
1
1000
0
  0
XRECORD
  5
2CB
330
292
100
AcDbXrecord
280
1
 90
4
  0
ENDSEC
  0
EOF
