999
dxflib 3.7.5.0
  0
SECTION
  2
HEADER
  9
$ACADVER
  1
AC1015
  9
$HANDSEED
  5
FFFF
  9
$DIMADEC
 70
0
  9
$DIMASZ
 40
2.5
  9
$DIMAUNIT
 70
0
  9
$DIMAZIN
 70
2
  9
$DIMDEC
 70
4
  9
$DIMEXE
 40
1.25
  9
$DIMEXO
 40
0.625
  9
$DIMGAP
 40
0.625
  9
$DIMLUNIT
 70
2
  9
$DIMSCALE
 40
20.0
  9
$DIMTSZ
 40
0.0
  9
$DIMTXT
 40
2.5
  9
$DIMZIN
 70
8
  9
$DWGCODEPAGE
  3
ANSI_1252
  9
$INSUNITS
 70
5
  9
$LTSCALE
 40
1
  0
ENDSEC
  0
SECTION
  2
TABLES
  0
TABLE
  2
VPORT
  5
8
100
AcDbSymbolTable
 70
1
  0
VPORT
  5
30
100
AcDbSymbolTableRecord
100
AcDbViewportTableRecord
  2
*Active
 70
0
 10
0.0
 20
0.0
 11
1.0
 21
1.0
 12
286.3055555555554861
 22
148.5
 13
0.0
 23
0.0
 14
10.0
 24
10.0
 15
10.0
 25
10.0
 16
0.0
 26
0.0
 36
1.0
 17
0.0
 27
0.0
 37
0.0
 40
297.0
 41
1.92798353909465
 42
50.0
 43
0.0
 44
0.0
 50
0.0
 51
0.0
 71
0
 72
100
 73
1
 74
3
 75
1
 76
1
 77
0
 78
0
281
0
 65
1
110
0.0
120
0.0
130
0.0
111
1.0
121
0.0
131
0.0
112
0.0
122
1.0
132
0.0
 79
0
146
0.0
  0
ENDTAB
  0
TABLE
  2
LTYPE
  5
5
100
AcDbSymbolTable
 70
41
  0
LTYPE
  5
16
100
AcDbSymbolTableRecord
100
AcDbLinetypeTableRecord
  2
Continuous
 70
0
  3
Solid line
 72
65
 73
0
 40
0.0
  0
LTYPE
  5
31
100
AcDbSymbolTableRecord
100
AcDbLinetypeTableRecord
  2
ACAD_ISO15W100
 70
0
  3
ISO double-dash triple-dot __ __ . . . __ __ . .
 72
65
 73
10
 40
39.0000000000000071
 49
12.0
 74
0
 49
-3.0
 74
0
 49
12.0
 74
0
 49
-2.9500000000000002
 74
0
 49
0.1
 74
0
 49
-2.9000000000000004
 74
0
 49
0.1
 74
0
 49
-2.9000000000000004
 74
0
 49
0.1
 74
0
 49
-2.9500000000000002
 74
0
  0
LTYPE
  5
32
100
AcDbSymbolTableRecord
100
AcDbLinetypeTableRecord
  2
DIVIDE
 70
0
  3
Divide ____ . . ____ . . ____ . . ____ . . ____
 72
65
 73
6
 40
31.7500000000000036
 49
12.6999999999999993
 74
0
 49
-6.2999999999999998
 74
0
 49
0.1
 74
0
 49
-6.25
 74
0
 49
0.1
 74
0
 49
-6.2999999999999998
 74
0
  0
LTYPE
  5
33
100
AcDbSymbolTableRecord
100
AcDbLinetypeTableRecord
  2
ACAD_ISO10W100
 70
0
  3
ISO dash dot __ . __ . __ . __ . __ . __ . __ . 
 72
65
 73
4
 40
18.0
 49
12.0
 74
0
 49
-2.9500000000000002
 74
0
 49
0.1
 74
0
 49
-2.9500000000000002
 74
0
  0
LTYPE
  5
34
100
AcDbSymbolTableRecord
100
AcDbLinetypeTableRecord
  2
ACAD_ISO04W100
 70
0
  3
ISO long-dash dot ____ . ____ . ____ . ____ . _
 72
65
 73
4
 40
30.0
 49
24.0
 74
0
 49
-2.9500000000000002
 74
0
 49
0.1
 74
0
 49
-2.9500000000000002
 74
0
  0
LTYPE
  5
35
100
AcDbSymbolTableRecord
100
AcDbLinetypeTableRecord
  2
CENTER2
 70
0
  3
Center (.5x) ___ _ ___ _ ___ _ ___ _ ___ _ ___
 72
65
 73
4
 40
28.5750000000000028
 49
19.0500000000000007
 74
0
 49
-3.1749999999999998
 74
0
 49
3.1749999999999998
 74
0
 49
-3.1749999999999998
 74
0
  0
LTYPE
  5
36
100
AcDbSymbolTableRecord
100
AcDbLinetypeTableRecord
  2
ACAD_ISO11W100
 70
0
  3
ISO double-dash dot __ __ . __ __ . __ __ . __ _
 72
65
 73
6
 40
33.0
 49
12.0
 74
0
 49
-3.0
 74
0
 49
12.0
 74
0
 49
-2.9500000000000002
 74
0
 49
0.1
 74
0
 49
-2.9500000000000002
 74
0
  0
LTYPE
  5
37
100
AcDbSymbolTableRecord
100
AcDbLinetypeTableRecord
  2
HIDDEN2
 70
0
  3
Hidden (.5x) _ _ _ _ _ _ _ _ _ _ _ _ _ _ _ _ _ 
 72
65
 73
2
 40
4.7624999999999993
 49
3.1749999999999998
 74
0
 49
-1.5874999999999999
 74
0
  0
LTYPE
  5
38
100
AcDbSymbolTableRecord
100
AcDbLinetypeTableRecord
  2
BORDERX2
 70
0
  3
Border (2x) ____  ____  .  ____  ____  .  ___
 72
65
 73
6
 40
88.8999999999999773
 49
25.3999999999999986
 74
0
 49
-12.6999999999999993
 74
0
 49
25.3999999999999986
 74
0
 49
-12.6499999999999986
 74
0
 49
0.1
 74
0
 49
-12.6499999999999986
 74
0
  0
LTYPE
  5
39
100
AcDbSymbolTableRecord
100
AcDbLinetypeTableRecord
  2
ACAD_ISO05W100
 70
0
  3
ISO long-dash double-dot ____ .. ____ .. ____ . 
 72
65
 73
6
 40
33.0000000000000071
 49
24.0
 74
0
 49
-2.9500000000000002
 74
0
 49
0.1
 74
0
 49
-2.9000000000000004
 74
0
 49
0.1
 74
0
 49
-2.9500000000000002
 74
0
  0
LTYPE
  5
3A
100
AcDbSymbolTableRecord
100
AcDbLinetypeTableRecord
  2
DASHDOTX2
 70
0
  3
Dash dot (2x) ____  .  ____  .  ____  .  ___
 72
65
 73
4
 40
50.7999999999999972
 49
25.3999999999999986
 74
0
 49
-12.6499999999999986
 74
0
 49
0.1
 74
0
 49
-12.6499999999999986
 74
0
  0
LTYPE
  5
3B
100
AcDbSymbolTableRecord
100
AcDbLinetypeTableRecord
  2
HIDDENX2
 70
0
  3
Hidden (2x) ____ ____ ____ ____ ____ ____ ____ 
 72
65
 73
2
 40
19.0499999999999972
 49
12.6999999999999993
 74
0
 49
-6.3499999999999996
 74
0
  0
LTYPE
  5
3C
100
AcDbSymbolTableRecord
100
AcDbLinetypeTableRecord
  2
CENTERX2
 70
0
  3
Center (2x) ________  __  ________  __  _____
 72
65
 73
4
 40
101.6000000000000085
 49
63.5
 74
0
 49
-12.6999999999999993
 74
0
 49
12.6999999999999993
 74
0
 49
-12.6999999999999993
 74
0
  0
LTYPE
  5
3D
100
AcDbSymbolTableRecord
100
AcDbLinetypeTableRecord
  2
BORDER2
 70
0
  3
Border (.5x) __.__.__.__.__.__.__.__.__.__.__.
 72
65
 73
6
 40
22.2250000000000014
 49
6.3499999999999996
 74
0
 49
-3.1749999999999998
 74
0
 49
6.3499999999999996
 74
0
 49
-3.125
 74
0
 49
0.1
 74
0
 49
-3.125
 74
0
  0
LTYPE
  5
3E
100
AcDbSymbolTableRecord
100
AcDbLinetypeTableRecord
  2
DASHDOT2
 70
0
  3
Dash dot (.5x) _._._._._._._._._._._._._._._.
 72
65
 73
4
 40
12.6999999999999993
 49
6.3499999999999996
 74
0
 49
-3.125
 74
0
 49
0.1
 74
0
 49
-3.125
 74
0
  0
LTYPE
  5
3F
100
AcDbSymbolTableRecord
100
AcDbLinetypeTableRecord
  2
ACAD_ISO12W100
 70
0
  3
ISO dash double-dot __ . . __ . . __ . . __ . . 
 72
65
 73
6
 40
21.0
 49
12.0
 74
0
 49
-2.9500000000000002
 74
0
 49
0.1
 74
0
 49
-2.9000000000000004
 74
0
 49
0.1
 74
0
 49
-2.9500000000000002
 74
0
  0
LTYPE
  5
40
100
AcDbSymbolTableRecord
100
AcDbLinetypeTableRecord
  2
ACAD_ISO07W100
 70
0
  3
ISO dot . . . . . . . . . . . . . . . . . . . . 
 72
65
 73
2
 40
3.0
 49
0.1
 74
0
 49
-2.8999999999999999
 74
0
  0
LTYPE
  5
41
100
AcDbSymbolTableRecord
100
AcDbLinetypeTableRecord
  2
HIDDEN
 70
0
  3
Hidden __ __ __ __ __ __ __ __ __ __ __ __ __ __
 72
65
 73
2
 40
9.5249999999999986
 49
6.3499999999999996
 74
0
 49
-3.1749999999999998
 74
0
  0
LTYPE
  5
42
100
AcDbSymbolTableRecord
100
AcDbLinetypeTableRecord
  2
ACAD_ISO06W100
 70
0
  3
ISO long-dash triple-dot ____ ... ____ ... ____
 72
65
 73
8
 40
36.0000000000000071
 49
24.0
 74
0
 49
-2.9500000000000002
 74
0
 49
0.1
 74
0
 49
-2.9000000000000004
 74
0
 49
0.1
 74
0
 49
-2.9000000000000004
 74
0
 49
0.1
 74
0
 49
-2.9500000000000002
 74
0
  0
LTYPE
  5
43
100
AcDbSymbolTableRecord
100
AcDbLinetypeTableRecord
  2
CENTER
 70
0
  3
Center ____ _ ____ _ ____ _ ____ _ ____ _ ____
 72
65
 73
4
 40
50.8000000000000043
 49
31.75
 74
0
 49
-6.3499999999999996
 74
0
 49
6.3499999999999996
 74
0
 49
-6.3499999999999996
 74
0
  0
LTYPE
  5
44
100
AcDbSymbolTableRecord
100
AcDbLinetypeTableRecord
  2
DOTX2
 70
0
  3
Dot (2x) .  .  .  .  .  .  .  .  .  .  .  .  .  .
 72
65
 73
2
 40
12.6999999999999993
 49
0.1
 74
0
 49
-12.5999999999999996
 74
0
  0
LTYPE
  5
45
100
AcDbSymbolTableRecord
100
AcDbLinetypeTableRecord
  2
PHANTOM
 70
0
  3
Phantom ______  __  __  ______  __  __  ______ 
 72
65
 73
6
 40
63.5000000000000071
 49
31.75
 74
0
 49
-6.3499999999999996
 74
0
 49
6.3499999999999996
 74
0
 49
-6.3499999999999996
 74
0
 49
6.3499999999999996
 74
0
 49
-6.3499999999999996
 74
0
  0
LTYPE
  5
46
100
AcDbSymbolTableRecord
100
AcDbLinetypeTableRecord
  2
ACAD_ISO08W100
 70
0
  3
ISO long-dash short-dash ____ __ ____ __ ____ _
 72
65
 73
4
 40
36.0
 49
24.0
 74
0
 49
-3.0
 74
0
 49
6.0
 74
0
 49
-3.0
 74
0
  0
LTYPE
  5
47
100
AcDbSymbolTableRecord
100
AcDbLinetypeTableRecord
  2
DASHEDX2
 70
0
  3
Dashed (2x) ____  ____  ____  ____  ____  ___
 72
65
 73
2
 40
38.0999999999999943
 49
25.3999999999999986
 74
0
 49
-12.6999999999999993
 74
0
  0
LTYPE
  5
48
100
AcDbSymbolTableRecord
100
AcDbLinetypeTableRecord
  2
ACAD_ISO02W100
 70
0
  3
ISO dash __ __ __ __ __ __ __ __ __ __ __ __ __
 72
65
 73
2
 40
15.0
 49
12.0
 74
0
 49
-3.0
 74
0
  0
LTYPE
  5
49
100
AcDbSymbolTableRecord
100
AcDbLinetypeTableRecord
  2
PHANTOM2
 70
0
  3
Phantom (.5x) ___ _ _ ___ _ _ ___ _ _ ___ _ _
 72
65
 73
6
 40
31.7500000000000036
 49
15.875
 74
0
 49
-3.1749999999999998
 74
0
 49
3.1749999999999998
 74
0
 49
-3.1749999999999998
 74
0
 49
3.1749999999999998
 74
0
 49
-3.1749999999999998
 74
0
  0
LTYPE
  5
4A
100
AcDbSymbolTableRecord
100
AcDbLinetypeTableRecord
  2
DASHED2
 70
0
  3
Dashed (.5x) _ _ _ _ _ _ _ _ _ _ _ _ _ _ _ _ _ 
 72
65
 73
2
 40
9.5249999999999986
 49
6.3499999999999996
 74
0
 49
-3.1749999999999998
 74
0
  0
LTYPE
  5
4B
100
AcDbSymbolTableRecord
100
AcDbLinetypeTableRecord
  2
ACAD_ISO09W100
 70
0
  3
ISO long-dash double-short-dash ____ __ __ ____
 72
65
 73
6
 40
45.0
 49
24.0
 74
0
 49
-3.0
 74
0
 49
6.0
 74
0
 49
-3.0
 74
0
 49
6.0
 74
0
 49
-3.0
 74
0
  0
LTYPE
  5
4C
100
AcDbSymbolTableRecord
100
AcDbLinetypeTableRecord
  2
ACAD_ISO13W100
 70
0
  3
ISO double-dash double-dot __ __ . . __ __ . . _
 72
65
 73
8
 40
36.0000000000000071
 49
12.0
 74
0
 49
-3.0
 74
0
 49
12.0
 74
0
 49
-2.9500000000000002
 74
0
 49
0.1
 74
0
 49
-2.9000000000000004
 74
0
 49
0.1
 74
0
 49
-2.9500000000000002
 74
0
  0
LTYPE
  5
4D
100
AcDbSymbolTableRecord
100
AcDbLinetypeTableRecord
  2
DOT2
 70
0
  3
Dot (.5x) ........................................
 72
65
 73
2
 40
3.1749999999999998
 49
0.1
 74
0
 49
-3.0749999999999997
 74
0
  0
LTYPE
  5
4E
100
AcDbSymbolTableRecord
100
AcDbLinetypeTableRecord
  2
DASHED
 70
0
  3
Dashed __ __ __ __ __ __ __ __ __ __ __ __ __ _
 72
65
 73
2
 40
19.0499999999999972
 49
12.6999999999999993
 74
0
 49
-6.3499999999999996
 74
0
  0
LTYPE
  5
4F
100
AcDbSymbolTableRecord
100
AcDbLinetypeTableRecord
  2
ACAD_ISO14W100
 70
0
  3
ISO dash triple-dot __ . . . __ . . . __ . . . _
 72
65
 73
8
 40
24.0000000000000036
 49
12.0
 74
0
 49
-2.9500000000000002
 74
0
 49
0.1
 74
0
 49
-2.9000000000000004
 74
0
 49
0.1
 74
0
 49
-2.9000000000000004
 74
0
 49
0.1
 74
0
 49
-2.9500000000000002
 74
0
  0
LTYPE
  5
15
100
AcDbSymbolTableRecord
100
AcDbLinetypeTableRecord
  2
BYLAYER
 70
0
  3

 72
65
 73
0
 40
0.0
  0
LTYPE
  5
50
100
AcDbSymbolTableRecord
100
AcDbLinetypeTableRecord
  2
PHANTOMX2
 70
0
  3
Phantom (2x) ____________    ____    ____   _
 72
65
 73
6
 40
127.0000000000000142
 49
63.5
 74
0
 49
-12.6999999999999993
 74
0
 49
12.6999999999999993
 74
0
 49
-12.6999999999999993
 74
0
 49
12.6999999999999993
 74
0
 49
-12.6999999999999993
 74
0
  0
LTYPE
  5
14
100
AcDbSymbolTableRecord
100
AcDbLinetypeTableRecord
  2
BYBLOCK
 70
0
  3

 72
65
 73
0
 40
0.0
  0
LTYPE
  5
51
100
AcDbSymbolTableRecord
100
AcDbLinetypeTableRecord
  2
DIVIDEX2
 70
0
  3
Divide (2x) ________  .  .  ________  .  .  _
 72
65
 73
6
 40
63.5
 49
25.3999999999999986
 74
0
 49
-12.6499999999999986
 74
0
 49
0.1
 74
0
 49
-12.5999999999999979
 74
0
 49
0.1
 74
0
 49
-12.6499999999999986
 74
0
  0
LTYPE
  5
52
100
AcDbSymbolTableRecord
100
AcDbLinetypeTableRecord
  2
BORDER
 70
0
  3
Border __ __ . __ __ . __ __ . __ __ . __ __ .
 72
65
 73
6
 40
44.4499999999999957
 49
12.6999999999999993
 74
0
 49
-6.3499999999999996
 74
0
 49
12.6999999999999993
 74
0
 49
-6.2999999999999998
 74
0
 49
0.1
 74
0
 49
-6.2999999999999998
 74
0
  0
LTYPE
  5
53
100
AcDbSymbolTableRecord
100
AcDbLinetypeTableRecord
  2
DIVIDE2
 70
0
  3
Divide (.5x) __..__..__..__..__..__..__..__.._
 72
65
 73
6
 40
15.8749999999999982
 49
6.3499999999999996
 74
0
 49
-3.125
 74
0
 49
0.1
 74
0
 49
-3.0750000000000002
 74
0
 49
0.1
 74
0
 49
-3.125
 74
0
  0
LTYPE
  5
54
100
AcDbSymbolTableRecord
100
AcDbLinetypeTableRecord
  2
DOT
 70
0
  3
Dot . . . . . . . . . . . . . . . . . . . . . . . .
 72
65
 73
2
 40
6.3499999999999996
 49
0.1
 74
0
 49
-6.25
 74
0
  0
LTYPE
  5
55
100
AcDbSymbolTableRecord
100
AcDbLinetypeTableRecord
  2
DASHDOT
 70
0
  3
Dash dot __ . __ . __ . __ . __ . __ . __ . __
 72
65
 73
4
 40
25.4000000000000021
 49
12.6999999999999993
 74
0
 49
-6.2999999999999998
 74
0
 49
0.1
 74
0
 49
-6.2999999999999998
 74
0
  0
LTYPE
  5
56
100
AcDbSymbolTableRecord
100
AcDbLinetypeTableRecord
  2
ACAD_ISO03W100
 70
0
  3
ISO dash space __    __    __    __    __    __
 72
65
 73
2
 40
30.0
 49
12.0
 74
0
 49
-18.0
 74
0
  0
ENDTAB
  0
TABLE
  2
LAYER
  5
2
100
AcDbSymbolTable
 70
7
  0
LAYER
  5
57
100
AcDbSymbolTableRecord
100
AcDbLayerTableRecord
  2
centerline
 70
0
 62
7
420
0
  6
Continuous
370
25
390
F
  0
LAYER
  5
58
100
AcDbSymbolTableRecord
100
AcDbLayerTableRecord
  2
gray
 70
0
 62
9
420
12632256
  6
Continuous
370
25
390
F
  0
LAYER
  5
59
100
AcDbSymbolTableRecord
100
AcDbLayerTableRecord
  2
x8
 70
0
 62
7
420
0
  6
DASHEDX2
370
25
390
F
  0
LAYER
  5
5A
100
AcDbSymbolTableRecord
100
AcDbLayerTableRecord
  2
bent
 70
0
 62
7
420
0
  6
ACAD_ISO03W100
370
25
390
F
  0
LAYER
  5
10
100
AcDbSymbolTableRecord
100
AcDbLayerTableRecord
  2
0
 70
0
 62
7
420
0
  6
Continuous
370
13
390
F
  0
LAYER
  5
5B
100
AcDbSymbolTableRecord
100
AcDbLayerTableRecord
  2
times
 70
0
 62
7
420
0
  6
Continuous
370
40
390
F
  0
LAYER
  5
5C
100
AcDbSymbolTableRecord
100
AcDbLayerTableRecord
  2
infoline
 70
0
 62
7
420
0
  6
DOT
370
25
390
F
  0
ENDTAB
  0
TABLE
  2
STYLE
  5
3
100
AcDbSymbolTable
 70
10
  0
STYLE
  5
5D
100
AcDbSymbolTableRecord
100
AcDbTextStyleTableRecord
  2
Standard
 70
0
 40
0.0
 41
1.0
 50
0.0
 71
0
 42
2.5
  3

  4

1001
ACAD
1000
txt
1071
0
  0
STYLE
  5
5E
100
AcDbSymbolTableRecord
100
AcDbTextStyleTableRecord
  2
textstyle0
 70
0
 40
0.0
 41
1.0
 50
0.0
 71
0
 42
1.0
  3

  4

1001
ACAD
1000
CMU Serif
1071
0
  0
STYLE
  5
5F
100
AcDbSymbolTableRecord
100
AcDbTextStyleTableRecord
  2
textstyle1
 70
0
 40
0.0
 41
1.0
 50
0.0
 71
0
 42
1.0
  3

  4

1001
ACAD
1000
CMU Serif
1071
0
  0
STYLE
  5
60
100
AcDbSymbolTableRecord
100
AcDbTextStyleTableRecord
  2
textstyle2
 70
0
 40
0.0
 41
1.0
 50
0.0
 71
0
 42
1.0
  3

  4

1001
ACAD
1000
CMU Serif
1071
0
  0
STYLE
  5
61
100
AcDbSymbolTableRecord
100
AcDbTextStyleTableRecord
  2
textstyle3
 70
0
 40
0.0
 41
1.0
 50
0.0
 71
0
 42
1.0
  3

  4

1001
ACAD
1000
CMU Serif
1071
0
  0
STYLE
  5
62
100
AcDbSymbolTableRecord
100
AcDbTextStyleTableRecord
  2
textstyle4
 70
0
 40
0.0
 41
1.0
 50
0.0
 71
0
 42
1.0
  3

  4

1001
ACAD
1000
CMU Serif
1071
0
  0
STYLE
  5
63
100
AcDbSymbolTableRecord
100
AcDbTextStyleTableRecord
  2
textstyle5
 70
0
 40
0.0
 41
1.0
 50
0.0
 71
0
 42
1.0
  3

  4

1001
ACAD
1000
CMU Serif
1071
0
  0
STYLE
  5
64
100
AcDbSymbolTableRecord
100
AcDbTextStyleTableRecord
  2
textstyle6
 70
0
 40
0.0
 41
1.0
 50
0.0
 71
0
 42
1.0
  3

  4

1001
ACAD
1000
CMU Serif
1071
0
  0
STYLE
  5
65
100
AcDbSymbolTableRecord
100
AcDbTextStyleTableRecord
  2
textstyle7
 70
0
 40
0.0
 41
1.0
 50
0.0
 71
0
 42
1.0
  3

  4

1001
ACAD
1000
CMU Serif
1071
0
  0
STYLE
  5
66
100
AcDbSymbolTableRecord
100
AcDbTextStyleTableRecord
  2
textstyle8
 70
0
 40
0.0
 41
1.0
 50
0.0
 71
0
 42
1.0
  3

  4

1001
ACAD
1000
CMU Serif
1071
0
  0
ENDTAB
  0
TABLE
  2
VIEW
  5
6
100
AcDbSymbolTable
 70
0
  0
ENDTAB
  0
TABLE
  2
UCS
  5
7
100
AcDbSymbolTable
 70
0
  0
ENDTAB
  0
TABLE
  2
APPID
  5
9
100
AcDbSymbolTable
 70
1
  0
APPID
  5
12
100
AcDbSymbolTableRecord
100
AcDbRegAppTableRecord
  2
ACAD
 70
0
  0
APPID
  5
67
100
AcDbSymbolTableRecord
100
AcDbRegAppTableRecord
  2
QCAD
 70
0
  0
ENDTAB
  0
TABLE
  2
DIMSTYLE
  5
A
100
AcDbSymbolTable
 70
1
100
AcDbDimStyleTable
 71
0
  0
DIMSTYLE
105
27
100
AcDbSymbolTableRecord
100
AcDbDimStyleTableRecord
  2
Standard
 41
2.5
 42
0.625
 43
3.75
 44
1.25
 70
0
 73
0
 74
0
 77
1
 78
8
140
2.5
141
2.5
143
0.03937007874016
147
0.625
171
3
172
1
271
2
272
2
274
3
278
44
283
0
284
8
340
5D
  0
ENDTAB
  0
TABLE
  2
BLOCK_RECORD
  5
1
100
AcDbSymbolTable
 70
1
  0
BLOCK_RECORD
  5
1F
100
AcDbSymbolTableRecord
100
AcDbBlockTableRecord
  2
*Model_Space
340
22
  0
BLOCK_RECORD
  5
1B
100
AcDbSymbolTableRecord
100
AcDbBlockTableRecord
  2
*Paper_Space
340
1E
  0
BLOCK_RECORD
  5
23
100
AcDbSymbolTableRecord
100
AcDbBlockTableRecord
  2
*Paper_Space0
340
26
  0
ENDTAB
  0
ENDSEC
  0
SECTION
  2
BLOCKS
  0
BLOCK
  5
20
100
AcDbEntity
  8
0
100
AcDbBlockBegin
  2
*Model_Space
 70
0
 10
0.0
 20
0.0
 30
0.0
  3
*Model_Space
  1

  0
ENDBLK
  5
21
100
AcDbEntity
  8
0
100
AcDbBlockEnd
  0
BLOCK
  5
1C
100
AcDbEntity
 67
1
  8
0
100
AcDbBlockBegin
  2
*Paper_Space
 70
0
 10
0.0
 20
0.0
 30
0.0
  3
*Paper_Space
  1

  0
ENDBLK
  5
1D
100
AcDbEntity
 67
1
  8
0
100
AcDbBlockEnd
  0
BLOCK
  5
24
100
AcDbEntity
  8
0
100
AcDbBlockBegin
  2
*Paper_Space0
 70
0
 10
0.0
 20
0.0
 30
0.0
  3
*Paper_Space0
  1

  0
ENDBLK
  5
25
100
AcDbEntity
  8
0
100
AcDbBlockEnd
  0
ENDSEC
  0
SECTION
  2
ENTITIES
  0
LINE
  5
68
100
AcDbEntity
100
AcDbLine
  8
0
 62
256
370
-1
 48
1.0
  6
BYLAYER
 10
36.8201941380976123
 20
15.629245139570946
 30
0.0
 11
39.449623778093752
 21
6.6034196228979765
 31
0.0
  0
LINE
  5
69
100
AcDbEntity
100
AcDbLine
  8
0
 62
256
370
-1
 48
1.0
  6
BYLAYER
 10
39.449623778093752
 20
6.6034196228979765
 30
0.0
 11
39.4496237780937449
 21
-6.6119684435629571
 31
0.0
  0
LINE
  5
6A
100
AcDbEntity
100
AcDbLine
  8
0
 62
256
370
-1
 48
1.0
  6
BYLAYER
 10
39.449623778093752
 20
-6.0881740861155036
 30
0.0
 11
39.449623778093752
 21
-6.0881740861155036
 31
0.0
  0
LINE
  5
6B
100
AcDbEntity
100
AcDbLine
  8
0
 62
256
370
-1
 48
1.0
  6
BYLAYER
 10
39.4496237780937591
 20
-6.6119684435629775
 30
0.0
 11
36.8201941380976123
 21
-15.629245139570946
 31
0.0
  0
LINE
  5
6C
100
AcDbEntity
100
AcDbLine
  8
0
 62
256
370
-1
 48
1.0
  6
BYLAYER
 10
7.5105151610235925
 20
-3.2407230253041197
 30
0.0
 11
8.0635807500863841
 21
-1.3514993643944253
 31
0.0
  0
LINE
  5
6D
100
AcDbEntity
100
AcDbLine
  8
0
 62
256
370
-1
 48
1.0
  6
BYLAYER
 10
8.0635807500863823
 20
-1.3514993643944249
 30
0.0
 11
8.0638654514496473
 21
1.3497996244030284
 31
0.0
  0
LINE
  5
6E
100
AcDbEntity
100
AcDbLine
  8
0
 62
256
370
-1
 48
1.0
  6
BYLAYER
 10
8.0638654514496473
 20
1.3497996244030284
 30
0.0
 11
7.5105151610235925
 21
3.2407230253041197
 31
0.0
  0
LINE
  5
6F
100
AcDbEntity
100
AcDbLine
  8
0
 62
256
370
-1
 48
1.0
  6
BYLAYER
 10
7.5105151610235925
 20
3.2407230253041197
 30
0.0
 11
36.8201941380976123
 21
15.629245139570946
 31
0.0
  0
LINE
  5
70
100
AcDbEntity
100
AcDbLine
  8
bent
 62
256
370
-1
 48
1.0
  6
BYLAYER
 10
39.449623778093752
 20
6.6034196228979853
 30
0.0
 11
8.0638654514496473
 21
1.3497996244030284
 31
0.0
  0
LINE
  5
71
100
AcDbEntity
100
AcDbLine
  8
bent
 62
256
370
-1
 48
1.0
  6
BYLAYER
 10
39.449623778093752
 20
-6.6119684435629589
 30
0.0
 11
8.0635807500863876
 21
-1.3514993643944258
 31
0.0
  0
LINE
  5
72
100
AcDbEntity
100
AcDbLine
  8
0
 62
256
370
-1
 48
1.0
  6
BYLAYER
 10
7.5105151610235925
 20
-3.2407230253041197
 30
0.0
 11
36.8201941380976123
 21
-15.629245139570946
 31
0.0
  0
LINE
  5
73
100
AcDbEntity
100
AcDbLine
  8
0
 62
256
370
-1
 48
1.0
  6
BYLAYER
 10
32.2000856700846541
 20
23.5901073074116781
 30
0.0
 11
32.2000856700846541
 21
23.5901073074116781
 31
0.0
  0
LINE
  5
74
100
AcDbEntity
100
AcDbLine
  8
0
 62
256
370
-1
 48
1.0
  6
BYLAYER
 10
39.3999999999999986
 20
6.8000000000000052
 30
0.0
 11
44.9999999999999929
 21
6.8000000000000007
 31
0.0
  0
LINE
  5
75
100
AcDbEntity
100
AcDbLine
  8
0
 62
256
370
-1
 48
1.0
  6
BYLAYER
 10
44.9999999999999929
 20
6.8000000000000007
 30
0.0
 11
44.9999999999999929
 21
6.0000000000000053
 31
0.0
  0
LINE
  5
76
100
AcDbEntity
100
AcDbLine
  8
0
 62
256
370
-1
 48
1.0
  6
BYLAYER
 10
44.7999999999999972
 20
6.0000000000000053
 30
0.0
 11
39.4496237780937591
 21
5.9999999999999991
 31
0.0
  0
LINE
  5
77
100
AcDbEntity
100
AcDbLine
  8
0
 62
256
370
-1
 48
1.0
  6
ACAD_ISO08W100
 10
44.4999999999999929
 20
8.0000000000000053
 30
0.0
 11
44.4999999999999929
 21
-10.9999999999999982
 31
0.0
  0
LINE
  5
78
100
AcDbEntity
100
AcDbLine
  8
0
 62
256
370
-1
 48
1.0
  6
BYLAYER
 10
39.3936172380414362
 20
-6.8086103281966786
 30
0.0
 11
45.0
 21
-6.8012245951843582
 31
0.0
  0
LINE
  5
79
100
AcDbEntity
100
AcDbLine
  8
0
 62
256
370
-1
 48
1.0
  6
BYLAYER
 10
45.0
 20
-6.8012245951843582
 30
0.0
 11
44.9999999999999929
 21
-6.001225343457028
 31
0.0
  0
LINE
  5
7A
100
AcDbEntity
100
AcDbLine
  8
0
 62
256
370
-1
 48
1.0
  6
BYLAYER
 10
44.9999999999999929
 20
-6.001225343457028
 30
0.0
 11
39.4496237780937449
 21
-5.9999999999999973
 31
0.0
  0
LINE
  5
7B
100
AcDbEntity
100
AcDbLine
  8
centerline
 62
256
370
-1
 48
1.0
  6
BYLAYER
 10
44.9999999999999929
 20
6.0000000000000053
 30
0.0
 11
44.1999999999999957
 21
5.9999999999999982
 31
0.0
  0
CIRCLE
  5
7C
100
AcDbEntity
100
AcDbCircle
  8
centerline
 62
256
370
-1
 48
1.0
  6
BYLAYER
 10
60.0
 20
0.0
 30
0.0
 40
1.4142135623730951
  0
CIRCLE
  5
7D
100
AcDbEntity
100
AcDbCircle
  8
centerline
 62
256
370
-1
 48
1.0
  6
BYLAYER
 10
60.0
 20
0.0
 30
0.0
 40
0.9476531409200933
  0
LINE
  5
7E
100
AcDbEntity
100
AcDbLine
  8
centerline
 62
256
370
-1
 48
1.0
  6
BYLAYER
 10
48.7130731740115195
 20
3.1933581932854924
 30
0.0
 11
48.7130731740115195
 21
-3.2813360225352439
 31
0.0
  0
LINE
  5
7F
100
AcDbEntity
100
AcDbLine
  8
centerline
 62
256
370
-1
 48
1.0
  6
BYLAYER
 10
48.7130731740115195
 20
-3.2813360225352439
 30
0.0
 11
47.1781241142264207
 21
-3.2813360225352479
 31
0.0
  0
LINE
  5
80
100
AcDbEntity
100
AcDbLine
  8
centerline
 62
256
370
-1
 48
1.0
  6
BYLAYER
 10
47.1781241142264207
 20
-3.2813360225352479
 30
0.0
 11
47.1781241142264136
 21
3.1933581932854933
 31
0.0
  0
LINE
  5
81
100
AcDbEntity
100
AcDbLine
  8
centerline
 62
256
370
-1
 48
1.0
  6
BYLAYER
 10
47.1781241142264136
 20
3.1933581932854933
 30
0.0
 11
48.7130731740115195
 21
3.1933581932854924
 31
0.0
  0
LINE
  5
82
100
AcDbEntity
100
AcDbLine
  8
centerline
 62
256
370
-1
 48
1.0
  6
BYLAYER
 10
46.0
 20
-6.999999999999992
 30
0.0
 11
46.0
 21
-9.5999999999999925
 31
0.0
  0
LINE
  5
83
100
AcDbEntity
100
AcDbLine
  8
centerline
 62
256
370
-1
 48
1.0
  6
BYLAYER
 10
46.0
 20
-9.5999999999999925
 30
0.0
 11
42.8999999999999986
 21
-9.5999999999999979
 31
0.0
  0
LINE
  5
84
100
AcDbEntity
100
AcDbLine
  8
centerline
 62
256
370
-1
 48
1.0
  6
BYLAYER
 10
42.8999999999999986
 20
-9.5999999999999979
 30
0.0
 11
42.8999999999999915
 21
-6.9999999999999982
 31
0.0
  0
LINE
  5
85
100
AcDbEntity
100
AcDbLine
  8
centerline
 62
256
370
-1
 48
1.0
  6
BYLAYER
 10
42.8999999999999915
 20
-6.9999999999999982
 30
0.0
 11
46.0
 21
-6.999999999999992
 31
0.0
  0
LINE
  5
86
100
AcDbEntity
100
AcDbLine
  8
centerline
 62
256
370
-1
 48
1.0
  6
BYLAYER
 10
48.4999999999999858
 20
-3.2813360225352515
 30
0.0
 11
48.4999999999999929
 21
-9.6999999999999922
 31
0.0
  0
LINE
  5
87
100
AcDbEntity
100
AcDbLine
  8
centerline
 62
256
370
-1
 48
1.0
  6
BYLAYER
 10
45.7999999999999972
 20
-9.5999999999999996
 30
0.0
 11
45.7999999999999972
 21
-10.3999999999999968
 31
0.0
  0
LINE
  5
88
100
AcDbEntity
100
AcDbLine
  8
centerline
 62
256
370
-1
 48
1.0
  6
BYLAYER
 10
60.0
 20
-1.4142135623730874
 30
0.0
 11
59.9999999999999929
 21
-8.9999999999999929
 31
0.0
  0
LINE
  5
89
100
AcDbEntity
100
AcDbLine
  8
centerline
 62
256
370
-1
 48
1.0
  6
BYLAYER
 10
45.7999999999999972
 20
-10.3999999999999968
 30
0.0
 11
107.0
 21
-10.3999999999999915
 31
0.0
  0
LINE
  5
8A
100
AcDbEntity
100
AcDbLine
  8
centerline
 62
256
370
-1
 48
1.0
  6
BYLAYER
 10
48.4999999999999929
 20
-9.6999999999999922
 30
0.0
 11
107.0
 21
-9.699999999999994
 31
0.0
  0
LINE
  5
8B
100
AcDbEntity
100
AcDbLine
  8
centerline
 62
256
370
-1
 48
1.0
  6
BYLAYER
 10
59.9999999999999929
 20
-8.9999999999999929
 30
0.0
 11
107.0
 21
-9.0
 31
0.0
  0
MTEXT
  5
8C
100
AcDbEntity
100
AcDbMText
  8
0
 62
256
370
-1
 48
1.0
  6
BYLAYER
 10
63.9999999999999929
 20
-12.6999999999999993
 30
0.0
 40
1.0
 41
0.0
 71
3
 72
1
  1
\H2;Absolute encoder
  7
textstyle0
 50
0.0
 73
2
 44
1.0
  0
MTEXT
  5
8D
100
AcDbEntity
100
AcDbMText
  8
0
 62
256
370
-1
 48
1.0
  6
BYLAYER
 10
7.5999999999999996
 20
15.4999999999999982
 30
0.0
 40
1.0
 41
0.0
 71
1
 72
1
  1
\H2;Aluminum petal
  7
textstyle1
 50
0.0
 73
2
 44
1.0
  0
LINE
  5
8E
100
AcDbEntity
100
AcDbLine
  8
0
 62
256
370
-1
 48
1.0
  6
BYLAYER
 10
47.1999999999999957
 20
4.3999999999999995
 30
0.0
 11
48.6999999999999957
 21
4.3999999999999995
 31
0.0
  0
LINE
  5
8F
100
AcDbEntity
100
AcDbLine
  8
0
 62
256
370
-1
 48
1.0
  6
BYLAYER
 10
48.6999999999999957
 20
4.3999999999999995
 30
0.0
 11
48.6999999999999957
 21
3.4999999999999996
 31
0.0
  0
LINE
  5
90
100
AcDbEntity
100
AcDbLine
  8
0
 62
256
370
-1
 48
1.0
  6
BYLAYER
 10
48.6999999999999957
 20
3.4999999999999996
 30
0.0
 11
47.1999999999999957
 21
3.4999999999999996
 31
0.0
  0
LINE
  5
91
100
AcDbEntity
100
AcDbLine
  8
0
 62
256
370
-1
 48
1.0
  6
BYLAYER
 10
47.1999999999999957
 20
3.4999999999999996
 30
0.0
 11
47.1999999999999957
 21
4.3999999999999995
 31
0.0
  0
LINE
  5
92
100
AcDbEntity
100
AcDbLine
  8
0
 62
256
370
-1
 48
1.0
  6
BYLAYER
 10
47.3999999999999986
 20
4.3999999999999995
 30
0.0
 11
47.3999999999999986
 21
3.4999999999999996
 31
0.0
  0
LINE
  5
93
100
AcDbEntity
100
AcDbLine
  8
0
 62
256
370
-1
 48
1.0
  6
BYLAYER
 10
47.3999999999999986
 20
3.4999999999999996
 30
0.0
 11
47.5999999999999943
 21
3.4999999999999996
 31
0.0
  0
LINE
  5
94
100
AcDbEntity
100
AcDbLine
  8
0
 62
256
370
-1
 48
1.0
  6
BYLAYER
 10
47.5999999999999943
 20
3.4999999999999996
 30
0.0
 11
47.5999999999999943
 21
4.3999999999999995
 31
0.0
  0
LINE
  5
95
100
AcDbEntity
100
AcDbLine
  8
0
 62
256
370
-1
 48
1.0
  6
BYLAYER
 10
47.5999999999999943
 20
4.3999999999999995
 30
0.0
 11
47.7999999999999972
 21
4.3999999999999995
 31
0.0
  0
LINE
  5
96
100
AcDbEntity
100
AcDbLine
  8
0
 62
256
370
-1
 48
1.0
  6
BYLAYER
 10
47.7999999999999972
 20
4.3999999999999995
 30
0.0
 11
47.7999999999999972
 21
3.4999999999999996
 31
0.0
  0
LINE
  5
97
100
AcDbEntity
100
AcDbLine
  8
0
 62
256
370
-1
 48
1.0
  6
BYLAYER
 10
47.7999999999999972
 20
3.4999999999999996
 30
0.0
 11
47.9499999999999957
 21
3.4999999999999996
 31
0.0
  0
LINE
  5
98
100
AcDbEntity
100
AcDbLine
  8
0
 62
256
370
-1
 48
1.0
  6
BYLAYER
 10
47.9999999999999929
 20
4.3999999999999995
 30
0.0
 11
47.9999999999999929
 21
3.4999999999999996
 31
0.0
  0
LINE
  5
99
100
AcDbEntity
100
AcDbLine
  8
0
 62
256
370
-1
 48
1.0
  6
BYLAYER
 10
47.9999999999999929
 20
3.4999999999999996
 30
0.0
 11
48.1999999999999957
 21
3.4999999999999996
 31
0.0
  0
LINE
  5
9A
100
AcDbEntity
100
AcDbLine
  8
0
 62
256
370
-1
 48
1.0
  6
BYLAYER
 10
48.1999999999999957
 20
3.4999999999999996
 30
0.0
 11
48.1999999999999957
 21
4.3999999999999995
 31
0.0
  0
LINE
  5
9B
100
AcDbEntity
100
AcDbLine
  8
0
 62
256
370
-1
 48
1.0
  6
BYLAYER
 10
48.1999999999999957
 20
4.3999999999999995
 30
0.0
 11
48.3999999999999986
 21
4.3999999999999995
 31
0.0
  0
LINE
  5
9C
100
AcDbEntity
100
AcDbLine
  8
0
 62
256
370
-1
 48
1.0
  6
BYLAYER
 10
48.3999999999999986
 20
4.3999999999999995
 30
0.0
 11
48.3999999999999986
 21
3.4999999999999996
 31
0.0
  0
LINE
  5
9D
100
AcDbEntity
100
AcDbLine
  8
0
 62
256
370
-1
 48
1.0
  6
BYLAYER
 10
48.3999999999999986
 20
3.4999999999999996
 30
0.0
 11
48.5999999999999943
 21
3.4999999999999996
 31
0.0
  0
LINE
  5
9E
100
AcDbEntity
100
AcDbLine
  8
0
 62
256
370
-1
 48
1.0
  6
BYLAYER
 10
48.5999999999999943
 20
3.4999999999999996
 30
0.0
 11
48.5999999999999943
 21
4.3999999999999995
 31
0.0
  0
LINE
  5
9F
100
AcDbEntity
100
AcDbLine
  8
0
 62
256
370
-1
 48
1.0
  6
BYLAYER
 10
47.6999999999999957
 20
3.1999999999999997
 30
0.0
 11
47.6999999999999957
 21
3.4999999999999996
 31
0.0
  0
LINE
  5
A0
100
AcDbEntity
100
AcDbLine
  8
0
 62
256
370
-1
 48
1.0
  6
BYLAYER
 10
48.1999999999999957
 20
3.1999999999999997
 30
0.0
 11
48.1999999999999886
 21
3.4999999999999991
 31
0.0
  0
LINE
  5
A1
100
AcDbEntity
100
AcDbLine
  8
0
 62
256
370
-1
 48
1.0
  6
BYLAYER
 10
47.1999999999999957
 20
4.4000000000000004
 30
0.0
 11
41.6999999999999957
 21
4.3999999999999995
 31
0.0
  0
LINE
  5
A2
100
AcDbEntity
100
AcDbLine
  8
0
 62
256
370
-1
 48
1.0
  6
BYLAYER
 10
41.6999999999999957
 20
3.5
 30
0.0
 11
47.1999999999999957
 21
3.4999999999999996
 31
0.0
  0
LINE
  5
A3
100
AcDbEntity
100
AcDbLine
  8
0
 62
256
370
-1
 48
1.0
  6
BYLAYER
 10
41.6999999999999957
 20
4.3999999999999995
 30
0.0
 11
41.6999999999999957
 21
3.4999999999999996
 31
0.0
  0
LINE
  5
A4
100
AcDbEntity
100
AcDbLine
  8
0
 62
256
370
-1
 48
1.0
  6
BYLAYER
 10
46.9999999999999929
 20
4.3999999999999995
 30
0.0
 11
46.9999999999999929
 21
3.4999999999999996
 31
0.0
  0
LINE
  5
A5
100
AcDbEntity
100
AcDbLine
  8
0
 62
256
370
-1
 48
1.0
  6
BYLAYER
 10
46.7999999999999972
 20
4.3999999999999995
 30
0.0
 11
46.7999999999999972
 21
3.4999999999999996
 31
0.0
  0
LINE
  5
A6
100
AcDbEntity
100
AcDbLine
  8
0
 62
256
370
-1
 48
1.0
  6
BYLAYER
 10
46.6000000000000014
 20
4.3999999999999995
 30
0.0
 11
46.6000000000000014
 21
3.4999999999999996
 31
0.0
  0
LINE
  5
A7
100
AcDbEntity
100
AcDbLine
  8
0
 62
256
370
-1
 48
1.0
  6
BYLAYER
 10
46.4000000000000057
 20
4.3999999999999995
 30
0.0
 11
46.4000000000000057
 21
3.4999999999999996
 31
0.0
  0
LINE
  5
A8
100
AcDbEntity
100
AcDbLine
  8
0
 62
256
370
-1
 48
1.0
  6
BYLAYER
 10
46.2000000000000099
 20
4.3999999999999995
 30
0.0
 11
46.2000000000000099
 21
3.4999999999999996
 31
0.0
  0
LINE
  5
A9
100
AcDbEntity
100
AcDbLine
  8
0
 62
256
370
-1
 48
1.0
  6
BYLAYER
 10
46.0000000000000142
 20
4.3999999999999995
 30
0.0
 11
46.0000000000000142
 21
3.4999999999999996
 31
0.0
  0
LINE
  5
AA
100
AcDbEntity
100
AcDbLine
  8
0
 62
256
370
-1
 48
1.0
  6
BYLAYER
 10
45.8000000000000185
 20
4.3999999999999995
 30
0.0
 11
45.8000000000000185
 21
3.4999999999999996
 31
0.0
  0
LINE
  5
AB
100
AcDbEntity
100
AcDbLine
  8
0
 62
256
370
-1
 48
1.0
  6
BYLAYER
 10
45.6000000000000227
 20
4.3999999999999995
 30
0.0
 11
45.6000000000000227
 21
3.4999999999999996
 31
0.0
  0
LINE
  5
AC
100
AcDbEntity
100
AcDbLine
  8
0
 62
256
370
-1
 48
1.0
  6
BYLAYER
 10
45.400000000000027
 20
4.3999999999999995
 30
0.0
 11
45.400000000000027
 21
3.4999999999999996
 31
0.0
  0
LINE
  5
AD
100
AcDbEntity
100
AcDbLine
  8
0
 62
256
370
-1
 48
1.0
  6
BYLAYER
 10
45.2000000000000313
 20
4.3999999999999995
 30
0.0
 11
45.2000000000000313
 21
3.4999999999999996
 31
0.0
  0
LINE
  5
AE
100
AcDbEntity
100
AcDbLine
  8
0
 62
256
370
-1
 48
1.0
  6
BYLAYER
 10
45.0000000000000355
 20
4.3999999999999995
 30
0.0
 11
45.0000000000000355
 21
3.4999999999999996
 31
0.0
  0
LINE
  5
AF
100
AcDbEntity
100
AcDbLine
  8
0
 62
256
370
-1
 48
1.0
  6
BYLAYER
 10
44.8000000000000398
 20
4.3999999999999995
 30
0.0
 11
44.8000000000000398
 21
3.4999999999999996
 31
0.0
  0
LINE
  5
B0
100
AcDbEntity
100
AcDbLine
  8
0
 62
256
370
-1
 48
1.0
  6
BYLAYER
 10
44.6000000000000441
 20
4.3999999999999995
 30
0.0
 11
44.6000000000000441
 21
3.4999999999999996
 31
0.0
  0
LINE
  5
B1
100
AcDbEntity
100
AcDbLine
  8
0
 62
256
370
-1
 48
1.0
  6
BYLAYER
 10
44.4000000000000483
 20
4.3999999999999995
 30
0.0
 11
44.4000000000000483
 21
3.4999999999999996
 31
0.0
  0
LINE
  5
B2
100
AcDbEntity
100
AcDbLine
  8
0
 62
256
370
-1
 48
1.0
  6
BYLAYER
 10
44.2000000000000526
 20
4.3999999999999995
 30
0.0
 11
44.2000000000000526
 21
3.4999999999999996
 31
0.0
  0
LINE
  5
B3
100
AcDbEntity
100
AcDbLine
  8
0
 62
256
370
-1
 48
1.0
  6
BYLAYER
 10
44.0000000000000568
 20
4.3999999999999995
 30
0.0
 11
44.0000000000000568
 21
3.4999999999999996
 31
0.0
  0
LINE
  5
B4
100
AcDbEntity
100
AcDbLine
  8
0
 62
256
370
-1
 48
1.0
  6
BYLAYER
 10
43.8000000000000611
 20
4.3999999999999995
 30
0.0
 11
43.8000000000000611
 21
3.4999999999999996
 31
0.0
  0
LINE
  5
B5
100
AcDbEntity
100
AcDbLine
  8
0
 62
256
370
-1
 48
1.0
  6
BYLAYER
 10
43.6000000000000654
 20
4.3999999999999995
 30
0.0
 11
43.6000000000000654
 21
3.4999999999999996
 31
0.0
  0
LINE
  5
B6
100
AcDbEntity
100
AcDbLine
  8
0
 62
256
370
-1
 48
1.0
  6
BYLAYER
 10
43.4000000000000696
 20
4.3999999999999995
 30
0.0
 11
43.4000000000000696
 21
3.4999999999999996
 31
0.0
  0
LINE
  5
B7
100
AcDbEntity
100
AcDbLine
  8
0
 62
256
370
-1
 48
1.0
  6
BYLAYER
 10
43.2000000000000739
 20
4.3999999999999995
 30
0.0
 11
43.2000000000000739
 21
3.4999999999999996
 31
0.0
  0
LINE
  5
B8
100
AcDbEntity
100
AcDbLine
  8
0
 62
256
370
-1
 48
1.0
  6
BYLAYER
 10
43.0000000000000782
 20
4.3999999999999995
 30
0.0
 11
43.0000000000000782
 21
3.4999999999999996
 31
0.0
  0
LINE
  5
B9
100
AcDbEntity
100
AcDbLine
  8
0
 62
256
370
-1
 48
1.0
  6
BYLAYER
 10
43.0000000000000853
 20
4.3999999999999995
 30
0.0
 11
43.0000000000000853
 21
3.4999999999999996
 31
0.0
  0
LINE
  5
BA
100
AcDbEntity
100
AcDbLine
  8
0
 62
256
370
-1
 48
1.0
  6
BYLAYER
 10
42.8000000000000966
 20
4.3999999999999995
 30
0.0
 11
42.8000000000000966
 21
3.4999999999999996
 31
0.0
  0
LINE
  5
BB
100
AcDbEntity
100
AcDbLine
  8
0
 62
256
370
-1
 48
1.0
  6
BYLAYER
 10
42.600000000000108
 20
4.3999999999999995
 30
0.0
 11
42.600000000000108
 21
3.4999999999999996
 31
0.0
  0
LINE
  5
BC
100
AcDbEntity
100
AcDbLine
  8
0
 62
256
370
-1
 48
1.0
  6
BYLAYER
 10
42.4000000000001194
 20
4.3999999999999995
 30
0.0
 11
42.4000000000001194
 21
3.4999999999999996
 31
0.0
  0
LINE
  5
BD
100
AcDbEntity
100
AcDbLine
  8
0
 62
256
370
-1
 48
1.0
  6
BYLAYER
 10
42.2000000000001307
 20
4.3999999999999995
 30
0.0
 11
42.2000000000001307
 21
3.4999999999999996
 31
0.0
  0
LINE
  5
BE
100
AcDbEntity
100
AcDbLine
  8
0
 62
256
370
-1
 48
1.0
  6
BYLAYER
 10
42.0000000000001421
 20
4.3999999999999995
 30
0.0
 11
42.0000000000001421
 21
3.4999999999999996
 31
0.0
  0
LINE
  5
BF
100
AcDbEntity
100
AcDbLine
  8
0
 62
256
370
-1
 48
1.0
  6
BYLAYER
 10
41.8000000000001535
 20
4.3999999999999995
 30
0.0
 11
41.8000000000001535
 21
3.4999999999999996
 31
0.0
  0
LINE
  5
C0
100
AcDbEntity
100
AcDbLine
  8
0
 62
256
370
-1
 48
1.0
  6
BYLAYER
 10
47.2800000000000011
 20
3.5000000000000004
 30
0.0
 11
47.2800000000000011
 21
4.4000000000000004
 31
0.0
  0
LINE
  5
C1
100
AcDbEntity
100
AcDbLine
  8
0
 62
256
370
-1
 48
1.0
  6
BYLAYER
 10
47.1199999999999974
 20
3.5
 30
0.0
 11
47.1199999999999974
 21
4.4000000000000004
 31
0.0
  0
LINE
  5
C2
100
AcDbEntity
100
AcDbLine
  8
0
 62
256
370
-1
 48
1.0
  6
BYLAYER
 10
43.0000000000000782
 20
4.4000000000000004
 30
0.0
 11
42.9999999999999929
 21
4.5999999999999996
 31
0.0
  0
LINE
  5
C3
100
AcDbEntity
100
AcDbLine
  8
0
 62
256
370
-1
 48
1.0
  6
BYLAYER
 10
42.9999999999999929
 20
4.5999999999999996
 30
0.0
 11
45.9999999999999929
 21
4.5999999999999996
 31
0.0
  0
LINE
  5
C4
100
AcDbEntity
100
AcDbLine
  8
0
 62
256
370
-1
 48
1.0
  6
BYLAYER
 10
45.9999999999999929
 20
4.5999999999999996
 30
0.0
 11
46.0000000000000142
 21
4.4000000000000004
 31
0.0
  0
LINE
  5
C5
100
AcDbEntity
100
AcDbLine
  8
0
 62
256
370
-1
 48
1.0
  6
BYLAYER
 10
43.0000000000000924
 20
3.4999999999999996
 30
0.0
 11
42.9999999999999929
 21
3.0999999999999996
 31
0.0
  0
LINE
  5
C6
100
AcDbEntity
100
AcDbLine
  8
0
 62
256
370
-1
 48
1.0
  6
BYLAYER
 10
42.9999999999999929
 20
3.0999999999999996
 30
0.0
 11
44.1999999999999886
 21
3.1000000000000005
 31
0.0
  0
LINE
  5
C7
100
AcDbEntity
100
AcDbLine
  8
0
 62
256
370
-1
 48
1.0
  6
BYLAYER
 10
44.1999999999999886
 20
3.1000000000000005
 30
0.0
 11
45.9999999999999929
 21
3.0999999999999996
 31
0.0
  0
LINE
  5
C8
100
AcDbEntity
100
AcDbLine
  8
0
 62
256
370
-1
 48
1.0
  6
BYLAYER
 10
45.9999999999999929
 20
3.0999999999999996
 30
0.0
 11
46.0000000000000142
 21
3.4999999999999996
 31
0.0
  0
LINE
  5
C9
100
AcDbEntity
100
AcDbLine
  8
centerline
 62
256
370
-1
 48
1.0
  6
BYLAYER
 10
44.1999999999999886
 20
4.3999999999999995
 30
0.0
 11
44.1999999999999886
 21
3.4999999999999996
 31
0.0
  0
LINE
  5
CA
100
AcDbEntity
100
AcDbLine
  8
centerline
 62
256
370
-1
 48
1.0
  6
BYLAYER
 10
44.7999999999999972
 20
4.4000000000000004
 30
0.0
 11
44.7999999999999972
 21
3.4999999999999996
 31
0.0
  0
LINE
  5
CB
100
AcDbEntity
100
AcDbLine
  8
centerline
 62
256
370
-1
 48
1.0
  6
BYLAYER
 10
44.7999999999999972
 20
-6.8014880710591195
 30
0.0
 11
44.7999999999999972
 21
-6.9999999999999938
 31
0.0
  0
LINE
  5
CC
100
AcDbEntity
100
AcDbLine
  8
centerline
 62
256
370
-1
 48
1.0
  6
BYLAYER
 10
44.1999999999999957
 20
-6.8022784986834104
 30
0.0
 11
44.1999999999999957
 21
-6.9999999999999929
 31
0.0
  0
LINE
  5
CD
100
AcDbEntity
100
AcDbLine
  8
centerline
 62
256
370
-1
 48
1.0
  6
BYLAYER
 10
44.1999999999999886
 20
7.0000000000000036
 30
0.0
 11
44.1999999999999886
 21
6.8000000000000016
 31
0.0
  0
LINE
  5
CE
100
AcDbEntity
100
AcDbLine
  8
centerline
 62
256
370
-1
 48
1.0
  6
BYLAYER
 10
44.7999999999999972
 20
7.0000000000000044
 30
0.0
 11
44.7999999999999972
 21
6.8000000000000016
 31
0.0
  0
LINE
  5
CF
100
AcDbEntity
100
AcDbLine
  8
0
 62
256
370
-1
 48
1.0
  6
BYLAYER
 10
43.8000000000000611
 20
3.4999999999999996
 30
0.0
 11
43.8000000000000611
 21
3.1000000000000001
 31
0.0
  0
LINE
  5
D0
100
AcDbEntity
100
AcDbLine
  8
0
 62
256
370
-1
 48
1.0
  6
BYLAYER
 10
45.2000000000000313
 20
3.4999999999999996
 30
0.0
 11
45.2000000000000313
 21
3.1000000000000001
 31
0.0
  0
LINE
  5
D1
100
AcDbEntity
100
AcDbLine
  8
0
 62
256
370
-1
 48
1.0
  6
BYLAYER
 10
44.1999999999999886
 20
7.0000000000000036
 30
0.0
 11
44.7999999999999972
 21
7.0000000000000044
 31
0.0
  0
LINE
  5
D2
100
AcDbEntity
100
AcDbLine
  8
0
 62
256
370
-1
 48
1.0
  6
BYLAYER
 10
43.4999999999999929
 20
-5.3499999999999996
 30
0.0
 11
45.4999999999999929
 21
-5.3499999999999996
 31
0.0
  0
LINE
  5
D3
100
AcDbEntity
100
AcDbLine
  8
0
 62
256
370
-1
 48
1.0
  6
BYLAYER
 10
45.4999999999999929
 20
-5.3499999999999996
 30
0.0
 11
45.4999999999999929
 21
-5.8499999999999996
 31
0.0
  0
LINE
  5
D4
100
AcDbEntity
100
AcDbLine
  8
0
 62
256
370
-1
 48
1.0
  6
BYLAYER
 10
45.4999999999999929
 20
-5.8499999999999996
 30
0.0
 11
43.4999999999999929
 21
-5.8499999999999996
 31
0.0
  0
LINE
  5
D5
100
AcDbEntity
100
AcDbLine
  8
0
 62
256
370
-1
 48
1.0
  6
BYLAYER
 10
43.4999999999999929
 20
-5.8499999999999996
 30
0.0
 11
43.4999999999999929
 21
-5.3499999999999996
 31
0.0
  0
LINE
  5
D6
100
AcDbEntity
100
AcDbLine
  8
centerline
 62
256
370
-1
 48
1.0
  6
BYLAYER
 10
44.7999999999999972
 20
3.1000000000000005
 30
0.0
 11
44.7999999999999972
 21
-5.3499999999999988
 31
0.0
  0
LINE
  5
D7
100
AcDbEntity
100
AcDbLine
  8
centerline
 62
256
370
-1
 48
1.0
  6
BYLAYER
 10
44.7999999999999972
 20
-5.8499999999999988
 30
0.0
 11
44.7999999999999972
 21
-6.0011811899291194
 31
0.0
  0
LINE
  5
D8
100
AcDbEntity
100
AcDbLine
  8
centerline
 62
256
370
-1
 48
1.0
  6
BYLAYER
 10
44.1999999999999886
 20
3.100000000000001
 30
0.0
 11
44.1999999999999957
 21
-5.3499999999999996
 31
0.0
  0
LINE
  5
D9
100
AcDbEntity
100
AcDbLine
  8
centerline
 62
256
370
-1
 48
1.0
  6
BYLAYER
 10
44.1999999999999957
 20
-5.8499999999999996
 30
0.0
 11
44.1999999999999957
 21
-6.0010487293453991
 31
0.0
  0
LINE
  5
DA
100
AcDbEntity
100
AcDbLine
  8
0
 62
256
370
-1
 48
1.0
  6
BYLAYER
 10
43.5
 20
5.8300000000000001
 30
0.0
 11
45.5
 21
5.8300000000000001
 31
0.0
  0
LINE
  5
DB
100
AcDbEntity
100
AcDbLine
  8
0
 62
256
370
-1
 48
1.0
  6
BYLAYER
 10
45.5
 20
5.8300000000000001
 30
0.0
 11
45.5
 21
5.3300000000000001
 31
0.0
  0
LINE
  5
DC
100
AcDbEntity
100
AcDbLine
  8
0
 62
256
370
-1
 48
1.0
  6
BYLAYER
 10
45.5
 20
5.3300000000000001
 30
0.0
 11
43.5
 21
5.3300000000000001
 31
0.0
  0
LINE
  5
DD
100
AcDbEntity
100
AcDbLine
  8
0
 62
256
370
-1
 48
1.0
  6
BYLAYER
 10
43.5
 20
5.3300000000000001
 30
0.0
 11
43.5
 21
5.8300000000000001
 31
0.0
  0
LINE
  5
DE
100
AcDbEntity
100
AcDbLine
  8
centerline
 62
256
370
-1
 48
1.0
  6
BYLAYER
 10
44.1999999999999886
 20
6.0000000000000036
 30
0.0
 11
44.1999999999999886
 21
5.8299999999999992
 31
0.0
  0
LINE
  5
DF
100
AcDbEntity
100
AcDbLine
  8
centerline
 62
256
370
-1
 48
1.0
  6
BYLAYER
 10
44.1999999999999886
 20
5.3300000000000001
 30
0.0
 11
44.1999999999999886
 21
4.5999999999999996
 31
0.0
  0
LINE
  5
E0
100
AcDbEntity
100
AcDbLine
  8
centerline
 62
256
370
-1
 48
1.0
  6
BYLAYER
 10
44.7999999999999972
 20
6.0000000000000053
 30
0.0
 11
44.7999999999999972
 21
5.8300000000000001
 31
0.0
  0
LINE
  5
E1
100
AcDbEntity
100
AcDbLine
  8
centerline
 62
256
370
-1
 48
1.0
  6
BYLAYER
 10
44.7999999999999972
 20
5.3300000000000001
 30
0.0
 11
44.7999999999999972
 21
4.5999999999999996
 31
0.0
  0
LINE
  5
E2
100
AcDbEntity
100
AcDbLine
  8
0
 62
256
370
-1
 48
1.0
  6
BYLAYER
 10
42.5
 20
5.8300000000000001
 30
0.0
 11
42.5
 21
4.3999999999999995
 31
0.0
  0
LINE
  5
E3
100
AcDbEntity
100
AcDbLine
  8
0
 62
256
370
-1
 48
1.0
  6
BYLAYER
 10
42.5
 20
3.4999999999999996
 30
0.0
 11
42.5
 21
-5.8499999999999996
 31
0.0
  0
LINE
  5
E4
100
AcDbEntity
100
AcDbLine
  8
0
 62
256
370
-1
 48
1.0
  6
BYLAYER
 10
42.5
 20
5.8300000000000001
 30
0.0
 11
43.5
 21
5.8300000000000001
 31
0.0
  0
LINE
  5
E5
100
AcDbEntity
100
AcDbLine
  8
0
 62
256
370
-1
 48
1.0
  6
BYLAYER
 10
42.5
 20
-5.8499999999999996
 30
0.0
 11
43.4999999999999929
 21
-5.8499999999999996
 31
0.0
  0
LINE
  5
E6
100
AcDbEntity
100
AcDbLine
  8
0
 62
256
370
-1
 48
1.0
  6
BYLAYER
 10
46.4999999999999858
 20
5.8299999999999992
 30
0.0
 11
46.4999999999999858
 21
4.3999999999999977
 31
0.0
  0
LINE
  5
E7
100
AcDbEntity
100
AcDbLine
  8
0
 62
256
370
-1
 48
1.0
  6
BYLAYER
 10
46.4999999999999858
 20
3.5000000000000004
 30
0.0
 11
46.4999999999999858
 21
-5.8499999999999996
 31
0.0
  0
LINE
  5
E8
100
AcDbEntity
100
AcDbLine
  8
0
 62
256
370
-1
 48
1.0
  6
BYLAYER
 10
46.4999999999999858
 20
5.8299999999999992
 30
0.0
 11
45.4999999999999858
 21
5.8300000000000001
 31
0.0
  0
LINE
  5
E9
100
AcDbEntity
100
AcDbLine
  8
0
 62
256
370
-1
 48
1.0
  6
BYLAYER
 10
46.4999999999999858
 20
-5.8499999999999996
 30
0.0
 11
45.4999999999999929
 21
-5.8499999999999996
 31
0.0
  0
MTEXT
  5
EA
100
AcDbEntity
100
AcDbMText
  8
0
 62
256
370
-1
 48
1.0
  6
BYLAYER
 10
72.4865793780687397
 20
1.2415711947627355
 30
0.0
 40
1.0
 41
0.0
 71
3
 72
1
  1
\H2;Magnet
  7
textstyle2
 50
0.0
 73
2
 44
1.0
  0
MTEXT
  5
EB
100
AcDbEntity
100
AcDbMText
  8
0
 62
256
370
-1
 48
1.0
  6
BYLAYER
 10
52.2260229132569549
 20
11.4307692307691635
 30
0.0
 40
1.0
 41
0.0
 71
1
 72
1
  1
\H2;Servomotor\P(with built-in drive electronics)
  7
textstyle3
 50
0.0
 73
2
 44
1.0
  0
MTEXT
  5
EC
100
AcDbEntity
100
AcDbMText
  8
0
 62
256
370
-1
 48
1.0
  6
BYLAYER
 10
52.4260229132569577
 20
16.4307692307692399
 30
0.0
 40
1.0
 41
0.0
 71
1
 72
1
  1
\H2;Slip clutch
  7
textstyle4
 50
0.0
 73
2
 44
1.0
  0
LINE
  5
ED
100
AcDbEntity
100
AcDbLine
  8
infoline
 62
256
370
-1
 48
1.0
  6
BYLAYER
 10
48.4999999999999929
 20
2.2999999999999998
 30
0.0
 11
51.2999999999999972
 21
9.0
 31
0.0
  0
LINE
  5
EE
100
AcDbEntity
100
AcDbLine
  8
infoline
 62
256
370
-1
 48
1.0
  6
BYLAYER
 10
45.5999999999999943
 20
4.5
 30
0.0
 11
51.3999999999999986
 21
15.0999999999999979
 31
0.0
  0
LINE
  5
EF
100
AcDbEntity
100
AcDbLine
  8
x8
 62
256
370
-1
 48
1.0
  6
BYLAYER
 10
4.0
 20
19.0
 30
0.0
 11
91.0
 21
19.0
 31
0.0
  0
LINE
  5
F0
100
AcDbEntity
100
AcDbLine
  8
x8
 62
256
370
-1
 48
1.0
  6
BYLAYER
 10
91.0
 20
19.0
 30
0.0
 11
91.0
 21
-18.0
 31
0.0
  0
LINE
  5
F1
100
AcDbEntity
100
AcDbLine
  8
x8
 62
256
370
-1
 48
1.0
  6
BYLAYER
 10
91.0
 20
-18.0
 30
0.0
 11
4.0
 21
-18.0
 31
0.0
  0
LINE
  5
F2
100
AcDbEntity
100
AcDbLine
  8
x8
 62
256
370
-1
 48
1.0
  6
BYLAYER
 10
4.0
 20
-18.0
 30
0.0
 11
4.0
 21
19.0
 31
0.0
  0
MTEXT
  5
F3
100
AcDbEntity
100
AcDbMText
  8
0
 62
256
370
-1
 48
1.0
  6
BYLAYER
 10
108.0999999999999943
 20
16.0999999999999979
 30
0.0
 40
1.0
 41
0.0
 71
1
 72
1
  1
\H2;Top 1\PTop 2\PTop 3\PTop 4\PBottom 1\PBottom 2\PBottom 3\PBottom 4
  7
textstyle5
 50
0.0
 73
2
 44
1.1000000000000001
  0
MTEXT
  5
F4
100
AcDbEntity
100
AcDbMText
  8
0
 62
256
370
-1
 48
1.0
  6
BYLAYER
 10
104.1999999999999886
 20
16.0999999999999979
 30
0.0
 40
1.0
 41
0.0
 71
1
 72
1
  1
\H2;...\P...\P...\P...\P...\P...\P...
  7
textstyle6
 50
0.0
 73
2
 44
1.1000000000000001
  0
LINE
  5
F5
100
AcDbEntity
100
AcDbLine
  8
0
 62
256
370
-1
 48
1.0
  6
BYLAYER
 10
107.0
 20
17.0
 30
0.0
 11
129.0
 21
17.0
 31
0.0
  0
LINE
  5
F6
100
AcDbEntity
100
AcDbLine
  8
0
 62
256
370
-1
 48
1.0
  6
BYLAYER
 10
129.0
 20
17.0
 30
0.0
 11
129.0
 21
-16.0
 31
0.0
  0
LINE
  5
F7
100
AcDbEntity
100
AcDbLine
  8
0
 62
256
370
-1
 48
1.0
  6
BYLAYER
 10
129.0
 20
-16.0
 30
0.0
 11
107.0
 21
-16.0
 31
0.0
  0
LINE
  5
F8
100
AcDbEntity
100
AcDbLine
  8
0
 62
256
370
-1
 48
1.0
  6
BYLAYER
 10
107.0
 20
-16.0
 30
0.0
 11
107.0
 21
17.0
 31
0.0
  0
MTEXT
  5
F9
100
AcDbEntity
100
AcDbMText
  8
0
 62
256
370
-1
 48
1.0
  6
BYLAYER
 10
117.0
 20
-13.0
 30
0.0
 40
1.0
 41
0.0
 71
1
 72
1
  1
\H2;TC
  7
textstyle7
 50
0.0
 73
2
 44
1.1000000000000001
  0
LINE
  5
FA
100
AcDbEntity
100
AcDbLine
  8
infoline
 62
256
370
-1
 48
1.0
  6
BYLAYER
 10
45.5999999999999943
 20
-12.0999999999999996
 30
0.0
 11
44.5999999999999943
 21
-9.1999999999999993
 31
0.0
  0
LINE
  5
FB
100
AcDbEntity
100
AcDbLine
  8
times
 62
256
370
-1
 48
1.0
  6
BYLAYER
 10
92.2652209492634938
 20
15.6000000000000032
 30
0.0
 11
93.565220949263491
 21
17.2000000000000028
 31
0.0
  0
LINE
  5
FC
100
AcDbEntity
100
AcDbLine
  8
times
 62
256
370
-1
 48
1.0
  6
BYLAYER
 10
93.5652209492635052
 20
15.6000000000000032
 30
0.0
 11
92.265220949263508
 21
17.2000000000000028
 31
0.0
  0
MTEXT
  5
FD
100
AcDbEntity
100
AcDbMText
  8
x8
 62
256
370
-1
 48
1.0
  6
BYLAYER
 10
94.4304418985270075
 20
18.2413256955810041
 30
0.0
 40
1.0
 41
0.0
 71
1
 72
1
  1
\H3;8
  7
textstyle8
 50
0.0
 73
2
 44
1.0
  0
ENDSEC
  0
SECTION
  2
OBJECTS
  0
DICTIONARY
  5
C
100
AcDbDictionary
280
0
281
1
  3
ACAD_GROUP
350
D
  3
ACAD_LAYOUT
350
1A
  3
ACAD_MLINESTYLE
350
17
  3
ACAD_PLOTSETTINGS
350
19
  3
ACAD_PLOTSTYLENAME
350
E
  3
AcDbVariableDictionary
350
FE
  3
QCAD_OBJECTS
350
FF
  0
DICTIONARY
  5
D
100
AcDbDictionary
280
0
281
1
  0
ACDBDICTIONARYWDFLT
  5
E
100
AcDbDictionary
281
1
  3
Normal
350
F
100
AcDbDictionaryWithDefault
340
F
  0
ACDBPLACEHOLDER
  5
F
  0
DICTIONARY
  5
17
100
AcDbDictionary
280
0
281
1
  3
Standard
350
18
  0
MLINESTYLE
  5
18
100
AcDbMlineStyle
  2
STANDARD
 70
0
  3

 62
256
 51
90.0
 52
90.0
 71
2
 49
0.5
 62
256
  6
BYLAYER
 49
-0.5
 62
256
  6
BYLAYER
  0
DICTIONARY
  5
19
100
AcDbDictionary
280
0
281
1
  0
DICTIONARY
  5
1A
100
AcDbDictionary
281
1
  3
Layout1
350
1E
  3
Layout2
350
26
  3
Model
350
22
  0
LAYOUT
  5
1E
100
AcDbPlotSettings
  1

  2
none_device
  4

  6

 40
0.0
 41
0.0
 42
0.0
 43
0.0
 44
0.0
 45
0.0
 46
0.0
 47
0.0
 48
0.0
 49
0.0
140
0.0
141
0.0
142
1.0
143
1.0
 70
688
 72
0
 73
0
 74
5
  7

 75
16
147
1.0
148
0.0
149
0.0
100
AcDbLayout
  1
Layout1
 70
1
 71
1
 10
0.0
 20
0.0
 11
420.0
 21
297.0
 12
0.0
 22
0.0
 32
0.0
 14
100000000000000000000.0
 24
100000000000000000000.0
 34
100000000000000000000.0
 15
-100000000000000000000.0
 25
-100000000000000000000.0
 35
-100000000000000000000.0
146
0.0
 13
0.0
 23
0.0
 33
0.0
 16
1.0
 26
0.0
 36
0.0
 17
0.0
 27
1.0
 37
0.0
 76
0
330
1B
  0
LAYOUT
  5
22
100
AcDbPlotSettings
  1

  2
none_device
  4

  6

 40
0.0
 41
0.0
 42
0.0
 43
0.0
 44
0.0
 45
0.0
 46
0.0
 47
0.0
 48
0.0
 49
0.0
140
0.0
141
0.0
142
1.0
143
1.0
 70
1712
 72
0
 73
0
 74
0
  7

 75
0
147
1.0
148
0.0
149
0.0
100
AcDbLayout
  1
Model
 70
1
 71
0
 10
0.0
 20
0.0
 11
12.0
 21
9.0
 12
0.0
 22
0.0
 32
0.0
 14
0.0
 24
0.0
 34
0.0
 15
0.0
 25
0.0
 35
0.0
146
0.0
 13
0.0
 23
0.0
 33
0.0
 16
1.0
 26
0.0
 36
0.0
 17
0.0
 27
1.0
 37
0.0
 76
0
330
1F
  0
LAYOUT
  5
26
100
AcDbPlotSettings
  1

  2
none_device
  4

  6

 40
0.0
 41
0.0
 42
0.0
 43
0.0
 44
0.0
 45
0.0
 46
0.0
 47
0.0
 48
0.0
 49
0.0
140
0.0
141
0.0
142
1.0
143
1.0
 70
688
 72
0
 73
0
 74
5
  7

 75
16
147
1.0
148
0.0
149
0.0
100
AcDbLayout
  1
Layout2
 70
1
 71
2
 10
0.0
 20
0.0
 11
12.0
 21
9.0
 12
0.0
 22
0.0
 32
0.0
 14
0.0
 24
0.0
 34
0.0
 15
0.0
 25
0.0
 35
0.0
146
0.0
 13
0.0
 23
0.0
 33
0.0
 16
1.0
 26
0.0
 36
0.0
 17
0.0
 27
1.0
 37
0.0
 76
0
330
23
  0
DICTIONARY
  5
FE
100
AcDbDictionary
281
1
  3
DIMASSOC
350
101
  3
HIDETEXT
350
100
  0
DICTIONARYVAR
  5
100
100
DictionaryVariables
280
0
  1
2
  0
DICTIONARYVAR
  5
101
100
DictionaryVariables
280
0
  1
1
  0
DICTIONARY
  5
FF
100
AcDbDictionary
281
1
  3
ColorSettings/BackgroundColor
350
102
  3
ColorSettings/ColorMode
350
103
  3
Grid/DisplayGrid00
350
104
  3
Grid/DisplayGrid01
350
105
  3
Grid/DisplayGrid02
350
106
  3
Grid/DisplayGrid03
350
107
  3
Grid/GridSpacingX00
350
108
  3
Grid/GridSpacingX01
350
109
  3
Grid/GridSpacingX02
350
10A
  3
Grid/GridSpacingX03
350
10B
  3
Grid/GridSpacingY00
350
10C
  3
Grid/GridSpacingY01
350
10D
  3
Grid/GridSpacingY02
350
10E
  3
Grid/GridSpacingY03
350
10F
  3
Grid/IsometricGrid00
350
110
  3
Grid/IsometricGrid01
350
111
  3
Grid/IsometricGrid02
350
112
  3
Grid/IsometricGrid03
350
113
  3
Grid/IsometricProjection00
350
114
  3
Grid/IsometricProjection01
350
115
  3
Grid/IsometricProjection02
350
116
  3
Grid/IsometricProjection03
350
117
  3
Grid/MetaGridSpacingX00
350
118
  3
Grid/MetaGridSpacingX01
350
119
  3
Grid/MetaGridSpacingX02
350
11A
  3
Grid/MetaGridSpacingX03
350
11B
  3
Grid/MetaGridSpacingY00
350
11C
  3
Grid/MetaGridSpacingY01
350
11D
  3
Grid/MetaGridSpacingY02
350
11E
  3
Grid/MetaGridSpacingY03
350
11F
  3
MultiPageSettings/Columns
350
120
  3
MultiPageSettings/GlueMarginsBottom
350
121
  3
MultiPageSettings/GlueMarginsLeft
350
122
  3
MultiPageSettings/GlueMarginsRight
350
123
  3
MultiPageSettings/GlueMarginsTop
350
124
  3
MultiPageSettings/PrintCropMarks
350
125
  3
MultiPageSettings/Rows
350
126
  3
PageSettings/OffsetX
350
127
  3
PageSettings/OffsetY
350
128
  3
PageSettings/PageOrientation
350
129
  3
PageSettings/PaperHeight
350
12A
  3
PageSettings/PaperWidth
350
12B
  3
PageSettings/Scale
350
12C
  3
PageSettings/ShowPaperBorders
350
12D
  3
UnitSettings/PaperUnit
350
12E
  0
XRECORD
  5
102
330
FF
100
AcDbXrecord
280
1
1000
White
  0
XRECORD
  5
103
330
FF
100
AcDbXrecord
280
1
1000
FullColor
  0
XRECORD
  5
104
330
FF
100
AcDbXrecord
280
1
290
1
  0
XRECORD
  5
105
330
FF
100
AcDbXrecord
280
1
290
1
  0
XRECORD
  5
106
330
FF
100
AcDbXrecord
280
1
290
1
  0
XRECORD
  5
107
330
FF
100
AcDbXrecord
280
1
290
1
  0
XRECORD
  5
108
330
FF
100
AcDbXrecord
280
1
1000
auto
  0
XRECORD
  5
109
330
FF
100
AcDbXrecord
280
1
1000
auto
  0
XRECORD
  5
10A
330
FF
100
AcDbXrecord
280
1
1000
auto
  0
XRECORD
  5
10B
330
FF
100
AcDbXrecord
280
1
1000
auto
  0
XRECORD
  5
10C
330
FF
100
AcDbXrecord
280
1
1000
auto
  0
XRECORD
  5
10D
330
FF
100
AcDbXrecord
280
1
1000
auto
  0
XRECORD
  5
10E
330
FF
100
AcDbXrecord
280
1
1000
auto
  0
XRECORD
  5
10F
330
FF
100
AcDbXrecord
280
1
1000
auto
  0
XRECORD
  5
110
330
FF
100
AcDbXrecord
280
1
290
0
  0
XRECORD
  5
111
330
FF
100
AcDbXrecord
280
1
290
0
  0
XRECORD
  5
112
330
FF
100
AcDbXrecord
280
1
290
0
  0
XRECORD
  5
113
330
FF
100
AcDbXrecord
280
1
290
0
  0
XRECORD
  5
114
330
FF
100
AcDbXrecord
280
1
 90
0
  0
XRECORD
  5
115
330
FF
100
AcDbXrecord
280
1
 90
0
  0
XRECORD
  5
116
330
FF
100
AcDbXrecord
280
1
 90
0
  0
XRECORD
  5
117
330
FF
100
AcDbXrecord
280
1
 90
0
  0
XRECORD
  5
118
330
FF
100
AcDbXrecord
280
1
1000
auto
  0
XRECORD
  5
119
330
FF
100
AcDbXrecord
280
1
1000
auto
  0
XRECORD
  5
11A
330
FF
100
AcDbXrecord
280
1
1000
auto
  0
XRECORD
  5
11B
330
FF
100
AcDbXrecord
280
1
1000
auto
  0
XRECORD
  5
11C
330
FF
100
AcDbXrecord
280
1
1000
auto
  0
XRECORD
  5
11D
330
FF
100
AcDbXrecord
280
1
1000
auto
  0
XRECORD
  5
11E
330
FF
100
AcDbXrecord
280
1
1000
auto
  0
XRECORD
  5
11F
330
FF
100
AcDbXrecord
280
1
1000
auto
  0
XRECORD
  5
120
330
FF
100
AcDbXrecord
280
1
 90
1
  0
XRECORD
  5
121
330
FF
100
AcDbXrecord
280
1
 40
10.0
  0
XRECORD
  5
122
330
FF
100
AcDbXrecord
280
1
 40
10.0
  0
XRECORD
  5
123
330
FF
100
AcDbXrecord
280
1
 40
10.0
  0
XRECORD
  5
124
330
FF
100
AcDbXrecord
280
1
 40
10.0
  0
XRECORD
  5
125
330
FF
100
AcDbXrecord
280
1
290
0
  0
XRECORD
  5
126
330
FF
100
AcDbXrecord
280
1
 90
1
  0
XRECORD
  5
127
330
FF
100
AcDbXrecord
280
1
 40
-2.5789473684210549
  0
XRECORD
  5
128
330
FF
100
AcDbXrecord
280
1
 40
-94.9023147673467946
  0
XRECORD
  5
129
330
FF
100
AcDbXrecord
280
1
1000
Portrait
  0
XRECORD
  5
12A
330
FF
100
AcDbXrecord
280
1
 40
297.0
  0
XRECORD
  5
12B
330
FF
100
AcDbXrecord
280
1
 40
210.0
  0
XRECORD
  5
12C
330
FF
100
AcDbXrecord
280
1
1000
0.152
  0
XRECORD
  5
12D
330
FF
100
AcDbXrecord
280
1
290
1
  0
XRECORD
  5
12E
330
FF
100
AcDbXrecord
280
1
 90
4
  0
ENDSEC
  0
EOF
