999
dxflib 3.7.5.0
  0
SECTION
  2
HEADER
  9
$ACADVER
  1
AC1015
  9
$HANDSEED
  5
FFFF
  9
$DIMADEC
 70
0
  9
$DIMASZ
 40
2.5
  9
$DIMAUNIT
 70
0
  9
$DIMAZIN
 70
2
  9
$DIMDEC
 70
4
  9
$DIMEXE
 40
1.25
  9
$DIMEXO
 40
0.625
  9
$DIMGAP
 40
0.625
  9
$DIMLUNIT
 70
2
  9
$DIMSCALE
 40
20.0
  9
$DIMTSZ
 40
0.0
  9
$DIMTXT
 40
2.5
  9
$DIMZIN
 70
8
  9
$DWGCODEPAGE
  3
ANSI_1252
  9
$INSUNITS
 70
5
  9
$LTSCALE
 40
1
  0
ENDSEC
  0
SECTION
  2
TABLES
  0
TABLE
  2
VPORT
  5
8
100
AcDbSymbolTable
 70
1
  0
VPORT
  5
30
100
AcDbSymbolTableRecord
100
AcDbViewportTableRecord
  2
*Active
 70
0
 10
0.0
 20
0.0
 11
1.0
 21
1.0
 12
286.3055555555554861
 22
148.5
 13
0.0
 23
0.0
 14
10.0
 24
10.0
 15
10.0
 25
10.0
 16
0.0
 26
0.0
 36
1.0
 17
0.0
 27
0.0
 37
0.0
 40
297.0
 41
1.92798353909465
 42
50.0
 43
0.0
 44
0.0
 50
0.0
 51
0.0
 71
0
 72
100
 73
1
 74
3
 75
1
 76
1
 77
0
 78
0
281
0
 65
1
110
0.0
120
0.0
130
0.0
111
1.0
121
0.0
131
0.0
112
0.0
122
1.0
132
0.0
 79
0
146
0.0
  0
ENDTAB
  0
TABLE
  2
LTYPE
  5
5
100
AcDbSymbolTable
 70
41
  0
LTYPE
  5
16
100
AcDbSymbolTableRecord
100
AcDbLinetypeTableRecord
  2
Continuous
 70
0
  3
Solid line
 72
65
 73
0
 40
0.0
  0
LTYPE
  5
31
100
AcDbSymbolTableRecord
100
AcDbLinetypeTableRecord
  2
ACAD_ISO15W100
 70
0
  3
ISO double-dash triple-dot __ __ . . . __ __ . .
 72
65
 73
10
 40
39.0000000000000071
 49
12.0
 74
0
 49
-3.0
 74
0
 49
12.0
 74
0
 49
-2.9500000000000002
 74
0
 49
0.1
 74
0
 49
-2.9000000000000004
 74
0
 49
0.1
 74
0
 49
-2.9000000000000004
 74
0
 49
0.1
 74
0
 49
-2.9500000000000002
 74
0
  0
LTYPE
  5
32
100
AcDbSymbolTableRecord
100
AcDbLinetypeTableRecord
  2
DIVIDE
 70
0
  3
Divide ____ . . ____ . . ____ . . ____ . . ____
 72
65
 73
6
 40
31.7500000000000036
 49
12.6999999999999993
 74
0
 49
-6.2999999999999998
 74
0
 49
0.1
 74
0
 49
-6.25
 74
0
 49
0.1
 74
0
 49
-6.2999999999999998
 74
0
  0
LTYPE
  5
33
100
AcDbSymbolTableRecord
100
AcDbLinetypeTableRecord
  2
ACAD_ISO10W100
 70
0
  3
ISO dash dot __ . __ . __ . __ . __ . __ . __ . 
 72
65
 73
4
 40
18.0
 49
12.0
 74
0
 49
-2.9500000000000002
 74
0
 49
0.1
 74
0
 49
-2.9500000000000002
 74
0
  0
LTYPE
  5
34
100
AcDbSymbolTableRecord
100
AcDbLinetypeTableRecord
  2
ACAD_ISO04W100
 70
0
  3
ISO long-dash dot ____ . ____ . ____ . ____ . _
 72
65
 73
4
 40
30.0
 49
24.0
 74
0
 49
-2.9500000000000002
 74
0
 49
0.1
 74
0
 49
-2.9500000000000002
 74
0
  0
LTYPE
  5
35
100
AcDbSymbolTableRecord
100
AcDbLinetypeTableRecord
  2
CENTER2
 70
0
  3
Center (.5x) ___ _ ___ _ ___ _ ___ _ ___ _ ___
 72
65
 73
4
 40
28.5750000000000028
 49
19.0500000000000007
 74
0
 49
-3.1749999999999998
 74
0
 49
3.1749999999999998
 74
0
 49
-3.1749999999999998
 74
0
  0
LTYPE
  5
36
100
AcDbSymbolTableRecord
100
AcDbLinetypeTableRecord
  2
ACAD_ISO11W100
 70
0
  3
ISO double-dash dot __ __ . __ __ . __ __ . __ _
 72
65
 73
6
 40
33.0
 49
12.0
 74
0
 49
-3.0
 74
0
 49
12.0
 74
0
 49
-2.9500000000000002
 74
0
 49
0.1
 74
0
 49
-2.9500000000000002
 74
0
  0
LTYPE
  5
37
100
AcDbSymbolTableRecord
100
AcDbLinetypeTableRecord
  2
HIDDEN2
 70
0
  3
Hidden (.5x) _ _ _ _ _ _ _ _ _ _ _ _ _ _ _ _ _ 
 72
65
 73
2
 40
4.7624999999999993
 49
3.1749999999999998
 74
0
 49
-1.5874999999999999
 74
0
  0
LTYPE
  5
38
100
AcDbSymbolTableRecord
100
AcDbLinetypeTableRecord
  2
BORDERX2
 70
0
  3
Border (2x) ____  ____  .  ____  ____  .  ___
 72
65
 73
6
 40
88.8999999999999773
 49
25.3999999999999986
 74
0
 49
-12.6999999999999993
 74
0
 49
25.3999999999999986
 74
0
 49
-12.6499999999999986
 74
0
 49
0.1
 74
0
 49
-12.6499999999999986
 74
0
  0
LTYPE
  5
39
100
AcDbSymbolTableRecord
100
AcDbLinetypeTableRecord
  2
ACAD_ISO05W100
 70
0
  3
ISO long-dash double-dot ____ .. ____ .. ____ . 
 72
65
 73
6
 40
33.0000000000000071
 49
24.0
 74
0
 49
-2.9500000000000002
 74
0
 49
0.1
 74
0
 49
-2.9000000000000004
 74
0
 49
0.1
 74
0
 49
-2.9500000000000002
 74
0
  0
LTYPE
  5
3A
100
AcDbSymbolTableRecord
100
AcDbLinetypeTableRecord
  2
DASHDOTX2
 70
0
  3
Dash dot (2x) ____  .  ____  .  ____  .  ___
 72
65
 73
4
 40
50.7999999999999972
 49
25.3999999999999986
 74
0
 49
-12.6499999999999986
 74
0
 49
0.1
 74
0
 49
-12.6499999999999986
 74
0
  0
LTYPE
  5
3B
100
AcDbSymbolTableRecord
100
AcDbLinetypeTableRecord
  2
HIDDENX2
 70
0
  3
Hidden (2x) ____ ____ ____ ____ ____ ____ ____ 
 72
65
 73
2
 40
19.0499999999999972
 49
12.6999999999999993
 74
0
 49
-6.3499999999999996
 74
0
  0
LTYPE
  5
3C
100
AcDbSymbolTableRecord
100
AcDbLinetypeTableRecord
  2
CENTERX2
 70
0
  3
Center (2x) ________  __  ________  __  _____
 72
65
 73
4
 40
101.6000000000000085
 49
63.5
 74
0
 49
-12.6999999999999993
 74
0
 49
12.6999999999999993
 74
0
 49
-12.6999999999999993
 74
0
  0
LTYPE
  5
3D
100
AcDbSymbolTableRecord
100
AcDbLinetypeTableRecord
  2
BORDER2
 70
0
  3
Border (.5x) __.__.__.__.__.__.__.__.__.__.__.
 72
65
 73
6
 40
22.2250000000000014
 49
6.3499999999999996
 74
0
 49
-3.1749999999999998
 74
0
 49
6.3499999999999996
 74
0
 49
-3.125
 74
0
 49
0.1
 74
0
 49
-3.125
 74
0
  0
LTYPE
  5
3E
100
AcDbSymbolTableRecord
100
AcDbLinetypeTableRecord
  2
DASHDOT2
 70
0
  3
Dash dot (.5x) _._._._._._._._._._._._._._._.
 72
65
 73
4
 40
12.6999999999999993
 49
6.3499999999999996
 74
0
 49
-3.125
 74
0
 49
0.1
 74
0
 49
-3.125
 74
0
  0
LTYPE
  5
3F
100
AcDbSymbolTableRecord
100
AcDbLinetypeTableRecord
  2
ACAD_ISO12W100
 70
0
  3
ISO dash double-dot __ . . __ . . __ . . __ . . 
 72
65
 73
6
 40
21.0
 49
12.0
 74
0
 49
-2.9500000000000002
 74
0
 49
0.1
 74
0
 49
-2.9000000000000004
 74
0
 49
0.1
 74
0
 49
-2.9500000000000002
 74
0
  0
LTYPE
  5
40
100
AcDbSymbolTableRecord
100
AcDbLinetypeTableRecord
  2
ACAD_ISO07W100
 70
0
  3
ISO dot . . . . . . . . . . . . . . . . . . . . 
 72
65
 73
2
 40
3.0
 49
0.1
 74
0
 49
-2.8999999999999999
 74
0
  0
LTYPE
  5
41
100
AcDbSymbolTableRecord
100
AcDbLinetypeTableRecord
  2
HIDDEN
 70
0
  3
Hidden __ __ __ __ __ __ __ __ __ __ __ __ __ __
 72
65
 73
2
 40
9.5249999999999986
 49
6.3499999999999996
 74
0
 49
-3.1749999999999998
 74
0
  0
LTYPE
  5
42
100
AcDbSymbolTableRecord
100
AcDbLinetypeTableRecord
  2
ACAD_ISO06W100
 70
0
  3
ISO long-dash triple-dot ____ ... ____ ... ____
 72
65
 73
8
 40
36.0000000000000071
 49
24.0
 74
0
 49
-2.9500000000000002
 74
0
 49
0.1
 74
0
 49
-2.9000000000000004
 74
0
 49
0.1
 74
0
 49
-2.9000000000000004
 74
0
 49
0.1
 74
0
 49
-2.9500000000000002
 74
0
  0
LTYPE
  5
43
100
AcDbSymbolTableRecord
100
AcDbLinetypeTableRecord
  2
CENTER
 70
0
  3
Center ____ _ ____ _ ____ _ ____ _ ____ _ ____
 72
65
 73
4
 40
50.8000000000000043
 49
31.75
 74
0
 49
-6.3499999999999996
 74
0
 49
6.3499999999999996
 74
0
 49
-6.3499999999999996
 74
0
  0
LTYPE
  5
44
100
AcDbSymbolTableRecord
100
AcDbLinetypeTableRecord
  2
DOTX2
 70
0
  3
Dot (2x) .  .  .  .  .  .  .  .  .  .  .  .  .  .
 72
65
 73
2
 40
12.6999999999999993
 49
0.1
 74
0
 49
-12.5999999999999996
 74
0
  0
LTYPE
  5
45
100
AcDbSymbolTableRecord
100
AcDbLinetypeTableRecord
  2
PHANTOM
 70
0
  3
Phantom ______  __  __  ______  __  __  ______ 
 72
65
 73
6
 40
63.5000000000000071
 49
31.75
 74
0
 49
-6.3499999999999996
 74
0
 49
6.3499999999999996
 74
0
 49
-6.3499999999999996
 74
0
 49
6.3499999999999996
 74
0
 49
-6.3499999999999996
 74
0
  0
LTYPE
  5
46
100
AcDbSymbolTableRecord
100
AcDbLinetypeTableRecord
  2
ACAD_ISO08W100
 70
0
  3
ISO long-dash short-dash ____ __ ____ __ ____ _
 72
65
 73
4
 40
36.0
 49
24.0
 74
0
 49
-3.0
 74
0
 49
6.0
 74
0
 49
-3.0
 74
0
  0
LTYPE
  5
47
100
AcDbSymbolTableRecord
100
AcDbLinetypeTableRecord
  2
DASHEDX2
 70
0
  3
Dashed (2x) ____  ____  ____  ____  ____  ___
 72
65
 73
2
 40
38.0999999999999943
 49
25.3999999999999986
 74
0
 49
-12.6999999999999993
 74
0
  0
LTYPE
  5
48
100
AcDbSymbolTableRecord
100
AcDbLinetypeTableRecord
  2
ACAD_ISO02W100
 70
0
  3
ISO dash __ __ __ __ __ __ __ __ __ __ __ __ __
 72
65
 73
2
 40
15.0
 49
12.0
 74
0
 49
-3.0
 74
0
  0
LTYPE
  5
49
100
AcDbSymbolTableRecord
100
AcDbLinetypeTableRecord
  2
PHANTOM2
 70
0
  3
Phantom (.5x) ___ _ _ ___ _ _ ___ _ _ ___ _ _
 72
65
 73
6
 40
31.7500000000000036
 49
15.875
 74
0
 49
-3.1749999999999998
 74
0
 49
3.1749999999999998
 74
0
 49
-3.1749999999999998
 74
0
 49
3.1749999999999998
 74
0
 49
-3.1749999999999998
 74
0
  0
LTYPE
  5
4A
100
AcDbSymbolTableRecord
100
AcDbLinetypeTableRecord
  2
DASHED2
 70
0
  3
Dashed (.5x) _ _ _ _ _ _ _ _ _ _ _ _ _ _ _ _ _ 
 72
65
 73
2
 40
9.5249999999999986
 49
6.3499999999999996
 74
0
 49
-3.1749999999999998
 74
0
  0
LTYPE
  5
4B
100
AcDbSymbolTableRecord
100
AcDbLinetypeTableRecord
  2
ACAD_ISO09W100
 70
0
  3
ISO long-dash double-short-dash ____ __ __ ____
 72
65
 73
6
 40
45.0
 49
24.0
 74
0
 49
-3.0
 74
0
 49
6.0
 74
0
 49
-3.0
 74
0
 49
6.0
 74
0
 49
-3.0
 74
0
  0
LTYPE
  5
4C
100
AcDbSymbolTableRecord
100
AcDbLinetypeTableRecord
  2
ACAD_ISO13W100
 70
0
  3
ISO double-dash double-dot __ __ . . __ __ . . _
 72
65
 73
8
 40
36.0000000000000071
 49
12.0
 74
0
 49
-3.0
 74
0
 49
12.0
 74
0
 49
-2.9500000000000002
 74
0
 49
0.1
 74
0
 49
-2.9000000000000004
 74
0
 49
0.1
 74
0
 49
-2.9500000000000002
 74
0
  0
LTYPE
  5
4D
100
AcDbSymbolTableRecord
100
AcDbLinetypeTableRecord
  2
DOT2
 70
0
  3
Dot (.5x) ........................................
 72
65
 73
2
 40
3.1749999999999998
 49
0.1
 74
0
 49
-3.0749999999999997
 74
0
  0
LTYPE
  5
4E
100
AcDbSymbolTableRecord
100
AcDbLinetypeTableRecord
  2
DASHED
 70
0
  3
Dashed __ __ __ __ __ __ __ __ __ __ __ __ __ _
 72
65
 73
2
 40
19.0499999999999972
 49
12.6999999999999993
 74
0
 49
-6.3499999999999996
 74
0
  0
LTYPE
  5
4F
100
AcDbSymbolTableRecord
100
AcDbLinetypeTableRecord
  2
ACAD_ISO14W100
 70
0
  3
ISO dash triple-dot __ . . . __ . . . __ . . . _
 72
65
 73
8
 40
24.0000000000000036
 49
12.0
 74
0
 49
-2.9500000000000002
 74
0
 49
0.1
 74
0
 49
-2.9000000000000004
 74
0
 49
0.1
 74
0
 49
-2.9000000000000004
 74
0
 49
0.1
 74
0
 49
-2.9500000000000002
 74
0
  0
LTYPE
  5
15
100
AcDbSymbolTableRecord
100
AcDbLinetypeTableRecord
  2
BYLAYER
 70
0
  3

 72
65
 73
0
 40
0.0
  0
LTYPE
  5
50
100
AcDbSymbolTableRecord
100
AcDbLinetypeTableRecord
  2
PHANTOMX2
 70
0
  3
Phantom (2x) ____________    ____    ____   _
 72
65
 73
6
 40
127.0000000000000142
 49
63.5
 74
0
 49
-12.6999999999999993
 74
0
 49
12.6999999999999993
 74
0
 49
-12.6999999999999993
 74
0
 49
12.6999999999999993
 74
0
 49
-12.6999999999999993
 74
0
  0
LTYPE
  5
14
100
AcDbSymbolTableRecord
100
AcDbLinetypeTableRecord
  2
BYBLOCK
 70
0
  3

 72
65
 73
0
 40
0.0
  0
LTYPE
  5
51
100
AcDbSymbolTableRecord
100
AcDbLinetypeTableRecord
  2
DIVIDEX2
 70
0
  3
Divide (2x) ________  .  .  ________  .  .  _
 72
65
 73
6
 40
63.5
 49
25.3999999999999986
 74
0
 49
-12.6499999999999986
 74
0
 49
0.1
 74
0
 49
-12.5999999999999979
 74
0
 49
0.1
 74
0
 49
-12.6499999999999986
 74
0
  0
LTYPE
  5
52
100
AcDbSymbolTableRecord
100
AcDbLinetypeTableRecord
  2
BORDER
 70
0
  3
Border __ __ . __ __ . __ __ . __ __ . __ __ .
 72
65
 73
6
 40
44.4499999999999957
 49
12.6999999999999993
 74
0
 49
-6.3499999999999996
 74
0
 49
12.6999999999999993
 74
0
 49
-6.2999999999999998
 74
0
 49
0.1
 74
0
 49
-6.2999999999999998
 74
0
  0
LTYPE
  5
53
100
AcDbSymbolTableRecord
100
AcDbLinetypeTableRecord
  2
DIVIDE2
 70
0
  3
Divide (.5x) __..__..__..__..__..__..__..__.._
 72
65
 73
6
 40
15.8749999999999982
 49
6.3499999999999996
 74
0
 49
-3.125
 74
0
 49
0.1
 74
0
 49
-3.0750000000000002
 74
0
 49
0.1
 74
0
 49
-3.125
 74
0
  0
LTYPE
  5
54
100
AcDbSymbolTableRecord
100
AcDbLinetypeTableRecord
  2
DOT
 70
0
  3
Dot . . . . . . . . . . . . . . . . . . . . . . . .
 72
65
 73
2
 40
6.3499999999999996
 49
0.1
 74
0
 49
-6.25
 74
0
  0
LTYPE
  5
55
100
AcDbSymbolTableRecord
100
AcDbLinetypeTableRecord
  2
DASHDOT
 70
0
  3
Dash dot __ . __ . __ . __ . __ . __ . __ . __
 72
65
 73
4
 40
25.4000000000000021
 49
12.6999999999999993
 74
0
 49
-6.2999999999999998
 74
0
 49
0.1
 74
0
 49
-6.2999999999999998
 74
0
  0
LTYPE
  5
56
100
AcDbSymbolTableRecord
100
AcDbLinetypeTableRecord
  2
ACAD_ISO03W100
 70
0
  3
ISO dash space __    __    __    __    __    __
 72
65
 73
2
 40
30.0
 49
12.0
 74
0
 49
-18.0
 74
0
  0
ENDTAB
  0
TABLE
  2
LAYER
  5
2
100
AcDbSymbolTable
 70
9
  0
LAYER
  5
57
100
AcDbSymbolTableRecord
100
AcDbLayerTableRecord
  2
white
 70
0
 62
7
420
15921906
  6
Continuous
370
25
390
F
  0
LAYER
  5
58
100
AcDbSymbolTableRecord
100
AcDbLayerTableRecord
  2
layer 1
 70
0
 62
7
420
0
  6
ACAD_ISO03W100
370
25
390
F
  0
LAYER
  5
59
100
AcDbSymbolTableRecord
100
AcDbLayerTableRecord
  2
EtherCAT
 70
0
 62
7
420
0
  6
Continuous
370
50
390
F
  0
LAYER
  5
5A
100
AcDbSymbolTableRecord
100
AcDbLayerTableRecord
  2
boundary
 70
0
 62
7
420
0
  6
DASHED
370
13
390
F
  0
LAYER
  5
5B
100
AcDbSymbolTableRecord
100
AcDbLayerTableRecord
  2
centeraxis
 70
0
 62
7
420
0
  6
ACAD_ISO04W100
370
25
390
F
  0
LAYER
  5
10
100
AcDbSymbolTableRecord
100
AcDbLayerTableRecord
  2
0
 70
0
 62
7
420
0
  6
Continuous
370
18
390
F
  0
LAYER
  5
5C
100
AcDbSymbolTableRecord
100
AcDbLayerTableRecord
  2
grey
 70
0
 62
254
420
13750737
  6
Continuous
370
25
390
F
  0
LAYER
  5
5D
100
AcDbSymbolTableRecord
100
AcDbLayerTableRecord
  2
pipe
 70
0
 62
7
420
0
  6
Continuous
370
80
390
F
  0
LAYER
  5
5E
100
AcDbSymbolTableRecord
100
AcDbLayerTableRecord
  2
designation
 70
0
 62
7
420
0
  6
ACAD_ISO07W100
370
25
390
F
  0
ENDTAB
  0
TABLE
  2
STYLE
  5
3
100
AcDbSymbolTable
 70
17
  0
STYLE
  5
5F
100
AcDbSymbolTableRecord
100
AcDbTextStyleTableRecord
  2
Standard
 70
0
 40
0.0
 41
1.0
 50
0.0
 71
0
 42
2.5
  3

  4

1001
ACAD
1000
txt
1071
0
  0
STYLE
  5
60
100
AcDbSymbolTableRecord
100
AcDbTextStyleTableRecord
  2
textstyle0
 70
0
 40
0.0
 41
1.0
 50
0.0
 71
0
 42
12.0
  3

  4

1001
ACAD
1000
CMU Serif
1071
0
  0
STYLE
  5
61
100
AcDbSymbolTableRecord
100
AcDbTextStyleTableRecord
  2
textstyle1
 70
0
 40
0.0
 41
1.0
 50
0.0
 71
0
 42
12.0
  3

  4

1001
ACAD
1000
CMU Serif
1071
0
  0
STYLE
  5
62
100
AcDbSymbolTableRecord
100
AcDbTextStyleTableRecord
  2
textstyle2
 70
0
 40
0.0
 41
1.0
 50
0.0
 71
0
 42
12.0
  3

  4

1001
ACAD
1000
CMU Serif
1071
0
  0
STYLE
  5
63
100
AcDbSymbolTableRecord
100
AcDbTextStyleTableRecord
  2
textstyle3
 70
0
 40
0.0
 41
1.0
 50
0.0
 71
0
 42
12.0
  3

  4

1001
ACAD
1000
CMU Serif
1071
0
  0
STYLE
  5
64
100
AcDbSymbolTableRecord
100
AcDbTextStyleTableRecord
  2
textstyle4
 70
0
 40
0.0
 41
1.0
 50
0.0
 71
0
 42
12.0
  3

  4

1001
ACAD
1000
CMU Serif
1071
0
  0
STYLE
  5
65
100
AcDbSymbolTableRecord
100
AcDbTextStyleTableRecord
  2
textstyle5
 70
0
 40
0.0
 41
1.0
 50
0.0
 71
0
 42
12.0
  3

  4

1001
ACAD
1000
CMU Serif
1071
0
  0
STYLE
  5
66
100
AcDbSymbolTableRecord
100
AcDbTextStyleTableRecord
  2
textstyle6
 70
0
 40
0.0
 41
1.0
 50
0.0
 71
0
 42
12.0
  3

  4

1001
ACAD
1000
CMU Serif
1071
0
  0
STYLE
  5
67
100
AcDbSymbolTableRecord
100
AcDbTextStyleTableRecord
  2
textstyle7
 70
0
 40
0.0
 41
1.0
 50
0.0
 71
0
 42
12.0
  3

  4

1001
ACAD
1000
CMU Serif
1071
0
  0
STYLE
  5
68
100
AcDbSymbolTableRecord
100
AcDbTextStyleTableRecord
  2
textstyle8
 70
0
 40
0.0
 41
1.0
 50
0.0
 71
0
 42
12.0
  3

  4

1001
ACAD
1000
CMU Serif
1071
0
  0
STYLE
  5
69
100
AcDbSymbolTableRecord
100
AcDbTextStyleTableRecord
  2
textstyle9
 70
0
 40
0.0
 41
1.0
 50
0.0
 71
0
 42
12.0
  3

  4

1001
ACAD
1000
CMU Serif
1071
0
  0
STYLE
  5
6A
100
AcDbSymbolTableRecord
100
AcDbTextStyleTableRecord
  2
textstyle10
 70
0
 40
0.0
 41
1.0
 50
0.0
 71
0
 42
12.0
  3

  4

1001
ACAD
1000
CMU Serif
1071
0
  0
STYLE
  5
6B
100
AcDbSymbolTableRecord
100
AcDbTextStyleTableRecord
  2
textstyle11
 70
0
 40
0.0
 41
1.0
 50
0.0
 71
0
 42
12.0
  3

  4

1001
ACAD
1000
CMU Serif
1071
0
  0
STYLE
  5
6C
100
AcDbSymbolTableRecord
100
AcDbTextStyleTableRecord
  2
textstyle12
 70
0
 40
0.0
 41
1.0
 50
0.0
 71
0
 42
12.0
  3

  4

1001
ACAD
1000
CMU Serif
1071
0
  0
STYLE
  5
6D
100
AcDbSymbolTableRecord
100
AcDbTextStyleTableRecord
  2
textstyle13
 70
0
 40
0.0
 41
1.0
 50
0.0
 71
0
 42
12.0
  3

  4

1001
ACAD
1000
CMU Serif
1071
0
  0
STYLE
  5
6E
100
AcDbSymbolTableRecord
100
AcDbTextStyleTableRecord
  2
textstyle14
 70
0
 40
0.0
 41
1.0
 50
0.0
 71
0
 42
12.0
  3

  4

1001
ACAD
1000
CMU Serif
1071
0
  0
STYLE
  5
6F
100
AcDbSymbolTableRecord
100
AcDbTextStyleTableRecord
  2
textstyle15
 70
0
 40
0.0
 41
1.0
 50
0.0
 71
0
 42
12.0
  3

  4

1001
ACAD
1000
CMU Serif
1071
0
  0
ENDTAB
  0
TABLE
  2
VIEW
  5
6
100
AcDbSymbolTable
 70
0
  0
ENDTAB
  0
TABLE
  2
UCS
  5
7
100
AcDbSymbolTable
 70
0
  0
ENDTAB
  0
TABLE
  2
APPID
  5
9
100
AcDbSymbolTable
 70
1
  0
APPID
  5
12
100
AcDbSymbolTableRecord
100
AcDbRegAppTableRecord
  2
ACAD
 70
0
  0
APPID
  5
70
100
AcDbSymbolTableRecord
100
AcDbRegAppTableRecord
  2
QCAD
 70
0
  0
ENDTAB
  0
TABLE
  2
DIMSTYLE
  5
A
100
AcDbSymbolTable
 70
1
100
AcDbDimStyleTable
 71
0
  0
DIMSTYLE
105
27
100
AcDbSymbolTableRecord
100
AcDbDimStyleTableRecord
  2
Standard
 41
2.5
 42
0.625
 43
3.75
 44
1.25
 70
0
 73
0
 74
0
 77
1
 78
8
140
2.5
141
2.5
143
0.03937007874016
147
0.625
171
3
172
1
271
2
272
2
274
3
278
44
283
0
284
8
340
5F
  0
ENDTAB
  0
TABLE
  2
BLOCK_RECORD
  5
1
100
AcDbSymbolTable
 70
1
  0
BLOCK_RECORD
  5
1F
100
AcDbSymbolTableRecord
100
AcDbBlockTableRecord
  2
*Model_Space
340
22
  0
BLOCK_RECORD
  5
1B
100
AcDbSymbolTableRecord
100
AcDbBlockTableRecord
  2
*Paper_Space
340
1E
  0
BLOCK_RECORD
  5
23
100
AcDbSymbolTableRecord
100
AcDbBlockTableRecord
  2
*Paper_Space0
340
26
  0
ENDTAB
  0
ENDSEC
  0
SECTION
  2
BLOCKS
  0
BLOCK
  5
20
100
AcDbEntity
  8
0
100
AcDbBlockBegin
  2
*Model_Space
 70
0
 10
0.0
 20
0.0
 30
0.0
  3
*Model_Space
  1

  0
ENDBLK
  5
21
100
AcDbEntity
  8
0
100
AcDbBlockEnd
  0
BLOCK
  5
1C
100
AcDbEntity
 67
1
  8
0
100
AcDbBlockBegin
  2
*Paper_Space
 70
0
 10
0.0
 20
0.0
 30
0.0
  3
*Paper_Space
  1

  0
ENDBLK
  5
1D
100
AcDbEntity
 67
1
  8
0
100
AcDbBlockEnd
  0
BLOCK
  5
24
100
AcDbEntity
  8
0
100
AcDbBlockBegin
  2
*Paper_Space0
 70
0
 10
0.0
 20
0.0
 30
0.0
  3
*Paper_Space0
  1

  0
ENDBLK
  5
25
100
AcDbEntity
  8
0
100
AcDbBlockEnd
  0
ENDSEC
  0
SECTION
  2
ENTITIES
  0
MTEXT
  5
71
100
AcDbEntity
100
AcDbMText
  8
0
 62
256
370
-1
 48
1.0
  6
BYLAYER
 10
138.0
 20
390.0
 30
0.0
 40
12.0
 41
0.0
 71
2
 72
1
  1
\H10.2857;M12
  7
textstyle0
 50
0.0
 73
2
 44
1.0
  0
CIRCLE
  5
72
100
AcDbEntity
100
AcDbCircle
  8
0
 62
256
370
-1
 48
1.0
  6
BYLAYER
 10
208.0
 20
208.0
 30
0.0
 40
28.4253408071037903
  0
CIRCLE
  5
73
100
AcDbEntity
100
AcDbCircle
  8
0
 62
256
370
-1
 48
1.0
  6
BYLAYER
 10
208.0
 20
298.0
 30
0.0
 40
4.0
  0
CIRCLE
  5
74
100
AcDbEntity
100
AcDbCircle
  8
0
 62
256
370
-1
 48
1.0
  6
BYLAYER
 10
253.0
 20
285.9422863405994804
 30
0.0
 40
4.0
  0
CIRCLE
  5
75
100
AcDbEntity
100
AcDbCircle
  8
0
 62
256
370
-1
 48
1.0
  6
BYLAYER
 10
285.9422863405994804
 20
253.0
 30
0.0
 40
4.0
  0
CIRCLE
  5
76
100
AcDbEntity
100
AcDbCircle
  8
0
 62
256
370
-1
 48
1.0
  6
BYLAYER
 10
298.0
 20
208.0
 30
0.0
 40
4.0
  0
CIRCLE
  5
77
100
AcDbEntity
100
AcDbCircle
  8
0
 62
256
370
-1
 48
1.0
  6
BYLAYER
 10
285.9422863405994804
 20
163.0
 30
0.0
 40
4.0
  0
CIRCLE
  5
78
100
AcDbEntity
100
AcDbCircle
  8
0
 62
256
370
-1
 48
1.0
  6
BYLAYER
 10
253.0000000000000284
 20
130.0577136594005196
 30
0.0
 40
4.0
  0
CIRCLE
  5
79
100
AcDbEntity
100
AcDbCircle
  8
0
 62
256
370
-1
 48
1.0
  6
BYLAYER
 10
163.0000000000000284
 20
130.0577136594005196
 30
0.0
 40
4.0
  0
CIRCLE
  5
7A
100
AcDbEntity
100
AcDbCircle
  8
0
 62
256
370
-1
 48
1.0
  6
BYLAYER
 10
118.0
 20
208.0
 30
0.0
 40
4.0
  0
CIRCLE
  5
7B
100
AcDbEntity
100
AcDbCircle
  8
0
 62
256
370
-1
 48
1.0
  6
BYLAYER
 10
130.0577136594004912
 20
252.9999999999999432
 30
0.0
 40
4.0
  0
CIRCLE
  5
7C
100
AcDbEntity
100
AcDbCircle
  8
0
 62
256
370
-1
 48
1.0
  6
BYLAYER
 10
162.9999999999999432
 20
285.9422863405994804
 30
0.0
 40
4.0
  0
CIRCLE
  5
7D
100
AcDbEntity
100
AcDbCircle
  8
0
 62
256
370
-1
 48
1.0
  6
BYLAYER
 10
194.0237715644638854
 20
260.1599946196096766
 30
0.0
 40
4.0
  0
CIRCLE
  5
7E
100
AcDbEntity
100
AcDbCircle
  8
0
 62
256
370
-1
 48
1.0
  6
BYLAYER
 10
155.8400053803903234
 20
221.976228435536143
 30
0.0
 40
4.0
  0
CIRCLE
  5
7F
100
AcDbEntity
100
AcDbCircle
  8
0
 62
256
370
-1
 48
1.0
  6
BYLAYER
 10
169.816233815926438
 20
169.816233815926438
 30
0.0
 40
4.0
  0
CIRCLE
  5
80
100
AcDbEntity
100
AcDbCircle
  8
0
 62
256
370
-1
 48
1.0
  6
BYLAYER
 10
221.9762284355360862
 20
155.8400053803903234
 30
0.0
 40
4.0
  0
CIRCLE
  5
81
100
AcDbEntity
100
AcDbCircle
  8
0
 62
256
370
-1
 48
1.0
  6
BYLAYER
 10
260.1599946196096766
 20
194.0237715644638286
 30
0.0
 40
4.0
  0
CIRCLE
  5
82
100
AcDbEntity
100
AcDbCircle
  8
0
 62
256
370
-1
 48
1.0
  6
BYLAYER
 10
246.1837661840735905
 20
246.1837661840735052
 30
0.0
 40
4.0
  0
LINE
  5
83
100
AcDbEntity
100
AcDbLine
  8
0
 62
256
370
-1
 48
1.0
  6
BYLAYER
 10
205.1715728752537871
 20
295.1715728752537871
 30
0.0
 11
210.8284271247462129
 21
300.8284271247462129
 31
0.0
  0
LINE
  5
84
100
AcDbEntity
100
AcDbLine
  8
0
 62
256
370
-1
 48
1.0
  6
BYLAYER
 10
205.1715728752537871
 20
300.8284271247462129
 30
0.0
 11
210.8284271247461845
 21
295.1715728752537871
 31
0.0
  0
HATCH
  5
85
  8
white
 62
256
370
-1
 48
1.0
  6
BYLAYER
100
AcDbEntity
100
AcDbHatch
 10
0.0
 20
0.0
 30
0.0
210
0.0
220
0.0
230
1.0
  2
SOLID
 70
1
 71
0
 91
1
 92
1
 93
1
 72
2
 10
194.0237715644638854
 20
260.1599946196096766
 40
4.0
 50
0.0
 51
360.0
 73
1
 97
0
 75
0
 76
1
 98
0
1001
ACAD
1010
0.0
1020
0.0
1030
0
  0
HATCH
  5
86
  8
white
 62
256
370
-1
 48
1.0
  6
BYLAYER
100
AcDbEntity
100
AcDbHatch
 10
0.0
 20
0.0
 30
0.0
210
0.0
220
0.0
230
1.0
  2
SOLID
 70
1
 71
0
 91
1
 92
1
 93
1
 72
2
 10
155.8400053803903234
 20
221.976228435536143
 40
4.0
 50
0.0
 51
360.0
 73
1
 97
0
 75
0
 76
1
 98
0
1001
ACAD
1010
0.0
1020
0.0
1030
0
  0
LINE
  5
87
100
AcDbEntity
100
AcDbLine
  8
0
 62
256
370
-1
 48
1.0
  6
BYLAYER
 10
133.9214169645568404
 20
161.9647238195898638
 30
0.0
 11
126.1940103542442273
 21
164.0352761804100794
 31
0.0
  0
LINE
  5
88
100
AcDbEntity
100
AcDbLine
  8
0
 62
256
370
-1
 48
1.0
  6
BYLAYER
 10
129.0224374789904118
 20
159.1362966948436792
 30
0.0
 11
131.0929898398106275
 21
166.8637033051562639
 31
0.0
  0
CIRCLE
  5
89
100
AcDbEntity
100
AcDbCircle
  8
0
 62
256
370
-1
 48
1.0
  6
BYLAYER
 10
130.0577136594005196
 20
162.9999999999999432
 30
0.0
 40
4.0
  0
CIRCLE
  5
8A
100
AcDbEntity
100
AcDbCircle
  8
0
 62
256
370
-1
 48
1.0
  6
BYLAYER
 10
208.0
 20
118.0
 30
0.0
 40
4.0
  0
CIRCLE
  5
8B
100
AcDbEntity
100
AcDbCircle
  8
0
 62
256
370
-1
 48
1.0
  6
BYLAYER
 10
253.0000000000000284
 20
130.0577136594005196
 30
0.0
 40
4.0
  0
CIRCLE
  5
8C
100
AcDbEntity
100
AcDbCircle
  8
0
 62
256
370
-1
 48
1.0
  6
BYLAYER
 10
221.9762284355360862
 20
155.8400053803903234
 30
0.0
 40
4.0
  0
CIRCLE
  5
8D
100
AcDbEntity
100
AcDbCircle
  8
0
 62
256
370
-1
 48
1.0
  6
BYLAYER
 10
169.816233815926438
 20
169.816233815926438
 30
0.0
 40
4.0
  0
CIRCLE
  5
8E
100
AcDbEntity
100
AcDbCircle
  8
0
 62
256
370
-1
 48
1.0
  6
BYLAYER
 10
155.8400053803903234
 20
221.976228435536143
 30
0.0
 40
4.0
  0
CIRCLE
  5
8F
100
AcDbEntity
100
AcDbCircle
  8
0
 62
256
370
-1
 48
1.0
  6
BYLAYER
 10
130.0577136594004912
 20
252.9999999999999432
 30
0.0
 40
4.0
  0
CIRCLE
  5
90
100
AcDbEntity
100
AcDbCircle
  8
0
 62
256
370
-1
 48
1.0
  6
BYLAYER
 10
194.0237715644638854
 20
260.1599946196096766
 30
0.0
 40
4.0
  0
CIRCLE
  5
91
100
AcDbEntity
100
AcDbCircle
  8
0
 62
256
370
-1
 48
1.0
  6
BYLAYER
 10
162.9999999999999432
 20
285.9422863405994804
 30
0.0
 40
4.0
  0
CIRCLE
  5
92
100
AcDbEntity
100
AcDbCircle
  8
0
 62
256
370
-1
 48
1.0
  6
BYLAYER
 10
207.9999999999999716
 20
298.0
 30
0.0
 40
4.0
  0
CIRCLE
  5
93
100
AcDbEntity
100
AcDbCircle
  8
0
 62
256
370
-1
 48
1.0
  6
BYLAYER
 10
253.0
 20
285.9422863405994804
 30
0.0
 40
4.0
  0
CIRCLE
  5
94
100
AcDbEntity
100
AcDbCircle
  8
0
 62
256
370
-1
 48
1.0
  6
BYLAYER
 10
246.1837661840735905
 20
246.1837661840735052
 30
0.0
 40
4.0
  0
CIRCLE
  5
95
100
AcDbEntity
100
AcDbCircle
  8
0
 62
256
370
-1
 48
1.0
  6
BYLAYER
 10
285.9422863405994804
 20
253.0
 30
0.0
 40
4.0
  0
CIRCLE
  5
96
100
AcDbEntity
100
AcDbCircle
  8
0
 62
256
370
-1
 48
1.0
  6
BYLAYER
 10
298.0
 20
208.0
 30
0.0
 40
4.0
  0
CIRCLE
  5
97
100
AcDbEntity
100
AcDbCircle
  8
0
 62
256
370
-1
 48
1.0
  6
BYLAYER
 10
260.1599946196096766
 20
194.0237715644638286
 30
0.0
 40
4.0
  0
CIRCLE
  5
98
100
AcDbEntity
100
AcDbCircle
  8
0
 62
256
370
-1
 48
1.0
  6
BYLAYER
 10
285.9422863405994804
 20
163.0
 30
0.0
 40
4.0
  0
LINE
  5
99
100
AcDbEntity
100
AcDbLine
  8
0
 62
256
370
-1
 48
1.0
  6
BYLAYER
 10
284.9070101601893725
 20
166.8637033051563208
 30
0.0
 11
286.9775625210095313
 21
159.1362966948437077
 31
0.0
  0
LINE
  5
9A
100
AcDbEntity
100
AcDbLine
  8
0
 62
256
370
-1
 48
1.0
  6
BYLAYER
 10
289.8059896457557443
 20
164.0352761804101078
 30
0.0
 11
282.0785830354431596
 21
161.964723819589949
 31
0.0
  0
ARC
  5
9B
100
AcDbEntity
  8
pipe
 62
256
370
-1
 48
1.0
  6
BYLAYER
100
AcDbCircle
 10
208.0
 20
208.0
 30
0.0
 40
53.9999999999999858
100
AcDbArc
 50
49.2442647997719547
 51
100.7552644915842706
  0
ARC
  5
9C
100
AcDbEntity
  8
pipe
 62
256
370
-1
 48
1.0
  6
BYLAYER
100
AcDbCircle
 10
208.0
 20
208.0
 30
0.0
 40
53.9999999999999858
100
AcDbArc
 50
349.2447355084156584
 51
40.7557352002279032
  0
ARC
  5
9D
100
AcDbEntity
  8
pipe
 62
256
370
-1
 48
1.0
  6
BYLAYER
100
AcDbCircle
 10
208.0
 20
208.0
 30
0.0
 40
53.9999999999999858
100
AcDbArc
 50
289.2451027242867099
 51
340.7548972757132901
  0
ARC
  5
9E
100
AcDbEntity
  8
pipe
 62
256
370
-1
 48
1.0
  6
BYLAYER
100
AcDbCircle
 10
208.0
 20
208.0
 30
0.0
 40
53.9999999999999858
100
AcDbArc
 50
229.2442647997720258
 51
280.7552644915842279
  0
ARC
  5
9F
100
AcDbEntity
  8
pipe
 62
256
370
-1
 48
1.0
  6
BYLAYER
100
AcDbCircle
 10
208.0
 20
208.0
 30
0.0
 40
53.9999999999999858
100
AcDbArc
 50
109.2451027242867809
 51
160.7548972757132049
  0
ARC
  5
A0
100
AcDbEntity
  8
pipe
 62
256
370
-1
 48
1.0
  6
BYLAYER
100
AcDbCircle
 10
208.0
 20
208.0
 30
0.0
 40
53.9999999999999858
100
AcDbArc
 50
169.2447355084157152
 51
220.7557352002279742
  0
ARC
  5
A1
100
AcDbEntity
  8
pipe
 62
256
370
-1
 48
1.0
  6
BYLAYER
100
AcDbCircle
 10
208.0
 20
208.0
 30
0.0
 40
90.0
100
AcDbArc
 50
122.546688722815091
 51
147.4533112771848664
  0
ARC
  5
A2
100
AcDbEntity
  8
pipe
 62
256
370
-1
 48
1.0
  6
BYLAYER
100
AcDbCircle
 10
208.0
 20
208.0
 30
0.0
 40
90.0
100
AcDbArc
 50
152.5466887228152473
 51
177.4541132026537014
  0
ARC
  5
A3
100
AcDbEntity
  8
pipe
 62
256
370
-1
 48
1.0
  6
BYLAYER
100
AcDbCircle
 10
208.0
 20
208.0
 30
0.0
 40
90.0
100
AcDbArc
 50
2.5458867973462964
 51
27.4533112771848025
  0
ARC
  5
A4
100
AcDbEntity
  8
pipe
 62
256
370
-1
 48
1.0
  6
BYLAYER
100
AcDbCircle
 10
208.0
 20
208.0
 30
0.0
 40
90.0
100
AcDbArc
 50
32.5466887228151904
 51
57.4533112771847954
  0
LINE
  5
A5
100
AcDbEntity
100
AcDbLine
  8
pipe
 62
256
370
-1
 48
1.0
  6
BYLAYER
 10
176.0007677879992229
 20
164.5023088217035365
 30
0.0
 11
154.6679463133320098
 21
135.5038480361725419
 31
0.0
  0
LINE
  5
A6
100
AcDbEntity
100
AcDbLine
  8
pipe
 62
256
370
-1
 48
1.0
  6
BYLAYER
 10
261.6697216723754309
 20
202.0366975919583012
 30
0.0
 11
297.4495361206256803
 21
198.061162653263807
 31
0.0
  0
ARC
  5
A7
100
AcDbEntity
  8
pipe
 62
256
370
-1
 48
1.0
  6
BYLAYER
100
AcDbCircle
 10
208.0
 20
208.0
 30
0.0
 40
90.0
100
AcDbArc
 50
353.6598082540900236
 51
357.4541132026537298
  0
ARC
  5
A8
100
AcDbEntity
  8
pipe
 62
256
370
-1
 48
1.0
  6
BYLAYER
100
AcDbCircle
 10
208.0
 20
208.0
 30
0.0
 40
90.0
100
AcDbArc
 50
113.659808254089981
 51
117.4533112771850085
  0
LINE
  5
A9
100
AcDbEntity
100
AcDbLine
  8
pipe
 62
256
370
-1
 48
1.0
  6
BYLAYER
 10
186.3295105396254314
 20
257.4609935863382475
 30
0.0
 11
171.8825175660423952
 21
290.4349893105637648
 31
0.0
  0
LINE
  5
AA
100
AcDbEntity
100
AcDbLine
  8
0
 62
256
370
-1
 48
1.0
  6
BYLAYER
 10
271.2582584395652816
 20
110.6840571170727401
 30
0.0
 11
277.8114747938771529
 21
115.2726686078810161
 31
0.0
  0
LINE
  5
AB
100
AcDbEntity
100
AcDbLine
  8
0
 62
256
370
-1
 48
1.0
  6
BYLAYER
 10
280.1057805392814544
 20
111.9960604307250946
 30
0.0
 11
273.5525641849694694
 21
107.4074489399167618
 31
0.0
  0
LINE
  5
AC
100
AcDbEntity
100
AcDbLine
  8
0
 62
256
370
-1
 48
1.0
  6
BYLAYER
 10
263.2228564304735414
 20
115.186013297244358
 30
0.0
 11
276.3292891390973978
 21
124.3632362788610521
 31
0.0
  0
LINE
  5
AD
100
AcDbEntity
100
AcDbLine
  8
0
 62
256
370
-1
 48
1.0
  6
BYLAYER
 10
263.2228564304735414
 20
115.186013297244358
 30
0.0
 11
264.5401916443029791
 21
113.30466363740247
 31
0.0
  0
LINE
  5
AE
100
AcDbEntity
100
AcDbLine
  8
0
 62
256
370
-1
 48
1.0
  6
BYLAYER
 10
264.5401916443029791
 20
113.30466363740247
 30
0.0
 11
277.6466243529268922
 21
122.4818866190191926
 31
0.0
  0
LINE
  5
AF
100
AcDbEntity
100
AcDbLine
  8
0
 62
256
370
-1
 48
1.0
  6
BYLAYER
 10
277.6466243529268922
 20
122.4818866190191926
 30
0.0
 11
276.3292891390973978
 21
124.3632362788610521
 31
0.0
  0
LINE
  5
B0
100
AcDbEntity
100
AcDbLine
  8
0
 62
256
370
-1
 48
1.0
  6
BYLAYER
 10
271.4231088805155991
 20
103.4748391059345352
 30
0.0
 11
284.5295415891393986
 21
112.6520620875512577
 31
0.0
  0
LINE
  5
B1
100
AcDbEntity
100
AcDbLine
  8
0
 62
256
370
-1
 48
1.0
  6
BYLAYER
 10
271.4231088805155991
 20
103.4748391059345352
 30
0.0
 11
272.5702617532176646
 21
101.8365350173565389
 31
0.0
  0
LINE
  5
B2
100
AcDbEntity
100
AcDbLine
  8
0
 62
256
370
-1
 48
1.0
  6
BYLAYER
 10
272.5702617532176646
 20
101.8365350173565389
 30
0.0
 11
285.6766944618415209
 21
111.0137579989733183
 31
0.0
  0
LINE
  5
B3
100
AcDbEntity
100
AcDbLine
  8
0
 62
256
370
-1
 48
1.0
  6
BYLAYER
 10
285.6766944618415209
 20
111.0137579989733183
 30
0.0
 11
284.5295415891393986
 21
112.6520620875512577
 31
0.0
  0
LINE
  5
B4
100
AcDbEntity
100
AcDbLine
  8
0
 62
256
370
-1
 48
1.0
  6
BYLAYER
 10
264.5401916443029791
 20
113.30466363740247
 30
0.0
 11
268.9639526941611507
 21
113.9606652942286757
 31
0.0
  0
LINE
  5
B5
100
AcDbEntity
100
AcDbLine
  8
0
 62
256
370
-1
 48
1.0
  6
BYLAYER
 10
268.9639526941611507
 20
113.9606652942286757
 30
0.0
 11
266.8344973897072236
 21
110.0280554602465202
 31
0.0
  0
LINE
  5
B6
100
AcDbEntity
100
AcDbLine
  8
0
 62
256
370
-1
 48
1.0
  6
BYLAYER
 10
266.8344973897072236
 20
110.0280554602465202
 30
0.0
 11
271.2582584395652816
 21
110.6840571170727401
 31
0.0
  0
LINE
  5
B7
100
AcDbEntity
100
AcDbLine
  8
0
 62
256
370
-1
 48
1.0
  6
BYLAYER
 10
271.2582584395652816
 20
110.6840571170727401
 30
0.0
 11
269.1288031351114114
 21
106.7514472830905277
 31
0.0
  0
LINE
  5
B8
100
AcDbEntity
100
AcDbLine
  8
0
 62
256
370
-1
 48
1.0
  6
BYLAYER
 10
269.1288031351114114
 20
106.7514472830905277
 30
0.0
 11
273.5525641849694694
 21
107.4074489399167618
 31
0.0
  0
LINE
  5
B9
100
AcDbEntity
100
AcDbLine
  8
0
 62
256
370
-1
 48
1.0
  6
BYLAYER
 10
273.5525641849694694
 20
107.4074489399167618
 30
0.0
 11
271.4231088805155991
 21
103.4748391059345352
 31
0.0
  0
LINE
  5
BA
100
AcDbEntity
100
AcDbLine
  8
0
 62
256
370
-1
 48
1.0
  6
BYLAYER
 10
277.6466243529268922
 20
122.4818866190191926
 30
0.0
 11
275.5171690484729652
 21
118.5492767850369944
 31
0.0
  0
LINE
  5
BB
100
AcDbEntity
100
AcDbLine
  8
0
 62
256
370
-1
 48
1.0
  6
BYLAYER
 10
275.5171690484729652
 20
118.5492767850369944
 30
0.0
 11
279.9409300983311368
 21
119.2052784418632143
 31
0.0
  0
LINE
  5
BC
100
AcDbEntity
100
AcDbLine
  8
0
 62
256
370
-1
 48
1.0
  6
BYLAYER
 10
279.9409300983311368
 20
119.2052784418632143
 30
0.0
 11
277.8114747938771529
 21
115.2726686078810161
 31
0.0
  0
LINE
  5
BD
100
AcDbEntity
100
AcDbLine
  8
0
 62
256
370
-1
 48
1.0
  6
BYLAYER
 10
277.8114747938771529
 20
115.2726686078810161
 30
0.0
 11
282.2352358437352677
 21
115.9286702647072644
 31
0.0
  0
LINE
  5
BE
100
AcDbEntity
100
AcDbLine
  8
0
 62
256
370
-1
 48
1.0
  6
BYLAYER
 10
282.2352358437352677
 20
115.9286702647072644
 30
0.0
 11
280.1057805392814544
 21
111.9960604307250946
 31
0.0
  0
LINE
  5
BF
100
AcDbEntity
100
AcDbLine
  8
0
 62
256
370
-1
 48
1.0
  6
BYLAYER
 10
280.1057805392814544
 20
111.9960604307250946
 30
0.0
 11
284.5295415891393986
 21
112.6520620875512577
 31
0.0
  0
LINE
  5
C0
100
AcDbEntity
100
AcDbLine
  8
0
 62
256
370
-1
 48
1.0
  6
BYLAYER
 10
266.8344973897072236
 20
110.0280554602465202
 30
0.0
 11
279.9409300983311368
 21
119.2052784418632143
 31
0.0
  0
LINE
  5
C1
100
AcDbEntity
100
AcDbLine
  8
0
 62
256
370
-1
 48
1.0
  6
BYLAYER
 10
269.1288031351114114
 20
106.7514472830905277
 30
0.0
 11
282.2352358437352677
 21
115.9286702647072644
 31
0.0
  0
LINE
  5
C2
100
AcDbEntity
100
AcDbLine
  8
0
 62
256
370
-1
 48
1.0
  6
BYLAYER
 10
268.9639526941611507
 20
113.9606652942286757
 30
0.0
 11
275.5171690484729652
 21
118.5492767850369944
 31
0.0
  0
LINE
  5
C3
100
AcDbEntity
100
AcDbLine
  8
0
 62
256
370
-1
 48
1.0
  6
BYLAYER
 10
263.2228564304734277
 20
115.1860132972442869
 30
0.0
 11
264.5401916443030359
 21
113.3046636374025269
 31
0.0
  0
LINE
  5
C4
100
AcDbEntity
100
AcDbLine
  8
0
 62
256
370
-1
 48
1.0
  6
BYLAYER
 10
264.5401916443030359
 20
113.3046636374025269
 30
0.0
 11
277.6466243529268354
 21
122.4818866190191358
 31
0.0
  0
LINE
  5
C5
100
AcDbEntity
100
AcDbLine
  8
0
 62
256
370
-1
 48
1.0
  6
BYLAYER
 10
277.6466243529268354
 20
122.4818866190191358
 30
0.0
 11
276.3292891390976251
 21
124.3632362788612085
 31
0.0
  0
LINE
  5
C6
100
AcDbEntity
100
AcDbLine
  8
0
 62
256
370
-1
 48
1.0
  6
BYLAYER
 10
276.3292891390976251
 20
124.3632362788612085
 30
0.0
 11
263.2228564304732004
 21
115.1860132972441164
 31
0.0
  0
LINE
  5
C7
100
AcDbEntity
100
AcDbLine
  8
0
 62
256
370
-1
 48
1.0
  6
BYLAYER
 10
284.5452423733594287
 20
112.661138900357912
 30
0.0
 11
285.6766944618415209
 21
111.0137579989733183
 31
0.0
  0
LINE
  5
C8
100
AcDbEntity
100
AcDbLine
  8
0
 62
256
370
-1
 48
1.0
  6
BYLAYER
 10
285.6766944618415209
 20
111.0137579989733183
 30
0.0
 11
272.5702617532175509
 21
101.8365350173565105
 31
0.0
  0
LINE
  5
C9
100
AcDbEntity
100
AcDbLine
  8
0
 62
256
370
-1
 48
1.0
  6
BYLAYER
 10
272.5702617532175509
 20
101.8365350173565105
 30
0.0
 11
271.4231088805155991
 21
103.4748391059345494
 31
0.0
  0
LINE
  5
CA
100
AcDbEntity
100
AcDbLine
  8
0
 62
256
370
-1
 48
1.0
  6
BYLAYER
 10
271.4231088805155991
 20
103.4748391059345494
 30
0.0
 11
284.529541589139285
 21
112.6520620875512009
 31
0.0
  0
LINE
  5
CB
100
AcDbEntity
100
AcDbLine
  8
0
 62
256
370
-1
 48
1.0
  6
BYLAYER
 10
194.0
 20
315.0887482418204399
 30
0.0
 11
194.0
 21
330.0
 31
0.0
  0
LINE
  5
CC
100
AcDbEntity
100
AcDbLine
  8
0
 62
256
370
-1
 48
1.0
  6
BYLAYER
 10
194.0
 20
330.0
 30
0.0
 11
222.0
 21
330.0
 31
0.0
  0
LINE
  5
CD
100
AcDbEntity
100
AcDbLine
  8
0
 62
256
370
-1
 48
1.0
  6
BYLAYER
 10
222.0
 20
330.0
 30
0.0
 11
222.0008725375968766
 21
315.088634169018917
 31
0.0
  0
LINE
  5
CE
100
AcDbEntity
100
AcDbLine
  8
0
 62
256
370
-1
 48
1.0
  6
BYLAYER
 10
194.0
 20
315.0887482418204399
 30
0.0
 11
222.000872537596706
 21
315.088634169018917
 31
0.0
  0
MTEXT
  5
CF
100
AcDbEntity
100
AcDbMText
  8
0
 62
256
370
-1
 48
1.0
  6
BYLAYER
 10
208.0
 20
330.0
 30
0.0
 40
12.0
 41
0.0
 71
2
 72
1
  1
\H10.2857;SO
  7
textstyle13
 50
0.0
 73
2
 44
1.0
  0
LINE
  5
D0
100
AcDbEntity
100
AcDbLine
  8
0
 62
256
370
-1
 48
1.0
  6
BYLAYER
 10
122.2584235631073426
 20
142.3312702261076765
 30
0.0
 11
109.3449007382984774
 21
134.8756443470178681
 31
0.0
  0
LINE
  5
D1
100
AcDbEntity
100
AcDbLine
  8
0
 62
256
370
-1
 48
1.0
  6
BYLAYER
 10
109.3449007382984774
 20
134.8756443470178681
 30
0.0
 11
95.3449007382984632
 21
159.1243556529821888
 31
0.0
  0
LINE
  5
D2
100
AcDbEntity
100
AcDbLine
  8
0
 62
256
370
-1
 48
1.0
  6
BYLAYER
 10
95.3449007382984632
 20
159.1243556529821888
 30
0.0
 11
108.2580860842528949
 21
166.5807942081973749
 31
0.0
  0
LINE
  5
D3
100
AcDbEntity
100
AcDbLine
  8
0
 62
256
370
-1
 48
1.0
  6
BYLAYER
 10
122.2584235631073426
 20
142.3312702261076765
 30
0.0
 11
108.2580860842529802
 21
166.5807942081972044
 31
0.0
  0
MTEXT
  5
D4
100
AcDbEntity
100
AcDbMText
  8
0
 62
256
370
-1
 48
1.0
  6
BYLAYER
 10
102.3449007382984632
 20
147.0000000000000284
 30
0.0
 40
12.0
 41
0.0
 71
2
 72
1
  1
\H10.2857;NW
  7
textstyle14
 50
120.0
 73
2
 44
1.0
  0
LINE
  5
D5
100
AcDbEntity
100
AcDbLine
  8
0
 62
256
370
-1
 48
1.0
  6
BYLAYER
 10
307.7415764368926148
 20
166.5799815320718267
 30
0.0
 11
320.6550992617014799
 21
159.1243556529820466
 31
0.0
  0
LINE
  5
D6
100
AcDbEntity
100
AcDbLine
  8
0
 62
256
370
-1
 48
1.0
  6
BYLAYER
 10
320.6550992617014799
 20
159.1243556529820466
 30
0.0
 11
306.6550992617014799
 21
134.8756443470178397
 31
0.0
  0
LINE
  5
D7
100
AcDbEntity
100
AcDbLine
  8
0
 62
256
370
-1
 48
1.0
  6
BYLAYER
 10
306.6550992617014799
 20
134.8756443470178397
 30
0.0
 11
293.7410413781501575
 21
142.3305716227837365
 31
0.0
  0
LINE
  5
D8
100
AcDbEntity
100
AcDbLine
  8
0
 62
256
370
-1
 48
1.0
  6
BYLAYER
 10
307.7415764368926148
 20
166.5799815320718267
 30
0.0
 11
293.7410413781502712
 21
142.3305716227839071
 31
0.0
  0
MTEXT
  5
D9
100
AcDbEntity
100
AcDbMText
  8
0
 62
256
370
-1
 48
1.0
  6
BYLAYER
 10
313.6550992617014799
 20
146.9999999999999432
 30
0.0
 40
12.0
 41
0.0
 71
2
 72
1
  1
\H10.2857;NE
  7
textstyle15
 50
240.0
 73
2
 44
1.0
  0
LINE
  5
DA
100
AcDbEntity
100
AcDbLine
  8
0
 62
256
370
-1
 48
1.0
  6
BYLAYER
 10
229.7779645313747494
 20
95.8139034422260494
 30
0.0
 11
234.1593059267360672
 21
94.917327970058011
 31
0.0
  0
LINE
  5
DB
100
AcDbEntity
100
AcDbLine
  8
0
 62
256
370
-1
 48
1.0
  6
BYLAYER
 10
234.1593059267360672
 20
94.917327970058011
 30
0.0
 11
230.8132407117848288
 21
91.9502001370697428
 31
0.0
  0
LINE
  5
DC
100
AcDbEntity
100
AcDbLine
  8
0
 62
256
370
-1
 48
1.0
  6
BYLAYER
 10
230.8132407117848288
 20
91.9502001370697428
 30
0.0
 11
235.1945821071461467
 21
91.0536246649017187
 31
0.0
  0
LINE
  5
DD
100
AcDbEntity
100
AcDbLine
  8
0
 62
256
370
-1
 48
1.0
  6
BYLAYER
 10
235.1945821071461467
 20
91.0536246649017187
 30
0.0
 11
231.8485168921949082
 21
88.0864968319134505
 31
0.0
  0
LINE
  5
DE
100
AcDbEntity
100
AcDbLine
  8
0
 62
256
370
-1
 48
1.0
  6
BYLAYER
 10
244.1975015715896689
 20
103.8187114690226025
 30
0.0
 11
240.8514363566384304
 21
100.8515836360343911
 31
0.0
  0
LINE
  5
DF
100
AcDbEntity
100
AcDbLine
  8
0
 62
256
370
-1
 48
1.0
  6
BYLAYER
 10
240.8514363566384304
 20
100.8515836360343911
 30
0.0
 11
245.2327777519998904
 21
99.9550081638663386
 31
0.0
  0
LINE
  5
E0
100
AcDbEntity
100
AcDbLine
  8
0
 62
256
370
-1
 48
1.0
  6
BYLAYER
 10
245.2327777519998904
 20
99.9550081638663386
 30
0.0
 11
241.8867125370485383
 21
96.987880330878113
 31
0.0
  0
LINE
  5
E1
100
AcDbEntity
100
AcDbLine
  8
0
 62
256
370
-1
 48
1.0
  6
BYLAYER
 10
241.8867125370485383
 20
96.987880330878113
 30
0.0
 11
246.2680539324098561
 21
96.0913048587100604
 31
0.0
  0
LINE
  5
E2
100
AcDbEntity
100
AcDbLine
  8
0
 62
256
370
-1
 48
1.0
  6
BYLAYER
 10
246.2680539324098561
 20
96.0913048587100604
 30
0.0
 11
242.9219887174587313
 21
93.1241770257218349
 31
0.0
  0
LINE
  5
E3
100
AcDbEntity
100
AcDbLine
  8
0
 62
256
370
-1
 48
1.0
  6
BYLAYER
 10
242.9219887174587313
 20
93.1241770257218349
 30
0.0
 11
247.3033301128199355
 21
92.2276015535537965
 31
0.0
  0
LINE
  5
E4
100
AcDbEntity
100
AcDbLine
  8
0
 62
256
370
-1
 48
1.0
  6
BYLAYER
 10
229.7779645313747494
 20
95.8139034422260494
 30
0.0
 11
245.2327777519998904
 21
99.9550081638663386
 31
0.0
  0
LINE
  5
E5
100
AcDbEntity
100
AcDbLine
  8
0
 62
256
370
-1
 48
1.0
  6
BYLAYER
 10
230.8132407117848288
 20
91.9502001370697428
 30
0.0
 11
246.2680539324098561
 21
96.0913048587100604
 31
0.0
  0
LINE
  5
E6
100
AcDbEntity
100
AcDbLine
  8
0
 62
256
370
-1
 48
1.0
  6
BYLAYER
 10
233.1240297463260163
 20
98.7810312752142323
 30
0.0
 11
240.8514363566384304
 21
100.8515836360343911
 31
0.0
  0
LINE
  5
E7
100
AcDbEntity
100
AcDbLine
  8
0
 62
256
370
-1
 48
1.0
  6
BYLAYER
 10
228.148257651732365
 20
101.8960523184957054
 30
0.0
 11
228.7426883509646132
 21
99.6776067473823417
 31
0.0
  0
LINE
  5
E8
100
AcDbEntity
100
AcDbLine
  8
0
 62
256
370
-1
 48
1.0
  6
BYLAYER
 10
228.7426883509646132
 20
99.6776067473823417
 30
0.0
 11
244.1975015715896689
 21
103.8187114690225883
 31
0.0
  0
LINE
  5
E9
100
AcDbEntity
100
AcDbLine
  8
0
 62
256
370
-1
 48
1.0
  6
BYLAYER
 10
244.1975015715896689
 20
103.8187114690225883
 30
0.0
 11
243.6030708723578186
 21
106.0371570401360941
 31
0.0
  0
LINE
  5
EA
100
AcDbEntity
100
AcDbLine
  8
0
 62
256
370
-1
 48
1.0
  6
BYLAYER
 10
243.6030708723578186
 20
106.0371570401360941
 30
0.0
 11
228.1482576517319956
 21
101.8960523184955917
 31
0.0
  0
LINE
  5
EB
100
AcDbEntity
100
AcDbLine
  8
0
 62
256
370
-1
 48
1.0
  6
BYLAYER
 10
247.3211884767091249
 20
92.2307609830992021
 30
0.0
 11
247.8209682030250178
 21
90.295749900975693
 31
0.0
  0
LINE
  5
EC
100
AcDbEntity
100
AcDbLine
  8
0
 62
256
370
-1
 48
1.0
  6
BYLAYER
 10
247.8209682030250178
 20
90.295749900975693
 30
0.0
 11
232.3661549823997916
 21
86.1546451793353185
 31
0.0
  0
LINE
  5
ED
100
AcDbEntity
100
AcDbLine
  8
0
 62
256
370
-1
 48
1.0
  6
BYLAYER
 10
234.1593059267360672
 20
94.917327970058011
 30
0.0
 11
241.8867125370485383
 21
96.987880330878113
 31
0.0
  0
LINE
  5
EE
100
AcDbEntity
100
AcDbLine
  8
0
 62
256
370
-1
 48
1.0
  6
BYLAYER
 10
232.3661549823997916
 20
86.1546451793353185
 30
0.0
 11
231.8485168921949082
 21
88.0864968319134505
 31
0.0
  0
LINE
  5
EF
100
AcDbEntity
100
AcDbLine
  8
0
 62
256
370
-1
 48
1.0
  6
BYLAYER
 10
242.9219887174587313
 20
93.1241770257218349
 30
0.0
 11
235.1945821071461467
 21
91.0536246649017187
 31
0.0
  0
LINE
  5
F0
100
AcDbEntity
100
AcDbLine
  8
0
 62
256
370
-1
 48
1.0
  6
BYLAYER
 10
231.8485168921949082
 20
88.0864968319134505
 30
0.0
 11
247.3033301128198218
 21
92.2276015535537823
 31
0.0
  0
LINE
  5
F1
100
AcDbEntity
100
AcDbLine
  8
0
 62
256
370
-1
 48
1.0
  6
BYLAYER
 10
228.1482576517324503
 20
101.8960523184957054
 30
0.0
 11
243.6030708723575344
 21
106.0371570401360231
 31
0.0
  0
LINE
  5
F2
100
AcDbEntity
100
AcDbLine
  8
0
 62
256
370
-1
 48
1.0
  6
BYLAYER
 10
228.1482576517324503
 20
101.8960523184957054
 30
0.0
 11
228.7426883509646132
 21
99.6776067473823133
 31
0.0
  0
LINE
  5
F3
100
AcDbEntity
100
AcDbLine
  8
0
 62
256
370
-1
 48
1.0
  6
BYLAYER
 10
244.1975015715896689
 20
103.8187114690226025
 30
0.0
 11
243.6030708723575344
 21
106.0371570401360231
 31
0.0
  0
LINE
  5
F4
100
AcDbEntity
100
AcDbLine
  8
0
 62
256
370
-1
 48
1.0
  6
BYLAYER
 10
231.8485168921949082
 20
88.0864968319134505
 30
0.0
 11
247.3033301128199355
 21
92.2276015535537965
 31
0.0
  0
LINE
  5
F5
100
AcDbEntity
100
AcDbLine
  8
0
 62
256
370
-1
 48
1.0
  6
BYLAYER
 10
231.8485168921949082
 20
88.0864968319134505
 30
0.0
 11
232.3661549823999053
 21
86.1546451793353185
 31
0.0
  0
LINE
  5
F6
100
AcDbEntity
100
AcDbLine
  8
0
 62
256
370
-1
 48
1.0
  6
BYLAYER
 10
232.3661549823999053
 20
86.1546451793353185
 30
0.0
 11
247.8209682030250178
 21
90.295749900975693
 31
0.0
  0
LINE
  5
F7
100
AcDbEntity
100
AcDbLine
  8
0
 62
256
370
-1
 48
1.0
  6
BYLAYER
 10
247.8209682030250178
 20
90.295749900975693
 30
0.0
 11
247.3033301128199355
 21
92.2276015535537965
 31
0.0
  0
LINE
  5
F8
100
AcDbEntity
100
AcDbLine
  8
0
 62
256
370
-1
 48
1.0
  6
BYLAYER
 10
228.7426883509646132
 20
99.6776067473823133
 30
0.0
 11
233.1240297463260163
 21
98.7810312752142323
 31
0.0
  0
LINE
  5
F9
100
AcDbEntity
100
AcDbLine
  8
0
 62
256
370
-1
 48
1.0
  6
BYLAYER
 10
233.1240297463260163
 20
98.7810312752142323
 30
0.0
 11
229.7779645313747494
 21
95.8139034422260494
 31
0.0
  0
LINE
  5
FA
100
AcDbEntity
100
AcDbLine
  8
0
 62
256
370
-1
 48
1.0
  6
BYLAYER
 10
187.8517423482676065
 20
101.8960523184957054
 30
0.0
 11
187.2573116490353584
 21
99.6776067473823417
 31
0.0
  0
LINE
  5
FB
100
AcDbEntity
100
AcDbLine
  8
0
 62
256
370
-1
 48
1.0
  6
BYLAYER
 10
171.8024984284102743
 20
103.8187114690225883
 30
0.0
 11
172.3969291276421245
 21
106.0371570401361083
 31
0.0
  0
LINE
  5
FC
100
AcDbEntity
100
AcDbLine
  8
0
 62
256
370
-1
 48
1.0
  6
BYLAYER
 10
172.3969291276421245
 20
106.0371570401361083
 30
0.0
 11
187.851742348267976
 21
101.8960523184955917
 31
0.0
  0
LINE
  5
FD
100
AcDbEntity
100
AcDbLine
  8
0
 62
256
370
-1
 48
1.0
  6
BYLAYER
 10
168.1790317969749537
 20
90.2957499009757072
 30
0.0
 11
183.6338450176001516
 21
86.1546451793353327
 31
0.0
  0
LINE
  5
FE
100
AcDbEntity
100
AcDbLine
  8
0
 62
256
370
-1
 48
1.0
  6
BYLAYER
 10
181.8406940732639896
 20
94.917327970058011
 30
0.0
 11
174.1132874629514333
 21
96.987880330878113
 31
0.0
  0
LINE
  5
FF
100
AcDbEntity
100
AcDbLine
  8
0
 62
256
370
-1
 48
1.0
  6
BYLAYER
 10
173.0780112825412402
 20
93.1241770257218491
 30
0.0
 11
180.8054178928537965
 21
91.0536246649017329
 31
0.0
  0
LINE
  5
100
100
AcDbEntity
100
AcDbLine
  8
0
 62
256
370
-1
 48
1.0
  6
BYLAYER
 10
184.1514831078050634
 20
88.0864968319134647
 30
0.0
 11
168.6966698871801213
 21
92.2276015535538107
 31
0.0
  0
LINE
  5
101
100
AcDbEntity
100
AcDbLine
  8
0
 62
256
370
-1
 48
1.0
  6
BYLAYER
 10
187.2573116490353584
 20
99.6776067473823275
 30
0.0
 11
171.8024984284103027
 21
103.8187114690226025
 31
0.0
  0
LINE
  5
102
100
AcDbEntity
100
AcDbLine
  8
0
 62
256
370
-1
 48
1.0
  6
BYLAYER
 10
138.3533756470731078
 20
122.48188661901915
 30
0.0
 11
139.670710860902318
 21
124.3632362788612369
 31
0.0
  0
LINE
  5
103
100
AcDbEntity
100
AcDbLine
  8
0
 62
256
370
-1
 48
1.0
  6
BYLAYER
 10
184.1514831078050634
 20
88.0864968319134647
 30
0.0
 11
183.6338450176000379
 21
86.1546451793353327
 31
0.0
  0
LINE
  5
104
100
AcDbEntity
100
AcDbLine
  8
0
 62
256
370
-1
 48
1.0
  6
BYLAYER
 10
131.4704584108605729
 20
112.6520620875512577
 30
0.0
 11
130.3233055381584506
 21
111.0137579989733467
 31
0.0
  0
LINE
  5
105
100
AcDbEntity
100
AcDbLine
  8
0
 62
256
370
-1
 48
1.0
  6
BYLAYER
 10
168.1790317969749537
 20
90.2957499009757072
 30
0.0
 11
168.6966698871800077
 21
92.2276015535538107
 31
0.0
  0
LINE
  5
106
100
AcDbEntity
100
AcDbLine
  8
0
 62
256
370
-1
 48
1.0
  6
BYLAYER
 10
130.3233055381584506
 20
111.0137579989733467
 30
0.0
 11
143.4297382467824491
 21
101.8365350173565247
 31
0.0
  0
LINE
  5
107
100
AcDbEntity
100
AcDbLine
  8
0
 62
256
370
-1
 48
1.0
  6
BYLAYER
 10
187.2573116490353584
 20
99.6776067473823275
 30
0.0
 11
182.8759702536739269
 21
98.7810312752142465
 31
0.0
  0
LINE
  5
108
100
AcDbEntity
100
AcDbLine
  8
0
 62
256
370
-1
 48
1.0
  6
BYLAYER
 10
143.4297382467824491
 20
101.8365350173565247
 30
0.0
 11
144.5768911194843724
 21
103.4748391059345636
 31
0.0
  0
LINE
  5
109
100
AcDbEntity
100
AcDbLine
  8
0
 62
256
370
-1
 48
1.0
  6
BYLAYER
 10
182.8759702536739269
 20
98.7810312752142465
 30
0.0
 11
186.2220354686251937
 21
95.8139034422260494
 31
0.0
  0
LINE
  5
10A
100
AcDbEntity
100
AcDbLine
  8
0
 62
256
370
-1
 48
1.0
  6
BYLAYER
 10
144.7417415604346616
 20
110.6840571170727543
 30
0.0
 11
138.1885252061228186
 21
115.2726686078810445
 31
0.0
  0
LINE
  5
10B
100
AcDbEntity
100
AcDbLine
  8
0
 62
256
370
-1
 48
1.0
  6
BYLAYER
 10
135.8942194607185456
 20
111.9960604307251089
 30
0.0
 11
142.4474358150304738
 21
107.407448939916776
 31
0.0
  0
LINE
  5
10C
100
AcDbEntity
100
AcDbLine
  8
0
 62
256
370
-1
 48
1.0
  6
BYLAYER
 10
152.7771435695264586
 20
115.186013297244358
 30
0.0
 11
139.6707108609026022
 21
124.3632362788610806
 31
0.0
  0
LINE
  5
10D
100
AcDbEntity
100
AcDbLine
  8
0
 62
256
370
-1
 48
1.0
  6
BYLAYER
 10
152.7771435695264586
 20
115.186013297244358
 30
0.0
 11
151.4598083556969925
 21
113.3046636374024843
 31
0.0
  0
LINE
  5
10E
100
AcDbEntity
100
AcDbLine
  8
0
 62
256
370
-1
 48
1.0
  6
BYLAYER
 10
151.4598083556969925
 20
113.3046636374024843
 30
0.0
 11
138.3533756470731362
 21
122.4818866190191642
 31
0.0
  0
LINE
  5
10F
100
AcDbEntity
100
AcDbLine
  8
0
 62
256
370
-1
 48
1.0
  6
BYLAYER
 10
144.5768911194843724
 20
103.4748391059345636
 30
0.0
 11
131.4704584108605729
 21
112.6520620875512861
 31
0.0
  0
LINE
  5
110
100
AcDbEntity
100
AcDbLine
  8
0
 62
256
370
-1
 48
1.0
  6
BYLAYER
 10
151.4598083556969925
 20
113.3046636374024843
 30
0.0
 11
147.0360473058388209
 21
113.96066529422869
 31
0.0
  0
LINE
  5
111
100
AcDbEntity
100
AcDbLine
  8
0
 62
256
370
-1
 48
1.0
  6
BYLAYER
 10
147.0360473058388209
 20
113.96066529422869
 30
0.0
 11
149.1655026102927479
 21
110.0280554602465344
 31
0.0
  0
LINE
  5
112
100
AcDbEntity
100
AcDbLine
  8
0
 62
256
370
-1
 48
1.0
  6
BYLAYER
 10
149.1655026102927479
 20
110.0280554602465344
 30
0.0
 11
144.7417415604346616
 21
110.6840571170727543
 31
0.0
  0
LINE
  5
113
100
AcDbEntity
100
AcDbLine
  8
0
 62
256
370
-1
 48
1.0
  6
BYLAYER
 10
144.7417415604346616
 20
110.6840571170727543
 30
0.0
 11
146.8711968648885602
 21
106.7514472830905419
 31
0.0
  0
LINE
  5
114
100
AcDbEntity
100
AcDbLine
  8
0
 62
256
370
-1
 48
1.0
  6
BYLAYER
 10
146.8711968648885602
 20
106.7514472830905419
 30
0.0
 11
142.4474358150304738
 21
107.407448939916776
 31
0.0
  0
LINE
  5
115
100
AcDbEntity
100
AcDbLine
  8
0
 62
256
370
-1
 48
1.0
  6
BYLAYER
 10
142.4474358150304738
 20
107.407448939916776
 30
0.0
 11
144.5768911194843724
 21
103.4748391059345636
 31
0.0
  0
LINE
  5
116
100
AcDbEntity
100
AcDbLine
  8
0
 62
256
370
-1
 48
1.0
  6
BYLAYER
 10
138.3533756470731362
 20
122.4818866190191642
 30
0.0
 11
140.4828309515270348
 21
118.5492767850370086
 31
0.0
  0
LINE
  5
117
100
AcDbEntity
100
AcDbLine
  8
0
 62
256
370
-1
 48
1.0
  6
BYLAYER
 10
140.4828309515270348
 20
118.5492767850370086
 30
0.0
 11
136.0590699016688347
 21
119.2052784418632427
 31
0.0
  0
LINE
  5
118
100
AcDbEntity
100
AcDbLine
  8
0
 62
256
370
-1
 48
1.0
  6
BYLAYER
 10
136.0590699016688347
 20
119.2052784418632427
 30
0.0
 11
138.1885252061228186
 21
115.2726686078810445
 31
0.0
  0
LINE
  5
119
100
AcDbEntity
100
AcDbLine
  8
0
 62
256
370
-1
 48
1.0
  6
BYLAYER
 10
138.1885252061228186
 20
115.2726686078810445
 30
0.0
 11
133.7647641562647323
 21
115.928670264707236
 31
0.0
  0
LINE
  5
11A
100
AcDbEntity
100
AcDbLine
  8
0
 62
256
370
-1
 48
1.0
  6
BYLAYER
 10
133.7647641562647323
 20
115.928670264707236
 30
0.0
 11
135.8942194607185456
 21
111.9960604307251089
 31
0.0
  0
LINE
  5
11B
100
AcDbEntity
100
AcDbLine
  8
0
 62
256
370
-1
 48
1.0
  6
BYLAYER
 10
135.8942194607185456
 20
111.9960604307251089
 30
0.0
 11
131.4704584108605729
 21
112.6520620875512861
 31
0.0
  0
LINE
  5
11C
100
AcDbEntity
100
AcDbLine
  8
0
 62
256
370
-1
 48
1.0
  6
BYLAYER
 10
149.1655026102927479
 20
110.0280554602465344
 30
0.0
 11
136.0590699016688347
 21
119.2052784418632427
 31
0.0
  0
LINE
  5
11D
100
AcDbEntity
100
AcDbLine
  8
0
 62
256
370
-1
 48
1.0
  6
BYLAYER
 10
146.8711968648885602
 20
106.7514472830905419
 30
0.0
 11
133.7647641562647323
 21
115.928670264707236
 31
0.0
  0
LINE
  5
11E
100
AcDbEntity
100
AcDbLine
  8
0
 62
256
370
-1
 48
1.0
  6
BYLAYER
 10
147.0360473058388209
 20
113.96066529422869
 30
0.0
 11
140.4828309515270348
 21
118.5492767850370086
 31
0.0
  0
LINE
  5
11F
100
AcDbEntity
100
AcDbLine
  8
0
 62
256
370
-1
 48
1.0
  6
BYLAYER
 10
186.2220354686251937
 20
95.8139034422260494
 30
0.0
 11
181.8406940732639896
 21
94.917327970058011
 31
0.0
  0
LINE
  5
120
100
AcDbEntity
100
AcDbLine
  8
0
 62
256
370
-1
 48
1.0
  6
BYLAYER
 10
181.8406940732639896
 20
94.917327970058011
 30
0.0
 11
185.186759288215228
 21
91.9502001370697144
 31
0.0
  0
LINE
  5
121
100
AcDbEntity
100
AcDbLine
  8
0
 62
256
370
-1
 48
1.0
  6
BYLAYER
 10
185.186759288215228
 20
91.9502001370697144
 30
0.0
 11
180.8054178928537965
 21
91.0536246649017329
 31
0.0
  0
LINE
  5
122
100
AcDbEntity
100
AcDbLine
  8
0
 62
256
370
-1
 48
1.0
  6
BYLAYER
 10
180.8054178928537965
 20
91.0536246649017329
 30
0.0
 11
184.1514831078050634
 21
88.0864968319134647
 31
0.0
  0
LINE
  5
123
100
AcDbEntity
100
AcDbLine
  8
0
 62
256
370
-1
 48
1.0
  6
BYLAYER
 10
171.8024984284103027
 20
103.8187114690226025
 30
0.0
 11
175.1485636433615412
 21
100.8515836360344053
 31
0.0
  0
LINE
  5
124
100
AcDbEntity
100
AcDbLine
  8
0
 62
256
370
-1
 48
1.0
  6
BYLAYER
 10
175.1485636433615412
 20
100.8515836360344053
 30
0.0
 11
170.7672222480000812
 21
99.9550081638663528
 31
0.0
  0
LINE
  5
125
100
AcDbEntity
100
AcDbLine
  8
0
 62
256
370
-1
 48
1.0
  6
BYLAYER
 10
170.7672222480000812
 20
99.9550081638663528
 30
0.0
 11
174.1132874629514333
 21
96.987880330878113
 31
0.0
  0
LINE
  5
126
100
AcDbEntity
100
AcDbLine
  8
0
 62
256
370
-1
 48
1.0
  6
BYLAYER
 10
174.1132874629514333
 20
96.987880330878113
 30
0.0
 11
169.7319460675901155
 21
96.0913048587100747
 31
0.0
  0
LINE
  5
127
100
AcDbEntity
100
AcDbLine
  8
0
 62
256
370
-1
 48
1.0
  6
BYLAYER
 10
169.7319460675901155
 20
96.0913048587100747
 30
0.0
 11
173.0780112825412402
 21
93.1241770257218491
 31
0.0
  0
LINE
  5
128
100
AcDbEntity
100
AcDbLine
  8
0
 62
256
370
-1
 48
1.0
  6
BYLAYER
 10
173.0780112825412402
 20
93.1241770257218491
 30
0.0
 11
168.6966698871800077
 21
92.2276015535538107
 31
0.0
  0
LINE
  5
129
100
AcDbEntity
100
AcDbLine
  8
0
 62
256
370
-1
 48
1.0
  6
BYLAYER
 10
186.2220354686251937
 20
95.8139034422260494
 30
0.0
 11
170.7672222480000812
 21
99.9550081638663528
 31
0.0
  0
LINE
  5
12A
100
AcDbEntity
100
AcDbLine
  8
0
 62
256
370
-1
 48
1.0
  6
BYLAYER
 10
185.186759288215228
 20
91.9502001370697144
 30
0.0
 11
169.7319460675901155
 21
96.0913048587100747
 31
0.0
  0
LINE
  5
12B
100
AcDbEntity
100
AcDbLine
  8
0
 62
256
370
-1
 48
1.0
  6
BYLAYER
 10
182.8759702536739269
 20
98.7810312752142465
 30
0.0
 11
175.1485636433615412
 21
100.8515836360344053
 31
0.0
  0
LINE
  5
12C
100
AcDbEntity
100
AcDbLine
  8
0
 62
256
370
-1
 48
1.0
  6
BYLAYER
 10
168.6788115232908183
 20
92.2307609830992305
 30
0.0
 11
168.1790317969749253
 21
90.2957499009757214
 31
0.0
  0
LINE
  5
12D
100
AcDbEntity
100
AcDbLine
  8
0
 62
256
370
-1
 48
1.0
  6
BYLAYER
 10
183.6338450176001231
 20
86.1546451793353469
 30
0.0
 11
184.1514831078050349
 21
88.0864968319134789
 31
0.0
  0
LINE
  5
12E
100
AcDbEntity
100
AcDbLine
  8
0
 62
256
370
-1
 48
1.0
  6
BYLAYER
 10
184.1514831078050349
 20
88.0864968319134789
 30
0.0
 11
168.6966698871799792
 21
92.2276015535538249
 31
0.0
  0
LINE
  5
12F
100
AcDbEntity
100
AcDbLine
  8
0
 62
256
370
-1
 48
1.0
  6
BYLAYER
 10
183.6338450176000094
 20
86.1546451793353469
 30
0.0
 11
168.1790317969749253
 21
90.2957499009757214
 31
0.0
  0
LINE
  5
130
100
AcDbEntity
100
AcDbLine
  8
0
 62
256
370
-1
 48
1.0
  6
BYLAYER
 10
172.3969291276423519
 20
106.0371570401360515
 30
0.0
 11
171.8024984284103027
 21
103.8187114690226309
 31
0.0
  0
LINE
  5
131
100
AcDbEntity
100
AcDbLine
  8
0
 62
256
370
-1
 48
1.0
  6
BYLAYER
 10
171.8024984284103027
 20
103.8187114690226309
 30
0.0
 11
187.2573116490353868
 21
99.6776067473823133
 31
0.0
  0
LINE
  5
132
100
AcDbEntity
100
AcDbLine
  8
0
 62
256
370
-1
 48
1.0
  6
BYLAYER
 10
187.2573116490353868
 20
99.6776067473823133
 30
0.0
 11
187.8517423482676065
 21
101.8960523184956912
 31
0.0
  0
LINE
  5
133
100
AcDbEntity
100
AcDbLine
  8
0
 62
256
370
-1
 48
1.0
  6
BYLAYER
 10
187.8517423482676065
 20
101.8960523184956912
 30
0.0
 11
172.3969291276423519
 21
106.0371570401360373
 31
0.0
  0
LINE
  5
134
100
AcDbEntity
100
AcDbLine
  8
0
 62
256
370
-1
 48
1.0
  6
BYLAYER
 10
139.6707108609022612
 20
124.3632362788613221
 30
0.0
 11
138.3533756470731078
 21
122.4818866190191642
 31
0.0
  0
LINE
  5
135
100
AcDbEntity
100
AcDbLine
  8
0
 62
256
370
-1
 48
1.0
  6
BYLAYER
 10
138.3533756470731078
 20
122.4818866190191642
 30
0.0
 11
151.4598083556969357
 21
113.3046636374024985
 31
0.0
  0
LINE
  5
136
100
AcDbEntity
100
AcDbLine
  8
0
 62
256
370
-1
 48
1.0
  6
BYLAYER
 10
151.4598083556969357
 20
113.3046636374024985
 30
0.0
 11
152.7771435695267428
 21
115.186013297244159
 31
0.0
  0
LINE
  5
137
100
AcDbEntity
100
AcDbLine
  8
0
 62
256
370
-1
 48
1.0
  6
BYLAYER
 10
152.7771435695264586
 20
115.1860132972443438
 30
0.0
 11
139.6707108609023464
 21
124.3632362788612653
 31
0.0
  0
LINE
  5
138
100
AcDbEntity
100
AcDbLine
  8
0
 62
256
370
-1
 48
1.0
  6
BYLAYER
 10
131.4704584108605729
 20
112.6520620875512719
 30
0.0
 11
130.3233055381584506
 21
111.0137579989733467
 31
0.0
  0
LINE
  5
139
100
AcDbEntity
100
AcDbLine
  8
0
 62
256
370
-1
 48
1.0
  6
BYLAYER
 10
130.3233055381584506
 20
111.0137579989733467
 30
0.0
 11
143.4297382467824491
 21
101.8365350173565105
 31
0.0
  0
LINE
  5
13A
100
AcDbEntity
100
AcDbLine
  8
0
 62
256
370
-1
 48
1.0
  6
BYLAYER
 10
143.4297382467824491
 20
101.8365350173565105
 30
0.0
 11
144.5768911194843724
 21
103.4748391059345494
 31
0.0
  0
LINE
  5
13B
100
AcDbEntity
100
AcDbLine
  8
0
 62
256
370
-1
 48
1.0
  6
BYLAYER
 10
144.5768911194843724
 20
103.4748391059345494
 30
0.0
 11
131.4704584108605729
 21
112.6520620875512861
 31
0.0
  0
ARC
  5
13C
100
AcDbEntity
  8
0
 62
256
370
-1
 48
1.0
  6
BYLAYER
100
AcDbCircle
 10
208.0
 20
208.0
 30
0.0
 40
108.0
100
AcDbArc
 50
239.2480226667285876
 51
250.7519773332714692
  0
ARC
  5
13D
100
AcDbEntity
  8
0
 62
256
370
-1
 48
1.0
  6
BYLAYER
100
AcDbCircle
 10
208.0
 20
208.0
 30
0.0
 40
108.0
100
AcDbArc
 50
259.2480226667286161
 51
280.7519773332713839
  0
ARC
  5
13E
100
AcDbEntity
  8
0
 62
256
370
-1
 48
1.0
  6
BYLAYER
100
AcDbCircle
 10
208.0
 20
208.0
 30
0.0
 40
108.0
100
AcDbArc
 50
289.2480226667285592
 51
300.7519773332713839
  0
ARC
  5
13F
100
AcDbEntity
  8
0
 62
256
370
-1
 48
1.0
  6
BYLAYER
100
AcDbCircle
 10
208.0
 20
208.0
 30
0.0
 40
108.0
100
AcDbArc
 50
309.2480226667285024
 51
322.5513426042146534
  0
ARC
  5
140
100
AcDbEntity
  8
0
 62
256
370
-1
 48
1.0
  6
BYLAYER
100
AcDbCircle
 10
208.0
 20
208.0
 30
0.0
 40
108.0
100
AcDbArc
 50
217.4481905610411445
 51
230.7519773332713271
  0
ARC
  5
141
100
AcDbEntity
  8
0
 62
256
370
-1
 48
1.0
  6
BYLAYER
100
AcDbCircle
 10
208.0
 20
208.0
 30
0.0
 40
108.0
100
AcDbArc
 50
337.4481905610410308
 51
82.5513426042146108
  0
ARC
  5
142
100
AcDbEntity
  8
0
 62
256
370
-1
 48
1.0
  6
BYLAYER
100
AcDbCircle
 10
208.0
 20
208.0
 30
0.0
 40
108.0
100
AcDbArc
 50
97.4481905610411729
 51
202.5513426042145682
  0
ELLIPSE
  5
143
100
AcDbEntity
100
AcDbEllipse
  8
pipe
 62
256
370
-1
 48
1.0
  6
BYLAYER
 10
162.9999999999999432
 20
285.9422863405994804
 30
0.0
 11
-5.6582342797051215
 21
11.1868880979380325
 31
0.0
 40
0.7940114791779921
 41
4.7123889803846897
 42
5.9133174914062829
  0
LINE
  5
144
100
AcDbEntity
100
AcDbLine
  8
pipe
 62
256
370
-1
 48
1.0
  6
BYLAYER
 10
161.0604454528616998
 20
298.0
 30
0.0
 11
24.0
 21
298.0
 31
0.0
  0
LINE
  5
145
100
AcDbEntity
100
AcDbLine
  8
0
 62
256
370
-1
 48
1.0
  6
BYLAYER
 10
100.0
 20
314.0
 30
0.0
 11
100.0
 21
282.0
 31
0.0
  0
LINE
  5
146
100
AcDbEntity
100
AcDbLine
  8
0
 62
256
370
-1
 48
1.0
  6
BYLAYER
 10
100.0
 20
282.0
 30
0.0
 11
56.0
 21
282.0
 31
0.0
  0
LINE
  5
147
100
AcDbEntity
100
AcDbLine
  8
0
 62
256
370
-1
 48
1.0
  6
BYLAYER
 10
56.0
 20
282.0
 30
0.0
 11
56.0
 21
314.0
 31
0.0
  0
LINE
  5
148
100
AcDbEntity
100
AcDbLine
  8
0
 62
256
370
-1
 48
1.0
  6
BYLAYER
 10
56.0
 20
314.0
 30
0.0
 11
100.0
 21
314.0
 31
0.0
  0
LINE
  5
149
100
AcDbEntity
100
AcDbLine
  8
0
 62
256
370
-1
 48
1.0
  6
BYLAYER
 10
60.0
 20
286.0
 30
0.0
 11
96.0
 21
310.0
 31
0.0
  0
LINE
  5
14A
100
AcDbEntity
100
AcDbLine
  8
0
 62
256
370
-1
 48
1.0
  6
BYLAYER
 10
96.0
 20
310.0
 30
0.0
 11
92.0
 21
310.0
 31
0.0
  0
LINE
  5
14B
100
AcDbEntity
100
AcDbLine
  8
0
 62
256
370
-1
 48
1.0
  6
BYLAYER
 10
94.5204272526879095
 20
306.4621330295915982
 30
0.0
 11
96.0
 21
310.0
 31
0.0
  0
ELLIPSE
  5
14C
100
AcDbEntity
100
AcDbEllipse
  8
0
 62
256
370
-1
 48
1.0
  6
BYLAYER
 10
78.0
 20
310.7070922760936469
 30
0.0
 11
24.0
 21
0.0
 31
0.0
 40
0.5
 41
3.8682349942715186
 42
5.5565429664978607
  0
ELLIPSE
  5
14D
100
AcDbEntity
100
AcDbEllipse
  8
0
 62
256
370
-1
 48
1.0
  6
BYLAYER
 10
78.0
 20
285.2929077239063531
 30
0.0
 11
24.0
 21
0.0
 31
0.0
 40
0.5
 41
0.7266423406817247
 42
2.4149503129080685
  0
LINE
  5
14E
100
AcDbEntity
100
AcDbLine
  8
pipe
 62
256
370
-1
 48
1.0
  6
BYLAYER
 10
262.0000000000000568
 20
42.0
 30
0.0
 11
110.0
 21
42.0
 31
0.0
  0
LINE
  5
14F
100
AcDbEntity
100
AcDbLine
  8
0
 62
256
370
-1
 48
1.0
  6
BYLAYER
 10
188.0
 20
58.0
 30
0.0
 11
188.0
 21
26.0
 31
0.0
  0
LINE
  5
150
100
AcDbEntity
100
AcDbLine
  8
0
 62
256
370
-1
 48
1.0
  6
BYLAYER
 10
188.0
 20
26.0
 30
0.0
 11
144.0
 21
26.0
 31
0.0
  0
LINE
  5
151
100
AcDbEntity
100
AcDbLine
  8
0
 62
256
370
-1
 48
1.0
  6
BYLAYER
 10
144.0
 20
26.0
 30
0.0
 11
144.0
 21
58.0
 31
0.0
  0
LINE
  5
152
100
AcDbEntity
100
AcDbLine
  8
0
 62
256
370
-1
 48
1.0
  6
BYLAYER
 10
144.0
 20
58.0
 30
0.0
 11
188.0
 21
58.0
 31
0.0
  0
LINE
  5
153
100
AcDbEntity
100
AcDbLine
  8
0
 62
256
370
-1
 48
1.0
  6
BYLAYER
 10
148.0
 20
30.0
 30
0.0
 11
184.0
 21
54.0
 31
0.0
  0
LINE
  5
154
100
AcDbEntity
100
AcDbLine
  8
0
 62
256
370
-1
 48
1.0
  6
BYLAYER
 10
184.0
 20
54.0
 30
0.0
 11
180.0
 21
54.0
 31
0.0
  0
LINE
  5
155
100
AcDbEntity
100
AcDbLine
  8
0
 62
256
370
-1
 48
1.0
  6
BYLAYER
 10
182.5204272526879095
 20
50.4621330295915982
 30
0.0
 11
184.0
 21
54.0
 31
0.0
  0
ELLIPSE
  5
156
100
AcDbEntity
100
AcDbEllipse
  8
0
 62
256
370
-1
 48
1.0
  6
BYLAYER
 10
166.0
 20
54.7070922760936469
 30
0.0
 11
24.0
 21
0.0
 31
0.0
 40
0.5
 41
3.8682349942715186
 42
5.5565429664978607
  0
ELLIPSE
  5
157
100
AcDbEntity
100
AcDbEllipse
  8
0
 62
256
370
-1
 48
1.0
  6
BYLAYER
 10
166.0
 20
29.2929077239063531
 30
0.0
 11
24.0
 21
0.0
 31
0.0
 40
0.5
 41
0.7266423406817247
 42
2.4149503129080685
  0
LINE
  5
158
100
AcDbEntity
100
AcDbLine
  8
pipe
 62
256
370
-1
 48
1.0
  6
BYLAYER
 10
208.0
 20
42.0
 30
0.0
 11
208.0
 21
80.0
 31
0.0
  0
LINE
  5
159
100
AcDbEntity
100
AcDbLine
  8
pipe
 62
256
370
-1
 48
1.0
  6
BYLAYER
 10
279.1234781075295359
 20
106.4251465081649144
 30
0.0
 11
279.1234781075295359
 21
80.0
 31
0.0
  0
LINE
  5
15A
100
AcDbEntity
100
AcDbLine
  8
pipe
 62
256
370
-1
 48
1.0
  6
BYLAYER
 10
240.0935615927124616
 20
88.2251975401555057
 30
0.0
 11
240.0935615927124616
 21
80.0
 31
0.0
  0
LINE
  5
15B
100
AcDbEntity
100
AcDbLine
  8
pipe
 62
256
370
-1
 48
1.0
  6
BYLAYER
 10
175.9064384072874532
 20
88.2251975401555342
 30
0.0
 11
175.9064384072874532
 21
80.0
 31
0.0
  0
LINE
  5
15C
100
AcDbEntity
100
AcDbLine
  8
pipe
 62
256
370
-1
 48
1.0
  6
BYLAYER
 10
136.8765218924704641
 20
106.4251465081649428
 30
0.0
 11
136.8765218924704641
 21
80.0
 31
0.0
  0
LINE
  5
15D
100
AcDbEntity
100
AcDbLine
  8
pipe
 62
256
370
-1
 48
1.0
  6
BYLAYER
 10
136.8765218924704641
 20
80.0
 30
0.0
 11
279.1234781075295928
 21
80.0
 31
0.0
  0
LINE
  5
15E
100
AcDbEntity
100
AcDbLine
  8
0
 62
256
370
-1
 48
1.0
  6
BYLAYER
 10
24.0
 20
314.0
 30
0.0
 11
24.0
 21
282.0
 31
0.0
  0
LINE
  5
15F
100
AcDbEntity
100
AcDbLine
  8
0
 62
256
370
-1
 48
1.0
  6
BYLAYER
 10
24.0
 20
314.0
 30
0.0
 11
-8.0
 21
314.0
 31
0.0
  0
LINE
  5
160
100
AcDbEntity
100
AcDbLine
  8
0
 62
256
370
-1
 48
1.0
  6
BYLAYER
 10
-8.0
 20
314.0
 30
0.0
 11
-8.0
 21
282.0
 31
0.0
  0
LINE
  5
161
100
AcDbEntity
100
AcDbLine
  8
0
 62
256
370
-1
 48
1.0
  6
BYLAYER
 10
-8.0
 20
282.0
 30
0.0
 11
24.0
 21
282.0
 31
0.0
  0
LINE
  5
162
100
AcDbEntity
100
AcDbLine
  8
0
 62
256
370
-1
 48
1.0
  6
BYLAYER
 10
-8.0
 20
288.0
 30
0.0
 11
18.0
 21
288.0
 31
0.0
  0
LINE
  5
163
100
AcDbEntity
100
AcDbLine
  8
0
 62
256
370
-1
 48
1.0
  6
BYLAYER
 10
24.0
 20
288.0
 30
0.0
 11
18.0
 21
290.0
 31
0.0
  0
LINE
  5
164
100
AcDbEntity
100
AcDbLine
  8
0
 62
256
370
-1
 48
1.0
  6
BYLAYER
 10
18.0
 20
290.0
 30
0.0
 11
18.0
 21
286.0
 31
0.0
  0
LINE
  5
165
100
AcDbEntity
100
AcDbLine
  8
0
 62
256
370
-1
 48
1.0
  6
BYLAYER
 10
18.0
 20
286.0
 30
0.0
 11
24.0
 21
288.0
 31
0.0
  0
HATCH
  5
166
  8
0
 62
256
370
-1
 48
1.0
  6
BYLAYER
100
AcDbEntity
100
AcDbHatch
 10
0.0
 20
0.0
 30
0.0
210
0.0
220
0.0
230
1.0
  2
SOLID
 70
1
 71
0
 91
1
 92
1
 93
3
 72
1
 10
24.0
 20
288.0
 11
18.0
 21
290.0
 72
1
 10
18.0
 20
290.0
 11
18.0
 21
286.0
 72
1
 10
18.0
 20
286.0
 11
24.0
 21
288.0
 97
0
 75
0
 76
1
 98
0
1001
ACAD
1010
0.0
1020
0.0
1030
0
  0
HATCH
  5
167
  8
0
 62
256
370
-1
 48
1.0
  6
BYLAYER
100
AcDbEntity
100
AcDbHatch
 10
0.0
 20
0.0
 30
0.0
210
0.0
220
0.0
230
1.0
  2
SOLID
 70
1
 71
0
 91
1
 92
1
 93
3
 72
1
 10
-8.0
 20
288.0
 11
-2.0
 21
290.0
 72
1
 10
-2.0
 20
290.0
 11
-2.0
 21
286.0
 72
1
 10
-2.0
 20
286.0
 11
-8.0
 21
288.0
 97
0
 75
0
 76
1
 98
0
1001
ACAD
1010
0.0
1020
0.0
1030
0
  0
LINE
  5
168
100
AcDbEntity
100
AcDbLine
  8
0
 62
256
370
-1
 48
1.0
  6
BYLAYER
 10
-8.0
 20
288.0
 30
0.0
 11
-2.0
 21
290.0
 31
0.0
  0
LINE
  5
169
100
AcDbEntity
100
AcDbLine
  8
0
 62
256
370
-1
 48
1.0
  6
BYLAYER
 10
-2.0
 20
290.0
 30
0.0
 11
-2.0
 21
286.0
 31
0.0
  0
LINE
  5
16A
100
AcDbEntity
100
AcDbLine
  8
0
 62
256
370
-1
 48
1.0
  6
BYLAYER
 10
-2.0
 20
286.0
 30
0.0
 11
-8.0
 21
288.0
 31
0.0
  0
LINE
  5
16B
100
AcDbEntity
100
AcDbLine
  8
pipe
 62
256
370
-1
 48
1.0
  6
BYLAYER
 10
32.0
 20
298.0
 30
0.0
 11
32.0
 21
276.0
 31
0.0
  0
LINE
  5
16C
100
AcDbEntity
100
AcDbLine
  8
pipe
 62
256
370
-1
 48
1.0
  6
BYLAYER
 10
32.0
 20
276.0
 30
0.0
 11
8.0
 21
276.0
 31
0.0
  0
LINE
  5
16D
100
AcDbEntity
100
AcDbLine
  8
pipe
 62
256
370
-1
 48
1.0
  6
BYLAYER
 10
8.0
 20
276.0
 30
0.0
 11
8.0
 21
282.0
 31
0.0
  0
LINE
  5
16E
100
AcDbEntity
100
AcDbLine
  8
0
 62
256
370
-1
 48
1.0
  6
BYLAYER
 10
14.0
 20
320.0
 30
0.0
 11
2.0
 21
324.0
 31
0.0
  0
LINE
  5
16F
100
AcDbEntity
100
AcDbLine
  8
0
 62
256
370
-1
 48
1.0
  6
BYLAYER
 10
-3.3151940466669316
 20
318.1035513168806688
 30
0.0
 11
20.0
 21
326.0
 31
0.0
  0
LINE
  5
170
100
AcDbEntity
100
AcDbLine
  8
0
 62
256
370
-1
 48
1.0
  6
BYLAYER
 10
20.0
 20
326.0
 30
0.0
 11
17.1841988357147528
 21
325.9879547723502355
 31
0.0
  0
LINE
  5
171
100
AcDbEntity
100
AcDbLine
  8
0
 62
256
370
-1
 48
1.0
  6
BYLAYER
 10
17.1841988357147528
 20
325.9879547723502355
 30
0.0
 11
18.0333965964840957
 21
324.4265266315808276
 31
0.0
  0
LINE
  5
172
100
AcDbEntity
100
AcDbLine
  8
0
 62
256
370
-1
 48
1.0
  6
BYLAYER
 10
18.0333965964840957
 20
324.4265266315808276
 30
0.0
 11
19.9999999999999716
 21
326.0
 31
0.0
  0
HATCH
  5
173
  8
0
 62
256
370
-1
 48
1.0
  6
BYLAYER
100
AcDbEntity
100
AcDbHatch
 10
0.0
 20
0.0
 30
0.0
210
0.0
220
0.0
230
1.0
  2
SOLID
 70
1
 71
0
 91
1
 92
1
 93
3
 72
1
 10
20.0
 20
326.0
 11
17.1841988357147528
 21
325.9879547723502355
 72
1
 10
17.1841988357147528
 20
325.9879547723502355
 11
18.0333965964840957
 21
324.4265266315808276
 72
1
 10
18.0333965964840957
 20
324.4265266315808276
 11
19.9999999999999716
 21
326.0
 97
0
 75
0
 76
1
 98
0
1001
ACAD
1010
0.0
1020
0.0
1030
0
  0
LINE
  5
174
100
AcDbEntity
100
AcDbLine
  8
0
 62
256
370
-1
 48
1.0
  6
BYLAYER
 10
-8.0
 20
312.0
 30
0.0
 11
-12.0
 21
308.0
 31
0.0
  0
LINE
  5
175
100
AcDbEntity
100
AcDbLine
  8
0
 62
256
370
-1
 48
1.0
  6
BYLAYER
 10
-12.0
 20
308.0
 30
0.0
 11
-8.0
 21
304.0
 31
0.0
  0
LINE
  5
176
100
AcDbEntity
100
AcDbLine
  8
0
 62
256
370
-1
 48
1.0
  6
BYLAYER
 10
2.0
 20
328.0
 30
0.0
 11
2.0
 21
314.0
 31
0.0
  0
LINE
  5
177
100
AcDbEntity
100
AcDbLine
  8
0
 62
256
370
-1
 48
1.0
  6
BYLAYER
 10
2.0
 20
314.0
 30
0.0
 11
14.0
 21
314.0
 31
0.0
  0
LINE
  5
178
100
AcDbEntity
100
AcDbLine
  8
0
 62
256
370
-1
 48
1.0
  6
BYLAYER
 10
14.0
 20
314.0
 30
0.0
 11
14.0
 21
328.0
 31
0.0
  0
LINE
  5
179
100
AcDbEntity
100
AcDbLine
  8
0
 62
256
370
-1
 48
1.0
  6
BYLAYER
 10
14.0
 20
328.0
 30
0.0
 11
2.0
 21
328.0
 31
0.0
  0
LINE
  5
17A
100
AcDbEntity
100
AcDbLine
  8
0
 62
256
370
-1
 48
1.0
  6
BYLAYER
 10
70.0
 20
140.0
 30
0.0
 11
70.0
 21
108.0000000000000142
 31
0.0
  0
LINE
  5
17B
100
AcDbEntity
100
AcDbLine
  8
0
 62
256
370
-1
 48
1.0
  6
BYLAYER
 10
70.0
 20
108.0000000000000142
 30
0.0
 11
38.0
 21
108.0000000000000142
 31
0.0
  0
LINE
  5
17C
100
AcDbEntity
100
AcDbLine
  8
0
 62
256
370
-1
 48
1.0
  6
BYLAYER
 10
38.0
 20
108.0000000000000142
 30
0.0
 11
38.0
 21
140.0
 31
0.0
  0
LINE
  5
17D
100
AcDbEntity
100
AcDbLine
  8
0
 62
256
370
-1
 48
1.0
  6
BYLAYER
 10
38.0
 20
140.0
 30
0.0
 11
70.0
 21
140.0
 31
0.0
  0
LINE
  5
17E
100
AcDbEntity
100
AcDbLine
  8
0
 62
256
370
-1
 48
1.0
  6
BYLAYER
 10
70.0
 20
108.0000000000000142
 30
0.0
 11
70.0
 21
76.0000000000000142
 31
0.0
  0
LINE
  5
17F
100
AcDbEntity
100
AcDbLine
  8
0
 62
256
370
-1
 48
1.0
  6
BYLAYER
 10
70.0
 20
76.0000000000000142
 30
0.0
 11
38.0
 21
76.0000000000000142
 31
0.0
  0
LINE
  5
180
100
AcDbEntity
100
AcDbLine
  8
0
 62
256
370
-1
 48
1.0
  6
BYLAYER
 10
38.0
 20
76.0000000000000142
 30
0.0
 11
38.0
 21
108.0000000000000142
 31
0.0
  0
LINE
  5
181
100
AcDbEntity
100
AcDbLine
  8
0
 62
256
370
-1
 48
1.0
  6
BYLAYER
 10
38.0
 20
134.0
 30
0.0
 11
42.0
 21
134.0
 31
0.0
  0
LINE
  5
182
100
AcDbEntity
100
AcDbLine
  8
0
 62
256
370
-1
 48
1.0
  6
BYLAYER
 10
42.0
 20
136.0
 30
0.0
 11
42.0
 21
132.0
 31
0.0
  0
LINE
  5
183
100
AcDbEntity
100
AcDbLine
  8
0
 62
256
370
-1
 48
1.0
  6
BYLAYER
 10
38.0
 20
82.0000000000000142
 30
0.0
 11
42.0
 21
82.0000000000000142
 31
0.0
  0
LINE
  5
184
100
AcDbEntity
100
AcDbLine
  8
0
 62
256
370
-1
 48
1.0
  6
BYLAYER
 10
42.0
 20
84.0000000000000142
 30
0.0
 11
42.0
 21
80.0000000000000142
 31
0.0
  0
LINE
  5
185
100
AcDbEntity
100
AcDbLine
  8
0
 62
256
370
-1
 48
1.0
  6
BYLAYER
 10
70.0
 20
134.0
 30
0.0
 11
38.0
 21
116.0000000000000142
 31
0.0
  0
LINE
  5
186
100
AcDbEntity
100
AcDbLine
  8
0
 62
256
370
-1
 48
1.0
  6
BYLAYER
 10
38.0
 20
116.0000000000000142
 30
0.0
 11
40.0
 21
120.0000000000000142
 31
0.0
  0
LINE
  5
187
100
AcDbEntity
100
AcDbLine
  8
0
 62
256
370
-1
 48
1.0
  6
BYLAYER
 10
40.0
 20
120.0000000000000142
 30
0.0
 11
42.1100124533056857
 21
116.2494361547561681
 31
0.0
  0
LINE
  5
188
100
AcDbEntity
100
AcDbLine
  8
0
 62
256
370
-1
 48
1.0
  6
BYLAYER
 10
42.1100124533056857
 20
116.2494361547561681
 30
0.0
 11
38.0
 21
116.0000000000000142
 31
0.0
  0
HATCH
  5
189
  8
0
 62
256
370
-1
 48
1.0
  6
BYLAYER
100
AcDbEntity
100
AcDbHatch
 10
0.0
 20
0.0
 30
0.0
210
0.0
220
0.0
230
1.0
  2
SOLID
 70
1
 71
0
 91
1
 92
1
 93
3
 72
1
 10
38.0
 20
116.0000000000000142
 11
40.0
 21
120.0000000000000142
 72
1
 10
40.0
 20
120.0000000000000142
 11
42.1100124533056857
 21
116.2494361547561681
 72
1
 10
42.1100124533056857
 20
116.2494361547561681
 11
38.0
 21
116.0000000000000142
 97
0
 75
0
 76
1
 98
0
1001
ACAD
1010
0.0
1020
0.0
1030
0
  0
LINE
  5
18A
100
AcDbEntity
100
AcDbLine
  8
0
 62
256
370
-1
 48
1.0
  6
BYLAYER
 10
70.0
 20
134.0
 30
0.0
 11
66.0
 21
134.0
 31
0.0
  0
LINE
  5
18B
100
AcDbEntity
100
AcDbLine
  8
0
 62
256
370
-1
 48
1.0
  6
BYLAYER
 10
66.0
 20
134.0
 30
0.0
 11
68.11974069499405
 21
130.5979950848333146
 31
0.0
  0
LINE
  5
18C
100
AcDbEntity
100
AcDbLine
  8
0
 62
256
370
-1
 48
1.0
  6
BYLAYER
 10
68.11974069499405
 20
130.5979950848333146
 30
0.0
 11
70.0
 21
134.0
 31
0.0
  0
HATCH
  5
18D
  8
0
 62
256
370
-1
 48
1.0
  6
BYLAYER
100
AcDbEntity
100
AcDbHatch
 10
0.0
 20
0.0
 30
0.0
210
0.0
220
0.0
230
1.0
  2
SOLID
 70
1
 71
0
 91
1
 92
1
 93
3
 72
1
 10
66.0
 20
134.0
 11
68.11974069499405
 21
130.5979950848333146
 72
1
 10
68.11974069499405
 20
130.5979950848333146
 11
70.0
 21
134.0
 72
1
 10
70.0
 20
134.0
 11
66.0
 21
134.0
 97
0
 75
0
 76
1
 98
0
1001
ACAD
1010
0.0
1020
0.0
1030
0
  0
LINE
  5
18E
100
AcDbEntity
100
AcDbLine
  8
0
 62
256
370
-1
 48
1.0
  6
BYLAYER
 10
38.0000000000000355
 20
100.0000000000000284
 30
0.0
 11
64.0000000000000426
 21
100.0000000000000284
 31
0.0
  0
LINE
  5
18F
100
AcDbEntity
100
AcDbLine
  8
0
 62
256
370
-1
 48
1.0
  6
BYLAYER
 10
70.0000000000000426
 20
100.0000000000000284
 30
0.0
 11
64.0000000000000426
 21
102.0000000000000284
 31
0.0
  0
LINE
  5
190
100
AcDbEntity
100
AcDbLine
  8
0
 62
256
370
-1
 48
1.0
  6
BYLAYER
 10
64.0
 20
102.0000000000000142
 30
0.0
 11
64.0
 21
98.0000000000000142
 31
0.0
  0
LINE
  5
191
100
AcDbEntity
100
AcDbLine
  8
0
 62
256
370
-1
 48
1.0
  6
BYLAYER
 10
64.0
 20
98.0000000000000142
 30
0.0
 11
70.0
 21
100.0000000000000142
 31
0.0
  0
HATCH
  5
192
  8
0
 62
256
370
-1
 48
1.0
  6
BYLAYER
100
AcDbEntity
100
AcDbHatch
 10
0.0
 20
0.0
 30
0.0
210
0.0
220
0.0
230
1.0
  2
SOLID
 70
1
 71
0
 91
1
 92
1
 93
3
 72
1
 10
70.0
 20
100.0000000000000142
 11
64.0
 21
102.0000000000000142
 72
1
 10
64.0
 20
102.0000000000000142
 11
64.0
 21
98.0000000000000142
 72
1
 10
64.0
 20
98.0000000000000142
 11
70.0
 21
100.0000000000000142
 97
0
 75
0
 76
1
 98
0
1001
ACAD
1010
0.0
1020
0.0
1030
0
  0
HATCH
  5
193
  8
0
 62
256
370
-1
 48
1.0
  6
BYLAYER
100
AcDbEntity
100
AcDbHatch
 10
0.0
 20
0.0
 30
0.0
210
0.0
220
0.0
230
1.0
  2
SOLID
 70
1
 71
0
 91
1
 92
1
 93
3
 72
1
 10
38.0
 20
100.0000000000000142
 11
44.0
 21
102.0000000000000142
 72
1
 10
44.0
 20
102.0000000000000142
 11
44.0
 21
98.0000000000000142
 72
1
 10
44.0
 20
98.0000000000000142
 11
38.0
 21
100.0000000000000142
 97
0
 75
0
 76
1
 98
0
1001
ACAD
1010
0.0
1020
0.0
1030
0
  0
LINE
  5
194
100
AcDbEntity
100
AcDbLine
  8
0
 62
256
370
-1
 48
1.0
  6
BYLAYER
 10
38.0000000000000355
 20
100.0000000000000284
 30
0.0
 11
44.0000000000000355
 21
102.0000000000000284
 31
0.0
  0
LINE
  5
195
100
AcDbEntity
100
AcDbLine
  8
0
 62
256
370
-1
 48
1.0
  6
BYLAYER
 10
44.0
 20
102.0000000000000142
 30
0.0
 11
44.0
 21
98.0000000000000142
 31
0.0
  0
LINE
  5
196
100
AcDbEntity
100
AcDbLine
  8
0
 62
256
370
-1
 48
1.0
  6
BYLAYER
 10
44.0
 20
98.0000000000000142
 30
0.0
 11
38.0
 21
100.0000000000000142
 31
0.0
  0
LINE
  5
197
100
AcDbEntity
100
AcDbLine
  8
0
 62
256
370
-1
 48
1.0
  6
BYLAYER
 10
46.0
 20
140.0
 30
0.0
 11
46.0
 21
154.0
 31
0.0
  0
LINE
  5
198
100
AcDbEntity
100
AcDbLine
  8
0
 62
256
370
-1
 48
1.0
  6
BYLAYER
 10
46.0
 20
154.0
 30
0.0
 11
52.0
 21
154.0
 31
0.0
  0
LINE
  5
199
100
AcDbEntity
100
AcDbLine
  8
0
 62
256
370
-1
 48
1.0
  6
BYLAYER
 10
52.0
 20
154.0
 30
0.0
 11
52.0
 21
140.0
 31
0.0
  0
LINE
  5
19A
100
AcDbEntity
100
AcDbLine
  8
0
 62
256
370
-1
 48
1.0
  6
BYLAYER
 10
46.0
 20
150.0
 30
0.0
 11
52.0
 21
146.0
 31
0.0
  0
LINE
  5
19B
100
AcDbEntity
100
AcDbLine
  8
0
 62
256
370
-1
 48
1.0
  6
BYLAYER
 10
50.0
 20
76.0000000000000142
 30
0.0
 11
58.0
 21
74.0000000000000142
 31
0.0
  0
LINE
  5
19C
100
AcDbEntity
100
AcDbLine
  8
0
 62
256
370
-1
 48
1.0
  6
BYLAYER
 10
58.0
 20
74.0000000000000142
 30
0.0
 11
50.0
 21
72.0000000000000142
 31
0.0
  0
LINE
  5
19D
100
AcDbEntity
100
AcDbLine
  8
0
 62
256
370
-1
 48
1.0
  6
BYLAYER
 10
50.0
 20
72.0000000000000142
 30
0.0
 11
58.0
 21
70.0000000000000142
 31
0.0
  0
LINE
  5
19E
100
AcDbEntity
100
AcDbLine
  8
0
 62
256
370
-1
 48
1.0
  6
BYLAYER
 10
58.0
 20
70.0000000000000142
 30
0.0
 11
50.0
 21
68.0000000000000142
 31
0.0
  0
LINE
  5
19F
100
AcDbEntity
100
AcDbLine
  8
0
 62
256
370
-1
 48
1.0
  6
BYLAYER
 10
50.0
 20
68.0000000000000142
 30
0.0
 11
58.0
 21
66.0000000000000142
 31
0.0
  0
LINE
  5
1A0
100
AcDbEntity
100
AcDbLine
  8
0
 62
256
370
-1
 48
1.0
  6
BYLAYER
 10
48.0
 20
52.0000000000000142
 30
0.0
 11
16.0
 21
52.0000000000000142
 31
0.0
  0
LINE
  5
1A1
100
AcDbEntity
100
AcDbLine
  8
0
 62
256
370
-1
 48
1.0
  6
BYLAYER
 10
48.0
 20
52.0000000000000142
 30
0.0
 11
48.0
 21
20.0000000000000142
 31
0.0
  0
LINE
  5
1A2
100
AcDbEntity
100
AcDbLine
  8
0
 62
256
370
-1
 48
1.0
  6
BYLAYER
 10
48.0
 20
20.0000000000000142
 30
0.0
 11
16.0
 21
20.0000000000000142
 31
0.0
  0
LINE
  5
1A3
100
AcDbEntity
100
AcDbLine
  8
0
 62
256
370
-1
 48
1.0
  6
BYLAYER
 10
16.0
 20
20.0000000000000142
 30
0.0
 11
16.0
 21
52.0000000000000142
 31
0.0
  0
LINE
  5
1A4
100
AcDbEntity
100
AcDbLine
  8
pipe
 62
256
370
-1
 48
1.0
  6
BYLAYER
 10
38.0
 20
82.0000000000000142
 30
0.0
 11
32.0
 21
82.0000000000000142
 31
0.0
  0
LINE
  5
1A5
100
AcDbEntity
100
AcDbLine
  8
pipe
 62
256
370
-1
 48
1.0
  6
BYLAYER
 10
32.0
 20
82.0000000000000142
 30
0.0
 11
32.0
 21
52.0000000000000142
 31
0.0
  0
LINE
  5
1A6
100
AcDbEntity
100
AcDbLine
  8
0
 62
256
370
-1
 48
1.0
  6
BYLAYER
 10
48.0
 20
36.0000000000000142
 30
0.0
 11
40.0
 21
42.0000000000000142
 31
0.0
  0
LINE
  5
1A7
100
AcDbEntity
100
AcDbLine
  8
0
 62
256
370
-1
 48
1.0
  6
BYLAYER
 10
40.0
 20
42.0000000000000142
 30
0.0
 11
40.0033626917251297
 21
29.7345951041203023
 31
0.0
  0
LINE
  5
1A8
100
AcDbEntity
100
AcDbLine
  8
0
 62
256
370
-1
 48
1.0
  6
BYLAYER
 10
40.0033626917251297
 20
29.7345951041203023
 30
0.0
 11
48.0
 21
36.0000000000000142
 31
0.0
  0
LINE
  5
1A9
100
AcDbEntity
100
AcDbLine
  8
0
 62
256
370
-1
 48
1.0
  6
BYLAYER
 10
40.0016449640694276
 20
36.0000000000000142
 30
0.0
 11
16.0
 21
36.0000000000000142
 31
0.0
  0
LINE
  5
1AA
100
AcDbEntity
100
AcDbLine
  8
pipe
 62
256
370
-1
 48
1.0
  6
BYLAYER
 10
48.0
 20
36.0000000000000142
 30
0.0
 11
64.0
 21
36.0000000000000142
 31
0.0
  0
LINE
  5
1AB
100
AcDbEntity
100
AcDbLine
  8
0
 62
256
370
-1
 48
1.0
  6
BYLAYER
 10
64.0
 20
36.0000000000000142
 30
0.0
 11
64.0
 21
44.0000000000000142
 31
0.0
  0
LINE
  5
1AC
100
AcDbEntity
100
AcDbLine
  8
0
 62
256
370
-1
 48
1.0
  6
BYLAYER
 10
64.0
 20
44.0000000000000142
 30
0.0
 11
90.0
 21
44.0000000000000142
 31
0.0
  0
LINE
  5
1AD
100
AcDbEntity
100
AcDbLine
  8
0
 62
256
370
-1
 48
1.0
  6
BYLAYER
 10
90.0
 20
44.0000000000000142
 30
0.0
 11
98.0
 21
36.0000000000000142
 31
0.0
  0
LINE
  5
1AE
100
AcDbEntity
100
AcDbLine
  8
0
 62
256
370
-1
 48
1.0
  6
BYLAYER
 10
98.0
 20
36.0000000000000142
 30
0.0
 11
90.0
 21
28.0000000000000142
 31
0.0
  0
LINE
  5
1AF
100
AcDbEntity
100
AcDbLine
  8
0
 62
256
370
-1
 48
1.0
  6
BYLAYER
 10
90.0
 20
28.0000000000000142
 30
0.0
 11
64.0
 21
28.0000000000000142
 31
0.0
  0
LINE
  5
1B0
100
AcDbEntity
100
AcDbLine
  8
0
 62
256
370
-1
 48
1.0
  6
BYLAYER
 10
64.0
 20
28.0000000000000142
 30
0.0
 11
64.0
 21
36.0000000000000142
 31
0.0
  0
LINE
  5
1B1
100
AcDbEntity
100
AcDbLine
  8
0
 62
256
370
-1
 48
1.0
  6
BYLAYER
 10
90.0
 20
44.0000000000000142
 30
0.0
 11
90.0
 21
28.0000000000000142
 31
0.0
  0
LINE
  5
1B2
100
AcDbEntity
100
AcDbLine
  8
0
 62
256
370
-1
 48
1.0
  6
BYLAYER
 10
70.0
 20
34.0000000000000142
 30
0.0
 11
70.0
 21
28.0000000000000142
 31
0.0
  0
LINE
  5
1B3
100
AcDbEntity
100
AcDbLine
  8
0
 62
256
370
-1
 48
1.0
  6
BYLAYER
 10
76.0
 20
44.0000000000000142
 30
0.0
 11
76.0
 21
38.0000000000000142
 31
0.0
  0
LINE
  5
1B4
100
AcDbEntity
100
AcDbLine
  8
0
 62
256
370
-1
 48
1.0
  6
BYLAYER
 10
82.0
 20
28.0000000000000142
 30
0.0
 11
82.0
 21
34.0000000000000142
 31
0.0
  0
LINE
  5
1B5
100
AcDbEntity
100
AcDbLine
  8
0
 62
256
370
-1
 48
1.0
  6
BYLAYER
 10
-6.0
 20
76.0000000000000142
 30
0.0
 11
-6.0
 21
44.0000000000000142
 31
0.0
  0
LINE
  5
1B6
100
AcDbEntity
100
AcDbLine
  8
0
 62
256
370
-1
 48
1.0
  6
BYLAYER
 10
-6.0
 20
44.0000000000000142
 30
0.0
 11
-38.0
 21
44.0000000000000142
 31
0.0
  0
LINE
  5
1B7
100
AcDbEntity
100
AcDbLine
  8
0
 62
256
370
-1
 48
1.0
  6
BYLAYER
 10
-38.0
 20
44.0000000000000142
 30
0.0
 11
-38.0
 21
76.0000000000000142
 31
0.0
  0
LINE
  5
1B8
100
AcDbEntity
100
AcDbLine
  8
0
 62
256
370
-1
 48
1.0
  6
BYLAYER
 10
-38.0
 20
76.0000000000000142
 30
0.0
 11
-6.0
 21
76.0000000000000142
 31
0.0
  0
LINE
  5
1B9
100
AcDbEntity
100
AcDbLine
  8
0
 62
256
370
-1
 48
1.0
  6
BYLAYER
 10
-6.0
 20
44.0000000000000142
 30
0.0
 11
-6.0
 21
12.0000000000000142
 31
0.0
  0
LINE
  5
1BA
100
AcDbEntity
100
AcDbLine
  8
0
 62
256
370
-1
 48
1.0
  6
BYLAYER
 10
-6.0
 20
12.0000000000000142
 30
0.0
 11
-38.0
 21
12.0000000000000142
 31
0.0
  0
LINE
  5
1BB
100
AcDbEntity
100
AcDbLine
  8
0
 62
256
370
-1
 48
1.0
  6
BYLAYER
 10
-38.0
 20
12.0000000000000142
 30
0.0
 11
-38.0
 21
44.0000000000000142
 31
0.0
  0
LINE
  5
1BC
100
AcDbEntity
100
AcDbLine
  8
0
 62
256
370
-1
 48
1.0
  6
BYLAYER
 10
-38.0
 20
70.0000000000000142
 30
0.0
 11
-34.0
 21
70.0000000000000142
 31
0.0
  0
LINE
  5
1BD
100
AcDbEntity
100
AcDbLine
  8
0
 62
256
370
-1
 48
1.0
  6
BYLAYER
 10
-34.0
 20
72.0000000000000142
 30
0.0
 11
-34.0
 21
68.0000000000000142
 31
0.0
  0
LINE
  5
1BE
100
AcDbEntity
100
AcDbLine
  8
0
 62
256
370
-1
 48
1.0
  6
BYLAYER
 10
-38.0
 20
18.0000000000000142
 30
0.0
 11
-34.0
 21
18.0000000000000142
 31
0.0
  0
LINE
  5
1BF
100
AcDbEntity
100
AcDbLine
  8
0
 62
256
370
-1
 48
1.0
  6
BYLAYER
 10
-34.0
 20
20.0000000000000142
 30
0.0
 11
-34.0
 21
16.0000000000000142
 31
0.0
  0
LINE
  5
1C0
100
AcDbEntity
100
AcDbLine
  8
0
 62
256
370
-1
 48
1.0
  6
BYLAYER
 10
-6.0
 20
70.0000000000000142
 30
0.0
 11
-38.0
 21
52.0000000000000142
 31
0.0
  0
LINE
  5
1C1
100
AcDbEntity
100
AcDbLine
  8
0
 62
256
370
-1
 48
1.0
  6
BYLAYER
 10
-38.0
 20
52.0000000000000142
 30
0.0
 11
-36.0
 21
56.0000000000000142
 31
0.0
  0
LINE
  5
1C2
100
AcDbEntity
100
AcDbLine
  8
0
 62
256
370
-1
 48
1.0
  6
BYLAYER
 10
-36.0
 20
56.0000000000000142
 30
0.0
 11
-33.8899875466943143
 21
52.2494361547561752
 31
0.0
  0
LINE
  5
1C3
100
AcDbEntity
100
AcDbLine
  8
0
 62
256
370
-1
 48
1.0
  6
BYLAYER
 10
-33.8899875466943143
 20
52.2494361547561752
 30
0.0
 11
-38.0
 21
52.0000000000000142
 31
0.0
  0
HATCH
  5
1C4
  8
0
 62
256
370
-1
 48
1.0
  6
BYLAYER
100
AcDbEntity
100
AcDbHatch
 10
0.0
 20
0.0
 30
0.0
210
0.0
220
0.0
230
1.0
  2
SOLID
 70
1
 71
0
 91
1
 92
1
 93
3
 72
1
 10
-38.0
 20
52.0000000000000142
 11
-36.0
 21
56.0000000000000142
 72
1
 10
-36.0
 20
56.0000000000000142
 11
-33.8899875466943143
 21
52.2494361547561752
 72
1
 10
-33.8899875466943143
 20
52.2494361547561752
 11
-38.0
 21
52.0000000000000142
 97
0
 75
0
 76
1
 98
0
1001
ACAD
1010
0.0
1020
0.0
1030
0
  0
LINE
  5
1C5
100
AcDbEntity
100
AcDbLine
  8
0
 62
256
370
-1
 48
1.0
  6
BYLAYER
 10
-6.0
 20
70.0000000000000142
 30
0.0
 11
-10.0
 21
70.0000000000000142
 31
0.0
  0
LINE
  5
1C6
100
AcDbEntity
100
AcDbLine
  8
0
 62
256
370
-1
 48
1.0
  6
BYLAYER
 10
-10.0
 20
70.0000000000000142
 30
0.0
 11
-7.88025930500595
 21
66.5979950848333289
 31
0.0
  0
LINE
  5
1C7
100
AcDbEntity
100
AcDbLine
  8
0
 62
256
370
-1
 48
1.0
  6
BYLAYER
 10
-7.88025930500595
 20
66.5979950848333289
 30
0.0
 11
-6.0
 21
70.0000000000000142
 31
0.0
  0
HATCH
  5
1C8
  8
0
 62
256
370
-1
 48
1.0
  6
BYLAYER
100
AcDbEntity
100
AcDbHatch
 10
0.0
 20
0.0
 30
0.0
210
0.0
220
0.0
230
1.0
  2
SOLID
 70
1
 71
0
 91
1
 92
1
 93
3
 72
1
 10
-10.0
 20
70.0000000000000142
 11
-7.88025930500595
 21
66.5979950848333289
 72
1
 10
-7.88025930500595
 20
66.5979950848333289
 11
-6.0
 21
70.0000000000000142
 72
1
 10
-6.0
 20
70.0000000000000142
 11
-10.0
 21
70.0000000000000142
 97
0
 75
0
 76
1
 98
0
1001
ACAD
1010
0.0
1020
0.0
1030
0
  0
LINE
  5
1C9
100
AcDbEntity
100
AcDbLine
  8
0
 62
256
370
-1
 48
1.0
  6
BYLAYER
 10
-38.0
 20
36.0000000000000142
 30
0.0
 11
-12.0
 21
36.0000000000000142
 31
0.0
  0
LINE
  5
1CA
100
AcDbEntity
100
AcDbLine
  8
0
 62
256
370
-1
 48
1.0
  6
BYLAYER
 10
-6.0
 20
36.0000000000000142
 30
0.0
 11
-12.0
 21
38.0000000000000142
 31
0.0
  0
LINE
  5
1CB
100
AcDbEntity
100
AcDbLine
  8
0
 62
256
370
-1
 48
1.0
  6
BYLAYER
 10
-12.0
 20
38.0000000000000142
 30
0.0
 11
-12.0
 21
34.0000000000000142
 31
0.0
  0
LINE
  5
1CC
100
AcDbEntity
100
AcDbLine
  8
0
 62
256
370
-1
 48
1.0
  6
BYLAYER
 10
-12.0
 20
34.0000000000000142
 30
0.0
 11
-6.0
 21
36.0000000000000142
 31
0.0
  0
HATCH
  5
1CD
  8
0
 62
256
370
-1
 48
1.0
  6
BYLAYER
100
AcDbEntity
100
AcDbHatch
 10
0.0
 20
0.0
 30
0.0
210
0.0
220
0.0
230
1.0
  2
SOLID
 70
1
 71
0
 91
1
 92
1
 93
3
 72
1
 10
-6.0
 20
36.0000000000000142
 11
-12.0
 21
38.0000000000000142
 72
1
 10
-12.0
 20
38.0000000000000142
 11
-12.0
 21
34.0000000000000142
 72
1
 10
-12.0
 20
34.0000000000000142
 11
-6.0
 21
36.0000000000000142
 97
0
 75
0
 76
1
 98
0
1001
ACAD
1010
0.0
1020
0.0
1030
0
  0
HATCH
  5
1CE
  8
0
 62
256
370
-1
 48
1.0
  6
BYLAYER
100
AcDbEntity
100
AcDbHatch
 10
0.0
 20
0.0
 30
0.0
210
0.0
220
0.0
230
1.0
  2
SOLID
 70
1
 71
0
 91
1
 92
1
 93
3
 72
1
 10
-38.0
 20
36.0000000000000142
 11
-32.0
 21
38.0000000000000142
 72
1
 10
-32.0
 20
38.0000000000000142
 11
-32.0
 21
34.0000000000000142
 72
1
 10
-32.0
 20
34.0000000000000142
 11
-38.0
 21
36.0000000000000142
 97
0
 75
0
 76
1
 98
0
1001
ACAD
1010
0.0
1020
0.0
1030
0
  0
LINE
  5
1CF
100
AcDbEntity
100
AcDbLine
  8
0
 62
256
370
-1
 48
1.0
  6
BYLAYER
 10
-38.0
 20
36.0000000000000142
 30
0.0
 11
-32.0
 21
38.0000000000000142
 31
0.0
  0
LINE
  5
1D0
100
AcDbEntity
100
AcDbLine
  8
0
 62
256
370
-1
 48
1.0
  6
BYLAYER
 10
-32.0
 20
38.0000000000000142
 30
0.0
 11
-32.0
 21
34.0000000000000142
 31
0.0
  0
LINE
  5
1D1
100
AcDbEntity
100
AcDbLine
  8
0
 62
256
370
-1
 48
1.0
  6
BYLAYER
 10
-32.0
 20
34.0000000000000142
 30
0.0
 11
-38.0
 21
36.0000000000000142
 31
0.0
  0
LINE
  5
1D2
100
AcDbEntity
100
AcDbLine
  8
0
 62
256
370
-1
 48
1.0
  6
BYLAYER
 10
-14.0
 20
76.0000000000000142
 30
0.0
 11
-13.9999999999999964
 21
88.0000000000000142
 31
0.0
  0
LINE
  5
1D3
100
AcDbEntity
100
AcDbLine
  8
0
 62
256
370
-1
 48
1.0
  6
BYLAYER
 10
-13.9999999999999964
 20
88.0000000000000142
 30
0.0
 11
-20.0
 21
88.0000000000000142
 31
0.0
  0
LINE
  5
1D4
100
AcDbEntity
100
AcDbLine
  8
0
 62
256
370
-1
 48
1.0
  6
BYLAYER
 10
-20.0
 20
88.0000000000000142
 30
0.0
 11
-20.0
 21
76.0000000000000142
 31
0.0
  0
LINE
  5
1D5
100
AcDbEntity
100
AcDbLine
  8
0
 62
256
370
-1
 48
1.0
  6
BYLAYER
 10
-14.0
 20
84.0000000000000142
 30
0.0
 11
-20.0
 21
80.0000000000000142
 31
0.0
  0
LINE
  5
1D6
100
AcDbEntity
100
AcDbLine
  8
0
 62
256
370
-1
 48
1.0
  6
BYLAYER
 10
-26.0
 20
12.0000000000000142
 30
0.0
 11
-18.0
 21
10.0000000000000142
 31
0.0
  0
LINE
  5
1D7
100
AcDbEntity
100
AcDbLine
  8
0
 62
256
370
-1
 48
1.0
  6
BYLAYER
 10
-18.0
 20
10.0000000000000142
 30
0.0
 11
-26.0
 21
8.0000000000000142
 31
0.0
  0
LINE
  5
1D8
100
AcDbEntity
100
AcDbLine
  8
0
 62
256
370
-1
 48
1.0
  6
BYLAYER
 10
-26.0
 20
8.0000000000000142
 30
0.0
 11
-18.0
 21
6.0000000000000142
 31
0.0
  0
LINE
  5
1D9
100
AcDbEntity
100
AcDbLine
  8
0
 62
256
370
-1
 48
1.0
  6
BYLAYER
 10
-18.0
 20
6.0000000000000142
 30
0.0
 11
-26.0
 21
4.0000000000000142
 31
0.0
  0
LINE
  5
1DA
100
AcDbEntity
100
AcDbLine
  8
0
 62
256
370
-1
 48
1.0
  6
BYLAYER
 10
-26.0
 20
4.0000000000000142
 30
0.0
 11
-18.0
 21
2.0000000000000142
 31
0.0
  0
LINE
  5
1DB
100
AcDbEntity
100
AcDbLine
  8
pipe
 62
256
370
-1
 48
1.0
  6
BYLAYER
 10
16.0
 20
36.0000000000000142
 30
0.0
 11
-6.0
 21
36.0000000000000142
 31
0.0
  0
LINE
  5
1DC
100
AcDbEntity
100
AcDbLine
  8
0
 62
256
370
-1
 48
1.0
  6
BYLAYER
 10
-76.0000000000000426
 20
212.0
 30
0.0
 11
-76.0000000000000426
 21
180.0
 31
0.0
  0
LINE
  5
1DD
100
AcDbEntity
100
AcDbLine
  8
0
 62
256
370
-1
 48
1.0
  6
BYLAYER
 10
-76.0000000000000426
 20
212.0
 30
0.0
 11
-108.0000000000000426
 21
212.0
 31
0.0
  0
LINE
  5
1DE
100
AcDbEntity
100
AcDbLine
  8
0
 62
256
370
-1
 48
1.0
  6
BYLAYER
 10
-108.0000000000000426
 20
212.0
 30
0.0
 11
-108.0000000000000426
 21
180.0
 31
0.0
  0
LINE
  5
1DF
100
AcDbEntity
100
AcDbLine
  8
0
 62
256
370
-1
 48
1.0
  6
BYLAYER
 10
-108.0000000000000426
 20
180.0
 30
0.0
 11
-76.0000000000000426
 21
180.0
 31
0.0
  0
LINE
  5
1E0
100
AcDbEntity
100
AcDbLine
  8
0
 62
256
370
-1
 48
1.0
  6
BYLAYER
 10
-108.0000000000000426
 20
186.0
 30
0.0
 11
-82.0000000000000426
 21
186.0
 31
0.0
  0
LINE
  5
1E1
100
AcDbEntity
100
AcDbLine
  8
0
 62
256
370
-1
 48
1.0
  6
BYLAYER
 10
-76.0000000000000426
 20
186.0
 30
0.0
 11
-82.0000000000000426
 21
188.0
 31
0.0
  0
LINE
  5
1E2
100
AcDbEntity
100
AcDbLine
  8
0
 62
256
370
-1
 48
1.0
  6
BYLAYER
 10
-82.0000000000000426
 20
188.0
 30
0.0
 11
-82.0000000000000426
 21
184.0
 31
0.0
  0
LINE
  5
1E3
100
AcDbEntity
100
AcDbLine
  8
0
 62
256
370
-1
 48
1.0
  6
BYLAYER
 10
-82.0000000000000426
 20
184.0
 30
0.0
 11
-76.0000000000000426
 21
186.0
 31
0.0
  0
HATCH
  5
1E4
  8
0
 62
256
370
-1
 48
1.0
  6
BYLAYER
100
AcDbEntity
100
AcDbHatch
 10
0.0
 20
0.0
 30
0.0
210
0.0
220
0.0
230
1.0
  2
SOLID
 70
1
 71
0
 91
1
 92
1
 93
3
 72
1
 10
-76.0000000000000426
 20
186.0
 11
-82.0000000000000426
 21
188.0
 72
1
 10
-82.0000000000000426
 20
188.0
 11
-82.0000000000000426
 21
184.0
 72
1
 10
-82.0000000000000426
 20
184.0
 11
-76.0000000000000426
 21
186.0
 97
0
 75
0
 76
1
 98
0
1001
ACAD
1010
0.0
1020
0.0
1030
0
  0
HATCH
  5
1E5
  8
0
 62
256
370
-1
 48
1.0
  6
BYLAYER
100
AcDbEntity
100
AcDbHatch
 10
0.0
 20
0.0
 30
0.0
210
0.0
220
0.0
230
1.0
  2
SOLID
 70
1
 71
0
 91
1
 92
1
 93
3
 72
1
 10
-108.0000000000000426
 20
186.0
 11
-102.0000000000000426
 21
188.0
 72
1
 10
-102.0000000000000426
 20
188.0
 11
-102.0000000000000426
 21
184.0
 72
1
 10
-102.0000000000000426
 20
184.0
 11
-108.0000000000000426
 21
186.0
 97
0
 75
0
 76
1
 98
0
1001
ACAD
1010
0.0
1020
0.0
1030
0
  0
LINE
  5
1E6
100
AcDbEntity
100
AcDbLine
  8
0
 62
256
370
-1
 48
1.0
  6
BYLAYER
 10
-108.0000000000000426
 20
186.0
 30
0.0
 11
-102.0000000000000426
 21
188.0
 31
0.0
  0
LINE
  5
1E7
100
AcDbEntity
100
AcDbLine
  8
0
 62
256
370
-1
 48
1.0
  6
BYLAYER
 10
-102.0000000000000426
 20
188.0
 30
0.0
 11
-102.0000000000000426
 21
184.0
 31
0.0
  0
LINE
  5
1E8
100
AcDbEntity
100
AcDbLine
  8
0
 62
256
370
-1
 48
1.0
  6
BYLAYER
 10
-102.0000000000000426
 20
184.0
 30
0.0
 11
-108.0000000000000426
 21
186.0
 31
0.0
  0
LINE
  5
1E9
100
AcDbEntity
100
AcDbLine
  8
pipe
 62
256
370
-1
 48
1.0
  6
BYLAYER
 10
-68.0000000000000426
 20
196.0
 30
0.0
 11
-68.0000000000000426
 21
174.0
 31
0.0
  0
LINE
  5
1EA
100
AcDbEntity
100
AcDbLine
  8
pipe
 62
256
370
-1
 48
1.0
  6
BYLAYER
 10
-68.0000000000000426
 20
174.0
 30
0.0
 11
-92.0000000000000426
 21
174.0
 31
0.0
  0
LINE
  5
1EB
100
AcDbEntity
100
AcDbLine
  8
pipe
 62
256
370
-1
 48
1.0
  6
BYLAYER
 10
-92.0000000000000426
 20
174.0
 30
0.0
 11
-92.0000000000000426
 21
180.0
 31
0.0
  0
LINE
  5
1EC
100
AcDbEntity
100
AcDbLine
  8
0
 62
256
370
-1
 48
1.0
  6
BYLAYER
 10
-98.0000000000000426
 20
212.0
 30
0.0
 11
-86.0000000000000426
 21
214.0
 31
0.0
  0
LINE
  5
1ED
100
AcDbEntity
100
AcDbLine
  8
0
 62
256
370
-1
 48
1.0
  6
BYLAYER
 10
-86.0000000000000426
 20
214.0
 30
0.0
 11
-98.0000000000000426
 21
216.0
 31
0.0
  0
LINE
  5
1EE
100
AcDbEntity
100
AcDbLine
  8
0
 62
256
370
-1
 48
1.0
  6
BYLAYER
 10
-98.0000000000000426
 20
216.0
 30
0.0
 11
-86.0000000000000426
 21
218.0
 31
0.0
  0
LINE
  5
1EF
100
AcDbEntity
100
AcDbLine
  8
0
 62
256
370
-1
 48
1.0
  6
BYLAYER
 10
-86.0000000000000426
 20
218.0
 30
0.0
 11
-98.0000000000000426
 21
220.0
 31
0.0
  0
LINE
  5
1F0
100
AcDbEntity
100
AcDbLine
  8
0
 62
256
370
-1
 48
1.0
  6
BYLAYER
 10
-98.0000000000000426
 20
220.0
 30
0.0
 11
-86.0000000000000426
 21
222.0
 31
0.0
  0
LINE
  5
1F1
100
AcDbEntity
100
AcDbLine
  8
0
 62
256
370
-1
 48
1.0
  6
BYLAYER
 10
-86.0000000000000426
 20
222.0
 30
0.0
 11
-98.0000000000000426
 21
224.0
 31
0.0
  0
LINE
  5
1F2
100
AcDbEntity
100
AcDbLine
  8
0
 62
256
370
-1
 48
1.0
  6
BYLAYER
 10
-98.0000000000000426
 20
224.0
 30
0.0
 11
-86.0000000000000426
 21
226.0
 31
0.0
  0
LINE
  5
1F3
100
AcDbEntity
100
AcDbLine
  8
0
 62
256
370
-1
 48
1.0
  6
BYLAYER
 10
-103.3151940466669743
 20
216.1035513168806688
 30
0.0
 11
-80.0000000000000426
 21
224.0
 31
0.0
  0
LINE
  5
1F4
100
AcDbEntity
100
AcDbLine
  8
0
 62
256
370
-1
 48
1.0
  6
BYLAYER
 10
-80.0000000000000426
 20
224.0
 30
0.0
 11
-82.8158011642852898
 21
223.9879547723502355
 31
0.0
  0
LINE
  5
1F5
100
AcDbEntity
100
AcDbLine
  8
0
 62
256
370
-1
 48
1.0
  6
BYLAYER
 10
-82.8158011642852898
 20
223.9879547723502355
 30
0.0
 11
-81.966603403515947
 21
222.4265266315808276
 31
0.0
  0
LINE
  5
1F6
100
AcDbEntity
100
AcDbLine
  8
0
 62
256
370
-1
 48
1.0
  6
BYLAYER
 10
-81.966603403515947
 20
222.4265266315808276
 30
0.0
 11
-80.0000000000000711
 21
224.0
 31
0.0
  0
HATCH
  5
1F7
  8
0
 62
256
370
-1
 48
1.0
  6
BYLAYER
100
AcDbEntity
100
AcDbHatch
 10
0.0
 20
0.0
 30
0.0
210
0.0
220
0.0
230
1.0
  2
SOLID
 70
1
 71
0
 91
1
 92
1
 93
3
 72
1
 10
-80.0000000000000426
 20
224.0
 11
-82.8158011642852898
 21
223.9879547723502355
 72
1
 10
-82.8158011642852898
 20
223.9879547723502355
 11
-81.966603403515947
 21
222.4265266315808276
 72
1
 10
-81.966603403515947
 20
222.4265266315808276
 11
-80.0000000000000711
 21
224.0
 97
0
 75
0
 76
1
 98
0
1001
ACAD
1010
0.0
1020
0.0
1030
0
  0
LINE
  5
1F8
100
AcDbEntity
100
AcDbLine
  8
0
 62
256
370
-1
 48
1.0
  6
BYLAYER
 10
-108.0000000000000426
 20
210.0
 30
0.0
 11
-112.0000000000000426
 21
206.0
 31
0.0
  0
LINE
  5
1F9
100
AcDbEntity
100
AcDbLine
  8
0
 62
256
370
-1
 48
1.0
  6
BYLAYER
 10
-112.0000000000000426
 20
206.0
 30
0.0
 11
-108.0000000000000426
 21
202.0
 31
0.0
  0
LINE
  5
1FA
100
AcDbEntity
100
AcDbLine
  8
0
 62
256
370
-1
 48
1.0
  6
BYLAYER
 10
-98.0000000000000426
 20
212.0
 30
0.0
 11
-86.0000000000000426
 21
212.0
 31
0.0
  0
LINE
  5
1FB
100
AcDbEntity
100
AcDbLine
  8
0
 62
256
370
-1
 48
1.0
  6
BYLAYER
 10
-86.0000000000000426
 20
226.0
 30
0.0
 11
-98.0000000000000426
 21
226.0
 31
0.0
  0
LINE
  5
1FC
100
AcDbEntity
100
AcDbLine
  8
pipe
 62
256
370
-1
 48
1.0
  6
BYLAYER
 10
-76.0000000000000426
 20
196.0
 30
0.0
 11
-40.0000000000000426
 21
196.0
 31
0.0
  0
LINE
  5
1FD
100
AcDbEntity
100
AcDbLine
  8
pipe
 62
256
370
-1
 48
1.0
  6
BYLAYER
 10
-40.0000000000000426
 20
196.0
 30
0.0
 11
-40.0
 21
298.0
 31
0.0
  0
LINE
  5
1FE
100
AcDbEntity
100
AcDbLine
  8
pipe
 62
256
370
-1
 48
1.0
  6
BYLAYER
 10
-40.0
 20
298.0
 30
0.0
 11
-8.0
 21
298.0
 31
0.0
  0
LINE
  5
1FF
100
AcDbEntity
100
AcDbLine
  8
0
 62
256
370
-1
 48
1.0
  6
BYLAYER
 10
1.9999999999999574
 20
162.0
 30
0.0
 11
1.9999999999999574
 21
130.0
 31
0.0
  0
LINE
  5
200
100
AcDbEntity
100
AcDbLine
  8
0
 62
256
370
-1
 48
1.0
  6
BYLAYER
 10
1.9999999999999574
 20
162.0
 30
0.0
 11
-30.0000000000000426
 21
162.0
 31
0.0
  0
LINE
  5
201
100
AcDbEntity
100
AcDbLine
  8
0
 62
256
370
-1
 48
1.0
  6
BYLAYER
 10
-30.0000000000000426
 20
162.0
 30
0.0
 11
-30.0000000000000426
 21
130.0
 31
0.0
  0
LINE
  5
202
100
AcDbEntity
100
AcDbLine
  8
0
 62
256
370
-1
 48
1.0
  6
BYLAYER
 10
-30.0000000000000426
 20
130.0
 30
0.0
 11
1.9999999999999574
 21
130.0
 31
0.0
  0
LINE
  5
203
100
AcDbEntity
100
AcDbLine
  8
0
 62
256
370
-1
 48
1.0
  6
BYLAYER
 10
-30.0000000000000426
 20
136.0
 30
0.0
 11
-4.0000000000000426
 21
136.0
 31
0.0
  0
LINE
  5
204
100
AcDbEntity
100
AcDbLine
  8
0
 62
256
370
-1
 48
1.0
  6
BYLAYER
 10
1.9999999999999574
 20
136.0
 30
0.0
 11
-4.0000000000000426
 21
138.0
 31
0.0
  0
LINE
  5
205
100
AcDbEntity
100
AcDbLine
  8
0
 62
256
370
-1
 48
1.0
  6
BYLAYER
 10
-4.0000000000000426
 20
138.0
 30
0.0
 11
-4.0000000000000426
 21
134.0
 31
0.0
  0
LINE
  5
206
100
AcDbEntity
100
AcDbLine
  8
0
 62
256
370
-1
 48
1.0
  6
BYLAYER
 10
-4.0000000000000426
 20
134.0
 30
0.0
 11
1.9999999999999574
 21
136.0
 31
0.0
  0
HATCH
  5
207
  8
0
 62
256
370
-1
 48
1.0
  6
BYLAYER
100
AcDbEntity
100
AcDbHatch
 10
0.0
 20
0.0
 30
0.0
210
0.0
220
0.0
230
1.0
  2
SOLID
 70
1
 71
0
 91
1
 92
1
 93
3
 72
1
 10
1.9999999999999574
 20
136.0
 11
-4.0000000000000426
 21
138.0
 72
1
 10
-4.0000000000000426
 20
138.0
 11
-4.0000000000000426
 21
134.0
 72
1
 10
-4.0000000000000426
 20
134.0
 11
1.9999999999999574
 21
136.0
 97
0
 75
0
 76
1
 98
0
1001
ACAD
1010
0.0
1020
0.0
1030
0
  0
HATCH
  5
208
  8
0
 62
256
370
-1
 48
1.0
  6
BYLAYER
100
AcDbEntity
100
AcDbHatch
 10
0.0
 20
0.0
 30
0.0
210
0.0
220
0.0
230
1.0
  2
SOLID
 70
1
 71
0
 91
1
 92
1
 93
3
 72
1
 10
-30.0000000000000426
 20
136.0
 11
-24.0000000000000426
 21
138.0
 72
1
 10
-24.0000000000000426
 20
138.0
 11
-24.0000000000000426
 21
134.0
 72
1
 10
-24.0000000000000426
 20
134.0
 11
-30.0000000000000426
 21
136.0
 97
0
 75
0
 76
1
 98
0
1001
ACAD
1010
0.0
1020
0.0
1030
0
  0
LINE
  5
209
100
AcDbEntity
100
AcDbLine
  8
0
 62
256
370
-1
 48
1.0
  6
BYLAYER
 10
-30.0000000000000426
 20
136.0
 30
0.0
 11
-24.0000000000000426
 21
138.0
 31
0.0
  0
LINE
  5
20A
100
AcDbEntity
100
AcDbLine
  8
0
 62
256
370
-1
 48
1.0
  6
BYLAYER
 10
-24.0000000000000426
 20
138.0
 30
0.0
 11
-24.0000000000000426
 21
134.0
 31
0.0
  0
LINE
  5
20B
100
AcDbEntity
100
AcDbLine
  8
0
 62
256
370
-1
 48
1.0
  6
BYLAYER
 10
-24.0000000000000426
 20
134.0
 30
0.0
 11
-30.0000000000000426
 21
136.0
 31
0.0
  0
LINE
  5
20C
100
AcDbEntity
100
AcDbLine
  8
pipe
 62
256
370
-1
 48
1.0
  6
BYLAYER
 10
9.9999999999999574
 20
146.0
 30
0.0
 11
9.9999999999999574
 21
124.0
 31
0.0
  0
LINE
  5
20D
100
AcDbEntity
100
AcDbLine
  8
pipe
 62
256
370
-1
 48
1.0
  6
BYLAYER
 10
9.9999999999999574
 20
124.0
 30
0.0
 11
-14.0000000000000426
 21
124.0
 31
0.0
  0
LINE
  5
20E
100
AcDbEntity
100
AcDbLine
  8
pipe
 62
256
370
-1
 48
1.0
  6
BYLAYER
 10
-14.0000000000000426
 20
124.0
 30
0.0
 11
-14.0000000000000426
 21
130.0
 31
0.0
  0
LINE
  5
20F
100
AcDbEntity
100
AcDbLine
  8
0
 62
256
370
-1
 48
1.0
  6
BYLAYER
 10
-8.0000000000000426
 20
168.0
 30
0.0
 11
-20.0000000000000426
 21
172.0
 31
0.0
  0
LINE
  5
210
100
AcDbEntity
100
AcDbLine
  8
0
 62
256
370
-1
 48
1.0
  6
BYLAYER
 10
-25.3151940466669743
 20
166.1035513168806688
 30
0.0
 11
-2.0000000000000426
 21
174.0
 31
0.0
  0
LINE
  5
211
100
AcDbEntity
100
AcDbLine
  8
0
 62
256
370
-1
 48
1.0
  6
BYLAYER
 10
-2.0000000000000426
 20
174.0
 30
0.0
 11
-4.8158011642852898
 21
173.9879547723502355
 31
0.0
  0
LINE
  5
212
100
AcDbEntity
100
AcDbLine
  8
0
 62
256
370
-1
 48
1.0
  6
BYLAYER
 10
-4.8158011642852898
 20
173.9879547723502355
 30
0.0
 11
-3.966603403515947
 21
172.4265266315808276
 31
0.0
  0
LINE
  5
213
100
AcDbEntity
100
AcDbLine
  8
0
 62
256
370
-1
 48
1.0
  6
BYLAYER
 10
-3.966603403515947
 20
172.4265266315808276
 30
0.0
 11
-2.0000000000000711
 21
174.0
 31
0.0
  0
HATCH
  5
214
  8
0
 62
256
370
-1
 48
1.0
  6
BYLAYER
100
AcDbEntity
100
AcDbHatch
 10
0.0
 20
0.0
 30
0.0
210
0.0
220
0.0
230
1.0
  2
SOLID
 70
1
 71
0
 91
1
 92
1
 93
3
 72
1
 10
-2.0000000000000426
 20
174.0
 11
-4.8158011642852898
 21
173.9879547723502355
 72
1
 10
-4.8158011642852898
 20
173.9879547723502355
 11
-3.966603403515947
 21
172.4265266315808276
 72
1
 10
-3.966603403515947
 20
172.4265266315808276
 11
-2.0000000000000711
 21
174.0
 97
0
 75
0
 76
1
 98
0
1001
ACAD
1010
0.0
1020
0.0
1030
0
  0
LINE
  5
215
100
AcDbEntity
100
AcDbLine
  8
0
 62
256
370
-1
 48
1.0
  6
BYLAYER
 10
-30.0000000000000426
 20
160.0
 30
0.0
 11
-34.0000000000000426
 21
156.0
 31
0.0
  0
LINE
  5
216
100
AcDbEntity
100
AcDbLine
  8
0
 62
256
370
-1
 48
1.0
  6
BYLAYER
 10
-34.0000000000000426
 20
156.0
 30
0.0
 11
-30.0000000000000426
 21
152.0
 31
0.0
  0
LINE
  5
217
100
AcDbEntity
100
AcDbLine
  8
0
 62
256
370
-1
 48
1.0
  6
BYLAYER
 10
-20.0000000000000426
 20
176.0
 30
0.0
 11
-20.0000000000000426
 21
162.0
 31
0.0
  0
LINE
  5
218
100
AcDbEntity
100
AcDbLine
  8
0
 62
256
370
-1
 48
1.0
  6
BYLAYER
 10
-20.0000000000000426
 20
162.0
 30
0.0
 11
-8.0000000000000426
 21
162.0
 31
0.0
  0
LINE
  5
219
100
AcDbEntity
100
AcDbLine
  8
0
 62
256
370
-1
 48
1.0
  6
BYLAYER
 10
-8.0000000000000426
 20
162.0
 30
0.0
 11
-8.0000000000000426
 21
176.0
 31
0.0
  0
LINE
  5
21A
100
AcDbEntity
100
AcDbLine
  8
0
 62
256
370
-1
 48
1.0
  6
BYLAYER
 10
-8.0000000000000426
 20
176.0
 30
0.0
 11
-20.0000000000000426
 21
176.0
 31
0.0
  0
LINE
  5
21B
100
AcDbEntity
100
AcDbLine
  8
pipe
 62
256
370
-1
 48
1.0
  6
BYLAYER
 10
-40.0000000000000426
 20
196.0
 30
0.0
 11
-40.0000000000000426
 21
146.0
 31
0.0
  0
LINE
  5
21C
100
AcDbEntity
100
AcDbLine
  8
pipe
 62
256
370
-1
 48
1.0
  6
BYLAYER
 10
-40.0000000000000426
 20
146.0
 30
0.0
 11
-30.0000000000000426
 21
146.0
 31
0.0
  0
LINE
  5
21D
100
AcDbEntity
100
AcDbLine
  8
pipe
 62
256
370
-1
 48
1.0
  6
BYLAYER
 10
2.0159180044489204
 20
145.9923671488623995
 30
0.0
 11
30.0159180044489204
 21
145.9923671488623995
 31
0.0
  0
LINE
  5
21E
100
AcDbEntity
100
AcDbLine
  8
pipe
 62
256
370
-1
 48
1.0
  6
BYLAYER
 10
30.0159180044489204
 20
145.9923671488623995
 30
0.0
 11
30.0159180044489204
 21
99.9923671488623995
 31
0.0
  0
LINE
  5
21F
100
AcDbEntity
100
AcDbLine
  8
pipe
 62
256
370
-1
 48
1.0
  6
BYLAYER
 10
30.0159180044489204
 20
100.0000000000000142
 30
0.0
 11
38.0
 21
100.0000000000000142
 31
0.0
  0
LINE
  5
220
100
AcDbEntity
100
AcDbLine
  8
pipe
 62
256
370
-1
 48
1.0
  6
BYLAYER
 10
70.0000000000000426
 20
100.0000000000000426
 30
0.0
 11
110.0
 21
100.0
 31
0.0
  0
LINE
  5
221
100
AcDbEntity
100
AcDbLine
  8
pipe
 62
256
370
-1
 48
1.0
  6
BYLAYER
 10
110.0
 20
100.0
 30
0.0
 11
110.0
 21
42.0
 31
0.0
  0
CIRCLE
  5
222
100
AcDbEntity
100
AcDbCircle
  8
0
 62
256
370
-1
 48
1.0
  6
BYLAYER
 10
-68.0
 20
248.0
 30
0.0
 40
12.0
  0
LINE
  5
223
100
AcDbEntity
100
AcDbLine
  8
pipe
 62
256
370
-1
 48
1.0
  6
BYLAYER
 10
-68.0
 20
236.0
 30
0.0
 11
-68.0000000000000426
 21
196.0
 31
0.0
  0
LINE
  5
224
100
AcDbEntity
100
AcDbLine
  8
0
 62
256
370
-1
 48
1.0
  6
BYLAYER
 10
-68.1565980041582264
 20
247.8698304864261672
 30
0.0
 11
-72.0
 21
256.0
 31
0.0
  0
LINE
  5
225
100
AcDbEntity
100
AcDbLine
  8
0
 62
256
370
-1
 48
1.0
  6
BYLAYER
 10
-72.0
 20
256.0
 30
0.0
 11
-72.2290596388634754
 21
253.7095680818298433
 31
0.0
  0
LINE
  5
226
100
AcDbEntity
100
AcDbLine
  8
0
 62
256
370
-1
 48
1.0
  6
BYLAYER
 10
-69.99634304230716
 20
254.844759577586899
 30
0.0
 11
-72.0
 21
256.0
 31
0.0
  0
CIRCLE
  5
227
100
AcDbEntity
100
AcDbCircle
  8
0
 62
256
370
-1
 48
1.0
  6
BYLAYER
 10
-316.0
 20
196.0
 30
0.0
 40
16.0
  0
LINE
  5
228
100
AcDbEntity
100
AcDbLine
  8
0
 62
256
370
-1
 48
1.0
  6
BYLAYER
 10
-300.0
 20
196.0
 30
0.0
 11
-308.0
 21
202.0
 31
0.0
  0
LINE
  5
229
100
AcDbEntity
100
AcDbLine
  8
0
 62
256
370
-1
 48
1.0
  6
BYLAYER
 10
-308.0
 20
202.0
 30
0.0
 11
-308.0
 21
190.0
 31
0.0
  0
LINE
  5
22A
100
AcDbEntity
100
AcDbLine
  8
0
 62
256
370
-1
 48
1.0
  6
BYLAYER
 10
-308.0
 20
190.0
 30
0.0
 11
-300.0
 21
196.0
 31
0.0
  0
LINE
  5
22B
100
AcDbEntity
100
AcDbLine
  8
pipe
 62
256
370
-1
 48
1.0
  6
BYLAYER
 10
-300.0
 20
196.0
 30
0.0
 11
-286.0
 21
196.0
 31
0.0
  0
LINE
  5
22C
100
AcDbEntity
100
AcDbLine
  8
0
 62
256
370
-1
 48
1.0
  6
BYLAYER
 10
-286.0
 20
196.0
 30
0.0
 11
-270.0
 21
212.0
 31
0.0
  0
LINE
  5
22D
100
AcDbEntity
100
AcDbLine
  8
0
 62
256
370
-1
 48
1.0
  6
BYLAYER
 10
-270.0
 20
212.0
 30
0.0
 11
-254.0
 21
196.0
 31
0.0
  0
LINE
  5
22E
100
AcDbEntity
100
AcDbLine
  8
0
 62
256
370
-1
 48
1.0
  6
BYLAYER
 10
-254.0
 20
196.0
 30
0.0
 11
-270.0
 21
180.0
 31
0.0
  0
LINE
  5
22F
100
AcDbEntity
100
AcDbLine
  8
0
 62
256
370
-1
 48
1.0
  6
BYLAYER
 10
-270.0
 20
180.0
 30
0.0
 11
-286.0
 21
196.0
 31
0.0
  0
LINE
  5
230
100
AcDbEntity
100
AcDbLine
  8
0
 62
256
370
-1
 48
1.0
  6
BYLAYER
 10
-264.0
 20
206.0
 30
0.0
 11
-276.0
 21
206.0
 31
0.0
  0
LINE
  5
231
100
AcDbEntity
100
AcDbLine
  8
0
 62
256
370
-1
 48
1.0
  6
BYLAYER
 10
-264.0
 20
186.0
 30
0.0
 11
-276.0
 21
186.0
 31
0.0
  0
LINE
  5
232
100
AcDbEntity
100
AcDbLine
  8
pipe
 62
256
370
-1
 48
1.0
  6
BYLAYER
 10
-254.0
 20
196.0
 30
0.0
 11
-240.0
 21
196.0
 31
0.0
  0
LINE
  5
233
100
AcDbEntity
100
AcDbLine
  8
0
 62
256
370
-1
 48
1.0
  6
BYLAYER
 10
-240.0
 20
196.0
 30
0.0
 11
-224.0
 21
212.0
 31
0.0
  0
LINE
  5
234
100
AcDbEntity
100
AcDbLine
  8
0
 62
256
370
-1
 48
1.0
  6
BYLAYER
 10
-224.0
 20
212.0
 30
0.0
 11
-208.0
 21
196.0
 31
0.0
  0
LINE
  5
235
100
AcDbEntity
100
AcDbLine
  8
0
 62
256
370
-1
 48
1.0
  6
BYLAYER
 10
-208.0
 20
196.0
 30
0.0
 11
-224.0
 21
180.0
 31
0.0
  0
LINE
  5
236
100
AcDbEntity
100
AcDbLine
  8
0
 62
256
370
-1
 48
1.0
  6
BYLAYER
 10
-224.0
 20
180.0
 30
0.0
 11
-240.0
 21
196.0
 31
0.0
  0
LINE
  5
237
100
AcDbEntity
100
AcDbLine
  8
0
 62
256
370
-1
 48
1.0
  6
BYLAYER
 10
-218.0
 20
186.0
 30
0.0
 11
-230.0
 21
186.0
 31
0.0
  0
LINE
  5
238
100
AcDbEntity
100
AcDbLine
  8
0
 62
256
370
-1
 48
1.0
  6
BYLAYER
 10
-224.0
 20
180.0
 30
0.0
 11
-224.0
 21
172.0
 31
0.0
  0
LINE
  5
239
100
AcDbEntity
100
AcDbLine
  8
boundary
 62
256
370
-1
 48
1.0
  6
BYLAYER
 10
-224.0
 20
186.0
 30
0.0
 11
-224.0
 21
212.0
 31
0.0
  0
LINE
  5
23A
100
AcDbEntity
100
AcDbLine
  8
pipe
 62
256
370
-1
 48
1.0
  6
BYLAYER
 10
-176.0
 20
196.0
 30
0.0
 11
-162.0
 21
196.0
 31
0.0
  0
LINE
  5
23B
100
AcDbEntity
100
AcDbLine
  8
0
 62
256
370
-1
 48
1.0
  6
BYLAYER
 10
-162.0
 20
196.0
 30
0.0
 11
-146.0
 21
212.0
 31
0.0
  0
LINE
  5
23C
100
AcDbEntity
100
AcDbLine
  8
0
 62
256
370
-1
 48
1.0
  6
BYLAYER
 10
-146.0
 20
212.0
 30
0.0
 11
-130.0
 21
196.0
 31
0.0
  0
LINE
  5
23D
100
AcDbEntity
100
AcDbLine
  8
0
 62
256
370
-1
 48
1.0
  6
BYLAYER
 10
-130.0
 20
196.0
 30
0.0
 11
-146.0
 21
180.0
 31
0.0
  0
LINE
  5
23E
100
AcDbEntity
100
AcDbLine
  8
0
 62
256
370
-1
 48
1.0
  6
BYLAYER
 10
-146.0
 20
180.0
 30
0.0
 11
-162.0
 21
196.0
 31
0.0
  0
LINE
  5
23F
100
AcDbEntity
100
AcDbLine
  8
0
 62
256
370
-1
 48
1.0
  6
BYLAYER
 10
-140.0
 20
186.0
 30
0.0
 11
-152.0
 21
186.0
 31
0.0
  0
LINE
  5
240
100
AcDbEntity
100
AcDbLine
  8
0
 62
256
370
-1
 48
1.0
  6
BYLAYER
 10
-146.0
 20
180.0
 30
0.0
 11
-146.0
 21
172.0
 31
0.0
  0
LINE
  5
241
100
AcDbEntity
100
AcDbLine
  8
boundary
 62
256
370
-1
 48
1.0
  6
BYLAYER
 10
-146.0
 20
186.0
 30
0.0
 11
-146.0
 21
212.0
 31
0.0
  0
LINE
  5
242
100
AcDbEntity
100
AcDbLine
  8
pipe
 62
256
370
-1
 48
1.0
  6
BYLAYER
 10
-130.0
 20
196.0
 30
0.0
 11
-108.0000000000000426
 21
196.0
 31
0.0
  0
LINE
  5
243
100
AcDbEntity
100
AcDbLine
  8
pipe
 62
256
370
-1
 48
1.0
  6
BYLAYER
 10
-208.0
 20
196.0
 30
0.0
 11
-176.0
 21
196.0
 31
0.0
  0
LINE
  5
244
100
AcDbEntity
100
AcDbLine
  8
pipe
 62
256
370
-1
 48
1.0
  6
BYLAYER
 10
-120.0
 20
196.0
 30
0.0
 11
-120.0
 21
18.0
 31
0.0
  0
LINE
  5
245
100
AcDbEntity
100
AcDbLine
  8
pipe
 62
256
370
-1
 48
1.0
  6
BYLAYER
 10
-120.0
 20
18.0
 30
0.0
 11
-38.0
 21
18.0000000000000142
 31
0.0
  0
MTEXT
  5
246
100
AcDbEntity
100
AcDbMText
  8
0
 62
256
370
-1
 48
1.0
  6
BYLAYER
 10
-224.0
 20
230.0
 30
0.0
 40
12.0
 41
0.0
 71
2
 72
1
  1
\H10.2857;Filter
  7
textstyle1
 50
0.0
 73
2
 44
1.0
  0
MTEXT
  5
247
100
AcDbEntity
100
AcDbMText
  8
0
 62
256
370
-1
 48
1.0
  6
BYLAYER
 10
-147.2217078805954031
 20
230.0
 30
0.0
 40
12.0
 41
0.0
 71
2
 72
1
  1
\H10.2857;Filter
  7
textstyle2
 50
0.0
 73
2
 44
1.0
  0
MTEXT
  5
248
100
AcDbEntity
100
AcDbMText
  8
0
 62
256
370
-1
 48
1.0
  6
BYLAYER
 10
-92.0
 20
300.0
 30
0.0
 40
12.0
 41
0.0
 71
2
 72
1
  1
\H10.2857;Pressure\Pregulator
  7
textstyle3
 50
0.0
 73
2
 44
1.0
  0
MTEXT
  5
249
100
AcDbEntity
100
AcDbMText
  8
0
 62
256
370
-1
 48
1.0
  6
BYLAYER
 10
-270.0
 20
232.0
 30
0.0
 40
12.0
 41
0.0
 71
2
 72
1
  1
\H10.2857;Dryer
  7
textstyle4
 50
0.0
 73
2
 44
1.0
  0
MTEXT
  5
24A
100
AcDbEntity
100
AcDbMText
  8
0
 62
256
370
-1
 48
1.0
  6
BYLAYER
 10
-296.0
 20
174.0
 30
0.0
 40
12.0
 41
0.0
 71
2
 72
1
  1
\H10.2857;Compressor
  7
textstyle5
 50
0.0
 73
2
 44
1.0
  0
LINE
  5
24B
100
AcDbEntity
100
AcDbLine
  8
0
 62
256
370
-1
 48
1.0
  6
BYLAYER
 10
-54.0
 20
396.0
 30
0.0
 11
328.0
 21
396.0
 31
0.0
  0
LINE
  5
24C
100
AcDbEntity
100
AcDbLine
  8
0
 62
256
370
-1
 48
1.0
  6
BYLAYER
 10
328.0
 20
396.0
 30
0.0
 11
328.0
 21
372.0
 31
0.0
  0
LINE
  5
24D
100
AcDbEntity
100
AcDbLine
  8
0
 62
256
370
-1
 48
1.0
  6
BYLAYER
 10
328.0
 20
372.0
 30
0.0
 11
-54.0
 21
372.0
 31
0.0
  0
LINE
  5
24E
100
AcDbEntity
100
AcDbLine
  8
0
 62
256
370
-1
 48
1.0
  6
BYLAYER
 10
-54.0
 20
372.0
 30
0.0
 11
-54.0
 21
396.0
 31
0.0
  0
LINE
  5
24F
100
AcDbEntity
100
AcDbLine
  8
0
 62
256
370
-1
 48
1.0
  6
BYLAYER
 10
2.0
 20
324.0
 30
0.0
 11
-8.0
 21
324.0
 31
0.0
  0
LINE
  5
250
100
AcDbEntity
100
AcDbLine
  8
0
 62
256
370
-1
 48
1.0
  6
BYLAYER
 10
-8.0
 20
324.0
 30
0.0
 11
-8.0
 21
372.0
 31
0.0
  0
LINE
  5
251
100
AcDbEntity
100
AcDbLine
  8
0
 62
256
370
-1
 48
1.0
  6
BYLAYER
 10
-20.0000000000000391
 20
172.0
 30
0.0
 11
-30.0
 21
172.0
 31
0.0
  0
LINE
  5
252
100
AcDbEntity
100
AcDbLine
  8
0
 62
256
370
-1
 48
1.0
  6
BYLAYER
 10
-30.0
 20
172.0
 30
0.0
 11
-30.0
 21
372.0
 31
0.0
  0
MTEXT
  5
253
100
AcDbEntity
100
AcDbMText
  8
0
 62
256
370
-1
 48
1.0
  6
BYLAYER
 10
-44.0
 20
154.0
 30
0.0
 40
12.0
 41
0.0
 71
3
 72
1
  1
\H10.2857;Radial\Ppressure\Pregulator
  7
textstyle6
 50
0.0
 73
2
 44
0.9
  0
MTEXT
  5
254
100
AcDbEntity
100
AcDbMText
  8
0
 62
256
370
-1
 48
1.0
  6
BYLAYER
 10
8.0
 20
272.0
 30
0.0
 40
12.0
 41
0.0
 71
2
 72
1
  1
\H10.2857;Axial\Ppressure\Pregulator
  7
textstyle7
 50
0.0
 73
2
 44
0.9
  0
LINE
  5
255
100
AcDbEntity
100
AcDbLine
  8
0
 62
256
370
-1
 48
1.0
  6
BYLAYER
 10
-13.9999999999999982
 20
84.0000000000000284
 30
0.0
 11
20.0
 21
84.0
 31
0.0
  0
LINE
  5
256
100
AcDbEntity
100
AcDbLine
  8
0
 62
256
370
-1
 48
1.0
  6
BYLAYER
 10
20.0
 20
84.0
 30
0.0
 11
20.0
 21
150.0
 31
0.0
  0
LINE
  5
257
100
AcDbEntity
100
AcDbLine
  8
0
 62
256
370
-1
 48
1.0
  6
BYLAYER
 10
20.0
 20
150.0
 30
0.0
 11
46.0
 21
150.0
 31
0.0
  0
LINE
  5
258
100
AcDbEntity
100
AcDbLine
  8
0
 62
256
370
-1
 48
1.0
  6
BYLAYER
 10
40.0
 20
372.0
 30
0.0
 11
40.0
 21
150.0
 31
0.0
  0
MTEXT
  5
259
100
AcDbEntity
100
AcDbMText
  8
0
 62
256
370
-1
 48
1.0
  6
BYLAYER
 10
62.0
 20
16.0
 30
0.0
 40
12.0
 41
0.0
 71
2
 72
1
  1
\H10.2857;Vacuum generator
  7
textstyle8
 50
0.0
 73
2
 44
0.9
  0
LINE
  5
25A
100
AcDbEntity
100
AcDbLine
  8
0
 62
256
370
-1
 48
1.0
  6
BYLAYER
 10
212.0
 20
298.0
 30
0.0
 11
228.0
 21
298.0
 31
0.0
  0
LINE
  5
25B
100
AcDbEntity
100
AcDbLine
  8
0
 62
256
370
-1
 48
1.0
  6
BYLAYER
 10
228.0
 20
298.0
 30
0.0
 11
228.0
 21
372.0
 31
0.0
  0
LINE
  5
25C
100
AcDbEntity
100
AcDbLine
  8
0
 62
256
370
-1
 48
1.0
  6
BYLAYER
 10
134.0577136594005196
 20
162.9999999999999432
 30
0.0
 11
232.0
 21
162.9999999999999432
 31
0.0
  0
LINE
  5
25D
100
AcDbEntity
100
AcDbLine
  8
0
 62
256
370
-1
 48
1.0
  6
BYLAYER
 10
232.0
 20
162.9999999999999432
 30
0.0
 11
232.0
 21
372.0
 31
0.0
  0
LINE
  5
25E
100
AcDbEntity
100
AcDbLine
  8
0
 62
256
370
-1
 48
1.0
  6
BYLAYER
 10
281.9422863405994804
 20
163.0
 30
0.0
 11
236.0
 21
163.0
 31
0.0
  0
LINE
  5
25F
100
AcDbEntity
100
AcDbLine
  8
0
 62
256
370
-1
 48
1.0
  6
BYLAYER
 10
236.0
 20
163.0
 30
0.0
 11
236.0
 21
372.0
 31
0.0
  0
MTEXT
  5
260
100
AcDbEntity
100
AcDbMText
  8
0
 62
256
370
-1
 48
1.0
  6
BYLAYER
 10
226.0
 20
358.0
 30
0.0
 40
12.0
 41
0.0
 71
3
 72
1
  1
\H10.2857;Force sensors
  7
textstyle9
 50
0.0
 73
2
 44
0.9
  0
CIRCLE
  5
261
100
AcDbEntity
100
AcDbCircle
  8
0
 62
256
370
-1
 48
1.0
  6
BYLAYER
 10
118.0
 20
338.0
 30
0.0
 40
12.0
  0
LINE
  5
262
100
AcDbEntity
100
AcDbLine
  8
pipe
 62
256
370
-1
 48
1.0
  6
BYLAYER
 10
118.0
 20
326.0
 30
0.0
 11
117.9999999999999858
 21
298.0
 31
0.0
  0
LINE
  5
263
100
AcDbEntity
100
AcDbLine
  8
0
 62
256
370
-1
 48
1.0
  6
BYLAYER
 10
117.8434019958417736
 20
337.8698304864261672
 30
0.0
 11
114.0
 21
346.0
 31
0.0
  0
LINE
  5
264
100
AcDbEntity
100
AcDbLine
  8
0
 62
256
370
-1
 48
1.0
  6
BYLAYER
 10
114.0
 20
346.0
 30
0.0
 11
113.7709403611365246
 21
343.7095680818298433
 31
0.0
  0
LINE
  5
265
100
AcDbEntity
100
AcDbLine
  8
0
 62
256
370
-1
 48
1.0
  6
BYLAYER
 10
116.00365695769284
 20
344.844759577586899
 30
0.0
 11
114.0
 21
346.0
 31
0.0
  0
LINE
  5
266
100
AcDbEntity
100
AcDbLine
  8
0
 62
256
370
-1
 48
1.0
  6
BYLAYER
 10
106.0
 20
338.0
 30
0.0
 11
98.0
 21
338.0
 31
0.0
  0
LINE
  5
267
100
AcDbEntity
100
AcDbLine
  8
0
 62
256
370
-1
 48
1.0
  6
BYLAYER
 10
98.0
 20
338.0
 30
0.0
 11
98.0
 21
372.0
 31
0.0
  0
CIRCLE
  5
268
100
AcDbEntity
100
AcDbCircle
  8
0
 62
256
370
-1
 48
1.0
  6
BYLAYER
 10
261.4294876949991817
 20
58.5252733410710704
 30
0.0
 40
12.0
  0
LINE
  5
269
100
AcDbEntity
100
AcDbLine
  8
pipe
 62
256
370
-1
 48
1.0
  6
BYLAYER
 10
262.0
 20
46.5325329434879222
 30
0.0
 11
262.0
 21
42.0
 31
0.0
  0
LINE
  5
26A
100
AcDbEntity
100
AcDbLine
  8
0
 62
256
370
-1
 48
1.0
  6
BYLAYER
 10
261.2728896908409411
 20
58.3951038274972376
 30
0.0
 11
257.4294876949991817
 21
66.5252733410710704
 31
0.0
  0
LINE
  5
26B
100
AcDbEntity
100
AcDbLine
  8
0
 62
256
370
-1
 48
1.0
  6
BYLAYER
 10
257.4294876949991817
 20
66.5252733410710704
 30
0.0
 11
257.2004280561357064
 21
64.2348414229009137
 31
0.0
  0
LINE
  5
26C
100
AcDbEntity
100
AcDbLine
  8
0
 62
256
370
-1
 48
1.0
  6
BYLAYER
 10
259.4331446526920217
 20
65.3700329186579694
 30
0.0
 11
257.4294876949991817
 21
66.5252733410710704
 31
0.0
  0
LINE
  5
26D
100
AcDbEntity
100
AcDbLine
  8
0
 62
256
370
-1
 48
1.0
  6
BYLAYER
 10
324.0
 20
58.5252733410710704
 30
0.0
 11
324.0
 21
372.0
 31
0.0
  0
LINE
  5
26E
100
AcDbEntity
100
AcDbLine
  8
0
 62
256
370
-1
 48
1.0
  6
BYLAYER
 10
273.4294876949991817
 20
58.5252733410710704
 30
0.0
 11
324.0
 21
58.5252733410710704
 31
0.0
  0
LINE
  5
26F
100
AcDbEntity
100
AcDbLine
  8
0
 62
256
370
-1
 48
1.0
  6
BYLAYER
 10
-54.0
 20
388.0
 30
0.0
 11
-58.0
 21
388.0
 31
0.0
  0
LINE
  5
270
100
AcDbEntity
100
AcDbLine
  8
0
 62
256
370
-1
 48
1.0
  6
BYLAYER
 10
-58.0
 20
388.0
 30
0.0
 11
-58.0
 21
380.0
 31
0.0
  0
LINE
  5
271
100
AcDbEntity
100
AcDbLine
  8
0
 62
256
370
-1
 48
1.0
  6
BYLAYER
 10
-54.0
 20
380.0
 30
0.0
 11
-58.0
 21
380.0
 31
0.0
  0
LINE
  5
272
100
AcDbEntity
100
AcDbLine
  8
0
 62
256
370
-1
 48
1.0
  6
BYLAYER
 10
-56.0
 20
380.0
 30
0.0
 11
-56.0
 21
388.0
 31
0.0
  0
LINE
  5
273
100
AcDbEntity
100
AcDbLine
  8
0
 62
256
370
-1
 48
1.0
  6
BYLAYER
 10
-58.0
 20
384.0
 30
0.0
 11
-156.0
 21
384.0
 31
0.0
  0
MTEXT
  5
274
100
AcDbEntity
100
AcDbMText
  8
0
 62
256
370
-1
 48
1.0
  6
BYLAYER
 10
-70.0
 20
380.0
 30
0.0
 40
12.0
 41
0.0
 71
3
 72
1
  1
\H10.2857;EtherCAT
  7
textstyle10
 50
0.0
 73
2
 44
0.9
  0
LINE
  5
275
100
AcDbEntity
100
AcDbLine
  8
0
 62
256
370
-1
 48
1.0
  6
BYLAYER
 10
-155.9032416670732175
 20
383.8480154684047534
 30
0.0
 11
-150.0
 21
388.0
 31
0.0
  0
LINE
  5
276
100
AcDbEntity
100
AcDbLine
  8
0
 62
256
370
-1
 48
1.0
  6
BYLAYER
 10
-150.0
 20
380.0
 30
0.0
 11
-155.6871518881165457
 21
384.0000000000000568
 31
0.0
  0
MTEXT
  5
277
100
AcDbEntity
100
AcDbMText
  8
0
 62
256
370
-1
 48
1.0
  6
BYLAYER
 10
-166.0
 20
392.0
 30
0.0
 40
12.0
 41
0.0
 71
3
 72
1
  1
\H10.2857;To J2
  7
textstyle11
 50
0.0
 73
2
 44
0.9
  0
LINE
  5
278
100
AcDbEntity
100
AcDbLine
  8
0
 62
256
370
-1
 48
1.0
  6
BYLAYER
 10
-182.0
 20
394.0
 30
0.0
 11
-182.0
 21
376.0
 31
0.0
  0
LINE
  5
279
100
AcDbEntity
100
AcDbLine
  8
0
 62
256
370
-1
 48
1.0
  6
BYLAYER
 10
-182.0
 20
376.0
 30
0.0
 11
-162.0
 21
376.0
 31
0.0
  0
LINE
  5
27A
100
AcDbEntity
100
AcDbLine
  8
0
 62
256
370
-1
 48
1.0
  6
BYLAYER
 10
-162.0
 20
376.0
 30
0.0
 11
-162.0
 21
394.0
 31
0.0
  0
LINE
  5
27B
100
AcDbEntity
100
AcDbLine
  8
0
 62
256
370
-1
 48
1.0
  6
BYLAYER
 10
-162.0
 20
394.0
 30
0.0
 11
-182.0
 21
394.0
 31
0.0
  0
ARC
  5
27C
100
AcDbEntity
  8
pipe
 62
256
370
-1
 48
1.0
  6
BYLAYER
100
AcDbCircle
 10
208.0
 20
208.0
 30
0.0
 40
90.0
100
AcDbArc
 50
272.5466887228152473
 51
297.4533112771849233
  0
ARC
  5
27D
100
AcDbEntity
  8
pipe
 62
256
370
-1
 48
1.0
  6
BYLAYER
100
AcDbCircle
 10
208.0
 20
208.0
 30
0.0
 40
90.0
100
AcDbArc
 50
233.6598082540900805
 51
237.4533112771848096
  0
ARC
  5
27E
100
AcDbEntity
  8
pipe
 62
256
370
-1
 48
1.0
  6
BYLAYER
100
AcDbCircle
 10
208.0
 20
208.0
 30
0.0
 40
90.0
100
AcDbArc
 50
242.5466887228152189
 51
267.4533112771847527
  0
MTEXT
  5
27F
100
AcDbEntity
100
AcDbMText
  8
0
 62
256
370
-1
 48
1.0
  6
BYLAYER
 10
282.0
 20
318.0
 30
0.0
 40
12.0
 41
0.0
 71
2
 72
1
  1
\H10.2857;Mirror
  7
textstyle12
 50
0.0
 73
2
 44
1.0
  0
ENDSEC
  0
SECTION
  2
OBJECTS
  0
DICTIONARY
  5
C
100
AcDbDictionary
280
0
281
1
  3
ACAD_GROUP
350
D
  3
ACAD_LAYOUT
350
1A
  3
ACAD_MLINESTYLE
350
17
  3
ACAD_PLOTSETTINGS
350
19
  3
ACAD_PLOTSTYLENAME
350
E
  3
AcDbVariableDictionary
350
280
  3
QCAD_OBJECTS
350
281
  0
DICTIONARY
  5
D
100
AcDbDictionary
280
0
281
1
  0
ACDBDICTIONARYWDFLT
  5
E
100
AcDbDictionary
281
1
  3
Normal
350
F
100
AcDbDictionaryWithDefault
340
F
  0
ACDBPLACEHOLDER
  5
F
  0
DICTIONARY
  5
17
100
AcDbDictionary
280
0
281
1
  3
Standard
350
18
  0
MLINESTYLE
  5
18
100
AcDbMlineStyle
  2
STANDARD
 70
0
  3

 62
256
 51
90.0
 52
90.0
 71
2
 49
0.5
 62
256
  6
BYLAYER
 49
-0.5
 62
256
  6
BYLAYER
  0
DICTIONARY
  5
19
100
AcDbDictionary
280
0
281
1
  0
DICTIONARY
  5
1A
100
AcDbDictionary
281
1
  3
Layout1
350
1E
  3
Layout2
350
26
  3
Model
350
22
  0
LAYOUT
  5
1E
100
AcDbPlotSettings
  1

  2
none_device
  4

  6

 40
0.0
 41
0.0
 42
0.0
 43
0.0
 44
0.0
 45
0.0
 46
0.0
 47
0.0
 48
0.0
 49
0.0
140
0.0
141
0.0
142
1.0
143
1.0
 70
688
 72
0
 73
0
 74
5
  7

 75
16
147
1.0
148
0.0
149
0.0
100
AcDbLayout
  1
Layout1
 70
1
 71
1
 10
0.0
 20
0.0
 11
420.0
 21
297.0
 12
0.0
 22
0.0
 32
0.0
 14
100000000000000000000.0
 24
100000000000000000000.0
 34
100000000000000000000.0
 15
-100000000000000000000.0
 25
-100000000000000000000.0
 35
-100000000000000000000.0
146
0.0
 13
0.0
 23
0.0
 33
0.0
 16
1.0
 26
0.0
 36
0.0
 17
0.0
 27
1.0
 37
0.0
 76
0
330
1B
  0
LAYOUT
  5
22
100
AcDbPlotSettings
  1

  2
none_device
  4

  6

 40
0.0
 41
0.0
 42
0.0
 43
0.0
 44
0.0
 45
0.0
 46
0.0
 47
0.0
 48
0.0
 49
0.0
140
0.0
141
0.0
142
1.0
143
1.0
 70
1712
 72
0
 73
0
 74
0
  7

 75
0
147
1.0
148
0.0
149
0.0
100
AcDbLayout
  1
Model
 70
1
 71
0
 10
0.0
 20
0.0
 11
12.0
 21
9.0
 12
0.0
 22
0.0
 32
0.0
 14
0.0
 24
0.0
 34
0.0
 15
0.0
 25
0.0
 35
0.0
146
0.0
 13
0.0
 23
0.0
 33
0.0
 16
1.0
 26
0.0
 36
0.0
 17
0.0
 27
1.0
 37
0.0
 76
0
330
1F
  0
LAYOUT
  5
26
100
AcDbPlotSettings
  1

  2
none_device
  4

  6

 40
0.0
 41
0.0
 42
0.0
 43
0.0
 44
0.0
 45
0.0
 46
0.0
 47
0.0
 48
0.0
 49
0.0
140
0.0
141
0.0
142
1.0
143
1.0
 70
688
 72
0
 73
0
 74
5
  7

 75
16
147
1.0
148
0.0
149
0.0
100
AcDbLayout
  1
Layout2
 70
1
 71
2
 10
0.0
 20
0.0
 11
12.0
 21
9.0
 12
0.0
 22
0.0
 32
0.0
 14
0.0
 24
0.0
 34
0.0
 15
0.0
 25
0.0
 35
0.0
146
0.0
 13
0.0
 23
0.0
 33
0.0
 16
1.0
 26
0.0
 36
0.0
 17
0.0
 27
1.0
 37
0.0
 76
0
330
23
  0
DICTIONARY
  5
280
100
AcDbDictionary
281
1
  3
DIMASSOC
350
283
  3
HIDETEXT
350
282
  0
DICTIONARYVAR
  5
282
100
DictionaryVariables
280
0
  1
2
  0
DICTIONARYVAR
  5
283
100
DictionaryVariables
280
0
  1
1
  0
DICTIONARY
  5
281
100
AcDbDictionary
281
1
  3
ColorSettings/BackgroundColor
350
284
  3
ColorSettings/ColorMode
350
285
  3
Grid/DisplayGrid00
350
286
  3
Grid/DisplayGrid01
350
287
  3
Grid/DisplayGrid02
350
288
  3
Grid/DisplayGrid03
350
289
  3
Grid/GridSpacingX00
350
28A
  3
Grid/GridSpacingX01
350
28B
  3
Grid/GridSpacingX02
350
28C
  3
Grid/GridSpacingX03
350
28D
  3
Grid/GridSpacingY00
350
28E
  3
Grid/GridSpacingY01
350
28F
  3
Grid/GridSpacingY02
350
290
  3
Grid/GridSpacingY03
350
291
  3
Grid/IsometricGrid00
350
292
  3
Grid/IsometricGrid01
350
293
  3
Grid/IsometricGrid02
350
294
  3
Grid/IsometricGrid03
350
295
  3
Grid/IsometricProjection00
350
296
  3
Grid/IsometricProjection01
350
297
  3
Grid/IsometricProjection02
350
298
  3
Grid/IsometricProjection03
350
299
  3
Grid/MetaGridSpacingX00
350
29A
  3
Grid/MetaGridSpacingX01
350
29B
  3
Grid/MetaGridSpacingX02
350
29C
  3
Grid/MetaGridSpacingX03
350
29D
  3
Grid/MetaGridSpacingY00
350
29E
  3
Grid/MetaGridSpacingY01
350
29F
  3
Grid/MetaGridSpacingY02
350
2A0
  3
Grid/MetaGridSpacingY03
350
2A1
  3
MultiPageSettings/Columns
350
2A2
  3
MultiPageSettings/GlueMarginsBottom
350
2A3
  3
MultiPageSettings/GlueMarginsLeft
350
2A4
  3
MultiPageSettings/GlueMarginsRight
350
2A5
  3
MultiPageSettings/GlueMarginsTop
350
2A6
  3
MultiPageSettings/PrintCropMarks
350
2A7
  3
MultiPageSettings/Rows
350
2A8
  3
PageSettings/OffsetX
350
2A9
  3
PageSettings/OffsetY
350
2AA
  3
PageSettings/PageOrientation
350
2AB
  3
PageSettings/PaperHeight
350
2AC
  3
PageSettings/PaperWidth
350
2AD
  3
PageSettings/Scale
350
2AE
  3
PageSettings/ShowPaperBorders
350
2AF
  3
UnitSettings/PaperUnit
350
2B0
  0
XRECORD
  5
284
330
281
100
AcDbXrecord
280
1
1000
White
  0
XRECORD
  5
285
330
281
100
AcDbXrecord
280
1
1000
FullColor
  0
XRECORD
  5
286
330
281
100
AcDbXrecord
280
1
290
1
  0
XRECORD
  5
287
330
281
100
AcDbXrecord
280
1
290
1
  0
XRECORD
  5
288
330
281
100
AcDbXrecord
280
1
290
1
  0
XRECORD
  5
289
330
281
100
AcDbXrecord
280
1
290
1
  0
XRECORD
  5
28A
330
281
100
AcDbXrecord
280
1
1000
2
  0
XRECORD
  5
28B
330
281
100
AcDbXrecord
280
1
1000
auto
  0
XRECORD
  5
28C
330
281
100
AcDbXrecord
280
1
1000
auto
  0
XRECORD
  5
28D
330
281
100
AcDbXrecord
280
1
1000
auto
  0
XRECORD
  5
28E
330
281
100
AcDbXrecord
280
1
1000
2
  0
XRECORD
  5
28F
330
281
100
AcDbXrecord
280
1
1000
auto
  0
XRECORD
  5
290
330
281
100
AcDbXrecord
280
1
1000
auto
  0
XRECORD
  5
291
330
281
100
AcDbXrecord
280
1
1000
auto
  0
XRECORD
  5
292
330
281
100
AcDbXrecord
280
1
290
0
  0
XRECORD
  5
293
330
281
100
AcDbXrecord
280
1
290
0
  0
XRECORD
  5
294
330
281
100
AcDbXrecord
280
1
290
0
  0
XRECORD
  5
295
330
281
100
AcDbXrecord
280
1
290
0
  0
XRECORD
  5
296
330
281
100
AcDbXrecord
280
1
 90
0
  0
XRECORD
  5
297
330
281
100
AcDbXrecord
280
1
 90
0
  0
XRECORD
  5
298
330
281
100
AcDbXrecord
280
1
 90
0
  0
XRECORD
  5
299
330
281
100
AcDbXrecord
280
1
 90
0
  0
XRECORD
  5
29A
330
281
100
AcDbXrecord
280
1
1000
2
  0
XRECORD
  5
29B
330
281
100
AcDbXrecord
280
1
1000
auto
  0
XRECORD
  5
29C
330
281
100
AcDbXrecord
280
1
1000
auto
  0
XRECORD
  5
29D
330
281
100
AcDbXrecord
280
1
1000
auto
  0
XRECORD
  5
29E
330
281
100
AcDbXrecord
280
1
1000
2
  0
XRECORD
  5
29F
330
281
100
AcDbXrecord
280
1
1000
auto
  0
XRECORD
  5
2A0
330
281
100
AcDbXrecord
280
1
1000
auto
  0
XRECORD
  5
2A1
330
281
100
AcDbXrecord
280
1
1000
auto
  0
XRECORD
  5
2A2
330
281
100
AcDbXrecord
280
1
 90
1
  0
XRECORD
  5
2A3
330
281
100
AcDbXrecord
280
1
 40
10.0
  0
XRECORD
  5
2A4
330
281
100
AcDbXrecord
280
1
 40
10.0
  0
XRECORD
  5
2A5
330
281
100
AcDbXrecord
280
1
 40
10.0
  0
XRECORD
  5
2A6
330
281
100
AcDbXrecord
280
1
 40
10.0
  0
XRECORD
  5
2A7
330
281
100
AcDbXrecord
280
1
290
0
  0
XRECORD
  5
2A8
330
281
100
AcDbXrecord
280
1
 90
1
  0
XRECORD
  5
2A9
330
281
100
AcDbXrecord
280
1
 40
-366.5833333333333712
  0
XRECORD
  5
2AA
330
281
100
AcDbXrecord
280
1
 40
-317.1047267266775975
  0
XRECORD
  5
2AB
330
281
100
AcDbXrecord
280
1
1000
Portrait
  0
XRECORD
  5
2AC
330
281
100
AcDbXrecord
280
1
 40
297.0
  0
XRECORD
  5
2AD
330
281
100
AcDbXrecord
280
1
 40
210.0
  0
XRECORD
  5
2AE
330
281
100
AcDbXrecord
280
1
1000
0.0288
  0
XRECORD
  5
2AF
330
281
100
AcDbXrecord
280
1
290
1
  0
XRECORD
  5
2B0
330
281
100
AcDbXrecord
280
1
 90
4
  0
ENDSEC
  0
EOF
