999
dxflib 3.7.5.0
  0
SECTION
  2
HEADER
  9
$ACADVER
  1
AC1015
  9
$HANDSEED
  5
FFFF
  9
$DIMADEC
 70
0
  9
$DIMASZ
 40
2.5
  9
$DIMAUNIT
 70
0
  9
$DIMAZIN
 70
2
  9
$DIMDEC
 70
4
  9
$DIMEXE
 40
1.25
  9
$DIMEXO
 40
0.625
  9
$DIMGAP
 40
0.625
  9
$DIMLUNIT
 70
2
  9
$DIMSCALE
 40
20.0
  9
$DIMTSZ
 40
0.0
  9
$DIMTXT
 40
2.5
  9
$DIMZIN
 70
8
  9
$DWGCODEPAGE
  3
ANSI_1252
  9
$INSUNITS
 70
5
  9
$LTSCALE
 40
1
  0
ENDSEC
  0
SECTION
  2
TABLES
  0
TABLE
  2
VPORT
  5
8
100
AcDbSymbolTable
 70
1
  0
VPORT
  5
30
100
AcDbSymbolTableRecord
100
AcDbViewportTableRecord
  2
*Active
 70
0
 10
0.0
 20
0.0
 11
1.0
 21
1.0
 12
286.3055555555554861
 22
148.5
 13
0.0
 23
0.0
 14
10.0
 24
10.0
 15
10.0
 25
10.0
 16
0.0
 26
0.0
 36
1.0
 17
0.0
 27
0.0
 37
0.0
 40
297.0
 41
1.92798353909465
 42
50.0
 43
0.0
 44
0.0
 50
0.0
 51
0.0
 71
0
 72
100
 73
1
 74
3
 75
1
 76
1
 77
0
 78
0
281
0
 65
1
110
0.0
120
0.0
130
0.0
111
1.0
121
0.0
131
0.0
112
0.0
122
1.0
132
0.0
 79
0
146
0.0
  0
ENDTAB
  0
TABLE
  2
LTYPE
  5
5
100
AcDbSymbolTable
 70
41
  0
LTYPE
  5
16
100
AcDbSymbolTableRecord
100
AcDbLinetypeTableRecord
  2
Continuous
 70
0
  3
Solid line
 72
65
 73
0
 40
0.0
  0
LTYPE
  5
31
100
AcDbSymbolTableRecord
100
AcDbLinetypeTableRecord
  2
ACAD_ISO15W100
 70
0
  3
ISO double-dash triple-dot __ __ . . . __ __ . .
 72
65
 73
10
 40
39.0000000000000071
 49
12.0
 74
0
 49
-3.0
 74
0
 49
12.0
 74
0
 49
-2.9500000000000002
 74
0
 49
0.1
 74
0
 49
-2.9000000000000004
 74
0
 49
0.1
 74
0
 49
-2.9000000000000004
 74
0
 49
0.1
 74
0
 49
-2.9500000000000002
 74
0
  0
LTYPE
  5
32
100
AcDbSymbolTableRecord
100
AcDbLinetypeTableRecord
  2
DIVIDE
 70
0
  3
Divide ____ . . ____ . . ____ . . ____ . . ____
 72
65
 73
6
 40
31.7500000000000036
 49
12.6999999999999993
 74
0
 49
-6.2999999999999998
 74
0
 49
0.1
 74
0
 49
-6.25
 74
0
 49
0.1
 74
0
 49
-6.2999999999999998
 74
0
  0
LTYPE
  5
33
100
AcDbSymbolTableRecord
100
AcDbLinetypeTableRecord
  2
ACAD_ISO10W100
 70
0
  3
ISO dash dot __ . __ . __ . __ . __ . __ . __ . 
 72
65
 73
4
 40
18.0
 49
12.0
 74
0
 49
-2.9500000000000002
 74
0
 49
0.1
 74
0
 49
-2.9500000000000002
 74
0
  0
LTYPE
  5
34
100
AcDbSymbolTableRecord
100
AcDbLinetypeTableRecord
  2
ACAD_ISO04W100
 70
0
  3
ISO long-dash dot ____ . ____ . ____ . ____ . _
 72
65
 73
4
 40
30.0
 49
24.0
 74
0
 49
-2.9500000000000002
 74
0
 49
0.1
 74
0
 49
-2.9500000000000002
 74
0
  0
LTYPE
  5
35
100
AcDbSymbolTableRecord
100
AcDbLinetypeTableRecord
  2
CENTER2
 70
0
  3
Center (.5x) ___ _ ___ _ ___ _ ___ _ ___ _ ___
 72
65
 73
4
 40
28.5750000000000028
 49
19.0500000000000007
 74
0
 49
-3.1749999999999998
 74
0
 49
3.1749999999999998
 74
0
 49
-3.1749999999999998
 74
0
  0
LTYPE
  5
36
100
AcDbSymbolTableRecord
100
AcDbLinetypeTableRecord
  2
ACAD_ISO11W100
 70
0
  3
ISO double-dash dot __ __ . __ __ . __ __ . __ _
 72
65
 73
6
 40
33.0
 49
12.0
 74
0
 49
-3.0
 74
0
 49
12.0
 74
0
 49
-2.9500000000000002
 74
0
 49
0.1
 74
0
 49
-2.9500000000000002
 74
0
  0
LTYPE
  5
37
100
AcDbSymbolTableRecord
100
AcDbLinetypeTableRecord
  2
HIDDEN2
 70
0
  3
Hidden (.5x) _ _ _ _ _ _ _ _ _ _ _ _ _ _ _ _ _ 
 72
65
 73
2
 40
4.7624999999999993
 49
3.1749999999999998
 74
0
 49
-1.5874999999999999
 74
0
  0
LTYPE
  5
38
100
AcDbSymbolTableRecord
100
AcDbLinetypeTableRecord
  2
BORDERX2
 70
0
  3
Border (2x) ____  ____  .  ____  ____  .  ___
 72
65
 73
6
 40
88.8999999999999773
 49
25.3999999999999986
 74
0
 49
-12.6999999999999993
 74
0
 49
25.3999999999999986
 74
0
 49
-12.6499999999999986
 74
0
 49
0.1
 74
0
 49
-12.6499999999999986
 74
0
  0
LTYPE
  5
39
100
AcDbSymbolTableRecord
100
AcDbLinetypeTableRecord
  2
ACAD_ISO05W100
 70
0
  3
ISO long-dash double-dot ____ .. ____ .. ____ . 
 72
65
 73
6
 40
33.0000000000000071
 49
24.0
 74
0
 49
-2.9500000000000002
 74
0
 49
0.1
 74
0
 49
-2.9000000000000004
 74
0
 49
0.1
 74
0
 49
-2.9500000000000002
 74
0
  0
LTYPE
  5
3A
100
AcDbSymbolTableRecord
100
AcDbLinetypeTableRecord
  2
DASHDOTX2
 70
0
  3
Dash dot (2x) ____  .  ____  .  ____  .  ___
 72
65
 73
4
 40
50.7999999999999972
 49
25.3999999999999986
 74
0
 49
-12.6499999999999986
 74
0
 49
0.1
 74
0
 49
-12.6499999999999986
 74
0
  0
LTYPE
  5
3B
100
AcDbSymbolTableRecord
100
AcDbLinetypeTableRecord
  2
HIDDENX2
 70
0
  3
Hidden (2x) ____ ____ ____ ____ ____ ____ ____ 
 72
65
 73
2
 40
19.0499999999999972
 49
12.6999999999999993
 74
0
 49
-6.3499999999999996
 74
0
  0
LTYPE
  5
3C
100
AcDbSymbolTableRecord
100
AcDbLinetypeTableRecord
  2
CENTERX2
 70
0
  3
Center (2x) ________  __  ________  __  _____
 72
65
 73
4
 40
101.6000000000000085
 49
63.5
 74
0
 49
-12.6999999999999993
 74
0
 49
12.6999999999999993
 74
0
 49
-12.6999999999999993
 74
0
  0
LTYPE
  5
3D
100
AcDbSymbolTableRecord
100
AcDbLinetypeTableRecord
  2
BORDER2
 70
0
  3
Border (.5x) __.__.__.__.__.__.__.__.__.__.__.
 72
65
 73
6
 40
22.2250000000000014
 49
6.3499999999999996
 74
0
 49
-3.1749999999999998
 74
0
 49
6.3499999999999996
 74
0
 49
-3.125
 74
0
 49
0.1
 74
0
 49
-3.125
 74
0
  0
LTYPE
  5
3E
100
AcDbSymbolTableRecord
100
AcDbLinetypeTableRecord
  2
DASHDOT2
 70
0
  3
Dash dot (.5x) _._._._._._._._._._._._._._._.
 72
65
 73
4
 40
12.6999999999999993
 49
6.3499999999999996
 74
0
 49
-3.125
 74
0
 49
0.1
 74
0
 49
-3.125
 74
0
  0
LTYPE
  5
3F
100
AcDbSymbolTableRecord
100
AcDbLinetypeTableRecord
  2
ACAD_ISO12W100
 70
0
  3
ISO dash double-dot __ . . __ . . __ . . __ . . 
 72
65
 73
6
 40
21.0
 49
12.0
 74
0
 49
-2.9500000000000002
 74
0
 49
0.1
 74
0
 49
-2.9000000000000004
 74
0
 49
0.1
 74
0
 49
-2.9500000000000002
 74
0
  0
LTYPE
  5
40
100
AcDbSymbolTableRecord
100
AcDbLinetypeTableRecord
  2
ACAD_ISO07W100
 70
0
  3
ISO dot . . . . . . . . . . . . . . . . . . . . 
 72
65
 73
2
 40
3.0
 49
0.1
 74
0
 49
-2.8999999999999999
 74
0
  0
LTYPE
  5
41
100
AcDbSymbolTableRecord
100
AcDbLinetypeTableRecord
  2
HIDDEN
 70
0
  3
Hidden __ __ __ __ __ __ __ __ __ __ __ __ __ __
 72
65
 73
2
 40
9.5249999999999986
 49
6.3499999999999996
 74
0
 49
-3.1749999999999998
 74
0
  0
LTYPE
  5
42
100
AcDbSymbolTableRecord
100
AcDbLinetypeTableRecord
  2
ACAD_ISO06W100
 70
0
  3
ISO long-dash triple-dot ____ ... ____ ... ____
 72
65
 73
8
 40
36.0000000000000071
 49
24.0
 74
0
 49
-2.9500000000000002
 74
0
 49
0.1
 74
0
 49
-2.9000000000000004
 74
0
 49
0.1
 74
0
 49
-2.9000000000000004
 74
0
 49
0.1
 74
0
 49
-2.9500000000000002
 74
0
  0
LTYPE
  5
43
100
AcDbSymbolTableRecord
100
AcDbLinetypeTableRecord
  2
CENTER
 70
0
  3
Center ____ _ ____ _ ____ _ ____ _ ____ _ ____
 72
65
 73
4
 40
50.8000000000000043
 49
31.75
 74
0
 49
-6.3499999999999996
 74
0
 49
6.3499999999999996
 74
0
 49
-6.3499999999999996
 74
0
  0
LTYPE
  5
44
100
AcDbSymbolTableRecord
100
AcDbLinetypeTableRecord
  2
DOTX2
 70
0
  3
Dot (2x) .  .  .  .  .  .  .  .  .  .  .  .  .  .
 72
65
 73
2
 40
12.6999999999999993
 49
0.1
 74
0
 49
-12.5999999999999996
 74
0
  0
LTYPE
  5
45
100
AcDbSymbolTableRecord
100
AcDbLinetypeTableRecord
  2
PHANTOM
 70
0
  3
Phantom ______  __  __  ______  __  __  ______ 
 72
65
 73
6
 40
63.5000000000000071
 49
31.75
 74
0
 49
-6.3499999999999996
 74
0
 49
6.3499999999999996
 74
0
 49
-6.3499999999999996
 74
0
 49
6.3499999999999996
 74
0
 49
-6.3499999999999996
 74
0
  0
LTYPE
  5
46
100
AcDbSymbolTableRecord
100
AcDbLinetypeTableRecord
  2
ACAD_ISO08W100
 70
0
  3
ISO long-dash short-dash ____ __ ____ __ ____ _
 72
65
 73
4
 40
36.0
 49
24.0
 74
0
 49
-3.0
 74
0
 49
6.0
 74
0
 49
-3.0
 74
0
  0
LTYPE
  5
47
100
AcDbSymbolTableRecord
100
AcDbLinetypeTableRecord
  2
DASHEDX2
 70
0
  3
Dashed (2x) ____  ____  ____  ____  ____  ___
 72
65
 73
2
 40
38.0999999999999943
 49
25.3999999999999986
 74
0
 49
-12.6999999999999993
 74
0
  0
LTYPE
  5
48
100
AcDbSymbolTableRecord
100
AcDbLinetypeTableRecord
  2
ACAD_ISO02W100
 70
0
  3
ISO dash __ __ __ __ __ __ __ __ __ __ __ __ __
 72
65
 73
2
 40
15.0
 49
12.0
 74
0
 49
-3.0
 74
0
  0
LTYPE
  5
49
100
AcDbSymbolTableRecord
100
AcDbLinetypeTableRecord
  2
PHANTOM2
 70
0
  3
Phantom (.5x) ___ _ _ ___ _ _ ___ _ _ ___ _ _
 72
65
 73
6
 40
31.7500000000000036
 49
15.875
 74
0
 49
-3.1749999999999998
 74
0
 49
3.1749999999999998
 74
0
 49
-3.1749999999999998
 74
0
 49
3.1749999999999998
 74
0
 49
-3.1749999999999998
 74
0
  0
LTYPE
  5
4A
100
AcDbSymbolTableRecord
100
AcDbLinetypeTableRecord
  2
DASHED2
 70
0
  3
Dashed (.5x) _ _ _ _ _ _ _ _ _ _ _ _ _ _ _ _ _ 
 72
65
 73
2
 40
9.5249999999999986
 49
6.3499999999999996
 74
0
 49
-3.1749999999999998
 74
0
  0
LTYPE
  5
4B
100
AcDbSymbolTableRecord
100
AcDbLinetypeTableRecord
  2
ACAD_ISO09W100
 70
0
  3
ISO long-dash double-short-dash ____ __ __ ____
 72
65
 73
6
 40
45.0
 49
24.0
 74
0
 49
-3.0
 74
0
 49
6.0
 74
0
 49
-3.0
 74
0
 49
6.0
 74
0
 49
-3.0
 74
0
  0
LTYPE
  5
4C
100
AcDbSymbolTableRecord
100
AcDbLinetypeTableRecord
  2
ACAD_ISO13W100
 70
0
  3
ISO double-dash double-dot __ __ . . __ __ . . _
 72
65
 73
8
 40
36.0000000000000071
 49
12.0
 74
0
 49
-3.0
 74
0
 49
12.0
 74
0
 49
-2.9500000000000002
 74
0
 49
0.1
 74
0
 49
-2.9000000000000004
 74
0
 49
0.1
 74
0
 49
-2.9500000000000002
 74
0
  0
LTYPE
  5
4D
100
AcDbSymbolTableRecord
100
AcDbLinetypeTableRecord
  2
DOT2
 70
0
  3
Dot (.5x) ........................................
 72
65
 73
2
 40
3.1749999999999998
 49
0.1
 74
0
 49
-3.0749999999999997
 74
0
  0
LTYPE
  5
4E
100
AcDbSymbolTableRecord
100
AcDbLinetypeTableRecord
  2
DASHED
 70
0
  3
Dashed __ __ __ __ __ __ __ __ __ __ __ __ __ _
 72
65
 73
2
 40
19.0499999999999972
 49
12.6999999999999993
 74
0
 49
-6.3499999999999996
 74
0
  0
LTYPE
  5
4F
100
AcDbSymbolTableRecord
100
AcDbLinetypeTableRecord
  2
ACAD_ISO14W100
 70
0
  3
ISO dash triple-dot __ . . . __ . . . __ . . . _
 72
65
 73
8
 40
24.0000000000000036
 49
12.0
 74
0
 49
-2.9500000000000002
 74
0
 49
0.1
 74
0
 49
-2.9000000000000004
 74
0
 49
0.1
 74
0
 49
-2.9000000000000004
 74
0
 49
0.1
 74
0
 49
-2.9500000000000002
 74
0
  0
LTYPE
  5
15
100
AcDbSymbolTableRecord
100
AcDbLinetypeTableRecord
  2
BYLAYER
 70
0
  3

 72
65
 73
0
 40
0.0
  0
LTYPE
  5
50
100
AcDbSymbolTableRecord
100
AcDbLinetypeTableRecord
  2
PHANTOMX2
 70
0
  3
Phantom (2x) ____________    ____    ____   _
 72
65
 73
6
 40
127.0000000000000142
 49
63.5
 74
0
 49
-12.6999999999999993
 74
0
 49
12.6999999999999993
 74
0
 49
-12.6999999999999993
 74
0
 49
12.6999999999999993
 74
0
 49
-12.6999999999999993
 74
0
  0
LTYPE
  5
14
100
AcDbSymbolTableRecord
100
AcDbLinetypeTableRecord
  2
BYBLOCK
 70
0
  3

 72
65
 73
0
 40
0.0
  0
LTYPE
  5
51
100
AcDbSymbolTableRecord
100
AcDbLinetypeTableRecord
  2
DIVIDEX2
 70
0
  3
Divide (2x) ________  .  .  ________  .  .  _
 72
65
 73
6
 40
63.5
 49
25.3999999999999986
 74
0
 49
-12.6499999999999986
 74
0
 49
0.1
 74
0
 49
-12.5999999999999979
 74
0
 49
0.1
 74
0
 49
-12.6499999999999986
 74
0
  0
LTYPE
  5
52
100
AcDbSymbolTableRecord
100
AcDbLinetypeTableRecord
  2
BORDER
 70
0
  3
Border __ __ . __ __ . __ __ . __ __ . __ __ .
 72
65
 73
6
 40
44.4499999999999957
 49
12.6999999999999993
 74
0
 49
-6.3499999999999996
 74
0
 49
12.6999999999999993
 74
0
 49
-6.2999999999999998
 74
0
 49
0.1
 74
0
 49
-6.2999999999999998
 74
0
  0
LTYPE
  5
53
100
AcDbSymbolTableRecord
100
AcDbLinetypeTableRecord
  2
DIVIDE2
 70
0
  3
Divide (.5x) __..__..__..__..__..__..__..__.._
 72
65
 73
6
 40
15.8749999999999982
 49
6.3499999999999996
 74
0
 49
-3.125
 74
0
 49
0.1
 74
0
 49
-3.0750000000000002
 74
0
 49
0.1
 74
0
 49
-3.125
 74
0
  0
LTYPE
  5
54
100
AcDbSymbolTableRecord
100
AcDbLinetypeTableRecord
  2
DOT
 70
0
  3
Dot . . . . . . . . . . . . . . . . . . . . . . . .
 72
65
 73
2
 40
6.3499999999999996
 49
0.1
 74
0
 49
-6.25
 74
0
  0
LTYPE
  5
55
100
AcDbSymbolTableRecord
100
AcDbLinetypeTableRecord
  2
DASHDOT
 70
0
  3
Dash dot __ . __ . __ . __ . __ . __ . __ . __
 72
65
 73
4
 40
25.4000000000000021
 49
12.6999999999999993
 74
0
 49
-6.2999999999999998
 74
0
 49
0.1
 74
0
 49
-6.2999999999999998
 74
0
  0
LTYPE
  5
56
100
AcDbSymbolTableRecord
100
AcDbLinetypeTableRecord
  2
ACAD_ISO03W100
 70
0
  3
ISO dash space __    __    __    __    __    __
 72
65
 73
2
 40
30.0
 49
12.0
 74
0
 49
-18.0
 74
0
  0
ENDTAB
  0
TABLE
  2
LAYER
  5
2
100
AcDbSymbolTable
 70
8
  0
LAYER
  5
57
100
AcDbSymbolTableRecord
100
AcDbLayerTableRecord
  2
arrow
 70
0
 62
7
420
0
  6
Continuous
370
80
390
F
  0
LAYER
  5
58
100
AcDbSymbolTableRecord
100
AcDbLayerTableRecord
  2
layer 1
 70
0
 62
7
420
0
  6
ACAD_ISO07W100
370
13
390
F
  0
LAYER
  5
59
100
AcDbSymbolTableRecord
100
AcDbLayerTableRecord
  2
indicatorline
 70
0
 62
7
420
0
  6
ACAD_ISO07W100
370
25
390
F
  0
LAYER
  5
5A
100
AcDbSymbolTableRecord
100
AcDbLayerTableRecord
  2
EtherCAT
 70
0
 62
7
420
0
  6
Continuous
370
25
390
F
  0
LAYER
  5
5B
100
AcDbSymbolTableRecord
100
AcDbLayerTableRecord
  2
boundary
 70
0
 62
7
420
0
  6
DASHEDX2
370
13
390
F
  0
LAYER
  5
5C
100
AcDbSymbolTableRecord
100
AcDbLayerTableRecord
  2
electric
 70
0
 62
7
420
0
  6
Continuous
370
13
390
F
  0
LAYER
  5
10
100
AcDbSymbolTableRecord
100
AcDbLayerTableRecord
  2
0
 70
0
 62
7
420
0
  6
Continuous
370
13
390
F
  0
LAYER
  5
5D
100
AcDbSymbolTableRecord
100
AcDbLayerTableRecord
  2
Oil
 70
0
 62
7
420
0
  6
Continuous
370
50
390
F
  0
ENDTAB
  0
TABLE
  2
STYLE
  5
3
100
AcDbSymbolTable
 70
18
  0
STYLE
  5
5E
100
AcDbSymbolTableRecord
100
AcDbTextStyleTableRecord
  2
Standard
 70
0
 40
0.0
 41
1.0
 50
0.0
 71
0
 42
2.5
  3

  4

1001
ACAD
1000
txt
1071
0
  0
STYLE
  5
5F
100
AcDbSymbolTableRecord
100
AcDbTextStyleTableRecord
  2
textstyle0
 70
0
 40
0.0
 41
1.0
 50
0.0
 71
0
 42
12.0
  3

  4

1001
ACAD
1000
CMU Serif
1071
0
  0
STYLE
  5
60
100
AcDbSymbolTableRecord
100
AcDbTextStyleTableRecord
  2
textstyle1
 70
0
 40
0.0
 41
1.0
 50
0.0
 71
0
 42
12.0
  3

  4

1001
ACAD
1000
CMU Serif
1071
0
  0
STYLE
  5
61
100
AcDbSymbolTableRecord
100
AcDbTextStyleTableRecord
  2
textstyle2
 70
0
 40
0.0
 41
1.0
 50
0.0
 71
0
 42
12.0
  3

  4

1001
ACAD
1000
CMU Serif
1071
0
  0
STYLE
  5
62
100
AcDbSymbolTableRecord
100
AcDbTextStyleTableRecord
  2
textstyle3
 70
0
 40
0.0
 41
1.0
 50
0.0
 71
0
 42
12.0
  3

  4

1001
ACAD
1000
CMU Serif
1071
0
  0
STYLE
  5
63
100
AcDbSymbolTableRecord
100
AcDbTextStyleTableRecord
  2
textstyle4
 70
0
 40
0.0
 41
1.0
 50
0.0
 71
0
 42
12.0
  3

  4

1001
ACAD
1000
CMU Serif
1071
0
  0
STYLE
  5
64
100
AcDbSymbolTableRecord
100
AcDbTextStyleTableRecord
  2
textstyle5
 70
0
 40
0.0
 41
1.0
 50
0.0
 71
0
 42
12.0
  3

  4

1001
ACAD
1000
CMU Serif
1071
0
  0
STYLE
  5
65
100
AcDbSymbolTableRecord
100
AcDbTextStyleTableRecord
  2
textstyle6
 70
0
 40
0.0
 41
1.0
 50
0.0
 71
0
 42
12.0
  3

  4

1001
ACAD
1000
CMU Serif
1071
0
  0
STYLE
  5
66
100
AcDbSymbolTableRecord
100
AcDbTextStyleTableRecord
  2
textstyle7
 70
0
 40
0.0
 41
1.0
 50
0.0
 71
0
 42
12.0
  3

  4

1001
ACAD
1000
CMU Serif
1071
0
  0
STYLE
  5
67
100
AcDbSymbolTableRecord
100
AcDbTextStyleTableRecord
  2
textstyle8
 70
0
 40
0.0
 41
1.0
 50
0.0
 71
0
 42
12.0
  3

  4

1001
ACAD
1000
CMU Serif
1071
0
  0
STYLE
  5
68
100
AcDbSymbolTableRecord
100
AcDbTextStyleTableRecord
  2
textstyle9
 70
0
 40
0.0
 41
1.0
 50
0.0
 71
0
 42
12.0
  3

  4

1001
ACAD
1000
CMU Serif
1071
0
  0
STYLE
  5
69
100
AcDbSymbolTableRecord
100
AcDbTextStyleTableRecord
  2
textstyle10
 70
0
 40
0.0
 41
1.0
 50
0.0
 71
0
 42
12.0
  3

  4

1001
ACAD
1000
CMU Serif
1071
0
  0
STYLE
  5
6A
100
AcDbSymbolTableRecord
100
AcDbTextStyleTableRecord
  2
textstyle11
 70
0
 40
0.0
 41
1.0
 50
0.0
 71
0
 42
12.0
  3

  4

1001
ACAD
1000
CMU Serif
1071
0
  0
STYLE
  5
6B
100
AcDbSymbolTableRecord
100
AcDbTextStyleTableRecord
  2
textstyle12
 70
0
 40
0.0
 41
1.0
 50
0.0
 71
0
 42
12.0
  3

  4

1001
ACAD
1000
CMU Serif
1071
0
  0
STYLE
  5
6C
100
AcDbSymbolTableRecord
100
AcDbTextStyleTableRecord
  2
textstyle13
 70
0
 40
0.0
 41
1.0
 50
0.0
 71
0
 42
12.0
  3

  4

1001
ACAD
1000
CMU Serif
1071
0
  0
STYLE
  5
6D
100
AcDbSymbolTableRecord
100
AcDbTextStyleTableRecord
  2
textstyle14
 70
0
 40
0.0
 41
1.0
 50
0.0
 71
0
 42
12.0
  3

  4

1001
ACAD
1000
CMU Serif
1071
0
  0
STYLE
  5
6E
100
AcDbSymbolTableRecord
100
AcDbTextStyleTableRecord
  2
textstyle15
 70
0
 40
0.0
 41
1.0
 50
0.0
 71
0
 42
12.0
  3

  4

1001
ACAD
1000
CMU Serif
1071
0
  0
STYLE
  5
6F
100
AcDbSymbolTableRecord
100
AcDbTextStyleTableRecord
  2
textstyle16
 70
0
 40
0.0
 41
1.0
 50
0.0
 71
0
 42
12.0
  3

  4

1001
ACAD
1000
CMU Serif
1071
0
  0
ENDTAB
  0
TABLE
  2
VIEW
  5
6
100
AcDbSymbolTable
 70
0
  0
ENDTAB
  0
TABLE
  2
UCS
  5
7
100
AcDbSymbolTable
 70
0
  0
ENDTAB
  0
TABLE
  2
APPID
  5
9
100
AcDbSymbolTable
 70
1
  0
APPID
  5
12
100
AcDbSymbolTableRecord
100
AcDbRegAppTableRecord
  2
ACAD
 70
0
  0
APPID
  5
70
100
AcDbSymbolTableRecord
100
AcDbRegAppTableRecord
  2
QCAD
 70
0
  0
ENDTAB
  0
TABLE
  2
DIMSTYLE
  5
A
100
AcDbSymbolTable
 70
1
100
AcDbDimStyleTable
 71
0
  0
DIMSTYLE
105
27
100
AcDbSymbolTableRecord
100
AcDbDimStyleTableRecord
  2
Standard
 41
2.5
 42
0.625
 43
3.75
 44
1.25
 70
0
 73
0
 74
0
 77
1
 78
8
140
2.5
141
2.5
143
0.03937007874016
147
0.625
171
3
172
1
271
2
272
2
274
3
278
44
283
0
284
8
340
5E
  0
ENDTAB
  0
TABLE
  2
BLOCK_RECORD
  5
1
100
AcDbSymbolTable
 70
1
  0
BLOCK_RECORD
  5
1F
100
AcDbSymbolTableRecord
100
AcDbBlockTableRecord
  2
*Model_Space
340
22
  0
BLOCK_RECORD
  5
1B
100
AcDbSymbolTableRecord
100
AcDbBlockTableRecord
  2
*Paper_Space
340
1E
  0
BLOCK_RECORD
  5
23
100
AcDbSymbolTableRecord
100
AcDbBlockTableRecord
  2
*Paper_Space0
340
26
  0
ENDTAB
  0
ENDSEC
  0
SECTION
  2
BLOCKS
  0
BLOCK
  5
20
100
AcDbEntity
  8
0
100
AcDbBlockBegin
  2
*Model_Space
 70
0
 10
0.0
 20
0.0
 30
0.0
  3
*Model_Space
  1

  0
ENDBLK
  5
21
100
AcDbEntity
  8
0
100
AcDbBlockEnd
  0
BLOCK
  5
1C
100
AcDbEntity
 67
1
  8
0
100
AcDbBlockBegin
  2
*Paper_Space
 70
0
 10
0.0
 20
0.0
 30
0.0
  3
*Paper_Space
  1

  0
ENDBLK
  5
1D
100
AcDbEntity
 67
1
  8
0
100
AcDbBlockEnd
  0
BLOCK
  5
24
100
AcDbEntity
  8
0
100
AcDbBlockBegin
  2
*Paper_Space0
 70
0
 10
0.0
 20
0.0
 30
0.0
  3
*Paper_Space0
  1

  0
ENDBLK
  5
25
100
AcDbEntity
  8
0
100
AcDbBlockEnd
  0
ENDSEC
  0
SECTION
  2
ENTITIES
  0
LINE
  5
71
100
AcDbEntity
100
AcDbLine
  8
0
 62
256
370
-1
 48
1.0
  6
BYLAYER
 10
-251.0673865584035411
 20
-39.7860021145208194
 30
0.0
 11
-212.3869782778422461
 21
51.339329244268157
 31
0.0
  0
LINE
  5
72
100
AcDbEntity
100
AcDbLine
  8
0
 62
256
370
-1
 48
1.0
  6
BYLAYER
 10
-212.3869782778422461
 20
51.339329244268157
 30
0.0
 11
-174.5517123428351454
 21
-42.3062400669773737
 31
0.0
  0
CIRCLE
  5
73
100
AcDbEntity
100
AcDbCircle
  8
0
 62
256
370
-1
 48
1.0
  6
BYLAYER
 10
-210.0
 20
-48.0
 30
0.0
 40
3.0
  0
LINE
  5
74
100
AcDbEntity
100
AcDbLine
  8
0
 62
256
370
-1
 48
1.0
  6
BYLAYER
 10
-212.0
 20
-43.0
 30
0.0
 11
-216.0
 21
-46.0
 31
0.0
  0
LINE
  5
75
100
AcDbEntity
100
AcDbLine
  8
0
 62
256
370
-1
 48
1.0
  6
BYLAYER
 10
-216.0
 20
-46.0
 30
0.0
 11
-216.0
 21
-58.0
 31
0.0
  0
LINE
  5
76
100
AcDbEntity
100
AcDbLine
  8
0
 62
256
370
-1
 48
1.0
  6
BYLAYER
 10
-216.0
 20
-58.0
 30
0.0
 11
-222.0
 21
-58.0
 31
0.0
  0
LINE
  5
77
100
AcDbEntity
100
AcDbLine
  8
0
 62
256
370
-1
 48
1.0
  6
BYLAYER
 10
-222.0
 20
-58.0
 30
0.0
 11
-222.0
 21
-63.0
 31
0.0
  0
LINE
  5
78
100
AcDbEntity
100
AcDbLine
  8
0
 62
256
370
-1
 48
1.0
  6
BYLAYER
 10
-222.0
 20
-63.0
 30
0.0
 11
-210.0
 21
-63.0
 31
0.0
  0
LINE
  5
79
100
AcDbEntity
100
AcDbLine
  8
0
 62
256
370
-1
 48
1.0
  6
BYLAYER
 10
-212.0
 20
-43.0
 30
0.0
 11
-210.0
 21
-43.0
 31
0.0
  0
CIRCLE
  5
7A
100
AcDbEntity
100
AcDbCircle
  8
0
 62
256
370
-1
 48
1.0
  6
BYLAYER
 10
-210.0
 20
-48.0
 30
0.0
 40
1.4142135623730951
  0
LINE
  5
7B
100
AcDbEntity
100
AcDbLine
  8
0
 62
256
370
-1
 48
1.0
  6
BYLAYER
 10
-208.0
 20
-43.0
 30
0.0
 11
-204.0
 21
-46.0
 31
0.0
  0
LINE
  5
7C
100
AcDbEntity
100
AcDbLine
  8
0
 62
256
370
-1
 48
1.0
  6
BYLAYER
 10
-204.0
 20
-46.0
 30
0.0
 11
-204.0
 21
-58.0
 31
0.0
  0
LINE
  5
7D
100
AcDbEntity
100
AcDbLine
  8
0
 62
256
370
-1
 48
1.0
  6
BYLAYER
 10
-204.0
 20
-58.0
 30
0.0
 11
-198.0
 21
-58.0000000000000071
 31
0.0
  0
LINE
  5
7E
100
AcDbEntity
100
AcDbLine
  8
0
 62
256
370
-1
 48
1.0
  6
BYLAYER
 10
-198.0
 20
-58.0000000000000071
 30
0.0
 11
-198.0
 21
-63.0
 31
0.0
  0
LINE
  5
7F
100
AcDbEntity
100
AcDbLine
  8
0
 62
256
370
-1
 48
1.0
  6
BYLAYER
 10
-198.0
 20
-63.0
 30
0.0
 11
-210.0
 21
-63.0
 31
0.0
  0
LINE
  5
80
100
AcDbEntity
100
AcDbLine
  8
0
 62
256
370
-1
 48
1.0
  6
BYLAYER
 10
-208.0
 20
-43.0
 30
0.0
 11
-210.0
 21
-43.0
 31
0.0
  0
LINE
  5
81
100
AcDbEntity
100
AcDbLine
  8
0
 62
256
370
-1
 48
1.0
  6
BYLAYER
 10
-211.2631584975945032
 20
48.5577776805677814
 30
0.0
 11
-200.136952242793086
 21
53.0530568015587249
 31
0.0
  0
LINE
  5
82
100
AcDbEntity
100
AcDbLine
  8
0
 62
256
370
-1
 48
1.0
  6
BYLAYER
 10
-200.136952242793086
 20
53.0530568015587249
 30
0.0
 11
-164.5493258682814144
 21
-35.0294093822861257
 31
0.0
  0
LINE
  5
83
100
AcDbEntity
100
AcDbLine
  8
0
 62
256
370
-1
 48
1.0
  6
BYLAYER
 10
-164.5493258682814144
 20
-35.0294093822861257
 30
0.0
 11
-175.6755321230828599
 21
-39.5246885032770265
 31
0.0
  0
LINE
  5
84
100
AcDbEntity
100
AcDbLine
  8
0
 62
256
370
-1
 48
1.0
  6
BYLAYER
 10
-175.6755321230828599
 20
-39.5246885032770265
 30
0.0
 11
-211.2631584975945032
 21
48.5577776805677814
 31
0.0
  0
LINE
  5
85
100
AcDbEntity
100
AcDbLine
  8
0
 62
256
370
-1
 48
1.0
  6
BYLAYER
 10
-193.7686401547225614
 20
37.2909312739233485
 30
0.0
 11
-204.8948464095240354
 21
32.795652152932405
 31
0.0
  0
LINE
  5
86
100
AcDbEntity
100
AcDbLine
  8
0
 62
256
370
-1
 48
1.0
  6
BYLAYER
 10
-170.917637956351939
 20
-19.2672838546506924
 30
0.0
 11
-182.0438442111533845
 21
-23.7625629756416288
 31
0.0
  0
HATCH
  5
87
  8
0
 62
256
370
-1
 48
1.0
  6
BYLAYER
100
AcDbEntity
100
AcDbHatch
 10
0.0
 20
0.0
 30
0.0
210
0.0
220
0.0
230
1.0
  2
ANSI31
 70
0
 71
0
 91
1
 92
1
 93
4
 72
1
 10
-211.2631584975945032
 20
48.5577776805677814
 11
-200.136952242793086
 21
53.0530568015587249
 72
1
 10
-200.136952242793086
 20
53.0530568015587249
 11
-164.5493258682814144
 21
-35.0294093822861257
 72
1
 10
-164.5493258682814144
 20
-35.0294093822861257
 11
-175.6755321230828599
 21
-39.5246885032770265
 72
1
 10
-175.6755321230828599
 20
-39.5246885032770265
 11
-211.2631584975945032
 21
48.5577776805677814
 97
0
 75
0
 76
1
 52
112.0
 41
1.0
 77
0
 78
1
 53
45.0
 43
0.0
 44
0.0
 45
-0.0883883476483184
 46
0.0883883476483185
 79
0
 98
0
1001
ACAD
1010
0.0
1020
0.0
1030
0
  0
LINE
  5
88
100
AcDbEntity
100
AcDbLine
  8
0
 62
256
370
-1
 48
1.0
  6
BYLAYER
 10
-266.0
 20
-63.0
 30
0.0
 11
-153.0
 21
-63.0
 31
0.0
  0
LINE
  5
89
100
AcDbEntity
100
AcDbLine
  8
0
 62
256
370
-1
 48
1.0
  6
BYLAYER
 10
-153.0
 20
-63.0
 30
0.0
 11
-153.0
 21
-68.0
 31
0.0
  0
LINE
  5
8A
100
AcDbEntity
100
AcDbLine
  8
0
 62
256
370
-1
 48
1.0
  6
BYLAYER
 10
-153.0
 20
-68.0
 30
0.0
 11
-274.0
 21
-68.0
 31
0.0
  0
LINE
  5
8B
100
AcDbEntity
100
AcDbLine
  8
0
 62
256
370
-1
 48
1.0
  6
BYLAYER
 10
-260.0
 20
27.0
 30
0.0
 11
-250.0
 21
27.0
 31
0.0
  0
LINE
  5
8C
100
AcDbEntity
100
AcDbLine
  8
0
 62
256
370
-1
 48
1.0
  6
BYLAYER
 10
-250.0
 20
-11.0
 30
0.0
 11
-260.0
 21
-11.0
 31
0.0
  0
LINE
  5
8D
100
AcDbEntity
100
AcDbLine
  8
0
 62
256
370
-1
 48
1.0
  6
BYLAYER
 10
-260.0
 20
33.0
 30
0.0
 11
-250.0
 21
33.0
 31
0.0
  0
LINE
  5
8E
100
AcDbEntity
100
AcDbLine
  8
0
 62
256
370
-1
 48
1.0
  6
BYLAYER
 10
-250.0
 20
33.0
 30
0.0
 11
-250.0
 21
29.0
 31
0.0
  0
LINE
  5
8F
100
AcDbEntity
100
AcDbLine
  8
0
 62
256
370
-1
 48
1.0
  6
BYLAYER
 10
-250.0
 20
29.0
 30
0.0
 11
-260.0
 21
29.0
 31
0.0
  0
LINE
  5
90
100
AcDbEntity
100
AcDbLine
  8
0
 62
256
370
-1
 48
1.0
  6
BYLAYER
 10
-260.0
 20
29.0
 30
0.0
 11
-260.0
 21
33.0
 31
0.0
  0
LINE
  5
91
100
AcDbEntity
100
AcDbLine
  8
0
 62
256
370
-1
 48
1.0
  6
BYLAYER
 10
-260.0
 20
33.0
 30
0.0
 11
-271.0
 21
33.0
 31
0.0
  0
LINE
  5
92
100
AcDbEntity
100
AcDbLine
  8
0
 62
256
370
-1
 48
1.0
  6
BYLAYER
 10
-271.0
 20
33.0
 30
0.0
 11
-271.0
 21
29.0
 31
0.0
  0
LINE
  5
93
100
AcDbEntity
100
AcDbLine
  8
0
 62
256
370
-1
 48
1.0
  6
BYLAYER
 10
-271.0
 20
29.0
 30
0.0
 11
-260.0
 21
29.0
 31
0.0
  0
LINE
  5
94
100
AcDbEntity
100
AcDbLine
  8
0
 62
256
370
-1
 48
1.0
  6
BYLAYER
 10
-260.0
 20
29.0
 30
0.0
 11
-260.0
 21
33.0
 31
0.0
  0
LINE
  5
95
100
AcDbEntity
100
AcDbLine
  8
0
 62
256
370
-1
 48
1.0
  6
BYLAYER
 10
-261.0
 20
33.0
 30
0.0
 11
-261.0
 21
29.0
 31
0.0
  0
LINE
  5
96
100
AcDbEntity
100
AcDbLine
  8
0
 62
256
370
-1
 48
1.0
  6
BYLAYER
 10
-263.0
 20
33.0
 30
0.0
 11
-263.0
 21
29.0
 31
0.0
  0
LINE
  5
97
100
AcDbEntity
100
AcDbLine
  8
0
 62
256
370
-1
 48
1.0
  6
BYLAYER
 10
-265.0
 20
33.0
 30
0.0
 11
-265.0
 21
29.0
 31
0.0
  0
LINE
  5
98
100
AcDbEntity
100
AcDbLine
  8
0
 62
256
370
-1
 48
1.0
  6
BYLAYER
 10
-267.0
 20
33.0
 30
0.0
 11
-267.0
 21
29.0
 31
0.0
  0
LINE
  5
99
100
AcDbEntity
100
AcDbLine
  8
0
 62
256
370
-1
 48
1.0
  6
BYLAYER
 10
-269.0
 20
33.0
 30
0.0
 11
-269.0
 21
29.0
 31
0.0
  0
LINE
  5
9A
100
AcDbEntity
100
AcDbLine
  8
0
 62
256
370
-1
 48
1.0
  6
BYLAYER
 10
-271.0
 20
33.0
 30
0.0
 11
-272.0
 21
33.0
 31
0.0
  0
LINE
  5
9B
100
AcDbEntity
100
AcDbLine
  8
0
 62
256
370
-1
 48
1.0
  6
BYLAYER
 10
-272.0
 20
33.0
 30
0.0
 11
-272.0
 21
29.0
 31
0.0
  0
LINE
  5
9C
100
AcDbEntity
100
AcDbLine
  8
0
 62
256
370
-1
 48
1.0
  6
BYLAYER
 10
-272.0
 20
29.0
 30
0.0
 11
-271.0
 21
29.0
 31
0.0
  0
LINE
  5
9D
100
AcDbEntity
100
AcDbLine
  8
0
 62
256
370
-1
 48
1.0
  6
BYLAYER
 10
-259.0
 20
29.0
 30
0.0
 11
-259.0
 21
33.0
 31
0.0
  0
LINE
  5
9E
100
AcDbEntity
100
AcDbLine
  8
0
 62
256
370
-1
 48
1.0
  6
BYLAYER
 10
-257.0
 20
33.0
 30
0.0
 11
-257.0
 21
29.0
 31
0.0
  0
LINE
  5
9F
100
AcDbEntity
100
AcDbLine
  8
0
 62
256
370
-1
 48
1.0
  6
BYLAYER
 10
-255.0
 20
33.0
 30
0.0
 11
-255.0
 21
29.0
 31
0.0
  0
LINE
  5
A0
100
AcDbEntity
100
AcDbLine
  8
0
 62
256
370
-1
 48
1.0
  6
BYLAYER
 10
-253.0
 20
33.0
 30
0.0
 11
-253.0
 21
29.0
 31
0.0
  0
LINE
  5
A1
100
AcDbEntity
100
AcDbLine
  8
0
 62
256
370
-1
 48
1.0
  6
BYLAYER
 10
-251.0
 20
33.0
 30
0.0
 11
-251.0
 21
29.0
 31
0.0
  0
LINE
  5
A2
100
AcDbEntity
100
AcDbLine
  8
0
 62
256
370
-1
 48
1.0
  6
BYLAYER
 10
-250.0
 20
25.0
 30
0.0
 11
-274.0
 21
25.0
 31
0.0
  0
LINE
  5
A3
100
AcDbEntity
100
AcDbLine
  8
0
 62
256
370
-1
 48
1.0
  6
BYLAYER
 10
-274.0
 20
25.0
 30
0.0
 11
-274.0
 21
-63.0
 31
0.0
  0
LINE
  5
A4
100
AcDbEntity
100
AcDbLine
  8
0
 62
256
370
-1
 48
1.0
  6
BYLAYER
 10
-274.0
 20
-63.0
 30
0.0
 11
-262.0
 21
-63.0
 31
0.0
  0
LINE
  5
A5
100
AcDbEntity
100
AcDbLine
  8
0
 62
256
370
-1
 48
1.0
  6
BYLAYER
 10
-262.0
 20
-63.0
 30
0.0
 11
-262.0
 21
19.0
 31
0.0
  0
LINE
  5
A6
100
AcDbEntity
100
AcDbLine
  8
0
 62
256
370
-1
 48
1.0
  6
BYLAYER
 10
-262.0
 20
19.0
 30
0.0
 11
-250.0
 21
19.0
 31
0.0
  0
LINE
  5
A7
100
AcDbEntity
100
AcDbLine
  8
0
 62
256
370
-1
 48
1.0
  6
BYLAYER
 10
-260.0
 20
-11.0
 30
0.0
 11
-260.0
 21
19.0
 31
0.0
  0
LINE
  5
A8
100
AcDbEntity
100
AcDbLine
  8
0
 62
256
370
-1
 48
1.0
  6
BYLAYER
 10
-260.0
 20
25.0
 30
0.0
 11
-260.0
 21
27.0
 31
0.0
  0
LINE
  5
A9
100
AcDbEntity
100
AcDbLine
  8
0
 62
256
370
-1
 48
1.0
  6
BYLAYER
 10
-250.0
 20
25.0
 30
0.0
 11
-248.0
 21
25.0
 31
0.0
  0
LINE
  5
AA
100
AcDbEntity
100
AcDbLine
  8
0
 62
256
370
-1
 48
1.0
  6
BYLAYER
 10
-248.0
 20
25.0
 30
0.0
 11
-248.0
 21
19.0
 31
0.0
  0
LINE
  5
AB
100
AcDbEntity
100
AcDbLine
  8
0
 62
256
370
-1
 48
1.0
  6
BYLAYER
 10
-248.0
 20
19.0
 30
0.0
 11
-250.0
 21
19.0
 31
0.0
  0
LINE
  5
AC
100
AcDbEntity
100
AcDbLine
  8
0
 62
256
370
-1
 48
1.0
  6
BYLAYER
 10
-250.0
 20
27.0
 30
0.0
 11
-250.0
 21
25.0
 31
0.0
  0
LINE
  5
AD
100
AcDbEntity
100
AcDbLine
  8
0
 62
256
370
-1
 48
1.0
  6
BYLAYER
 10
-250.0
 20
19.0
 30
0.0
 11
-250.0
 21
-11.0
 31
0.0
  0
LINE
  5
AE
100
AcDbEntity
100
AcDbLine
  8
0
 62
256
370
-1
 48
1.0
  6
BYLAYER
 10
-267.0
 20
33.0
 30
0.0
 11
-267.0
 21
37.0
 31
0.0
  0
LINE
  5
AF
100
AcDbEntity
100
AcDbLine
  8
0
 62
256
370
-1
 48
1.0
  6
BYLAYER
 10
-267.0
 20
37.0
 30
0.0
 11
-265.0
 21
37.0
 31
0.0
  0
LINE
  5
B0
100
AcDbEntity
100
AcDbLine
  8
0
 62
256
370
-1
 48
1.0
  6
BYLAYER
 10
-265.0
 20
37.0
 30
0.0
 11
-265.0
 21
33.0
 31
0.0
  0
LINE
  5
B1
100
AcDbEntity
100
AcDbLine
  8
0
 62
256
370
-1
 48
1.0
  6
BYLAYER
 10
-267.0
 20
29.0
 30
0.0
 11
-267.0
 21
-37.0
 31
0.0
  0
LINE
  5
B2
100
AcDbEntity
100
AcDbLine
  8
0
 62
256
370
-1
 48
1.0
  6
BYLAYER
 10
-265.0
 20
-37.0
 30
0.0
 11
-265.0
 21
29.0
 31
0.0
  0
LINE
  5
B3
100
AcDbEntity
100
AcDbLine
  8
0
 62
256
370
-1
 48
1.0
  6
BYLAYER
 10
-274.0
 20
-68.0
 30
0.0
 11
-274.0
 21
-63.0
 31
0.0
  0
LINE
  5
B4
100
AcDbEntity
100
AcDbLine
  8
0
 62
256
370
-1
 48
1.0
  6
BYLAYER
 10
-263.0
 20
-27.0
 30
0.0
 11
-250.0
 21
-31.0
 31
0.0
  0
CIRCLE
  5
B5
100
AcDbEntity
100
AcDbCircle
  8
0
 62
256
370
-1
 48
1.0
  6
BYLAYER
 10
-252.3505117484402547
 20
-44.6185573130356943
 30
0.0
 40
1.4142135623730951
  0
CIRCLE
  5
B6
100
AcDbEntity
100
AcDbCircle
  8
0
 62
256
370
-1
 48
1.0
  6
BYLAYER
 10
-253.0
 20
-34.0
 30
0.0
 40
2.0
  0
CIRCLE
  5
B7
100
AcDbEntity
100
AcDbCircle
  8
0
 62
256
370
-1
 48
1.0
  6
BYLAYER
 10
-253.0
 20
-34.0
 30
0.0
 40
1.4142135623730951
  0
LINE
  5
B8
100
AcDbEntity
100
AcDbLine
  8
0
 62
256
370
-1
 48
1.0
  6
BYLAYER
 10
-250.0
 20
-37.0
 30
0.0
 11
-262.0
 21
-37.0
 31
0.0
  0
LINE
  5
B9
100
AcDbEntity
100
AcDbLine
  8
0
 62
256
370
-1
 48
1.0
  6
BYLAYER
 10
-250.6927799649876079
 20
-40.7131859690876041
 30
0.0
 11
-256.2558830923883306
 21
-42.9608255295830759
 31
0.0
  0
LINE
  5
BA
100
AcDbEntity
100
AcDbLine
  8
0
 62
256
370
-1
 48
1.0
  6
BYLAYER
 10
-256.2558830923883306
 20
-42.9608255295830759
 30
0.0
 11
-254.0082435318928731
 21
-48.5239286569837986
 31
0.0
  0
LINE
  5
BB
100
AcDbEntity
100
AcDbLine
  8
0
 62
256
370
-1
 48
1.0
  6
BYLAYER
 10
-254.0082435318928731
 20
-48.5239286569837986
 30
0.0
 11
-248.4451404044921503
 21
-46.276289096488334
 31
0.0
  0
LINE
  5
BC
100
AcDbEntity
100
AcDbLine
  8
0
 62
256
370
-1
 48
1.0
  6
BYLAYER
 10
-263.0
 20
-27.0
 30
0.0
 11
-263.0
 21
-14.0
 31
0.0
  0
LINE
  5
BD
100
AcDbEntity
100
AcDbLine
  8
0
 62
256
370
-1
 48
1.0
  6
BYLAYER
 10
-269.0
 20
-14.0
 30
0.0
 11
-269.0
 21
-37.0
 31
0.0
  0
LINE
  5
BE
100
AcDbEntity
100
AcDbLine
  8
0
 62
256
370
-1
 48
1.0
  6
BYLAYER
 10
-269.0
 20
-37.0
 30
0.0
 11
-262.0
 21
-37.0
 31
0.0
  0
LINE
  5
BF
100
AcDbEntity
100
AcDbLine
  8
0
 62
256
370
-1
 48
1.0
  6
BYLAYER
 10
-256.0
 20
27.0
 30
0.0
 11
-256.0
 21
29.0
 31
0.0
  0
LINE
  5
C0
100
AcDbEntity
100
AcDbLine
  8
0
 62
256
370
-1
 48
1.0
  6
BYLAYER
 10
-254.0
 20
27.0
 30
0.0
 11
-254.0
 21
29.0
 31
0.0
  0
LINE
  5
C1
100
AcDbEntity
100
AcDbLine
  8
0
 62
256
370
-1
 48
1.0
  6
BYLAYER
 10
-256.0
 20
33.0
 30
0.0
 11
-256.0
 21
35.0
 31
0.0
  0
LINE
  5
C2
100
AcDbEntity
100
AcDbLine
  8
0
 62
256
370
-1
 48
1.0
  6
BYLAYER
 10
-254.0
 20
35.0
 30
0.0
 11
-254.0
 21
33.0
 31
0.0
  0
LINE
  5
C3
100
AcDbEntity
100
AcDbLine
  8
0
 62
256
370
-1
 48
1.0
  6
BYLAYER
 10
-256.0
 20
35.0
 30
0.0
 11
-254.0
 21
35.0
 31
0.0
  0
LINE
  5
C4
100
AcDbEntity
100
AcDbLine
  8
0
 62
256
370
-1
 48
1.0
  6
BYLAYER
 10
-251.0557229631264704
 20
-37.0
 30
0.0
 11
-250.9438767365394085
 21
-39.495031208479773
 31
0.0
  0
LINE
  5
C5
100
AcDbEntity
100
AcDbLine
  8
0
 62
256
370
-1
 48
1.0
  6
BYLAYER
 10
-250.91379150927159
 20
-40.1661632013771239
 30
0.0
 11
-250.8857743767558759
 21
-40.7911607728816179
 31
0.0
  0
LINE
  5
C6
100
AcDbEntity
100
AcDbLine
  8
0
 62
256
370
-1
 48
1.0
  6
BYLAYER
 10
-254.7079678009945383
 20
-37.0
 30
0.0
 11
-254.3894945380854438
 21
-42.2067556060461513
 31
0.0
  0
LINE
  5
C7
100
AcDbEntity
100
AcDbLine
  8
0
 62
256
370
-1
 48
1.0
  6
BYLAYER
 10
-250.0
 20
-31.0
 30
0.0
 11
-250.0
 21
-37.0
 31
0.0
  0
LINE
  5
C8
100
AcDbEntity
100
AcDbLine
  8
0
 62
256
370
-1
 48
1.0
  6
BYLAYER
 10
-263.0
 20
-14.0
 30
0.0
 11
-269.0
 21
-14.0
 31
0.0
  0
LINE
  5
C9
100
AcDbEntity
100
AcDbLine
  8
0
 62
256
370
-1
 48
1.0
  6
BYLAYER
 10
-263.0
 20
-15.0
 30
0.0
 11
-257.0
 21
-15.0
 31
0.0
  0
LINE
  5
CA
100
AcDbEntity
100
AcDbLine
  8
0
 62
256
370
-1
 48
1.0
  6
BYLAYER
 10
-257.0
 20
-15.0
 30
0.0
 11
-257.0
 21
-23.0
 31
0.0
  0
LINE
  5
CB
100
AcDbEntity
100
AcDbLine
  8
0
 62
256
370
-1
 48
1.0
  6
BYLAYER
 10
-257.0
 20
-23.0
 30
0.0
 11
-263.0
 21
-23.0
 31
0.0
  0
LINE
  5
CC
100
AcDbEntity
100
AcDbLine
  8
0
 62
256
370
-1
 48
1.0
  6
BYLAYER
 10
-174.5517123428351454
 20
-42.3062400669773737
 30
0.0
 11
-204.0
 21
-54.2041205864097222
 31
0.0
  0
LINE
  5
CD
100
AcDbEntity
100
AcDbLine
  8
0
 62
256
370
-1
 48
1.0
  6
BYLAYER
 10
-222.0
 20
-61.4765926514425445
 30
0.0
 11
-225.770565500812296
 21
-62.9999999999999858
 31
0.0
  0
LINE
  5
CE
100
AcDbEntity
100
AcDbLine
  8
0
 62
256
370
-1
 48
1.0
  6
BYLAYER
 10
-238.1459997678937839
 20
-67.9999999999999858
 30
0.0
 11
-239.4545821625102633
 21
-68.5287016060912038
 31
0.0
  0
LINE
  5
CF
100
AcDbEntity
100
AcDbLine
  8
0
 62
256
370
-1
 48
1.0
  6
BYLAYER
 10
-239.4545821625102633
 20
-68.5287016060912038
 30
0.0
 11
-239.6681914770122717
 21
-68.0000000000000142
 31
0.0
  0
LINE
  5
D0
100
AcDbEntity
100
AcDbLine
  8
0
 62
256
370
-1
 48
1.0
  6
BYLAYER
 10
-241.6883226061880805
 20
-62.9999999999999929
 30
0.0
 11
-251.0673865584035411
 21
-39.7860021145208194
 31
0.0
  0
ARC
  5
D1
100
AcDbEntity
  8
arrow
 62
256
370
-1
 48
1.0
  6
BYLAYER
100
AcDbCircle
 10
-210.4918479727460578
 20
-30.0858405620796461
 30
0.0
 40
91.7003250844495881
100
AcDbArc
 50
73.8596732850897268
 51
103.5721041819475516
  0
LINE
  5
D2
100
AcDbEntity
100
AcDbLine
  8
arrow
 62
256
370
-1
 48
1.0
  6
BYLAYER
 10
-232.0110589819316829
 20
59.0537868666677497
 30
0.0
 11
-230.0
 21
62.0
 31
0.0
  0
LINE
  5
D3
100
AcDbEntity
100
AcDbLine
  8
arrow
 62
256
370
-1
 48
1.0
  6
BYLAYER
 10
-230.0
 20
62.0
 30
0.0
 11
-228.7928110898450882
 21
57.6082230493812375
 31
0.0
  0
LINE
  5
D4
100
AcDbEntity
100
AcDbLine
  8
arrow
 62
256
370
-1
 48
1.0
  6
BYLAYER
 10
-228.7928110898450882
 20
57.6082230493812375
 30
0.0
 11
-232.0110589819316829
 21
59.0537868666677497
 31
0.0
  0
HATCH
  5
D5
  8
arrow
 62
256
370
-1
 48
1.0
  6
BYLAYER
100
AcDbEntity
100
AcDbHatch
 10
0.0
 20
0.0
 30
0.0
210
0.0
220
0.0
230
1.0
  2
SOLID
 70
1
 71
0
 91
1
 92
1
 93
3
 72
1
 10
-232.0110589819316829
 20
59.0537868666677497
 11
-230.0
 21
62.0
 72
1
 10
-230.0
 20
62.0
 11
-228.7928110898450882
 21
57.6082230493812375
 72
1
 10
-228.7928110898450882
 20
57.6082230493812375
 11
-232.0110589819316829
 21
59.0537868666677497
 97
0
 75
0
 76
1
 98
0
1001
ACAD
1010
0.0
1020
0.0
1030
0
  0
ELLIPSE
  5
D6
100
AcDbEntity
100
AcDbEllipse
  8
arrow
 62
256
370
-1
 48
1.0
  6
BYLAYER
 10
-255.0
 20
38.0
 30
0.0
 11
3.0
 21
0.0
 31
0.0
 40
0.4789316758582274
 41
5.4762687143395414
 42
3.9485092464298379
  0
LINE
  5
D7
100
AcDbEntity
100
AcDbLine
  8
arrow
 62
256
370
-1
 48
1.0
  6
BYLAYER
 10
-252.9248147279811292
 20
36.9624073639905646
 30
0.0
 11
-252.8362555524292077
 21
37.7756115755788784
 31
0.0
  0
LINE
  5
D8
100
AcDbEntity
100
AcDbLine
  8
arrow
 62
256
370
-1
 48
1.0
  6
BYLAYER
 10
-252.8362555524292077
 20
37.7756115755788784
 30
0.0
 11
-252.0
 21
37.0
 31
0.0
  0
LINE
  5
D9
100
AcDbEntity
100
AcDbLine
  8
arrow
 62
256
370
-1
 48
1.0
  6
BYLAYER
 10
-252.0
 20
37.0
 30
0.0
 11
-252.9248147279811292
 21
36.9624073639905646
 31
0.0
  0
HATCH
  5
DA
  8
arrow
 62
256
370
-1
 48
1.0
  6
BYLAYER
100
AcDbEntity
100
AcDbHatch
 10
0.0
 20
0.0
 30
0.0
210
0.0
220
0.0
230
1.0
  2
SOLID
 70
1
 71
0
 91
1
 92
1
 93
3
 72
1
 10
-252.8362555524292077
 20
37.7756115755788784
 11
-252.0
 21
37.0
 72
1
 10
-252.0
 20
37.0
 11
-252.9248147279811292
 21
36.9624073639905646
 72
1
 10
-252.9248147279811292
 20
36.9624073639905646
 11
-252.8362555524292077
 21
37.7756115755788784
 97
0
 75
0
 76
1
 98
0
1001
ACAD
1010
0.0
1020
0.0
1030
0
  0
LINE
  5
DB
100
AcDbEntity
100
AcDbLine
  8
arrow
 62
256
370
-1
 48
1.0
  6
BYLAYER
 10
-268.1637444475707639
 20
37.7756115755788784
 30
0.0
 11
-269.0
 21
37.0
 31
0.0
  0
LINE
  5
DC
100
AcDbEntity
100
AcDbLine
  8
arrow
 62
256
370
-1
 48
1.0
  6
BYLAYER
 10
-269.0
 20
37.0
 30
0.0
 11
-268.0751852720188708
 21
36.9624073639905646
 31
0.0
  0
HATCH
  5
DD
  8
arrow
 62
256
370
-1
 48
1.0
  6
BYLAYER
100
AcDbEntity
100
AcDbHatch
 10
0.0
 20
0.0
 30
0.0
210
0.0
220
0.0
230
1.0
  2
SOLID
 70
1
 71
0
 91
1
 92
1
 93
3
 72
1
 10
-268.1637444475707639
 20
37.7756115755788784
 11
-269.0
 21
37.0
 72
1
 10
-269.0
 20
37.0
 11
-268.0751852720188708
 21
36.9624073639905646
 72
1
 10
-268.0751852720188708
 20
36.9624073639905646
 11
-268.1637444475707639
 21
37.7756115755788784
 97
0
 75
0
 76
1
 98
0
1001
ACAD
1010
0.0
1020
0.0
1030
0
  0
ELLIPSE
  5
DE
100
AcDbEntity
100
AcDbEllipse
  8
arrow
 62
256
370
-1
 48
1.0
  6
BYLAYER
 10
-266.0
 20
38.0
 30
0.0
 11
-3.0
 21
0.0
 31
0.0
 40
0.4789316758582274
 41
2.3346760607497483
 42
0.806916592840045
  0
LINE
  5
DF
100
AcDbEntity
100
AcDbLine
  8
arrow
 62
256
370
-1
 48
1.0
  6
BYLAYER
 10
-268.0751852720188708
 20
36.9624073639905646
 30
0.0
 11
-268.1637444475707639
 21
37.7756115755788784
 31
0.0
  0
LINE
  5
E0
100
AcDbEntity
100
AcDbLine
  8
arrow
 62
256
370
-1
 48
1.0
  6
BYLAYER
 10
-271.0
 20
-17.0
 30
0.0
 11
-271.0
 21
-31.0
 31
0.0
  0
LINE
  5
E1
100
AcDbEntity
100
AcDbLine
  8
arrow
 62
256
370
-1
 48
1.0
  6
BYLAYER
 10
-271.0
 20
-31.0
 30
0.0
 11
-272.0
 21
-30.0
 31
0.0
  0
LINE
  5
E2
100
AcDbEntity
100
AcDbLine
  8
arrow
 62
256
370
-1
 48
1.0
  6
BYLAYER
 10
-272.0
 20
-30.0
 30
0.0
 11
-270.0
 21
-30.0
 31
0.0
  0
LINE
  5
E3
100
AcDbEntity
100
AcDbLine
  8
arrow
 62
256
370
-1
 48
1.0
  6
BYLAYER
 10
-270.0
 20
-30.0
 30
0.0
 11
-271.0
 21
-31.0
 31
0.0
  0
HATCH
  5
E4
  8
arrow
 62
256
370
-1
 48
1.0
  6
BYLAYER
100
AcDbEntity
100
AcDbHatch
 10
0.0
 20
0.0
 30
0.0
210
0.0
220
0.0
230
1.0
  2
SOLID
 70
1
 71
0
 91
1
 92
1
 93
3
 72
1
 10
-271.0
 20
-31.0
 11
-272.0
 21
-30.0
 72
1
 10
-272.0
 20
-30.0
 11
-270.0
 21
-30.0
 72
1
 10
-270.0
 20
-30.0
 11
-271.0
 21
-31.0
 97
0
 75
0
 76
1
 98
0
1001
ACAD
1010
0.0
1020
0.0
1030
0
  0
LINE
  5
E5
100
AcDbEntity
100
AcDbLine
  8
0
 62
256
370
-1
 48
1.0
  6
BYLAYER
 10
-268.0
 20
-69.0
 30
0.0
 11
-268.0
 21
-90.0
 31
0.0
  0
LINE
  5
E6
100
AcDbEntity
100
AcDbLine
  8
0
 62
256
370
-1
 48
1.0
  6
BYLAYER
 10
-268.0
 20
-69.0
 30
0.0
 11
-159.0
 21
-69.0
 31
0.0
  0
LINE
  5
E7
100
AcDbEntity
100
AcDbLine
  8
0
 62
256
370
-1
 48
1.0
  6
BYLAYER
 10
-159.0
 20
-69.0
 30
0.0
 11
-159.0
 21
-90.0
 31
0.0
  0
LINE
  5
E8
100
AcDbEntity
100
AcDbLine
  8
0
 62
256
370
-1
 48
1.0
  6
BYLAYER
 10
-159.0
 20
-90.0
 30
0.0
 11
-268.0
 21
-90.0
 31
0.0
  0
LINE
  5
E9
100
AcDbEntity
100
AcDbLine
  8
0
 62
256
370
-1
 48
1.0
  6
BYLAYER
 10
-264.0
 20
-68.0
 30
0.0
 11
-264.0
 21
-69.0
 31
0.0
  0
LINE
  5
EA
100
AcDbEntity
100
AcDbLine
  8
0
 62
256
370
-1
 48
1.0
  6
BYLAYER
 10
-163.0
 20
-67.9999999999999289
 30
0.0
 11
-163.0
 21
-69.0000000000000142
 31
0.0
  0
LINE
  5
EB
100
AcDbEntity
100
AcDbLine
  8
0
 62
256
370
-1
 48
1.0
  6
BYLAYER
 10
-272.0
 20
-90.0
 30
0.0
 11
-155.0
 21
-90.0
 31
0.0
  0
LINE
  5
EC
100
AcDbEntity
100
AcDbLine
  8
0
 62
256
370
-1
 48
1.0
  6
BYLAYER
 10
-155.0
 20
-90.0
 30
0.0
 11
-155.0
 21
-93.0
 31
0.0
  0
LINE
  5
ED
100
AcDbEntity
100
AcDbLine
  8
0
 62
256
370
-1
 48
1.0
  6
BYLAYER
 10
-155.0
 20
-93.0
 30
0.0
 11
-272.0
 21
-93.0
 31
0.0
  0
LINE
  5
EE
100
AcDbEntity
100
AcDbLine
  8
0
 62
256
370
-1
 48
1.0
  6
BYLAYER
 10
-272.0
 20
-93.0
 30
0.0
 11
-272.0
 21
-90.0
 31
0.0
  0
LINE
  5
EF
100
AcDbEntity
100
AcDbLine
  8
0
 62
256
370
-1
 48
1.0
  6
BYLAYER
 10
-262.0
 20
-93.0
 30
0.0
 11
-165.0
 21
-93.0
 31
0.0
  0
LINE
  5
F0
100
AcDbEntity
100
AcDbLine
  8
0
 62
256
370
-1
 48
1.0
  6
BYLAYER
 10
-165.0
 20
-93.0
 30
0.0
 11
-165.0
 21
-96.0
 31
0.0
  0
LINE
  5
F1
100
AcDbEntity
100
AcDbLine
  8
0
 62
256
370
-1
 48
1.0
  6
BYLAYER
 10
-165.0
 20
-96.0
 30
0.0
 11
-262.0
 21
-96.0
 31
0.0
  0
LINE
  5
F2
100
AcDbEntity
100
AcDbLine
  8
0
 62
256
370
-1
 48
1.0
  6
BYLAYER
 10
-262.0
 20
-96.0
 30
0.0
 11
-262.0
 21
-93.0
 31
0.0
  0
LINE
  5
F3
100
AcDbEntity
100
AcDbLine
  8
0
 62
256
370
-1
 48
1.0
  6
BYLAYER
 10
-264.0
 20
-96.0
 30
0.0
 11
-163.0
 21
-96.0
 31
0.0
  0
LINE
  5
F4
100
AcDbEntity
100
AcDbLine
  8
0
 62
256
370
-1
 48
1.0
  6
BYLAYER
 10
-163.0
 20
-96.0
 30
0.0
 11
-163.0
 21
-100.0
 31
0.0
  0
LINE
  5
F5
100
AcDbEntity
100
AcDbLine
  8
0
 62
256
370
-1
 48
1.0
  6
BYLAYER
 10
-163.0
 20
-100.0
 30
0.0
 11
-264.0
 21
-100.0
 31
0.0
  0
LINE
  5
F6
100
AcDbEntity
100
AcDbLine
  8
0
 62
256
370
-1
 48
1.0
  6
BYLAYER
 10
-264.0
 20
-100.0
 30
0.0
 11
-264.0
 21
-96.0
 31
0.0
  0
LINE
  5
F7
100
AcDbEntity
100
AcDbLine
  8
0
 62
256
370
-1
 48
1.0
  6
BYLAYER
 10
-163.0
 20
-96.0
 30
0.0
 11
-163.0
 21
-100.0
 31
0.0
  0
LINE
  5
F8
100
AcDbEntity
100
AcDbLine
  8
0
 62
256
370
-1
 48
1.0
  6
BYLAYER
 10
-263.0
 20
-100.0
 30
0.0
 11
-263.0
 21
-96.0
 31
0.0
  0
LINE
  5
F9
100
AcDbEntity
100
AcDbLine
  8
0
 62
256
370
-1
 48
1.0
  6
BYLAYER
 10
-262.0
 20
-100.0
 30
0.0
 11
-262.0
 21
-96.0
 31
0.0
  0
LINE
  5
FA
100
AcDbEntity
100
AcDbLine
  8
0
 62
256
370
-1
 48
1.0
  6
BYLAYER
 10
-261.0
 20
-100.0
 30
0.0
 11
-261.0
 21
-96.0
 31
0.0
  0
LINE
  5
FB
100
AcDbEntity
100
AcDbLine
  8
0
 62
256
370
-1
 48
1.0
  6
BYLAYER
 10
-260.0
 20
-100.0
 30
0.0
 11
-260.0
 21
-96.0
 31
0.0
  0
LINE
  5
FC
100
AcDbEntity
100
AcDbLine
  8
0
 62
256
370
-1
 48
1.0
  6
BYLAYER
 10
-259.0
 20
-100.0
 30
0.0
 11
-259.0
 21
-96.0
 31
0.0
  0
LINE
  5
FD
100
AcDbEntity
100
AcDbLine
  8
0
 62
256
370
-1
 48
1.0
  6
BYLAYER
 10
-258.0
 20
-100.0
 30
0.0
 11
-258.0
 21
-96.0
 31
0.0
  0
LINE
  5
FE
100
AcDbEntity
100
AcDbLine
  8
0
 62
256
370
-1
 48
1.0
  6
BYLAYER
 10
-257.0
 20
-100.0
 30
0.0
 11
-257.0
 21
-96.0
 31
0.0
  0
LINE
  5
FF
100
AcDbEntity
100
AcDbLine
  8
0
 62
256
370
-1
 48
1.0
  6
BYLAYER
 10
-256.0
 20
-100.0
 30
0.0
 11
-256.0
 21
-96.0
 31
0.0
  0
LINE
  5
100
100
AcDbEntity
100
AcDbLine
  8
0
 62
256
370
-1
 48
1.0
  6
BYLAYER
 10
-255.0
 20
-100.0
 30
0.0
 11
-255.0
 21
-96.0
 31
0.0
  0
LINE
  5
101
100
AcDbEntity
100
AcDbLine
  8
0
 62
256
370
-1
 48
1.0
  6
BYLAYER
 10
-254.0
 20
-100.0
 30
0.0
 11
-254.0
 21
-96.0
 31
0.0
  0
LINE
  5
102
100
AcDbEntity
100
AcDbLine
  8
0
 62
256
370
-1
 48
1.0
  6
BYLAYER
 10
-253.0
 20
-100.0
 30
0.0
 11
-253.0
 21
-96.0
 31
0.0
  0
LINE
  5
103
100
AcDbEntity
100
AcDbLine
  8
0
 62
256
370
-1
 48
1.0
  6
BYLAYER
 10
-252.0
 20
-100.0
 30
0.0
 11
-252.0
 21
-96.0
 31
0.0
  0
LINE
  5
104
100
AcDbEntity
100
AcDbLine
  8
0
 62
256
370
-1
 48
1.0
  6
BYLAYER
 10
-251.0
 20
-100.0
 30
0.0
 11
-251.0
 21
-96.0
 31
0.0
  0
LINE
  5
105
100
AcDbEntity
100
AcDbLine
  8
0
 62
256
370
-1
 48
1.0
  6
BYLAYER
 10
-250.0
 20
-100.0
 30
0.0
 11
-250.0
 21
-96.0
 31
0.0
  0
LINE
  5
106
100
AcDbEntity
100
AcDbLine
  8
0
 62
256
370
-1
 48
1.0
  6
BYLAYER
 10
-249.0
 20
-100.0
 30
0.0
 11
-249.0
 21
-96.0
 31
0.0
  0
LINE
  5
107
100
AcDbEntity
100
AcDbLine
  8
0
 62
256
370
-1
 48
1.0
  6
BYLAYER
 10
-248.0
 20
-100.0
 30
0.0
 11
-248.0
 21
-96.0
 31
0.0
  0
LINE
  5
108
100
AcDbEntity
100
AcDbLine
  8
0
 62
256
370
-1
 48
1.0
  6
BYLAYER
 10
-247.0
 20
-100.0
 30
0.0
 11
-247.0
 21
-96.0
 31
0.0
  0
LINE
  5
109
100
AcDbEntity
100
AcDbLine
  8
0
 62
256
370
-1
 48
1.0
  6
BYLAYER
 10
-246.0
 20
-100.0
 30
0.0
 11
-246.0
 21
-96.0
 31
0.0
  0
LINE
  5
10A
100
AcDbEntity
100
AcDbLine
  8
0
 62
256
370
-1
 48
1.0
  6
BYLAYER
 10
-245.0
 20
-100.0
 30
0.0
 11
-245.0
 21
-96.0
 31
0.0
  0
LINE
  5
10B
100
AcDbEntity
100
AcDbLine
  8
0
 62
256
370
-1
 48
1.0
  6
BYLAYER
 10
-244.0
 20
-100.0
 30
0.0
 11
-244.0
 21
-96.0
 31
0.0
  0
LINE
  5
10C
100
AcDbEntity
100
AcDbLine
  8
0
 62
256
370
-1
 48
1.0
  6
BYLAYER
 10
-243.0
 20
-100.0
 30
0.0
 11
-243.0
 21
-96.0
 31
0.0
  0
LINE
  5
10D
100
AcDbEntity
100
AcDbLine
  8
0
 62
256
370
-1
 48
1.0
  6
BYLAYER
 10
-242.0
 20
-100.0
 30
0.0
 11
-242.0
 21
-96.0
 31
0.0
  0
LINE
  5
10E
100
AcDbEntity
100
AcDbLine
  8
0
 62
256
370
-1
 48
1.0
  6
BYLAYER
 10
-241.0
 20
-100.0
 30
0.0
 11
-241.0
 21
-96.0
 31
0.0
  0
LINE
  5
10F
100
AcDbEntity
100
AcDbLine
  8
0
 62
256
370
-1
 48
1.0
  6
BYLAYER
 10
-240.0
 20
-100.0
 30
0.0
 11
-240.0
 21
-96.0
 31
0.0
  0
LINE
  5
110
100
AcDbEntity
100
AcDbLine
  8
0
 62
256
370
-1
 48
1.0
  6
BYLAYER
 10
-239.0
 20
-100.0
 30
0.0
 11
-239.0
 21
-96.0
 31
0.0
  0
LINE
  5
111
100
AcDbEntity
100
AcDbLine
  8
0
 62
256
370
-1
 48
1.0
  6
BYLAYER
 10
-238.0
 20
-100.0
 30
0.0
 11
-238.0
 21
-96.0
 31
0.0
  0
LINE
  5
112
100
AcDbEntity
100
AcDbLine
  8
0
 62
256
370
-1
 48
1.0
  6
BYLAYER
 10
-237.0
 20
-100.0
 30
0.0
 11
-237.0
 21
-96.0
 31
0.0
  0
LINE
  5
113
100
AcDbEntity
100
AcDbLine
  8
0
 62
256
370
-1
 48
1.0
  6
BYLAYER
 10
-228.0
 20
-100.0
 30
0.0
 11
-228.0
 21
-96.0
 31
0.0
  0
LINE
  5
114
100
AcDbEntity
100
AcDbLine
  8
0
 62
256
370
-1
 48
1.0
  6
BYLAYER
 10
-227.0
 20
-100.0
 30
0.0
 11
-227.0
 21
-96.0
 31
0.0
  0
LINE
  5
115
100
AcDbEntity
100
AcDbLine
  8
0
 62
256
370
-1
 48
1.0
  6
BYLAYER
 10
-226.0
 20
-100.0
 30
0.0
 11
-226.0
 21
-96.0
 31
0.0
  0
LINE
  5
116
100
AcDbEntity
100
AcDbLine
  8
0
 62
256
370
-1
 48
1.0
  6
BYLAYER
 10
-225.0
 20
-100.0
 30
0.0
 11
-225.0
 21
-96.0
 31
0.0
  0
LINE
  5
117
100
AcDbEntity
100
AcDbLine
  8
0
 62
256
370
-1
 48
1.0
  6
BYLAYER
 10
-224.0
 20
-100.0
 30
0.0
 11
-224.0
 21
-96.0
 31
0.0
  0
LINE
  5
118
100
AcDbEntity
100
AcDbLine
  8
0
 62
256
370
-1
 48
1.0
  6
BYLAYER
 10
-223.0
 20
-100.0
 30
0.0
 11
-223.0
 21
-96.0
 31
0.0
  0
LINE
  5
119
100
AcDbEntity
100
AcDbLine
  8
0
 62
256
370
-1
 48
1.0
  6
BYLAYER
 10
-222.0
 20
-100.0
 30
0.0
 11
-222.0
 21
-96.0
 31
0.0
  0
LINE
  5
11A
100
AcDbEntity
100
AcDbLine
  8
0
 62
256
370
-1
 48
1.0
  6
BYLAYER
 10
-221.0
 20
-100.0
 30
0.0
 11
-221.0
 21
-96.0
 31
0.0
  0
LINE
  5
11B
100
AcDbEntity
100
AcDbLine
  8
0
 62
256
370
-1
 48
1.0
  6
BYLAYER
 10
-220.0
 20
-100.0
 30
0.0
 11
-220.0
 21
-96.0
 31
0.0
  0
LINE
  5
11C
100
AcDbEntity
100
AcDbLine
  8
0
 62
256
370
-1
 48
1.0
  6
BYLAYER
 10
-219.0
 20
-100.0
 30
0.0
 11
-219.0
 21
-96.0
 31
0.0
  0
LINE
  5
11D
100
AcDbEntity
100
AcDbLine
  8
0
 62
256
370
-1
 48
1.0
  6
BYLAYER
 10
-218.0
 20
-100.0
 30
0.0
 11
-218.0
 21
-96.0
 31
0.0
  0
LINE
  5
11E
100
AcDbEntity
100
AcDbLine
  8
0
 62
256
370
-1
 48
1.0
  6
BYLAYER
 10
-217.0
 20
-100.0
 30
0.0
 11
-217.0
 21
-96.0
 31
0.0
  0
LINE
  5
11F
100
AcDbEntity
100
AcDbLine
  8
0
 62
256
370
-1
 48
1.0
  6
BYLAYER
 10
-216.0
 20
-100.0
 30
0.0
 11
-216.0
 21
-96.0
 31
0.0
  0
LINE
  5
120
100
AcDbEntity
100
AcDbLine
  8
0
 62
256
370
-1
 48
1.0
  6
BYLAYER
 10
-215.0
 20
-100.0
 30
0.0
 11
-215.0
 21
-96.0
 31
0.0
  0
LINE
  5
121
100
AcDbEntity
100
AcDbLine
  8
0
 62
256
370
-1
 48
1.0
  6
BYLAYER
 10
-214.0
 20
-100.0
 30
0.0
 11
-214.0
 21
-96.0
 31
0.0
  0
LINE
  5
122
100
AcDbEntity
100
AcDbLine
  8
0
 62
256
370
-1
 48
1.0
  6
BYLAYER
 10
-205.0
 20
-100.0
 30
0.0
 11
-205.0
 21
-96.0
 31
0.0
  0
LINE
  5
123
100
AcDbEntity
100
AcDbLine
  8
0
 62
256
370
-1
 48
1.0
  6
BYLAYER
 10
-204.0
 20
-100.0
 30
0.0
 11
-204.0
 21
-96.0
 31
0.0
  0
LINE
  5
124
100
AcDbEntity
100
AcDbLine
  8
0
 62
256
370
-1
 48
1.0
  6
BYLAYER
 10
-203.0
 20
-100.0
 30
0.0
 11
-203.0
 21
-96.0
 31
0.0
  0
LINE
  5
125
100
AcDbEntity
100
AcDbLine
  8
0
 62
256
370
-1
 48
1.0
  6
BYLAYER
 10
-202.0
 20
-100.0
 30
0.0
 11
-202.0
 21
-96.0
 31
0.0
  0
LINE
  5
126
100
AcDbEntity
100
AcDbLine
  8
0
 62
256
370
-1
 48
1.0
  6
BYLAYER
 10
-201.0
 20
-100.0
 30
0.0
 11
-201.0
 21
-96.0
 31
0.0
  0
LINE
  5
127
100
AcDbEntity
100
AcDbLine
  8
0
 62
256
370
-1
 48
1.0
  6
BYLAYER
 10
-200.0
 20
-100.0
 30
0.0
 11
-200.0
 21
-96.0
 31
0.0
  0
LINE
  5
128
100
AcDbEntity
100
AcDbLine
  8
0
 62
256
370
-1
 48
1.0
  6
BYLAYER
 10
-199.0
 20
-100.0
 30
0.0
 11
-199.0
 21
-96.0
 31
0.0
  0
LINE
  5
129
100
AcDbEntity
100
AcDbLine
  8
0
 62
256
370
-1
 48
1.0
  6
BYLAYER
 10
-198.0
 20
-100.0
 30
0.0
 11
-198.0
 21
-96.0
 31
0.0
  0
LINE
  5
12A
100
AcDbEntity
100
AcDbLine
  8
0
 62
256
370
-1
 48
1.0
  6
BYLAYER
 10
-197.0
 20
-100.0
 30
0.0
 11
-197.0
 21
-96.0
 31
0.0
  0
LINE
  5
12B
100
AcDbEntity
100
AcDbLine
  8
0
 62
256
370
-1
 48
1.0
  6
BYLAYER
 10
-196.0
 20
-100.0
 30
0.0
 11
-196.0
 21
-96.0
 31
0.0
  0
LINE
  5
12C
100
AcDbEntity
100
AcDbLine
  8
0
 62
256
370
-1
 48
1.0
  6
BYLAYER
 10
-195.0
 20
-100.0
 30
0.0
 11
-195.0
 21
-96.0
 31
0.0
  0
LINE
  5
12D
100
AcDbEntity
100
AcDbLine
  8
0
 62
256
370
-1
 48
1.0
  6
BYLAYER
 10
-194.0
 20
-100.0
 30
0.0
 11
-194.0
 21
-96.0
 31
0.0
  0
LINE
  5
12E
100
AcDbEntity
100
AcDbLine
  8
0
 62
256
370
-1
 48
1.0
  6
BYLAYER
 10
-193.0
 20
-100.0
 30
0.0
 11
-193.0
 21
-96.0
 31
0.0
  0
LINE
  5
12F
100
AcDbEntity
100
AcDbLine
  8
0
 62
256
370
-1
 48
1.0
  6
BYLAYER
 10
-192.0
 20
-100.0
 30
0.0
 11
-192.0
 21
-96.0
 31
0.0
  0
LINE
  5
130
100
AcDbEntity
100
AcDbLine
  8
0
 62
256
370
-1
 48
1.0
  6
BYLAYER
 10
-191.0
 20
-100.0
 30
0.0
 11
-191.0
 21
-96.0
 31
0.0
  0
LINE
  5
131
100
AcDbEntity
100
AcDbLine
  8
0
 62
256
370
-1
 48
1.0
  6
BYLAYER
 10
-190.0
 20
-100.0
 30
0.0
 11
-190.0
 21
-96.0
 31
0.0
  0
LINE
  5
132
100
AcDbEntity
100
AcDbLine
  8
0
 62
256
370
-1
 48
1.0
  6
BYLAYER
 10
-189.0
 20
-100.0
 30
0.0
 11
-189.0
 21
-96.0
 31
0.0
  0
LINE
  5
133
100
AcDbEntity
100
AcDbLine
  8
0
 62
256
370
-1
 48
1.0
  6
BYLAYER
 10
-188.0
 20
-100.0
 30
0.0
 11
-188.0
 21
-96.0
 31
0.0
  0
LINE
  5
134
100
AcDbEntity
100
AcDbLine
  8
0
 62
256
370
-1
 48
1.0
  6
BYLAYER
 10
-187.0
 20
-100.0
 30
0.0
 11
-187.0
 21
-96.0
 31
0.0
  0
LINE
  5
135
100
AcDbEntity
100
AcDbLine
  8
0
 62
256
370
-1
 48
1.0
  6
BYLAYER
 10
-186.0
 20
-100.0
 30
0.0
 11
-186.0
 21
-96.0
 31
0.0
  0
LINE
  5
136
100
AcDbEntity
100
AcDbLine
  8
0
 62
256
370
-1
 48
1.0
  6
BYLAYER
 10
-175.0
 20
-100.0
 30
0.0
 11
-175.0
 21
-96.0
 31
0.0
  0
LINE
  5
137
100
AcDbEntity
100
AcDbLine
  8
0
 62
256
370
-1
 48
1.0
  6
BYLAYER
 10
-174.0
 20
-100.0
 30
0.0
 11
-174.0
 21
-96.0
 31
0.0
  0
LINE
  5
138
100
AcDbEntity
100
AcDbLine
  8
0
 62
256
370
-1
 48
1.0
  6
BYLAYER
 10
-173.0
 20
-100.0
 30
0.0
 11
-173.0
 21
-96.0
 31
0.0
  0
LINE
  5
139
100
AcDbEntity
100
AcDbLine
  8
0
 62
256
370
-1
 48
1.0
  6
BYLAYER
 10
-172.0
 20
-100.0
 30
0.0
 11
-172.0
 21
-96.0
 31
0.0
  0
LINE
  5
13A
100
AcDbEntity
100
AcDbLine
  8
0
 62
256
370
-1
 48
1.0
  6
BYLAYER
 10
-171.0
 20
-100.0
 30
0.0
 11
-171.0
 21
-96.0
 31
0.0
  0
LINE
  5
13B
100
AcDbEntity
100
AcDbLine
  8
0
 62
256
370
-1
 48
1.0
  6
BYLAYER
 10
-170.0
 20
-100.0
 30
0.0
 11
-170.0
 21
-96.0
 31
0.0
  0
LINE
  5
13C
100
AcDbEntity
100
AcDbLine
  8
0
 62
256
370
-1
 48
1.0
  6
BYLAYER
 10
-169.0
 20
-100.0
 30
0.0
 11
-169.0
 21
-96.0
 31
0.0
  0
LINE
  5
13D
100
AcDbEntity
100
AcDbLine
  8
0
 62
256
370
-1
 48
1.0
  6
BYLAYER
 10
-168.0
 20
-100.0
 30
0.0
 11
-168.0
 21
-96.0
 31
0.0
  0
LINE
  5
13E
100
AcDbEntity
100
AcDbLine
  8
0
 62
256
370
-1
 48
1.0
  6
BYLAYER
 10
-167.0
 20
-100.0
 30
0.0
 11
-167.0
 21
-96.0
 31
0.0
  0
LINE
  5
13F
100
AcDbEntity
100
AcDbLine
  8
0
 62
256
370
-1
 48
1.0
  6
BYLAYER
 10
-166.0
 20
-100.0
 30
0.0
 11
-166.0
 21
-96.0
 31
0.0
  0
LINE
  5
140
100
AcDbEntity
100
AcDbLine
  8
0
 62
256
370
-1
 48
1.0
  6
BYLAYER
 10
-165.0
 20
-100.0
 30
0.0
 11
-165.0
 21
-96.0
 31
0.0
  0
LINE
  5
141
100
AcDbEntity
100
AcDbLine
  8
0
 62
256
370
-1
 48
1.0
  6
BYLAYER
 10
-164.0
 20
-100.0
 30
0.0
 11
-164.0
 21
-96.0
 31
0.0
  0
LINE
  5
142
100
AcDbEntity
100
AcDbLine
  8
0
 62
256
370
-1
 48
1.0
  6
BYLAYER
 10
-270.0
 20
33.0
 30
0.0
 11
-270.0
 21
29.0
 31
0.0
  0
LINE
  5
143
100
AcDbEntity
100
AcDbLine
  8
0
 62
256
370
-1
 48
1.0
  6
BYLAYER
 10
-268.0
 20
33.0
 30
0.0
 11
-268.0
 21
29.0
 31
0.0
  0
LINE
  5
144
100
AcDbEntity
100
AcDbLine
  8
0
 62
256
370
-1
 48
1.0
  6
BYLAYER
 10
-266.0
 20
33.0
 30
0.0
 11
-266.0
 21
29.0
 31
0.0
  0
LINE
  5
145
100
AcDbEntity
100
AcDbLine
  8
0
 62
256
370
-1
 48
1.0
  6
BYLAYER
 10
-264.0
 20
33.0
 30
0.0
 11
-264.0
 21
29.0
 31
0.0
  0
LINE
  5
146
100
AcDbEntity
100
AcDbLine
  8
0
 62
256
370
-1
 48
1.0
  6
BYLAYER
 10
-262.0
 20
33.0
 30
0.0
 11
-262.0
 21
29.0
 31
0.0
  0
LINE
  5
147
100
AcDbEntity
100
AcDbLine
  8
0
 62
256
370
-1
 48
1.0
  6
BYLAYER
 10
-258.0
 20
33.0
 30
0.0
 11
-258.0
 21
29.0
 31
0.0
  0
LINE
  5
148
100
AcDbEntity
100
AcDbLine
  8
0
 62
256
370
-1
 48
1.0
  6
BYLAYER
 10
-256.0
 20
33.0
 30
0.0
 11
-256.0
 21
29.0
 31
0.0
  0
LINE
  5
149
100
AcDbEntity
100
AcDbLine
  8
0
 62
256
370
-1
 48
1.0
  6
BYLAYER
 10
-254.0
 20
33.0
 30
0.0
 11
-254.0
 21
29.0
 31
0.0
  0
LINE
  5
14A
100
AcDbEntity
100
AcDbLine
  8
0
 62
256
370
-1
 48
1.0
  6
BYLAYER
 10
-252.0
 20
33.0
 30
0.0
 11
-252.0
 21
29.0
 31
0.0
  0
LINE
  5
14B
100
AcDbEntity
100
AcDbLine
  8
0
 62
256
370
-1
 48
1.0
  6
BYLAYER
 10
-251.0
 20
33.0
 30
0.0
 11
-250.0
 21
33.0
 31
0.0
  0
LINE
  5
14C
100
AcDbEntity
100
AcDbLine
  8
0
 62
256
370
-1
 48
1.0
  6
BYLAYER
 10
-259.0
 20
33.0
 30
0.0
 11
-260.0
 21
33.0
 31
0.0
  0
LINE
  5
14D
100
AcDbEntity
100
AcDbLine
  8
0
 62
256
370
-1
 48
1.0
  6
BYLAYER
 10
-260.0
 20
33.0
 30
0.0
 11
-260.0
 21
33.0
 31
0.0
  0
LINE
  5
14E
100
AcDbEntity
100
AcDbLine
  8
0
 62
256
370
-1
 48
1.0
  6
BYLAYER
 10
-260.0
 20
33.0
 30
0.0
 11
-261.0
 21
33.0
 31
0.0
  0
LINE
  5
14F
100
AcDbEntity
100
AcDbLine
  8
0
 62
256
370
-1
 48
1.0
  6
BYLAYER
 10
-271.0
 20
33.0
 30
0.0
 11
-272.0
 21
33.0
 31
0.0
  0
LINE
  5
150
100
AcDbEntity
100
AcDbLine
  8
0
 62
256
370
-1
 48
1.0
  6
BYLAYER
 10
-271.5
 20
33.0
 30
0.0
 11
-271.5
 21
29.0
 31
0.0
  0
LINE
  5
151
100
AcDbEntity
100
AcDbLine
  8
0
 62
256
370
-1
 48
1.0
  6
BYLAYER
 10
-260.5
 20
33.0
 30
0.0
 11
-260.5
 21
29.0
 31
0.0
  0
LINE
  5
152
100
AcDbEntity
100
AcDbLine
  8
0
 62
256
370
-1
 48
1.0
  6
BYLAYER
 10
-259.5
 20
33.0
 30
0.0
 11
-259.5
 21
29.0
 31
0.0
  0
LINE
  5
153
100
AcDbEntity
100
AcDbLine
  8
0
 62
256
370
-1
 48
1.0
  6
BYLAYER
 10
-250.5
 20
33.0
 30
0.0
 11
-250.5
 21
29.0
 31
0.0
  0
LINE
  5
154
100
AcDbEntity
100
AcDbLine
  8
0
 62
256
370
-1
 48
1.0
  6
BYLAYER
 10
-263.8278761934583372
 20
-96.0
 30
0.0
 11
-263.0
 21
-96.0
 31
0.0
  0
LINE
  5
155
100
AcDbEntity
100
AcDbLine
  8
0
 62
256
370
-1
 48
1.0
  6
BYLAYER
 10
-164.0
 20
-96.0
 30
0.0
 11
-163.0
 21
-96.0
 31
0.0
  0
LINE
  5
156
100
AcDbEntity
100
AcDbLine
  8
0
 62
256
370
-1
 48
1.0
  6
BYLAYER
 10
-163.5
 20
-96.0
 30
0.0
 11
-163.5
 21
-100.0
 31
0.0
  0
LINE
  5
157
100
AcDbEntity
100
AcDbLine
  8
0
 62
256
370
-1
 48
1.0
  6
BYLAYER
 10
-263.4139380967291686
 20
-96.0
 30
0.0
 11
-263.4139380967291686
 21
-100.0
 31
0.0
  0
LINE
  5
158
100
AcDbEntity
100
AcDbLine
  8
0
 62
256
370
-1
 48
1.0
  6
BYLAYER
 10
-267.0
 20
18.0
 30
0.0
 11
-265.0
 21
18.0
 31
0.0
  0
LINE
  5
159
100
AcDbEntity
100
AcDbLine
  8
0
 62
256
370
-1
 48
1.0
  6
BYLAYER
 10
-267.0
 20
-14.0
 30
0.0
 11
-265.0
 21
-14.0
 31
0.0
  0
LINE
  5
15A
100
AcDbEntity
100
AcDbLine
  8
0
 62
256
370
-1
 48
1.0
  6
BYLAYER
 10
-267.0
 20
18.0
 30
0.0
 11
-267.0
 21
-14.0
 31
0.0
  0
LINE
  5
15B
100
AcDbEntity
100
AcDbLine
  8
0
 62
256
370
-1
 48
1.0
  6
BYLAYER
 10
-265.0
 20
18.0
 30
0.0
 11
-265.0
 21
-14.0
 31
0.0
  0
LINE
  5
15C
100
AcDbEntity
100
AcDbLine
  8
0
 62
256
370
-1
 48
1.0
  6
BYLAYER
 10
-267.0
 20
-14.0
 30
0.0
 11
-265.0
 21
-14.0
 31
0.0
  0
LINE
  5
15D
100
AcDbEntity
100
AcDbLine
  8
0
 62
256
370
-1
 48
1.0
  6
BYLAYER
 10
-265.0
 20
-37.0
 30
0.0
 11
-267.0
 21
-37.0
 31
0.0
  0
LINE
  5
15E
100
AcDbEntity
100
AcDbLine
  8
0
 62
256
370
-1
 48
1.0
  6
BYLAYER
 10
-267.0
 20
-37.0
 30
0.0
 11
-267.0
 21
-55.0
 31
0.0
  0
LINE
  5
15F
100
AcDbEntity
100
AcDbLine
  8
0
 62
256
370
-1
 48
1.0
  6
BYLAYER
 10
-267.0
 20
-55.0
 30
0.0
 11
-265.0
 21
-55.0
 31
0.0
  0
LINE
  5
160
100
AcDbEntity
100
AcDbLine
  8
0
 62
256
370
-1
 48
1.0
  6
BYLAYER
 10
-265.0
 20
-55.0
 30
0.0
 11
-265.0
 21
-37.0
 31
0.0
  0
HATCH
  5
161
  8
0
 62
256
370
-1
 48
1.0
  6
BYLAYER
100
AcDbEntity
100
AcDbHatch
 10
0.0
 20
0.0
 30
0.0
210
0.0
220
0.0
230
1.0
  2
ANSI31
 70
0
 71
0
 91
1
 92
1
 93
4
 72
1
 10
-265.0
 20
-37.0
 11
-267.0
 21
-37.0
 72
1
 10
-267.0
 20
-37.0
 11
-267.0
 21
-55.0
 72
1
 10
-267.0
 20
-55.0
 11
-265.0
 21
-55.0
 72
1
 10
-265.0
 20
-55.0
 11
-265.0
 21
-37.0
 97
0
 75
0
 76
1
 52
130.0
 41
0.3
 77
0
 78
1
 53
45.0
 43
0.0
 44
0.0
 45
-0.0883883476483184
 46
0.0883883476483185
 79
0
 98
0
1001
ACAD
1010
0.0
1020
0.0
1030
0
  0
HATCH
  5
162
  8
0
 62
256
370
-1
 48
1.0
  6
BYLAYER
100
AcDbEntity
100
AcDbHatch
 10
0.0
 20
0.0
 30
0.0
210
0.0
220
0.0
230
1.0
  2
ANSI31
 70
0
 71
0
 91
1
 92
1
 93
4
 72
1
 10
-265.0
 20
18.0
 11
-267.0
 21
18.0
 72
1
 10
-267.0
 20
18.0
 11
-267.0
 21
-14.0
 72
1
 10
-267.0
 20
-14.0
 11
-265.0
 21
-14.0
 72
1
 10
-265.0
 20
-14.0
 11
-265.0
 21
18.0
 97
0
 75
0
 76
1
 52
130.0
 41
0.3
 77
0
 78
1
 53
45.0
 43
0.0
 44
0.0
 45
-0.0883883476483184
 46
0.0883883476483185
 79
0
 98
0
1001
ACAD
1010
0.0
1020
0.0
1030
0
  0
LINE
  5
163
100
AcDbEntity
100
AcDbLine
  8
0
 62
256
370
-1
 48
1.0
  6
BYLAYER
 10
-185.5
 20
-102.0
 30
0.0
 11
-175.5
 21
-102.0
 31
0.0
  0
LINE
  5
164
100
AcDbEntity
100
AcDbLine
  8
0
 62
256
370
-1
 48
1.0
  6
BYLAYER
 10
-175.5
 20
-140.0
 30
0.0
 11
-185.5
 21
-140.0
 31
0.0
  0
LINE
  5
165
100
AcDbEntity
100
AcDbLine
  8
0
 62
256
370
-1
 48
1.0
  6
BYLAYER
 10
-185.5
 20
-96.0
 30
0.0
 11
-175.5
 21
-96.0
 31
0.0
  0
LINE
  5
166
100
AcDbEntity
100
AcDbLine
  8
0
 62
256
370
-1
 48
1.0
  6
BYLAYER
 10
-175.5
 20
-96.0
 30
0.0
 11
-175.5
 21
-100.0
 31
0.0
  0
LINE
  5
167
100
AcDbEntity
100
AcDbLine
  8
0
 62
256
370
-1
 48
1.0
  6
BYLAYER
 10
-175.5
 20
-100.0
 30
0.0
 11
-185.5
 21
-100.0
 31
0.0
  0
LINE
  5
168
100
AcDbEntity
100
AcDbLine
  8
0
 62
256
370
-1
 48
1.0
  6
BYLAYER
 10
-185.5
 20
-100.0
 30
0.0
 11
-185.5
 21
-96.0
 31
0.0
  0
LINE
  5
169
100
AcDbEntity
100
AcDbLine
  8
0
 62
256
370
-1
 48
1.0
  6
BYLAYER
 10
-184.5
 20
-100.0
 30
0.0
 11
-184.5
 21
-96.0
 31
0.0
  0
LINE
  5
16A
100
AcDbEntity
100
AcDbLine
  8
0
 62
256
370
-1
 48
1.0
  6
BYLAYER
 10
-182.5
 20
-96.0
 30
0.0
 11
-182.5
 21
-100.0
 31
0.0
  0
LINE
  5
16B
100
AcDbEntity
100
AcDbLine
  8
0
 62
256
370
-1
 48
1.0
  6
BYLAYER
 10
-180.5
 20
-96.0
 30
0.0
 11
-180.5
 21
-100.0
 31
0.0
  0
LINE
  5
16C
100
AcDbEntity
100
AcDbLine
  8
0
 62
256
370
-1
 48
1.0
  6
BYLAYER
 10
-178.5
 20
-96.0
 30
0.0
 11
-178.5
 21
-100.0
 31
0.0
  0
LINE
  5
16D
100
AcDbEntity
100
AcDbLine
  8
0
 62
256
370
-1
 48
1.0
  6
BYLAYER
 10
-176.5
 20
-96.0
 30
0.0
 11
-176.5
 21
-100.0
 31
0.0
  0
LINE
  5
16E
100
AcDbEntity
100
AcDbLine
  8
0
 62
256
370
-1
 48
1.0
  6
BYLAYER
 10
-185.5
 20
-140.0
 30
0.0
 11
-185.5
 21
-110.0
 31
0.0
  0
LINE
  5
16F
100
AcDbEntity
100
AcDbLine
  8
0
 62
256
370
-1
 48
1.0
  6
BYLAYER
 10
-175.5
 20
-110.0
 30
0.0
 11
-175.5
 21
-140.0
 31
0.0
  0
LINE
  5
170
100
AcDbEntity
100
AcDbLine
  8
0
 62
256
370
-1
 48
1.0
  6
BYLAYER
 10
-181.5
 20
-102.0
 30
0.0
 11
-181.5
 21
-100.0
 31
0.0
  0
LINE
  5
171
100
AcDbEntity
100
AcDbLine
  8
0
 62
256
370
-1
 48
1.0
  6
BYLAYER
 10
-179.5
 20
-102.0
 30
0.0
 11
-179.5
 21
-100.0
 31
0.0
  0
LINE
  5
172
100
AcDbEntity
100
AcDbLine
  8
0
 62
256
370
-1
 48
1.0
  6
BYLAYER
 10
-183.5
 20
-96.0
 30
0.0
 11
-183.5
 21
-100.0
 31
0.0
  0
LINE
  5
173
100
AcDbEntity
100
AcDbLine
  8
0
 62
256
370
-1
 48
1.0
  6
BYLAYER
 10
-181.5
 20
-96.0
 30
0.0
 11
-181.5
 21
-100.0
 31
0.0
  0
LINE
  5
174
100
AcDbEntity
100
AcDbLine
  8
0
 62
256
370
-1
 48
1.0
  6
BYLAYER
 10
-179.5
 20
-96.0
 30
0.0
 11
-179.5
 21
-100.0
 31
0.0
  0
LINE
  5
175
100
AcDbEntity
100
AcDbLine
  8
0
 62
256
370
-1
 48
1.0
  6
BYLAYER
 10
-177.5
 20
-96.0
 30
0.0
 11
-177.5
 21
-100.0
 31
0.0
  0
LINE
  5
176
100
AcDbEntity
100
AcDbLine
  8
0
 62
256
370
-1
 48
1.0
  6
BYLAYER
 10
-176.5
 20
-96.0
 30
0.0
 11
-175.5
 21
-96.0
 31
0.0
  0
LINE
  5
177
100
AcDbEntity
100
AcDbLine
  8
0
 62
256
370
-1
 48
1.0
  6
BYLAYER
 10
-184.5
 20
-96.0
 30
0.0
 11
-185.5
 21
-96.0
 31
0.0
  0
LINE
  5
178
100
AcDbEntity
100
AcDbLine
  8
0
 62
256
370
-1
 48
1.0
  6
BYLAYER
 10
-185.5
 20
-96.0
 30
0.0
 11
-185.5
 21
-96.0
 31
0.0
  0
LINE
  5
179
100
AcDbEntity
100
AcDbLine
  8
0
 62
256
370
-1
 48
1.0
  6
BYLAYER
 10
-185.0
 20
-96.0
 30
0.0
 11
-185.0
 21
-100.0
 31
0.0
  0
LINE
  5
17A
100
AcDbEntity
100
AcDbLine
  8
0
 62
256
370
-1
 48
1.0
  6
BYLAYER
 10
-176.0
 20
-96.0
 30
0.0
 11
-176.0
 21
-100.0
 31
0.0
  0
LINE
  5
17B
100
AcDbEntity
100
AcDbLine
  8
0
 62
256
370
-1
 48
1.0
  6
BYLAYER
 10
-185.5
 20
-102.0
 30
0.0
 11
-185.5
 21
-107.0
 31
0.0
  0
LINE
  5
17C
100
AcDbEntity
100
AcDbLine
  8
0
 62
256
370
-1
 48
1.0
  6
BYLAYER
 10
-185.5
 20
-107.0
 30
0.0
 11
-175.5
 21
-107.0
 31
0.0
  0
LINE
  5
17D
100
AcDbEntity
100
AcDbLine
  8
0
 62
256
370
-1
 48
1.0
  6
BYLAYER
 10
-175.5
 20
-107.0
 30
0.0
 11
-175.5
 21
-102.0
 31
0.0
  0
LINE
  5
17E
100
AcDbEntity
100
AcDbLine
  8
0
 62
256
370
-1
 48
1.0
  6
BYLAYER
 10
-185.5
 20
-110.0
 30
0.0
 11
-175.5
 21
-110.0
 31
0.0
  0
LINE
  5
17F
100
AcDbEntity
100
AcDbLine
  8
0
 62
256
370
-1
 48
1.0
  6
BYLAYER
 10
-184.0
 20
-110.0
 30
0.0
 11
-184.0
 21
-107.0
 31
0.0
  0
LINE
  5
180
100
AcDbEntity
100
AcDbLine
  8
0
 62
256
370
-1
 48
1.0
  6
BYLAYER
 10
-177.0
 20
-107.0
 30
0.0
 11
-177.0
 21
-110.0
 31
0.0
  0
LINE
  5
181
100
AcDbEntity
100
AcDbLine
  8
0
 62
256
370
-1
 48
1.0
  6
BYLAYER
 10
-214.5
 20
-102.0
 30
0.0
 11
-204.5
 21
-102.0
 31
0.0
  0
LINE
  5
182
100
AcDbEntity
100
AcDbLine
  8
0
 62
256
370
-1
 48
1.0
  6
BYLAYER
 10
-204.5
 20
-132.0
 30
0.0
 11
-214.5
 21
-132.0
 31
0.0
  0
LINE
  5
183
100
AcDbEntity
100
AcDbLine
  8
0
 62
256
370
-1
 48
1.0
  6
BYLAYER
 10
-204.5
 20
-96.0
 30
0.0
 11
-204.5
 21
-100.0
 31
0.0
  0
LINE
  5
184
100
AcDbEntity
100
AcDbLine
  8
0
 62
256
370
-1
 48
1.0
  6
BYLAYER
 10
-214.5
 20
-100.0
 30
0.0
 11
-214.5
 21
-96.0
 31
0.0
  0
LINE
  5
185
100
AcDbEntity
100
AcDbLine
  8
0
 62
256
370
-1
 48
1.0
  6
BYLAYER
 10
-213.5
 20
-100.0
 30
0.0
 11
-213.5
 21
-96.0
 31
0.0
  0
LINE
  5
186
100
AcDbEntity
100
AcDbLine
  8
0
 62
256
370
-1
 48
1.0
  6
BYLAYER
 10
-211.5
 20
-96.0
 30
0.0
 11
-211.5
 21
-100.0
 31
0.0
  0
LINE
  5
187
100
AcDbEntity
100
AcDbLine
  8
0
 62
256
370
-1
 48
1.0
  6
BYLAYER
 10
-209.5
 20
-96.0
 30
0.0
 11
-209.5
 21
-100.0
 31
0.0
  0
LINE
  5
188
100
AcDbEntity
100
AcDbLine
  8
0
 62
256
370
-1
 48
1.0
  6
BYLAYER
 10
-207.5
 20
-96.0
 30
0.0
 11
-207.5
 21
-100.0
 31
0.0
  0
LINE
  5
189
100
AcDbEntity
100
AcDbLine
  8
0
 62
256
370
-1
 48
1.0
  6
BYLAYER
 10
-205.5
 20
-96.0
 30
0.0
 11
-205.5
 21
-100.0
 31
0.0
  0
LINE
  5
18A
100
AcDbEntity
100
AcDbLine
  8
0
 62
256
370
-1
 48
1.0
  6
BYLAYER
 10
-214.5
 20
-132.0
 30
0.0
 11
-214.5
 21
-102.0
 31
0.0
  0
LINE
  5
18B
100
AcDbEntity
100
AcDbLine
  8
0
 62
256
370
-1
 48
1.0
  6
BYLAYER
 10
-204.5
 20
-102.0
 30
0.0
 11
-204.5
 21
-132.0
 31
0.0
  0
LINE
  5
18C
100
AcDbEntity
100
AcDbLine
  8
0
 62
256
370
-1
 48
1.0
  6
BYLAYER
 10
-210.5
 20
-102.0
 30
0.0
 11
-210.5
 21
-100.0
 31
0.0
  0
LINE
  5
18D
100
AcDbEntity
100
AcDbLine
  8
0
 62
256
370
-1
 48
1.0
  6
BYLAYER
 10
-208.5
 20
-102.0
 30
0.0
 11
-208.5
 21
-100.0
 31
0.0
  0
LINE
  5
18E
100
AcDbEntity
100
AcDbLine
  8
0
 62
256
370
-1
 48
1.0
  6
BYLAYER
 10
-212.5
 20
-96.0
 30
0.0
 11
-212.5
 21
-100.0
 31
0.0
  0
LINE
  5
18F
100
AcDbEntity
100
AcDbLine
  8
0
 62
256
370
-1
 48
1.0
  6
BYLAYER
 10
-210.5
 20
-96.0
 30
0.0
 11
-210.5
 21
-100.0
 31
0.0
  0
LINE
  5
190
100
AcDbEntity
100
AcDbLine
  8
0
 62
256
370
-1
 48
1.0
  6
BYLAYER
 10
-208.5
 20
-96.0
 30
0.0
 11
-208.5
 21
-100.0
 31
0.0
  0
LINE
  5
191
100
AcDbEntity
100
AcDbLine
  8
0
 62
256
370
-1
 48
1.0
  6
BYLAYER
 10
-206.5
 20
-96.0
 30
0.0
 11
-206.5
 21
-100.0
 31
0.0
  0
LINE
  5
192
100
AcDbEntity
100
AcDbLine
  8
0
 62
256
370
-1
 48
1.0
  6
BYLAYER
 10
-256.0
 20
70.0
 30
0.0
 11
-256.0
 21
55.0
 31
0.0
  0
LINE
  5
193
100
AcDbEntity
100
AcDbLine
  8
0
 62
256
370
-1
 48
1.0
  6
BYLAYER
 10
-256.0
 20
55.0
 30
0.0
 11
-257.0
 21
57.0
 31
0.0
  0
LINE
  5
194
100
AcDbEntity
100
AcDbLine
  8
0
 62
256
370
-1
 48
1.0
  6
BYLAYER
 10
-256.0
 20
55.0
 30
0.0
 11
-255.0
 21
57.0
 31
0.0
  0
LINE
  5
195
100
AcDbEntity
100
AcDbLine
  8
0
 62
256
370
-1
 48
1.0
  6
BYLAYER
 10
-170.9999999999999716
 20
70.0
 30
0.0
 11
-171.0
 21
54.9999999999999716
 31
0.0
  0
LINE
  5
196
100
AcDbEntity
100
AcDbLine
  8
0
 62
256
370
-1
 48
1.0
  6
BYLAYER
 10
-171.0
 20
54.9999999999999716
 30
0.0
 11
-170.0
 21
57.0
 31
0.0
  0
LINE
  5
197
100
AcDbEntity
100
AcDbLine
  8
0
 62
256
370
-1
 48
1.0
  6
BYLAYER
 10
-171.0
 20
54.9999999999999716
 30
0.0
 11
-171.9999999999999716
 21
57.0
 31
0.0
  0
MTEXT
  5
198
100
AcDbEntity
100
AcDbMText
  8
0
 62
256
370
-1
 48
1.0
  6
BYLAYER
 10
-214.0
 20
85.0
 30
0.0
 40
12.0
 41
0.0
 71
2
 72
1
  1
\H4.28571;Light beam coming from M2
  7
textstyle0
 50
0.0
 73
2
 44
1.0
  0
MTEXT
  5
199
100
AcDbEntity
100
AcDbMText
  8
0
 62
256
370
-1
 48
1.0
  6
BYLAYER
 10
-166.0
 20
22.0
 30
0.0
 40
12.0
 41
0.0
 71
2
 72
1
  1
\H4.28571;Mirror
  7
textstyle1
 50
0.0
 73
2
 44
1.0
  0
MTEXT
  5
19A
100
AcDbEntity
100
AcDbMText
  8
0
 62
256
370
-1
 48
1.0
  6
BYLAYER
 10
-213.0
 20
-5.0
 30
0.0
 40
12.0
 41
0.0
 71
2
 72
1
  1
\H4.28571;Angled \Phollow\Pcylinder
  7
textstyle2
 50
0.0
 73
2
 44
1.0
  0
LINE
  5
19B
100
AcDbEntity
100
AcDbLine
  8
0
 62
256
370
-1
 48
1.0
  6
BYLAYER
 10
-239.0
 20
-102.0
 30
0.0
 11
-226.0
 21
-102.0
 31
0.0
  0
LINE
  5
19C
100
AcDbEntity
100
AcDbLine
  8
0
 62
256
370
-1
 48
1.0
  6
BYLAYER
 10
-227.5
 20
-96.0
 30
0.0
 11
-227.5
 21
-100.0
 31
0.0
  0
LINE
  5
19D
100
AcDbEntity
100
AcDbLine
  8
0
 62
256
370
-1
 48
1.0
  6
BYLAYER
 10
-237.5
 20
-100.0
 30
0.0
 11
-237.5
 21
-96.0
 31
0.0
  0
LINE
  5
19E
100
AcDbEntity
100
AcDbLine
  8
0
 62
256
370
-1
 48
1.0
  6
BYLAYER
 10
-236.5
 20
-100.0
 30
0.0
 11
-236.5
 21
-96.0
 31
0.0
  0
LINE
  5
19F
100
AcDbEntity
100
AcDbLine
  8
0
 62
256
370
-1
 48
1.0
  6
BYLAYER
 10
-234.5
 20
-96.0
 30
0.0
 11
-234.5
 21
-100.0
 31
0.0
  0
LINE
  5
1A0
100
AcDbEntity
100
AcDbLine
  8
0
 62
256
370
-1
 48
1.0
  6
BYLAYER
 10
-232.5
 20
-96.0
 30
0.0
 11
-232.5
 21
-100.0
 31
0.0
  0
LINE
  5
1A1
100
AcDbEntity
100
AcDbLine
  8
0
 62
256
370
-1
 48
1.0
  6
BYLAYER
 10
-230.5
 20
-96.0
 30
0.0
 11
-230.5
 21
-100.0
 31
0.0
  0
LINE
  5
1A2
100
AcDbEntity
100
AcDbLine
  8
0
 62
256
370
-1
 48
1.0
  6
BYLAYER
 10
-228.5
 20
-96.0
 30
0.0
 11
-228.5
 21
-100.0
 31
0.0
  0
LINE
  5
1A3
100
AcDbEntity
100
AcDbLine
  8
0
 62
256
370
-1
 48
1.0
  6
BYLAYER
 10
-233.5
 20
-102.0
 30
0.0
 11
-233.5
 21
-100.0
 31
0.0
  0
LINE
  5
1A4
100
AcDbEntity
100
AcDbLine
  8
0
 62
256
370
-1
 48
1.0
  6
BYLAYER
 10
-231.5
 20
-102.0
 30
0.0
 11
-231.5
 21
-100.0
 31
0.0
  0
LINE
  5
1A5
100
AcDbEntity
100
AcDbLine
  8
0
 62
256
370
-1
 48
1.0
  6
BYLAYER
 10
-235.5
 20
-96.0
 30
0.0
 11
-235.5
 21
-100.0
 31
0.0
  0
LINE
  5
1A6
100
AcDbEntity
100
AcDbLine
  8
0
 62
256
370
-1
 48
1.0
  6
BYLAYER
 10
-233.5
 20
-96.0
 30
0.0
 11
-233.5
 21
-100.0
 31
0.0
  0
LINE
  5
1A7
100
AcDbEntity
100
AcDbLine
  8
0
 62
256
370
-1
 48
1.0
  6
BYLAYER
 10
-231.5
 20
-96.0
 30
0.0
 11
-231.5
 21
-100.0
 31
0.0
  0
LINE
  5
1A8
100
AcDbEntity
100
AcDbLine
  8
0
 62
256
370
-1
 48
1.0
  6
BYLAYER
 10
-229.5
 20
-96.0
 30
0.0
 11
-229.5
 21
-100.0
 31
0.0
  0
LINE
  5
1A9
100
AcDbEntity
100
AcDbLine
  8
0
 62
256
370
-1
 48
1.0
  6
BYLAYER
 10
-239.0
 20
-102.0
 30
0.0
 11
-239.0
 21
-111.0
 31
0.0
  0
LINE
  5
1AA
100
AcDbEntity
100
AcDbLine
  8
0
 62
256
370
-1
 48
1.0
  6
BYLAYER
 10
-226.0
 20
-111.0
 30
0.0
 11
-226.0
 21
-102.0
 31
0.0
  0
LINE
  5
1AB
100
AcDbEntity
100
AcDbLine
  8
0
 62
256
370
-1
 48
1.0
  6
BYLAYER
 10
-239.0
 20
-111.0
 30
0.0
 11
-226.0
 21
-111.0
 31
0.0
  0
CIRCLE
  5
1AC
100
AcDbEntity
100
AcDbCircle
  8
0
 62
256
370
-1
 48
1.0
  6
BYLAYER
 10
-271.0
 20
11.0
 30
0.0
 40
0.3625033504242054
  0
LINE
  5
1AD
100
AcDbEntity
100
AcDbLine
  8
0
 62
256
370
-1
 48
1.0
  6
BYLAYER
 10
-270.0
 20
12.0
 30
0.0
 11
-273.0
 21
12.0
 31
0.0
  0
LINE
  5
1AE
100
AcDbEntity
100
AcDbLine
  8
0
 62
256
370
-1
 48
1.0
  6
BYLAYER
 10
-273.0
 20
12.0
 30
0.0
 11
-273.0
 21
10.0
 31
0.0
  0
LINE
  5
1AF
100
AcDbEntity
100
AcDbLine
  8
0
 62
256
370
-1
 48
1.0
  6
BYLAYER
 10
-273.0
 20
10.0
 30
0.0
 11
-270.0
 21
10.0
 31
0.0
  0
LINE
  5
1B0
100
AcDbEntity
100
AcDbLine
  8
0
 62
256
370
-1
 48
1.0
  6
BYLAYER
 10
-270.0
 20
10.0
 30
0.0
 11
-270.0
 21
12.0
 31
0.0
  0
CIRCLE
  5
1B1
100
AcDbEntity
100
AcDbCircle
  8
0
 62
256
370
-1
 48
1.0
  6
BYLAYER
 10
-271.0
 20
-59.0
 30
0.0
 40
0.3625033504242054
  0
LINE
  5
1B2
100
AcDbEntity
100
AcDbLine
  8
0
 62
256
370
-1
 48
1.0
  6
BYLAYER
 10
-270.0
 20
-58.0
 30
0.0
 11
-273.0
 21
-58.0
 31
0.0
  0
LINE
  5
1B3
100
AcDbEntity
100
AcDbLine
  8
0
 62
256
370
-1
 48
1.0
  6
BYLAYER
 10
-273.0
 20
-58.0
 30
0.0
 11
-273.0
 21
-60.0
 31
0.0
  0
LINE
  5
1B4
100
AcDbEntity
100
AcDbLine
  8
0
 62
256
370
-1
 48
1.0
  6
BYLAYER
 10
-273.0
 20
-60.0
 30
0.0
 11
-270.0
 21
-60.0
 31
0.0
  0
LINE
  5
1B5
100
AcDbEntity
100
AcDbLine
  8
0
 62
256
370
-1
 48
1.0
  6
BYLAYER
 10
-270.0
 20
-60.0
 30
0.0
 11
-270.0
 21
-58.0
 31
0.0
  0
CIRCLE
  5
1B6
100
AcDbEntity
100
AcDbCircle
  8
0
 62
256
370
-1
 48
1.0
  6
BYLAYER
 10
-200.0
 20
-103.0
 30
0.0
 40
0.3625033504242054
  0
LINE
  5
1B7
100
AcDbEntity
100
AcDbLine
  8
0
 62
256
370
-1
 48
1.0
  6
BYLAYER
 10
-201.0
 20
-102.0
 30
0.0
 11
-201.0
 21
-105.0
 31
0.0
  0
LINE
  5
1B8
100
AcDbEntity
100
AcDbLine
  8
0
 62
256
370
-1
 48
1.0
  6
BYLAYER
 10
-201.0
 20
-105.0
 30
0.0
 11
-199.0
 21
-105.0
 31
0.0
  0
LINE
  5
1B9
100
AcDbEntity
100
AcDbLine
  8
0
 62
256
370
-1
 48
1.0
  6
BYLAYER
 10
-199.0
 20
-105.0
 30
0.0
 11
-199.0
 21
-102.0
 31
0.0
  0
LINE
  5
1BA
100
AcDbEntity
100
AcDbLine
  8
0
 62
256
370
-1
 48
1.0
  6
BYLAYER
 10
-199.0
 20
-102.0
 30
0.0
 11
-201.0
 21
-102.0
 31
0.0
  0
CIRCLE
  5
1BB
100
AcDbEntity
100
AcDbCircle
  8
0
 62
256
370
-1
 48
1.0
  6
BYLAYER
 10
-190.0
 20
-103.0
 30
0.0
 40
0.3625033504242054
  0
LINE
  5
1BC
100
AcDbEntity
100
AcDbLine
  8
0
 62
256
370
-1
 48
1.0
  6
BYLAYER
 10
-191.0
 20
-102.0
 30
0.0
 11
-191.0
 21
-105.0
 31
0.0
  0
LINE
  5
1BD
100
AcDbEntity
100
AcDbLine
  8
0
 62
256
370
-1
 48
1.0
  6
BYLAYER
 10
-191.0
 20
-105.0
 30
0.0
 11
-189.0
 21
-105.0
 31
0.0
  0
LINE
  5
1BE
100
AcDbEntity
100
AcDbLine
  8
0
 62
256
370
-1
 48
1.0
  6
BYLAYER
 10
-189.0
 20
-105.0
 30
0.0
 11
-189.0
 21
-102.0
 31
0.0
  0
LINE
  5
1BF
100
AcDbEntity
100
AcDbLine
  8
0
 62
256
370
-1
 48
1.0
  6
BYLAYER
 10
-189.0
 20
-102.0
 30
0.0
 11
-191.0
 21
-102.0
 31
0.0
  0
LINE
  5
1C0
100
AcDbEntity
100
AcDbLine
  8
0
 62
256
370
-1
 48
1.0
  6
BYLAYER
 10
-168.0
 20
-100.0
 30
0.0
 11
-168.0
 21
-105.0
 31
0.0
  0
LINE
  5
1C1
100
AcDbEntity
100
AcDbLine
  8
0
 62
256
370
-1
 48
1.0
  6
BYLAYER
 10
-168.0
 20
-105.0
 30
0.0
 11
-165.0
 21
-105.0
 31
0.0
  0
LINE
  5
1C2
100
AcDbEntity
100
AcDbLine
  8
0
 62
256
370
-1
 48
1.0
  6
BYLAYER
 10
-165.0
 20
-105.0
 30
0.0
 11
-165.0
 21
-100.0
 31
0.0
  0
MTEXT
  5
1C3
100
AcDbEntity
100
AcDbMText
  8
0
 62
256
370
-1
 48
1.0
  6
BYLAYER
 10
-154.0
 20
-109.0
 30
0.0
 40
12.0
 41
0.0
 71
1
 72
1
  1
\H4.28571;Rotation stage \Panti-backlash motor
  7
textstyle3
 50
0.0
 73
2
 44
0.9
  0
LINE
  5
1C4
100
AcDbEntity
100
AcDbLine
  8
indicatorline
 62
256
370
-1
 48
1.0
  6
BYLAYER
 10
-156.0
 20
-105.0
 30
0.0
 11
-176.0
 21
-106.0
 31
0.0
  0
LINE
  5
1C5
100
AcDbEntity
100
AcDbLine
  8
indicatorline
 62
256
370
-1
 48
1.0
  6
BYLAYER
 10
-155.0
 20
-120.0
 30
0.0
 11
-177.0
 21
-112.0
 31
0.0
  0
LINE
  5
1C6
100
AcDbEntity
100
AcDbLine
  8
indicatorline
 62
256
370
-1
 48
1.0
  6
BYLAYER
 10
-171.0
 20
-134.0
 30
0.0
 11
-189.4782224055055622
 21
-104.5466633928440956
 31
0.0
  0
MTEXT
  5
1C7
100
AcDbEntity
100
AcDbMText
  8
0
 62
256
370
-1
 48
1.0
  6
BYLAYER
 10
-169.0
 20
-127.0
 30
0.0
 40
12.0
 41
0.0
 71
1
 72
1
  1
\H4.28571;Limit switch
  7
textstyle4
 50
0.0
 73
2
 44
1.0
  0
LINE
  5
1C8
100
AcDbEntity
100
AcDbLine
  8
indicatorline
 62
256
370
-1
 48
1.0
  6
BYLAYER
 10
-171.0
 20
-135.0
 30
0.0
 11
-199.5
 21
-104.5
 31
0.0
  0
LINE
  5
1C9
100
AcDbEntity
100
AcDbLine
  8
indicatorline
 62
256
370
-1
 48
1.0
  6
BYLAYER
 10
-282.0
 20
23.0
 30
0.0
 11
-257.0
 21
17.0
 31
0.0
  0
MTEXT
  5
1CA
100
AcDbEntity
100
AcDbMText
  8
0
 62
256
370
-1
 48
1.0
  6
BYLAYER
 10
-284.0
 20
34.0
 30
0.0
 40
12.0
 41
0.0
 71
3
 72
1
  1
\H4.28571;Translation stage motor
  7
textstyle5
 50
0.0
 73
2
 44
1.0
  0
LINE
  5
1CB
100
AcDbEntity
100
AcDbLine
  8
indicatorline
 62
256
370
-1
 48
1.0
  6
BYLAYER
 10
-282.0
 20
13.0
 30
0.0
 11
-272.0
 21
11.0
 31
0.0
  0
LINE
  5
1CC
100
AcDbEntity
100
AcDbLine
  8
indicatorline
 62
256
370
-1
 48
1.0
  6
BYLAYER
 10
-277.0
 20
-53.0
 30
0.0
 11
-272.4721007779479578
 21
-58.4617161601970849
 31
0.0
  0
MTEXT
  5
1CD
100
AcDbEntity
100
AcDbMText
  8
0
 62
256
370
-1
 48
1.0
  6
BYLAYER
 10
-241.7704160425531654
 20
-97.0439539999996725
 30
0.0
 40
12.0
 41
0.0
 71
3
 72
1
  1
\H4.28571;Absolute encoder
  7
textstyle6
 50
0.0
 73
2
 44
1.0
  0
MTEXT
  5
1CE
100
AcDbEntity
100
AcDbMText
  8
0
 62
256
370
-1
 48
1.0
  6
BYLAYER
 10
-283.0
 20
-10.0
 30
0.0
 40
12.0
 41
0.0
 71
3
 72
1
  1
\H4.28571;Linear optical encoder\Pscanning head
  7
textstyle7
 50
0.0
 73
2
 44
1.0
  0
MTEXT
  5
1CF
100
AcDbEntity
100
AcDbMText
  8
0
 62
256
370
-1
 48
1.0
  6
BYLAYER
 10
-283.7704160425531654
 20
23.956046000000331
 30
0.0
 40
12.0
 41
0.0
 71
3
 72
1
  1
\H4.28571;Limit switch
  7
textstyle8
 50
0.0
 73
2
 44
1.0
  0
MTEXT
  5
1D0
100
AcDbEntity
100
AcDbMText
  8
0
 62
256
370
-1
 48
1.0
  6
BYLAYER
 10
-278.7704160425531654
 20
-42.0439539999996725
 30
0.0
 40
12.0
 41
0.0
 71
3
 72
1
  1
\H4.28571;Limit switch
  7
textstyle9
 50
0.0
 73
2
 44
1.0
  0
LINE
  5
1D1
100
AcDbEntity
100
AcDbLine
  8
indicatorline
 62
256
370
-1
 48
1.0
  6
BYLAYER
 10
-280.0
 20
-21.0
 30
0.0
 11
-261.0
 21
-20.0
 31
0.0
  0
MTEXT
  5
1D2
100
AcDbEntity
100
AcDbMText
  8
0
 62
256
370
-1
 48
1.0
  6
BYLAYER
 10
-218.5677100638297929
 20
-113.1098879999999696
 30
0.0
 40
12.0
 41
0.0
 71
3
 72
1
  1
\H4.28571;Rotation stage\Ppositioning motor
  7
textstyle10
 50
0.0
 73
2
 44
1.0
  0
MTEXT
  5
1D3
100
AcDbEntity
100
AcDbMText
  8
0
 62
256
370
-1
 48
1.0
  6
BYLAYER
 10
-154.0
 20
-93.0
 30
0.0
 40
12.0
 41
0.0
 71
1
 72
1
  1
\H4.28571;Permanent magnet \Pslip clutch
  7
textstyle11
 50
0.0
 73
2
 44
0.9
  0
LINE
  5
1D4
100
AcDbEntity
100
AcDbLine
  8
0
 62
256
370
-1
 48
1.0
  6
BYLAYER
 10
-182.0
 20
-140.0
 30
0.0
 11
-182.0
 21
-142.0
 31
0.0
  0
LINE
  5
1D5
100
AcDbEntity
100
AcDbLine
  8
0
 62
256
370
-1
 48
1.0
  6
BYLAYER
 10
-182.0
 20
-142.0
 30
0.0
 11
-353.0
 21
-142.0
 31
0.0
  0
LINE
  5
1D6
100
AcDbEntity
100
AcDbLine
  8
0
 62
256
370
-1
 48
1.0
  6
BYLAYER
 10
-256.0
 20
-11.0
 30
0.0
 11
-256.0
 21
-12.0
 31
0.0
  0
LINE
  5
1D7
100
AcDbEntity
100
AcDbLine
  8
0
 62
256
370
-1
 48
1.0
  6
BYLAYER
 10
-256.0
 20
-12.0
 30
0.0
 11
-353.0
 21
-12.0
 31
0.0
  0
LINE
  5
1D8
100
AcDbEntity
100
AcDbLine
  8
0
 62
256
370
-1
 48
1.0
  6
BYLAYER
 10
-273.0
 20
11.0
 30
0.0
 11
-353.0
 21
11.0
 31
0.0
  0
LINE
  5
1D9
100
AcDbEntity
100
AcDbLine
  8
0
 62
256
370
-1
 48
1.0
  6
BYLAYER
 10
-273.0
 20
-59.0
 30
0.0
 11
-353.0
 21
-59.0
 31
0.0
  0
LINE
  5
1DA
100
AcDbEntity
100
AcDbLine
  8
0
 62
256
370
-1
 48
1.0
  6
BYLAYER
 10
-211.0
 20
-132.0
 30
0.0
 11
-211.0
 21
-134.0
 31
0.0
  0
LINE
  5
1DB
100
AcDbEntity
100
AcDbLine
  8
0
 62
256
370
-1
 48
1.0
  6
BYLAYER
 10
-211.0
 20
-134.0
 30
0.0
 11
-353.0
 21
-134.0
 31
0.0
  0
LINE
  5
1DC
100
AcDbEntity
100
AcDbLine
  8
0
 62
256
370
-1
 48
1.0
  6
BYLAYER
 10
-235.0
 20
-111.0
 30
0.0
 11
-235.0
 21
-113.0
 31
0.0
  0
LINE
  5
1DD
100
AcDbEntity
100
AcDbLine
  8
0
 62
256
370
-1
 48
1.0
  6
BYLAYER
 10
-235.0
 20
-113.0
 30
0.0
 11
-353.0
 21
-113.0
 31
0.0
  0
LINE
  5
1DE
100
AcDbEntity
100
AcDbLine
  8
0
 62
256
370
-1
 48
1.0
  6
BYLAYER
 10
-353.0
 20
16.0
 30
0.0
 11
-386.0
 21
16.0
 31
0.0
  0
LINE
  5
1DF
100
AcDbEntity
100
AcDbLine
  8
0
 62
256
370
-1
 48
1.0
  6
BYLAYER
 10
-386.0
 20
16.0
 30
0.0
 11
-386.0
 21
-145.0
 31
0.0
  0
LINE
  5
1E0
100
AcDbEntity
100
AcDbLine
  8
0
 62
256
370
-1
 48
1.0
  6
BYLAYER
 10
-386.0
 20
-145.0
 30
0.0
 11
-353.0
 21
-145.0
 31
0.0
  0
LINE
  5
1E1
100
AcDbEntity
100
AcDbLine
  8
0
 62
256
370
-1
 48
1.0
  6
BYLAYER
 10
-353.0
 20
-145.0
 30
0.0
 11
-353.0
 21
16.0
 31
0.0
  0
MTEXT
  5
1E2
100
AcDbEntity
100
AcDbMText
  8
0
 62
256
370
-1
 48
1.0
  6
BYLAYER
 10
-374.0
 20
-55.0
 30
0.0
 40
12.0
 41
0.0
 71
1
 72
1
  1
\H4.28571;M3
  7
textstyle12
 50
0.0
 73
2
 44
1.0
  0
LINE
  5
1E3
100
AcDbEntity
100
AcDbLine
  8
0
 62
256
370
-1
 48
1.0
  6
BYLAYER
 10
-200.0
 20
-105.0
 30
0.0
 11
-200.0
 21
-137.0
 31
0.0
  0
LINE
  5
1E4
100
AcDbEntity
100
AcDbLine
  8
0
 62
256
370
-1
 48
1.0
  6
BYLAYER
 10
-200.0
 20
-137.0
 30
0.0
 11
-353.0
 21
-137.0
 31
0.0
  0
LINE
  5
1E5
100
AcDbEntity
100
AcDbLine
  8
0
 62
256
370
-1
 48
1.0
  6
BYLAYER
 10
-190.0
 20
-105.0
 30
0.0
 11
-190.0
 21
-139.0
 31
0.0
  0
LINE
  5
1E6
100
AcDbEntity
100
AcDbLine
  8
0
 62
256
370
-1
 48
1.0
  6
BYLAYER
 10
-190.0
 20
-139.0
 30
0.0
 11
-353.0
 21
-139.0
 31
0.0
  0
MTEXT
  5
1E7
100
AcDbEntity
100
AcDbMText
  8
0
 62
256
370
-1
 48
1.0
  6
BYLAYER
 10
-212.0
 20
-71.0
 30
0.0
 40
12.0
 41
0.0
 71
2
 72
1
  1
\H4.28571;Hollow cylinder
  7
textstyle13
 50
0.0
 73
2
 44
1.0
  0
LINE
  5
1E8
100
AcDbEntity
100
AcDbLine
  8
indicatorline
 62
256
370
-1
 48
1.0
  6
BYLAYER
 10
-357.0
 20
-84.0
 30
0.0
 11
-350.0
 21
-81.0
 31
0.0
  0
LINE
  5
1E9
100
AcDbEntity
100
AcDbLine
  8
EtherCAT
 62
256
370
-1
 48
1.0
  6
BYLAYER
 10
-359.0
 20
35.0
 30
0.0
 11
-366.3854098537233881
 21
35.0001589220618996
 31
0.0
  0
MTEXT
  5
1EA
100
AcDbEntity
100
AcDbMText
  8
0
 62
256
370
-1
 48
1.0
  6
BYLAYER
 10
-357.0
 20
47.0
 30
0.0
 40
12.0
 41
0.0
 71
1
 72
1
  1
\H4.28571;EtherCAT
  7
textstyle14
 50
0.0
 73
2
 44
1.0
  0
LINE
  5
1EB
100
AcDbEntity
100
AcDbLine
  8
EtherCAT
 62
256
370
-1
 48
1.0
  6
BYLAYER
 10
-366.3854098537233881
 20
35.0001589220618925
 30
0.0
 11
-364.0
 21
37.0
 31
0.0
  0
LINE
  5
1EC
100
AcDbEntity
100
AcDbLine
  8
EtherCAT
 62
256
370
-1
 48
1.0
  6
BYLAYER
 10
-366.3854098537233881
 20
35.0001589220618996
 30
0.0
 11
-364.0
 21
33.0
 31
0.0
  0
MTEXT
  5
1ED
100
AcDbEntity
100
AcDbMText
  8
0
 62
256
370
-1
 48
1.0
  6
BYLAYER
 10
-377.0
 20
44.5030839461708752
 30
0.0
 40
12.0
 41
0.0
 71
2
 72
1
  1
\H4.28571;To J2
  7
textstyle15
 50
0.0
 73
2
 44
1.0
  0
LINE
  5
1EE
100
AcDbEntity
100
AcDbLine
  8
0
 62
256
370
-1
 48
1.0
  6
BYLAYER
 10
-376.6861833440077589
 20
39.0
 30
0.0
 11
-368.0
 21
39.0
 31
0.0
  0
LINE
  5
1EF
100
AcDbEntity
100
AcDbLine
  8
0
 62
256
370
-1
 48
1.0
  6
BYLAYER
 10
-368.0
 20
39.0
 30
0.0
 11
-368.0
 21
30.4811039461712951
 31
0.0
  0
LINE
  5
1F0
100
AcDbEntity
100
AcDbLine
  8
0
 62
256
370
-1
 48
1.0
  6
BYLAYER
 10
-368.0
 20
30.4811039461712951
 30
0.0
 11
-376.6861833440077589
 21
30.4811039461712951
 31
0.0
  0
LINE
  5
1F1
100
AcDbEntity
100
AcDbLine
  8
0
 62
256
370
-1
 48
1.0
  6
BYLAYER
 10
-376.6861833440077589
 20
30.4811039461712951
 30
0.0
 11
-376.6861833440077589
 21
39.0
 31
0.0
  0
MTEXT
  5
1F2
100
AcDbEntity
100
AcDbMText
  8
0
 62
256
370
-1
 48
1.0
  6
BYLAYER
 10
-346.0
 20
-66.0
 30
0.0
 40
12.0
 41
0.0
 71
1
 72
1
  1
\H4.28571;Electrical\Pconfiguration\Pmounted\Pagainst the\Ptelescope tube
  7
textstyle16
 50
0.0
 73
2
 44
0.9
  0
LINE
  5
1F3
100
AcDbEntity
100
AcDbLine
  8
0
 62
256
370
-1
 48
1.0
  6
BYLAYER
 10
-371.0
 20
16.0
 30
0.0
 11
-367.0
 21
16.0
 31
0.0
  0
LINE
  5
1F4
100
AcDbEntity
100
AcDbLine
  8
0
 62
256
370
-1
 48
1.0
  6
BYLAYER
 10
-357.0
 20
16.0
 30
0.0
 11
-357.0
 21
18.0
 31
0.0
  0
LINE
  5
1F5
100
AcDbEntity
100
AcDbLine
  8
0
 62
256
370
-1
 48
1.0
  6
BYLAYER
 10
-357.0
 20
18.0
 30
0.0
 11
-361.0
 21
18.0
 31
0.0
  0
LINE
  5
1F6
100
AcDbEntity
100
AcDbLine
  8
0
 62
256
370
-1
 48
1.0
  6
BYLAYER
 10
-361.0
 20
18.0
 30
0.0
 11
-361.0
 21
16.0
 31
0.0
  0
LINE
  5
1F7
100
AcDbEntity
100
AcDbLine
  8
0
 62
256
370
-1
 48
1.0
  6
BYLAYER
 10
-361.0
 20
17.0
 30
0.0
 11
-357.0
 21
17.0
 31
0.0
  0
LINE
  5
1F8
100
AcDbEntity
100
AcDbLine
  8
0
 62
256
370
-1
 48
1.0
  6
BYLAYER
 10
-359.0
 20
35.0
 30
0.0
 11
-359.0
 21
18.0
 31
0.0
  0
ENDSEC
  0
SECTION
  2
OBJECTS
  0
DICTIONARY
  5
C
100
AcDbDictionary
280
0
281
1
  3
ACAD_GROUP
350
D
  3
ACAD_LAYOUT
350
1A
  3
ACAD_MLINESTYLE
350
17
  3
ACAD_PLOTSETTINGS
350
19
  3
ACAD_PLOTSTYLENAME
350
E
  3
AcDbVariableDictionary
350
1F9
  3
QCAD_OBJECTS
350
1FA
  0
DICTIONARY
  5
D
100
AcDbDictionary
280
0
281
1
  0
ACDBDICTIONARYWDFLT
  5
E
100
AcDbDictionary
281
1
  3
Normal
350
F
100
AcDbDictionaryWithDefault
340
F
  0
ACDBPLACEHOLDER
  5
F
  0
DICTIONARY
  5
17
100
AcDbDictionary
280
0
281
1
  3
Standard
350
18
  0
MLINESTYLE
  5
18
100
AcDbMlineStyle
  2
STANDARD
 70
0
  3

 62
256
 51
90.0
 52
90.0
 71
2
 49
0.5
 62
256
  6
BYLAYER
 49
-0.5
 62
256
  6
BYLAYER
  0
DICTIONARY
  5
19
100
AcDbDictionary
280
0
281
1
  0
DICTIONARY
  5
1A
100
AcDbDictionary
281
1
  3
Layout1
350
1E
  3
Layout2
350
26
  3
Model
350
22
  0
LAYOUT
  5
1E
100
AcDbPlotSettings
  1

  2
none_device
  4

  6

 40
0.0
 41
0.0
 42
0.0
 43
0.0
 44
0.0
 45
0.0
 46
0.0
 47
0.0
 48
0.0
 49
0.0
140
0.0
141
0.0
142
1.0
143
1.0
 70
688
 72
0
 73
0
 74
5
  7

 75
16
147
1.0
148
0.0
149
0.0
100
AcDbLayout
  1
Layout1
 70
1
 71
1
 10
0.0
 20
0.0
 11
420.0
 21
297.0
 12
0.0
 22
0.0
 32
0.0
 14
100000000000000000000.0
 24
100000000000000000000.0
 34
100000000000000000000.0
 15
-100000000000000000000.0
 25
-100000000000000000000.0
 35
-100000000000000000000.0
146
0.0
 13
0.0
 23
0.0
 33
0.0
 16
1.0
 26
0.0
 36
0.0
 17
0.0
 27
1.0
 37
0.0
 76
0
330
1B
  0
LAYOUT
  5
22
100
AcDbPlotSettings
  1

  2
none_device
  4

  6

 40
0.0
 41
0.0
 42
0.0
 43
0.0
 44
0.0
 45
0.0
 46
0.0
 47
0.0
 48
0.0
 49
0.0
140
0.0
141
0.0
142
1.0
143
1.0
 70
1712
 72
0
 73
0
 74
0
  7

 75
0
147
1.0
148
0.0
149
0.0
100
AcDbLayout
  1
Model
 70
1
 71
0
 10
0.0
 20
0.0
 11
12.0
 21
9.0
 12
0.0
 22
0.0
 32
0.0
 14
0.0
 24
0.0
 34
0.0
 15
0.0
 25
0.0
 35
0.0
146
0.0
 13
0.0
 23
0.0
 33
0.0
 16
1.0
 26
0.0
 36
0.0
 17
0.0
 27
1.0
 37
0.0
 76
0
330
1F
  0
LAYOUT
  5
26
100
AcDbPlotSettings
  1

  2
none_device
  4

  6

 40
0.0
 41
0.0
 42
0.0
 43
0.0
 44
0.0
 45
0.0
 46
0.0
 47
0.0
 48
0.0
 49
0.0
140
0.0
141
0.0
142
1.0
143
1.0
 70
688
 72
0
 73
0
 74
5
  7

 75
16
147
1.0
148
0.0
149
0.0
100
AcDbLayout
  1
Layout2
 70
1
 71
2
 10
0.0
 20
0.0
 11
12.0
 21
9.0
 12
0.0
 22
0.0
 32
0.0
 14
0.0
 24
0.0
 34
0.0
 15
0.0
 25
0.0
 35
0.0
146
0.0
 13
0.0
 23
0.0
 33
0.0
 16
1.0
 26
0.0
 36
0.0
 17
0.0
 27
1.0
 37
0.0
 76
0
330
23
  0
DICTIONARY
  5
1F9
100
AcDbDictionary
281
1
  3
DIMASSOC
350
1FC
  3
HIDETEXT
350
1FB
  0
DICTIONARYVAR
  5
1FB
100
DictionaryVariables
280
0
  1
2
  0
DICTIONARYVAR
  5
1FC
100
DictionaryVariables
280
0
  1
1
  0
DICTIONARY
  5
1FA
100
AcDbDictionary
281
1
  3
ColorSettings/BackgroundColor
350
1FD
  3
ColorSettings/ColorMode
350
1FE
  3
Grid/DisplayGrid00
350
1FF
  3
Grid/DisplayGrid01
350
200
  3
Grid/DisplayGrid02
350
201
  3
Grid/DisplayGrid03
350
202
  3
Grid/GridSpacingX00
350
203
  3
Grid/GridSpacingX01
350
204
  3
Grid/GridSpacingX02
350
205
  3
Grid/GridSpacingX03
350
206
  3
Grid/GridSpacingY00
350
207
  3
Grid/GridSpacingY01
350
208
  3
Grid/GridSpacingY02
350
209
  3
Grid/GridSpacingY03
350
20A
  3
Grid/IsometricGrid00
350
20B
  3
Grid/IsometricGrid01
350
20C
  3
Grid/IsometricGrid02
350
20D
  3
Grid/IsometricGrid03
350
20E
  3
Grid/IsometricProjection00
350
20F
  3
Grid/IsometricProjection01
350
210
  3
Grid/IsometricProjection02
350
211
  3
Grid/IsometricProjection03
350
212
  3
Grid/MetaGridSpacingX00
350
213
  3
Grid/MetaGridSpacingX01
350
214
  3
Grid/MetaGridSpacingX02
350
215
  3
Grid/MetaGridSpacingX03
350
216
  3
Grid/MetaGridSpacingY00
350
217
  3
Grid/MetaGridSpacingY01
350
218
  3
Grid/MetaGridSpacingY02
350
219
  3
Grid/MetaGridSpacingY03
350
21A
  3
MultiPageSettings/Columns
350
21B
  3
MultiPageSettings/GlueMarginsBottom
350
21C
  3
MultiPageSettings/GlueMarginsLeft
350
21D
  3
MultiPageSettings/GlueMarginsRight
350
21E
  3
MultiPageSettings/GlueMarginsTop
350
21F
  3
MultiPageSettings/PrintCropMarks
350
220
  3
MultiPageSettings/Rows
350
221
  3
PageSettings/OffsetX
350
222
  3
PageSettings/OffsetY
350
223
  3
PageSettings/PageOrientation
350
224
  3
PageSettings/PaperHeight
350
225
  3
PageSettings/PaperWidth
350
226
  3
PageSettings/Scale
350
227
  3
PageSettings/ShowPaperBorders
350
228
  3
UnitSettings/PaperUnit
350
229
  0
XRECORD
  5
1FD
330
1FA
100
AcDbXrecord
280
1
1000
White
  0
XRECORD
  5
1FE
330
1FA
100
AcDbXrecord
280
1
1000
FullColor
  0
XRECORD
  5
1FF
330
1FA
100
AcDbXrecord
280
1
290
1
  0
XRECORD
  5
200
330
1FA
100
AcDbXrecord
280
1
290
1
  0
XRECORD
  5
201
330
1FA
100
AcDbXrecord
280
1
290
1
  0
XRECORD
  5
202
330
1FA
100
AcDbXrecord
280
1
290
1
  0
XRECORD
  5
203
330
1FA
100
AcDbXrecord
280
1
1000
1
  0
XRECORD
  5
204
330
1FA
100
AcDbXrecord
280
1
1000
auto
  0
XRECORD
  5
205
330
1FA
100
AcDbXrecord
280
1
1000
auto
  0
XRECORD
  5
206
330
1FA
100
AcDbXrecord
280
1
1000
auto
  0
XRECORD
  5
207
330
1FA
100
AcDbXrecord
280
1
1000
1
  0
XRECORD
  5
208
330
1FA
100
AcDbXrecord
280
1
1000
auto
  0
XRECORD
  5
209
330
1FA
100
AcDbXrecord
280
1
1000
auto
  0
XRECORD
  5
20A
330
1FA
100
AcDbXrecord
280
1
1000
auto
  0
XRECORD
  5
20B
330
1FA
100
AcDbXrecord
280
1
290
0
  0
XRECORD
  5
20C
330
1FA
100
AcDbXrecord
280
1
290
0
  0
XRECORD
  5
20D
330
1FA
100
AcDbXrecord
280
1
290
0
  0
XRECORD
  5
20E
330
1FA
100
AcDbXrecord
280
1
290
0
  0
XRECORD
  5
20F
330
1FA
100
AcDbXrecord
280
1
 90
0
  0
XRECORD
  5
210
330
1FA
100
AcDbXrecord
280
1
 90
0
  0
XRECORD
  5
211
330
1FA
100
AcDbXrecord
280
1
 90
0
  0
XRECORD
  5
212
330
1FA
100
AcDbXrecord
280
1
 90
0
  0
XRECORD
  5
213
330
1FA
100
AcDbXrecord
280
1
1000
10
  0
XRECORD
  5
214
330
1FA
100
AcDbXrecord
280
1
1000
auto
  0
XRECORD
  5
215
330
1FA
100
AcDbXrecord
280
1
1000
auto
  0
XRECORD
  5
216
330
1FA
100
AcDbXrecord
280
1
1000
auto
  0
XRECORD
  5
217
330
1FA
100
AcDbXrecord
280
1
1000
10
  0
XRECORD
  5
218
330
1FA
100
AcDbXrecord
280
1
1000
auto
  0
XRECORD
  5
219
330
1FA
100
AcDbXrecord
280
1
1000
auto
  0
XRECORD
  5
21A
330
1FA
100
AcDbXrecord
280
1
1000
auto
  0
XRECORD
  5
21B
330
1FA
100
AcDbXrecord
280
1
 90
1
  0
XRECORD
  5
21C
330
1FA
100
AcDbXrecord
280
1
 40
10.0
  0
XRECORD
  5
21D
330
1FA
100
AcDbXrecord
280
1
 40
10.0
  0
XRECORD
  5
21E
330
1FA
100
AcDbXrecord
280
1
 40
10.0
  0
XRECORD
  5
21F
330
1FA
100
AcDbXrecord
280
1
 40
10.0
  0
XRECORD
  5
220
330
1FA
100
AcDbXrecord
280
1
290
0
  0
XRECORD
  5
221
330
1FA
100
AcDbXrecord
280
1
 90
1
  0
XRECORD
  5
222
330
1FA
100
AcDbXrecord
280
1
 40
-439.9680626454943422
  0
XRECORD
  5
223
330
1FA
100
AcDbXrecord
280
1
 40
-157.4195237647059002
  0
XRECORD
  5
224
330
1FA
100
AcDbXrecord
280
1
1000
Landscape
  0
XRECORD
  5
225
330
1FA
100
AcDbXrecord
280
1
 40
297.0
  0
XRECORD
  5
226
330
1FA
100
AcDbXrecord
280
1
 40
210.0
  0
XRECORD
  5
227
330
1FA
100
AcDbXrecord
280
1
1000
0.085
  0
XRECORD
  5
228
330
1FA
100
AcDbXrecord
280
1
290
1
  0
XRECORD
  5
229
330
1FA
100
AcDbXrecord
280
1
 90
4
  0
ENDSEC
  0
EOF
